G75*
%MOIN*%
%OFA0B0*%
%FSLAX25Y25*%
%IPPOS*%
%LPD*%
%AMOC8*
5,1,8,0,0,1.08239X$1,22.5*
%
%ADD10C,0.00000*%
%ADD11C,0.13780*%
%ADD12OC8,0.06000*%
%ADD13C,0.06000*%
%ADD14C,0.06496*%
%ADD15R,0.03937X0.04331*%
%ADD16R,0.04331X0.03937*%
%ADD17R,0.03150X0.03543*%
%ADD18R,0.01181X0.04724*%
D10*
X0001347Y0001000D02*
X0001347Y0366551D01*
X0370402Y0366551D01*
X0370402Y0001000D01*
X0001347Y0001000D01*
X0061386Y0012811D02*
X0061388Y0012980D01*
X0061394Y0013149D01*
X0061405Y0013318D01*
X0061419Y0013486D01*
X0061438Y0013654D01*
X0061461Y0013822D01*
X0061487Y0013989D01*
X0061518Y0014155D01*
X0061553Y0014321D01*
X0061592Y0014485D01*
X0061636Y0014649D01*
X0061683Y0014811D01*
X0061734Y0014972D01*
X0061789Y0015132D01*
X0061848Y0015291D01*
X0061910Y0015448D01*
X0061977Y0015603D01*
X0062048Y0015757D01*
X0062122Y0015909D01*
X0062200Y0016059D01*
X0062281Y0016207D01*
X0062366Y0016353D01*
X0062455Y0016497D01*
X0062547Y0016639D01*
X0062643Y0016778D01*
X0062742Y0016915D01*
X0062844Y0017050D01*
X0062950Y0017182D01*
X0063059Y0017311D01*
X0063171Y0017438D01*
X0063286Y0017562D01*
X0063404Y0017683D01*
X0063525Y0017801D01*
X0063649Y0017916D01*
X0063776Y0018028D01*
X0063905Y0018137D01*
X0064037Y0018243D01*
X0064172Y0018345D01*
X0064309Y0018444D01*
X0064448Y0018540D01*
X0064590Y0018632D01*
X0064734Y0018721D01*
X0064880Y0018806D01*
X0065028Y0018887D01*
X0065178Y0018965D01*
X0065330Y0019039D01*
X0065484Y0019110D01*
X0065639Y0019177D01*
X0065796Y0019239D01*
X0065955Y0019298D01*
X0066115Y0019353D01*
X0066276Y0019404D01*
X0066438Y0019451D01*
X0066602Y0019495D01*
X0066766Y0019534D01*
X0066932Y0019569D01*
X0067098Y0019600D01*
X0067265Y0019626D01*
X0067433Y0019649D01*
X0067601Y0019668D01*
X0067769Y0019682D01*
X0067938Y0019693D01*
X0068107Y0019699D01*
X0068276Y0019701D01*
X0068445Y0019699D01*
X0068614Y0019693D01*
X0068783Y0019682D01*
X0068951Y0019668D01*
X0069119Y0019649D01*
X0069287Y0019626D01*
X0069454Y0019600D01*
X0069620Y0019569D01*
X0069786Y0019534D01*
X0069950Y0019495D01*
X0070114Y0019451D01*
X0070276Y0019404D01*
X0070437Y0019353D01*
X0070597Y0019298D01*
X0070756Y0019239D01*
X0070913Y0019177D01*
X0071068Y0019110D01*
X0071222Y0019039D01*
X0071374Y0018965D01*
X0071524Y0018887D01*
X0071672Y0018806D01*
X0071818Y0018721D01*
X0071962Y0018632D01*
X0072104Y0018540D01*
X0072243Y0018444D01*
X0072380Y0018345D01*
X0072515Y0018243D01*
X0072647Y0018137D01*
X0072776Y0018028D01*
X0072903Y0017916D01*
X0073027Y0017801D01*
X0073148Y0017683D01*
X0073266Y0017562D01*
X0073381Y0017438D01*
X0073493Y0017311D01*
X0073602Y0017182D01*
X0073708Y0017050D01*
X0073810Y0016915D01*
X0073909Y0016778D01*
X0074005Y0016639D01*
X0074097Y0016497D01*
X0074186Y0016353D01*
X0074271Y0016207D01*
X0074352Y0016059D01*
X0074430Y0015909D01*
X0074504Y0015757D01*
X0074575Y0015603D01*
X0074642Y0015448D01*
X0074704Y0015291D01*
X0074763Y0015132D01*
X0074818Y0014972D01*
X0074869Y0014811D01*
X0074916Y0014649D01*
X0074960Y0014485D01*
X0074999Y0014321D01*
X0075034Y0014155D01*
X0075065Y0013989D01*
X0075091Y0013822D01*
X0075114Y0013654D01*
X0075133Y0013486D01*
X0075147Y0013318D01*
X0075158Y0013149D01*
X0075164Y0012980D01*
X0075166Y0012811D01*
X0075164Y0012642D01*
X0075158Y0012473D01*
X0075147Y0012304D01*
X0075133Y0012136D01*
X0075114Y0011968D01*
X0075091Y0011800D01*
X0075065Y0011633D01*
X0075034Y0011467D01*
X0074999Y0011301D01*
X0074960Y0011137D01*
X0074916Y0010973D01*
X0074869Y0010811D01*
X0074818Y0010650D01*
X0074763Y0010490D01*
X0074704Y0010331D01*
X0074642Y0010174D01*
X0074575Y0010019D01*
X0074504Y0009865D01*
X0074430Y0009713D01*
X0074352Y0009563D01*
X0074271Y0009415D01*
X0074186Y0009269D01*
X0074097Y0009125D01*
X0074005Y0008983D01*
X0073909Y0008844D01*
X0073810Y0008707D01*
X0073708Y0008572D01*
X0073602Y0008440D01*
X0073493Y0008311D01*
X0073381Y0008184D01*
X0073266Y0008060D01*
X0073148Y0007939D01*
X0073027Y0007821D01*
X0072903Y0007706D01*
X0072776Y0007594D01*
X0072647Y0007485D01*
X0072515Y0007379D01*
X0072380Y0007277D01*
X0072243Y0007178D01*
X0072104Y0007082D01*
X0071962Y0006990D01*
X0071818Y0006901D01*
X0071672Y0006816D01*
X0071524Y0006735D01*
X0071374Y0006657D01*
X0071222Y0006583D01*
X0071068Y0006512D01*
X0070913Y0006445D01*
X0070756Y0006383D01*
X0070597Y0006324D01*
X0070437Y0006269D01*
X0070276Y0006218D01*
X0070114Y0006171D01*
X0069950Y0006127D01*
X0069786Y0006088D01*
X0069620Y0006053D01*
X0069454Y0006022D01*
X0069287Y0005996D01*
X0069119Y0005973D01*
X0068951Y0005954D01*
X0068783Y0005940D01*
X0068614Y0005929D01*
X0068445Y0005923D01*
X0068276Y0005921D01*
X0068107Y0005923D01*
X0067938Y0005929D01*
X0067769Y0005940D01*
X0067601Y0005954D01*
X0067433Y0005973D01*
X0067265Y0005996D01*
X0067098Y0006022D01*
X0066932Y0006053D01*
X0066766Y0006088D01*
X0066602Y0006127D01*
X0066438Y0006171D01*
X0066276Y0006218D01*
X0066115Y0006269D01*
X0065955Y0006324D01*
X0065796Y0006383D01*
X0065639Y0006445D01*
X0065484Y0006512D01*
X0065330Y0006583D01*
X0065178Y0006657D01*
X0065028Y0006735D01*
X0064880Y0006816D01*
X0064734Y0006901D01*
X0064590Y0006990D01*
X0064448Y0007082D01*
X0064309Y0007178D01*
X0064172Y0007277D01*
X0064037Y0007379D01*
X0063905Y0007485D01*
X0063776Y0007594D01*
X0063649Y0007706D01*
X0063525Y0007821D01*
X0063404Y0007939D01*
X0063286Y0008060D01*
X0063171Y0008184D01*
X0063059Y0008311D01*
X0062950Y0008440D01*
X0062844Y0008572D01*
X0062742Y0008707D01*
X0062643Y0008844D01*
X0062547Y0008983D01*
X0062455Y0009125D01*
X0062366Y0009269D01*
X0062281Y0009415D01*
X0062200Y0009563D01*
X0062122Y0009713D01*
X0062048Y0009865D01*
X0061977Y0010019D01*
X0061910Y0010174D01*
X0061848Y0010331D01*
X0061789Y0010490D01*
X0061734Y0010650D01*
X0061683Y0010811D01*
X0061636Y0010973D01*
X0061592Y0011137D01*
X0061553Y0011301D01*
X0061518Y0011467D01*
X0061487Y0011633D01*
X0061461Y0011800D01*
X0061438Y0011968D01*
X0061419Y0012136D01*
X0061405Y0012304D01*
X0061394Y0012473D01*
X0061388Y0012642D01*
X0061386Y0012811D01*
X0342882Y0012811D02*
X0342884Y0012980D01*
X0342890Y0013149D01*
X0342901Y0013318D01*
X0342915Y0013486D01*
X0342934Y0013654D01*
X0342957Y0013822D01*
X0342983Y0013989D01*
X0343014Y0014155D01*
X0343049Y0014321D01*
X0343088Y0014485D01*
X0343132Y0014649D01*
X0343179Y0014811D01*
X0343230Y0014972D01*
X0343285Y0015132D01*
X0343344Y0015291D01*
X0343406Y0015448D01*
X0343473Y0015603D01*
X0343544Y0015757D01*
X0343618Y0015909D01*
X0343696Y0016059D01*
X0343777Y0016207D01*
X0343862Y0016353D01*
X0343951Y0016497D01*
X0344043Y0016639D01*
X0344139Y0016778D01*
X0344238Y0016915D01*
X0344340Y0017050D01*
X0344446Y0017182D01*
X0344555Y0017311D01*
X0344667Y0017438D01*
X0344782Y0017562D01*
X0344900Y0017683D01*
X0345021Y0017801D01*
X0345145Y0017916D01*
X0345272Y0018028D01*
X0345401Y0018137D01*
X0345533Y0018243D01*
X0345668Y0018345D01*
X0345805Y0018444D01*
X0345944Y0018540D01*
X0346086Y0018632D01*
X0346230Y0018721D01*
X0346376Y0018806D01*
X0346524Y0018887D01*
X0346674Y0018965D01*
X0346826Y0019039D01*
X0346980Y0019110D01*
X0347135Y0019177D01*
X0347292Y0019239D01*
X0347451Y0019298D01*
X0347611Y0019353D01*
X0347772Y0019404D01*
X0347934Y0019451D01*
X0348098Y0019495D01*
X0348262Y0019534D01*
X0348428Y0019569D01*
X0348594Y0019600D01*
X0348761Y0019626D01*
X0348929Y0019649D01*
X0349097Y0019668D01*
X0349265Y0019682D01*
X0349434Y0019693D01*
X0349603Y0019699D01*
X0349772Y0019701D01*
X0349941Y0019699D01*
X0350110Y0019693D01*
X0350279Y0019682D01*
X0350447Y0019668D01*
X0350615Y0019649D01*
X0350783Y0019626D01*
X0350950Y0019600D01*
X0351116Y0019569D01*
X0351282Y0019534D01*
X0351446Y0019495D01*
X0351610Y0019451D01*
X0351772Y0019404D01*
X0351933Y0019353D01*
X0352093Y0019298D01*
X0352252Y0019239D01*
X0352409Y0019177D01*
X0352564Y0019110D01*
X0352718Y0019039D01*
X0352870Y0018965D01*
X0353020Y0018887D01*
X0353168Y0018806D01*
X0353314Y0018721D01*
X0353458Y0018632D01*
X0353600Y0018540D01*
X0353739Y0018444D01*
X0353876Y0018345D01*
X0354011Y0018243D01*
X0354143Y0018137D01*
X0354272Y0018028D01*
X0354399Y0017916D01*
X0354523Y0017801D01*
X0354644Y0017683D01*
X0354762Y0017562D01*
X0354877Y0017438D01*
X0354989Y0017311D01*
X0355098Y0017182D01*
X0355204Y0017050D01*
X0355306Y0016915D01*
X0355405Y0016778D01*
X0355501Y0016639D01*
X0355593Y0016497D01*
X0355682Y0016353D01*
X0355767Y0016207D01*
X0355848Y0016059D01*
X0355926Y0015909D01*
X0356000Y0015757D01*
X0356071Y0015603D01*
X0356138Y0015448D01*
X0356200Y0015291D01*
X0356259Y0015132D01*
X0356314Y0014972D01*
X0356365Y0014811D01*
X0356412Y0014649D01*
X0356456Y0014485D01*
X0356495Y0014321D01*
X0356530Y0014155D01*
X0356561Y0013989D01*
X0356587Y0013822D01*
X0356610Y0013654D01*
X0356629Y0013486D01*
X0356643Y0013318D01*
X0356654Y0013149D01*
X0356660Y0012980D01*
X0356662Y0012811D01*
X0356660Y0012642D01*
X0356654Y0012473D01*
X0356643Y0012304D01*
X0356629Y0012136D01*
X0356610Y0011968D01*
X0356587Y0011800D01*
X0356561Y0011633D01*
X0356530Y0011467D01*
X0356495Y0011301D01*
X0356456Y0011137D01*
X0356412Y0010973D01*
X0356365Y0010811D01*
X0356314Y0010650D01*
X0356259Y0010490D01*
X0356200Y0010331D01*
X0356138Y0010174D01*
X0356071Y0010019D01*
X0356000Y0009865D01*
X0355926Y0009713D01*
X0355848Y0009563D01*
X0355767Y0009415D01*
X0355682Y0009269D01*
X0355593Y0009125D01*
X0355501Y0008983D01*
X0355405Y0008844D01*
X0355306Y0008707D01*
X0355204Y0008572D01*
X0355098Y0008440D01*
X0354989Y0008311D01*
X0354877Y0008184D01*
X0354762Y0008060D01*
X0354644Y0007939D01*
X0354523Y0007821D01*
X0354399Y0007706D01*
X0354272Y0007594D01*
X0354143Y0007485D01*
X0354011Y0007379D01*
X0353876Y0007277D01*
X0353739Y0007178D01*
X0353600Y0007082D01*
X0353458Y0006990D01*
X0353314Y0006901D01*
X0353168Y0006816D01*
X0353020Y0006735D01*
X0352870Y0006657D01*
X0352718Y0006583D01*
X0352564Y0006512D01*
X0352409Y0006445D01*
X0352252Y0006383D01*
X0352093Y0006324D01*
X0351933Y0006269D01*
X0351772Y0006218D01*
X0351610Y0006171D01*
X0351446Y0006127D01*
X0351282Y0006088D01*
X0351116Y0006053D01*
X0350950Y0006022D01*
X0350783Y0005996D01*
X0350615Y0005973D01*
X0350447Y0005954D01*
X0350279Y0005940D01*
X0350110Y0005929D01*
X0349941Y0005923D01*
X0349772Y0005921D01*
X0349603Y0005923D01*
X0349434Y0005929D01*
X0349265Y0005940D01*
X0349097Y0005954D01*
X0348929Y0005973D01*
X0348761Y0005996D01*
X0348594Y0006022D01*
X0348428Y0006053D01*
X0348262Y0006088D01*
X0348098Y0006127D01*
X0347934Y0006171D01*
X0347772Y0006218D01*
X0347611Y0006269D01*
X0347451Y0006324D01*
X0347292Y0006383D01*
X0347135Y0006445D01*
X0346980Y0006512D01*
X0346826Y0006583D01*
X0346674Y0006657D01*
X0346524Y0006735D01*
X0346376Y0006816D01*
X0346230Y0006901D01*
X0346086Y0006990D01*
X0345944Y0007082D01*
X0345805Y0007178D01*
X0345668Y0007277D01*
X0345533Y0007379D01*
X0345401Y0007485D01*
X0345272Y0007594D01*
X0345145Y0007706D01*
X0345021Y0007821D01*
X0344900Y0007939D01*
X0344782Y0008060D01*
X0344667Y0008184D01*
X0344555Y0008311D01*
X0344446Y0008440D01*
X0344340Y0008572D01*
X0344238Y0008707D01*
X0344139Y0008844D01*
X0344043Y0008983D01*
X0343951Y0009125D01*
X0343862Y0009269D01*
X0343777Y0009415D01*
X0343696Y0009563D01*
X0343618Y0009713D01*
X0343544Y0009865D01*
X0343473Y0010019D01*
X0343406Y0010174D01*
X0343344Y0010331D01*
X0343285Y0010490D01*
X0343230Y0010650D01*
X0343179Y0010811D01*
X0343132Y0010973D01*
X0343088Y0011137D01*
X0343049Y0011301D01*
X0343014Y0011467D01*
X0342983Y0011633D01*
X0342957Y0011800D01*
X0342934Y0011968D01*
X0342915Y0012136D01*
X0342901Y0012304D01*
X0342890Y0012473D01*
X0342884Y0012642D01*
X0342882Y0012811D01*
X0210993Y0355331D02*
X0210995Y0355500D01*
X0211001Y0355669D01*
X0211012Y0355838D01*
X0211026Y0356006D01*
X0211045Y0356174D01*
X0211068Y0356342D01*
X0211094Y0356509D01*
X0211125Y0356675D01*
X0211160Y0356841D01*
X0211199Y0357005D01*
X0211243Y0357169D01*
X0211290Y0357331D01*
X0211341Y0357492D01*
X0211396Y0357652D01*
X0211455Y0357811D01*
X0211517Y0357968D01*
X0211584Y0358123D01*
X0211655Y0358277D01*
X0211729Y0358429D01*
X0211807Y0358579D01*
X0211888Y0358727D01*
X0211973Y0358873D01*
X0212062Y0359017D01*
X0212154Y0359159D01*
X0212250Y0359298D01*
X0212349Y0359435D01*
X0212451Y0359570D01*
X0212557Y0359702D01*
X0212666Y0359831D01*
X0212778Y0359958D01*
X0212893Y0360082D01*
X0213011Y0360203D01*
X0213132Y0360321D01*
X0213256Y0360436D01*
X0213383Y0360548D01*
X0213512Y0360657D01*
X0213644Y0360763D01*
X0213779Y0360865D01*
X0213916Y0360964D01*
X0214055Y0361060D01*
X0214197Y0361152D01*
X0214341Y0361241D01*
X0214487Y0361326D01*
X0214635Y0361407D01*
X0214785Y0361485D01*
X0214937Y0361559D01*
X0215091Y0361630D01*
X0215246Y0361697D01*
X0215403Y0361759D01*
X0215562Y0361818D01*
X0215722Y0361873D01*
X0215883Y0361924D01*
X0216045Y0361971D01*
X0216209Y0362015D01*
X0216373Y0362054D01*
X0216539Y0362089D01*
X0216705Y0362120D01*
X0216872Y0362146D01*
X0217040Y0362169D01*
X0217208Y0362188D01*
X0217376Y0362202D01*
X0217545Y0362213D01*
X0217714Y0362219D01*
X0217883Y0362221D01*
X0218052Y0362219D01*
X0218221Y0362213D01*
X0218390Y0362202D01*
X0218558Y0362188D01*
X0218726Y0362169D01*
X0218894Y0362146D01*
X0219061Y0362120D01*
X0219227Y0362089D01*
X0219393Y0362054D01*
X0219557Y0362015D01*
X0219721Y0361971D01*
X0219883Y0361924D01*
X0220044Y0361873D01*
X0220204Y0361818D01*
X0220363Y0361759D01*
X0220520Y0361697D01*
X0220675Y0361630D01*
X0220829Y0361559D01*
X0220981Y0361485D01*
X0221131Y0361407D01*
X0221279Y0361326D01*
X0221425Y0361241D01*
X0221569Y0361152D01*
X0221711Y0361060D01*
X0221850Y0360964D01*
X0221987Y0360865D01*
X0222122Y0360763D01*
X0222254Y0360657D01*
X0222383Y0360548D01*
X0222510Y0360436D01*
X0222634Y0360321D01*
X0222755Y0360203D01*
X0222873Y0360082D01*
X0222988Y0359958D01*
X0223100Y0359831D01*
X0223209Y0359702D01*
X0223315Y0359570D01*
X0223417Y0359435D01*
X0223516Y0359298D01*
X0223612Y0359159D01*
X0223704Y0359017D01*
X0223793Y0358873D01*
X0223878Y0358727D01*
X0223959Y0358579D01*
X0224037Y0358429D01*
X0224111Y0358277D01*
X0224182Y0358123D01*
X0224249Y0357968D01*
X0224311Y0357811D01*
X0224370Y0357652D01*
X0224425Y0357492D01*
X0224476Y0357331D01*
X0224523Y0357169D01*
X0224567Y0357005D01*
X0224606Y0356841D01*
X0224641Y0356675D01*
X0224672Y0356509D01*
X0224698Y0356342D01*
X0224721Y0356174D01*
X0224740Y0356006D01*
X0224754Y0355838D01*
X0224765Y0355669D01*
X0224771Y0355500D01*
X0224773Y0355331D01*
X0224771Y0355162D01*
X0224765Y0354993D01*
X0224754Y0354824D01*
X0224740Y0354656D01*
X0224721Y0354488D01*
X0224698Y0354320D01*
X0224672Y0354153D01*
X0224641Y0353987D01*
X0224606Y0353821D01*
X0224567Y0353657D01*
X0224523Y0353493D01*
X0224476Y0353331D01*
X0224425Y0353170D01*
X0224370Y0353010D01*
X0224311Y0352851D01*
X0224249Y0352694D01*
X0224182Y0352539D01*
X0224111Y0352385D01*
X0224037Y0352233D01*
X0223959Y0352083D01*
X0223878Y0351935D01*
X0223793Y0351789D01*
X0223704Y0351645D01*
X0223612Y0351503D01*
X0223516Y0351364D01*
X0223417Y0351227D01*
X0223315Y0351092D01*
X0223209Y0350960D01*
X0223100Y0350831D01*
X0222988Y0350704D01*
X0222873Y0350580D01*
X0222755Y0350459D01*
X0222634Y0350341D01*
X0222510Y0350226D01*
X0222383Y0350114D01*
X0222254Y0350005D01*
X0222122Y0349899D01*
X0221987Y0349797D01*
X0221850Y0349698D01*
X0221711Y0349602D01*
X0221569Y0349510D01*
X0221425Y0349421D01*
X0221279Y0349336D01*
X0221131Y0349255D01*
X0220981Y0349177D01*
X0220829Y0349103D01*
X0220675Y0349032D01*
X0220520Y0348965D01*
X0220363Y0348903D01*
X0220204Y0348844D01*
X0220044Y0348789D01*
X0219883Y0348738D01*
X0219721Y0348691D01*
X0219557Y0348647D01*
X0219393Y0348608D01*
X0219227Y0348573D01*
X0219061Y0348542D01*
X0218894Y0348516D01*
X0218726Y0348493D01*
X0218558Y0348474D01*
X0218390Y0348460D01*
X0218221Y0348449D01*
X0218052Y0348443D01*
X0217883Y0348441D01*
X0217714Y0348443D01*
X0217545Y0348449D01*
X0217376Y0348460D01*
X0217208Y0348474D01*
X0217040Y0348493D01*
X0216872Y0348516D01*
X0216705Y0348542D01*
X0216539Y0348573D01*
X0216373Y0348608D01*
X0216209Y0348647D01*
X0216045Y0348691D01*
X0215883Y0348738D01*
X0215722Y0348789D01*
X0215562Y0348844D01*
X0215403Y0348903D01*
X0215246Y0348965D01*
X0215091Y0349032D01*
X0214937Y0349103D01*
X0214785Y0349177D01*
X0214635Y0349255D01*
X0214487Y0349336D01*
X0214341Y0349421D01*
X0214197Y0349510D01*
X0214055Y0349602D01*
X0213916Y0349698D01*
X0213779Y0349797D01*
X0213644Y0349899D01*
X0213512Y0350005D01*
X0213383Y0350114D01*
X0213256Y0350226D01*
X0213132Y0350341D01*
X0213011Y0350459D01*
X0212893Y0350580D01*
X0212778Y0350704D01*
X0212666Y0350831D01*
X0212557Y0350960D01*
X0212451Y0351092D01*
X0212349Y0351227D01*
X0212250Y0351364D01*
X0212154Y0351503D01*
X0212062Y0351645D01*
X0211973Y0351789D01*
X0211888Y0351935D01*
X0211807Y0352083D01*
X0211729Y0352233D01*
X0211655Y0352385D01*
X0211584Y0352539D01*
X0211517Y0352694D01*
X0211455Y0352851D01*
X0211396Y0353010D01*
X0211341Y0353170D01*
X0211290Y0353331D01*
X0211243Y0353493D01*
X0211199Y0353657D01*
X0211160Y0353821D01*
X0211125Y0353987D01*
X0211094Y0354153D01*
X0211068Y0354320D01*
X0211045Y0354488D01*
X0211026Y0354656D01*
X0211012Y0354824D01*
X0211001Y0354993D01*
X0210995Y0355162D01*
X0210993Y0355331D01*
X0025953Y0355331D02*
X0025955Y0355500D01*
X0025961Y0355669D01*
X0025972Y0355838D01*
X0025986Y0356006D01*
X0026005Y0356174D01*
X0026028Y0356342D01*
X0026054Y0356509D01*
X0026085Y0356675D01*
X0026120Y0356841D01*
X0026159Y0357005D01*
X0026203Y0357169D01*
X0026250Y0357331D01*
X0026301Y0357492D01*
X0026356Y0357652D01*
X0026415Y0357811D01*
X0026477Y0357968D01*
X0026544Y0358123D01*
X0026615Y0358277D01*
X0026689Y0358429D01*
X0026767Y0358579D01*
X0026848Y0358727D01*
X0026933Y0358873D01*
X0027022Y0359017D01*
X0027114Y0359159D01*
X0027210Y0359298D01*
X0027309Y0359435D01*
X0027411Y0359570D01*
X0027517Y0359702D01*
X0027626Y0359831D01*
X0027738Y0359958D01*
X0027853Y0360082D01*
X0027971Y0360203D01*
X0028092Y0360321D01*
X0028216Y0360436D01*
X0028343Y0360548D01*
X0028472Y0360657D01*
X0028604Y0360763D01*
X0028739Y0360865D01*
X0028876Y0360964D01*
X0029015Y0361060D01*
X0029157Y0361152D01*
X0029301Y0361241D01*
X0029447Y0361326D01*
X0029595Y0361407D01*
X0029745Y0361485D01*
X0029897Y0361559D01*
X0030051Y0361630D01*
X0030206Y0361697D01*
X0030363Y0361759D01*
X0030522Y0361818D01*
X0030682Y0361873D01*
X0030843Y0361924D01*
X0031005Y0361971D01*
X0031169Y0362015D01*
X0031333Y0362054D01*
X0031499Y0362089D01*
X0031665Y0362120D01*
X0031832Y0362146D01*
X0032000Y0362169D01*
X0032168Y0362188D01*
X0032336Y0362202D01*
X0032505Y0362213D01*
X0032674Y0362219D01*
X0032843Y0362221D01*
X0033012Y0362219D01*
X0033181Y0362213D01*
X0033350Y0362202D01*
X0033518Y0362188D01*
X0033686Y0362169D01*
X0033854Y0362146D01*
X0034021Y0362120D01*
X0034187Y0362089D01*
X0034353Y0362054D01*
X0034517Y0362015D01*
X0034681Y0361971D01*
X0034843Y0361924D01*
X0035004Y0361873D01*
X0035164Y0361818D01*
X0035323Y0361759D01*
X0035480Y0361697D01*
X0035635Y0361630D01*
X0035789Y0361559D01*
X0035941Y0361485D01*
X0036091Y0361407D01*
X0036239Y0361326D01*
X0036385Y0361241D01*
X0036529Y0361152D01*
X0036671Y0361060D01*
X0036810Y0360964D01*
X0036947Y0360865D01*
X0037082Y0360763D01*
X0037214Y0360657D01*
X0037343Y0360548D01*
X0037470Y0360436D01*
X0037594Y0360321D01*
X0037715Y0360203D01*
X0037833Y0360082D01*
X0037948Y0359958D01*
X0038060Y0359831D01*
X0038169Y0359702D01*
X0038275Y0359570D01*
X0038377Y0359435D01*
X0038476Y0359298D01*
X0038572Y0359159D01*
X0038664Y0359017D01*
X0038753Y0358873D01*
X0038838Y0358727D01*
X0038919Y0358579D01*
X0038997Y0358429D01*
X0039071Y0358277D01*
X0039142Y0358123D01*
X0039209Y0357968D01*
X0039271Y0357811D01*
X0039330Y0357652D01*
X0039385Y0357492D01*
X0039436Y0357331D01*
X0039483Y0357169D01*
X0039527Y0357005D01*
X0039566Y0356841D01*
X0039601Y0356675D01*
X0039632Y0356509D01*
X0039658Y0356342D01*
X0039681Y0356174D01*
X0039700Y0356006D01*
X0039714Y0355838D01*
X0039725Y0355669D01*
X0039731Y0355500D01*
X0039733Y0355331D01*
X0039731Y0355162D01*
X0039725Y0354993D01*
X0039714Y0354824D01*
X0039700Y0354656D01*
X0039681Y0354488D01*
X0039658Y0354320D01*
X0039632Y0354153D01*
X0039601Y0353987D01*
X0039566Y0353821D01*
X0039527Y0353657D01*
X0039483Y0353493D01*
X0039436Y0353331D01*
X0039385Y0353170D01*
X0039330Y0353010D01*
X0039271Y0352851D01*
X0039209Y0352694D01*
X0039142Y0352539D01*
X0039071Y0352385D01*
X0038997Y0352233D01*
X0038919Y0352083D01*
X0038838Y0351935D01*
X0038753Y0351789D01*
X0038664Y0351645D01*
X0038572Y0351503D01*
X0038476Y0351364D01*
X0038377Y0351227D01*
X0038275Y0351092D01*
X0038169Y0350960D01*
X0038060Y0350831D01*
X0037948Y0350704D01*
X0037833Y0350580D01*
X0037715Y0350459D01*
X0037594Y0350341D01*
X0037470Y0350226D01*
X0037343Y0350114D01*
X0037214Y0350005D01*
X0037082Y0349899D01*
X0036947Y0349797D01*
X0036810Y0349698D01*
X0036671Y0349602D01*
X0036529Y0349510D01*
X0036385Y0349421D01*
X0036239Y0349336D01*
X0036091Y0349255D01*
X0035941Y0349177D01*
X0035789Y0349103D01*
X0035635Y0349032D01*
X0035480Y0348965D01*
X0035323Y0348903D01*
X0035164Y0348844D01*
X0035004Y0348789D01*
X0034843Y0348738D01*
X0034681Y0348691D01*
X0034517Y0348647D01*
X0034353Y0348608D01*
X0034187Y0348573D01*
X0034021Y0348542D01*
X0033854Y0348516D01*
X0033686Y0348493D01*
X0033518Y0348474D01*
X0033350Y0348460D01*
X0033181Y0348449D01*
X0033012Y0348443D01*
X0032843Y0348441D01*
X0032674Y0348443D01*
X0032505Y0348449D01*
X0032336Y0348460D01*
X0032168Y0348474D01*
X0032000Y0348493D01*
X0031832Y0348516D01*
X0031665Y0348542D01*
X0031499Y0348573D01*
X0031333Y0348608D01*
X0031169Y0348647D01*
X0031005Y0348691D01*
X0030843Y0348738D01*
X0030682Y0348789D01*
X0030522Y0348844D01*
X0030363Y0348903D01*
X0030206Y0348965D01*
X0030051Y0349032D01*
X0029897Y0349103D01*
X0029745Y0349177D01*
X0029595Y0349255D01*
X0029447Y0349336D01*
X0029301Y0349421D01*
X0029157Y0349510D01*
X0029015Y0349602D01*
X0028876Y0349698D01*
X0028739Y0349797D01*
X0028604Y0349899D01*
X0028472Y0350005D01*
X0028343Y0350114D01*
X0028216Y0350226D01*
X0028092Y0350341D01*
X0027971Y0350459D01*
X0027853Y0350580D01*
X0027738Y0350704D01*
X0027626Y0350831D01*
X0027517Y0350960D01*
X0027411Y0351092D01*
X0027309Y0351227D01*
X0027210Y0351364D01*
X0027114Y0351503D01*
X0027022Y0351645D01*
X0026933Y0351789D01*
X0026848Y0351935D01*
X0026767Y0352083D01*
X0026689Y0352233D01*
X0026615Y0352385D01*
X0026544Y0352539D01*
X0026477Y0352694D01*
X0026415Y0352851D01*
X0026356Y0353010D01*
X0026301Y0353170D01*
X0026250Y0353331D01*
X0026203Y0353493D01*
X0026159Y0353657D01*
X0026120Y0353821D01*
X0026085Y0353987D01*
X0026054Y0354153D01*
X0026028Y0354320D01*
X0026005Y0354488D01*
X0025986Y0354656D01*
X0025972Y0354824D01*
X0025961Y0354993D01*
X0025955Y0355162D01*
X0025953Y0355331D01*
D11*
X0032843Y0355331D03*
X0217883Y0355331D03*
X0349772Y0012811D03*
X0068276Y0012811D03*
D12*
X0072469Y0046591D03*
X0072469Y0056591D03*
X0062469Y0056591D03*
X0052469Y0056591D03*
X0052469Y0046591D03*
X0062469Y0046591D03*
X0082469Y0046591D03*
X0092469Y0046591D03*
X0092469Y0056591D03*
X0082469Y0056591D03*
X0082292Y0071827D03*
X0082292Y0081945D03*
X0082292Y0102181D03*
X0082292Y0112299D03*
X0102528Y0112299D03*
X0102528Y0102181D03*
X0102528Y0081945D03*
X0102528Y0071827D03*
X0102469Y0056591D03*
X0112469Y0056591D03*
X0122469Y0056591D03*
X0132469Y0056591D03*
X0142469Y0056591D03*
X0142469Y0046591D03*
X0132469Y0046591D03*
X0122469Y0046591D03*
X0112469Y0046591D03*
X0102469Y0046591D03*
X0122764Y0071827D03*
X0122764Y0081945D03*
X0122764Y0102181D03*
X0122764Y0112299D03*
X0143001Y0112299D03*
X0143001Y0102181D03*
X0143001Y0081945D03*
X0143001Y0071827D03*
X0173355Y0071827D03*
X0173355Y0081945D03*
X0173355Y0102181D03*
X0173355Y0112299D03*
X0193591Y0112299D03*
X0193591Y0102181D03*
X0193591Y0081945D03*
X0193591Y0071827D03*
X0193827Y0056591D03*
X0203827Y0056591D03*
X0203827Y0046591D03*
X0193827Y0046591D03*
X0183827Y0046591D03*
X0173827Y0046591D03*
X0173827Y0056591D03*
X0183827Y0056591D03*
X0213827Y0056591D03*
X0213827Y0046591D03*
X0223827Y0046591D03*
X0233827Y0046591D03*
X0233827Y0056591D03*
X0223827Y0056591D03*
X0213827Y0071827D03*
X0213827Y0081945D03*
X0213827Y0102181D03*
X0213827Y0112299D03*
X0213827Y0132535D03*
X0213827Y0142654D03*
X0193591Y0142654D03*
X0193591Y0132535D03*
X0193591Y0162890D03*
X0193591Y0173008D03*
X0213827Y0173008D03*
X0213827Y0162890D03*
X0234064Y0162890D03*
X0234064Y0173008D03*
X0254300Y0173008D03*
X0254300Y0162890D03*
X0254300Y0142654D03*
X0254300Y0132535D03*
X0234064Y0132535D03*
X0234064Y0142654D03*
X0234064Y0112299D03*
X0234064Y0102181D03*
X0254300Y0102181D03*
X0254300Y0112299D03*
X0254300Y0081945D03*
X0254300Y0071827D03*
X0253827Y0056591D03*
X0243827Y0056591D03*
X0243827Y0046591D03*
X0253827Y0046591D03*
X0234064Y0071827D03*
X0234064Y0081945D03*
X0284654Y0081945D03*
X0284654Y0071827D03*
X0285068Y0056591D03*
X0295068Y0056591D03*
X0305068Y0056591D03*
X0315068Y0056591D03*
X0325068Y0056591D03*
X0335068Y0056591D03*
X0345068Y0056591D03*
X0355068Y0056591D03*
X0355068Y0046591D03*
X0345068Y0046591D03*
X0335068Y0046591D03*
X0325068Y0046591D03*
X0315068Y0046591D03*
X0305068Y0046591D03*
X0295068Y0046591D03*
X0285068Y0046591D03*
X0304890Y0071827D03*
X0304890Y0081945D03*
X0304890Y0102181D03*
X0304890Y0112299D03*
X0325127Y0112299D03*
X0325127Y0102181D03*
X0345363Y0102181D03*
X0345363Y0112299D03*
X0345363Y0132535D03*
X0345363Y0142654D03*
X0325127Y0142654D03*
X0325127Y0132535D03*
X0304890Y0132535D03*
X0304890Y0142654D03*
X0284654Y0142654D03*
X0284654Y0132535D03*
X0284654Y0112299D03*
X0284654Y0102181D03*
X0325127Y0081945D03*
X0325127Y0071827D03*
X0345363Y0071827D03*
X0345363Y0081945D03*
X0345363Y0162890D03*
X0345363Y0173008D03*
X0325127Y0173008D03*
X0325127Y0162890D03*
X0304890Y0162890D03*
X0304890Y0173008D03*
X0284654Y0173008D03*
X0284654Y0162890D03*
X0274536Y0209248D03*
X0264418Y0209248D03*
X0264418Y0219248D03*
X0274536Y0219248D03*
X0274536Y0229248D03*
X0264418Y0229248D03*
X0264418Y0239248D03*
X0264418Y0249248D03*
X0274536Y0249248D03*
X0274536Y0239248D03*
X0274536Y0259248D03*
X0264418Y0259248D03*
X0264418Y0269248D03*
X0264418Y0279248D03*
X0274536Y0279248D03*
X0274536Y0269248D03*
X0274536Y0289248D03*
X0264418Y0289248D03*
X0264418Y0299248D03*
X0274536Y0299248D03*
X0274536Y0309248D03*
X0274536Y0319248D03*
X0264418Y0319248D03*
X0264418Y0309248D03*
X0254300Y0309248D03*
X0254300Y0319248D03*
X0254300Y0329248D03*
X0254300Y0339248D03*
X0254300Y0349248D03*
X0264418Y0349248D03*
X0274536Y0349248D03*
X0274536Y0339248D03*
X0264418Y0339248D03*
X0264418Y0329248D03*
X0274536Y0329248D03*
X0254300Y0299248D03*
X0254300Y0289248D03*
X0254300Y0279248D03*
X0254300Y0269248D03*
X0254300Y0259248D03*
X0254300Y0249248D03*
X0254300Y0239248D03*
X0254300Y0229248D03*
X0254300Y0219248D03*
X0254300Y0209248D03*
X0193473Y0223598D03*
X0183473Y0223598D03*
X0173473Y0223598D03*
X0173473Y0233717D03*
X0183473Y0233717D03*
X0193473Y0233717D03*
X0193473Y0243835D03*
X0183473Y0243835D03*
X0173473Y0243835D03*
X0173473Y0253953D03*
X0173473Y0264071D03*
X0183473Y0264071D03*
X0183473Y0253953D03*
X0193473Y0253953D03*
X0193473Y0264071D03*
X0193473Y0274189D03*
X0183473Y0274189D03*
X0173473Y0274189D03*
X0173473Y0284307D03*
X0183473Y0284307D03*
X0193473Y0284307D03*
X0193473Y0294425D03*
X0193473Y0304543D03*
X0183473Y0304543D03*
X0183473Y0294425D03*
X0173473Y0294425D03*
X0173473Y0304543D03*
X0173178Y0314598D03*
X0183178Y0314598D03*
X0193178Y0314598D03*
X0163178Y0314807D03*
X0153178Y0314807D03*
X0143178Y0314807D03*
X0143119Y0304543D03*
X0143119Y0294425D03*
X0153119Y0294425D03*
X0163119Y0294425D03*
X0163119Y0304543D03*
X0153119Y0304543D03*
X0153119Y0284307D03*
X0163119Y0284307D03*
X0163119Y0274189D03*
X0153119Y0274189D03*
X0143119Y0274189D03*
X0143119Y0284307D03*
X0132764Y0284307D03*
X0122764Y0284307D03*
X0112764Y0284307D03*
X0112764Y0274189D03*
X0122764Y0274189D03*
X0132764Y0274189D03*
X0132764Y0264071D03*
X0122764Y0264071D03*
X0122764Y0253953D03*
X0132764Y0253953D03*
X0132764Y0243835D03*
X0122764Y0243835D03*
X0112764Y0243835D03*
X0112764Y0253953D03*
X0112764Y0264071D03*
X0102410Y0264071D03*
X0102410Y0253953D03*
X0092410Y0253953D03*
X0082410Y0253953D03*
X0082410Y0264071D03*
X0092410Y0264071D03*
X0092410Y0274189D03*
X0082410Y0274189D03*
X0082410Y0284307D03*
X0092410Y0284307D03*
X0102410Y0284307D03*
X0102410Y0274189D03*
X0102410Y0294425D03*
X0102410Y0304543D03*
X0092410Y0304543D03*
X0082410Y0304543D03*
X0082410Y0294425D03*
X0092410Y0294425D03*
X0092410Y0314661D03*
X0082410Y0314661D03*
X0072056Y0314661D03*
X0062056Y0314661D03*
X0052056Y0314661D03*
X0052056Y0304543D03*
X0062056Y0304543D03*
X0062056Y0294425D03*
X0052056Y0294425D03*
X0052056Y0284307D03*
X0062056Y0284307D03*
X0072056Y0284307D03*
X0072056Y0274189D03*
X0062056Y0274189D03*
X0052056Y0274189D03*
X0052056Y0264071D03*
X0062056Y0264071D03*
X0062056Y0253953D03*
X0052056Y0253953D03*
X0052056Y0243835D03*
X0062056Y0243835D03*
X0072056Y0243835D03*
X0072056Y0253953D03*
X0072056Y0264071D03*
X0082410Y0243835D03*
X0092410Y0243835D03*
X0102410Y0243835D03*
X0102410Y0233717D03*
X0092410Y0233717D03*
X0082410Y0233717D03*
X0082410Y0223598D03*
X0092410Y0223598D03*
X0102410Y0223598D03*
X0112764Y0223598D03*
X0122764Y0223598D03*
X0132764Y0223598D03*
X0132764Y0233717D03*
X0122764Y0233717D03*
X0112764Y0233717D03*
X0143119Y0233717D03*
X0153119Y0233717D03*
X0163119Y0233717D03*
X0163119Y0243835D03*
X0153119Y0243835D03*
X0143119Y0243835D03*
X0143119Y0253953D03*
X0143119Y0264071D03*
X0153119Y0264071D03*
X0163119Y0264071D03*
X0163119Y0253953D03*
X0153119Y0253953D03*
X0153119Y0223598D03*
X0163119Y0223598D03*
X0143119Y0223598D03*
X0143001Y0173008D03*
X0143001Y0162890D03*
X0122764Y0162890D03*
X0122764Y0173008D03*
X0102528Y0173008D03*
X0102528Y0162890D03*
X0082292Y0162890D03*
X0082292Y0173008D03*
X0062056Y0173008D03*
X0062056Y0162890D03*
X0062056Y0142654D03*
X0062056Y0132535D03*
X0062056Y0112299D03*
X0062056Y0102181D03*
X0062056Y0081945D03*
X0062056Y0071827D03*
X0082292Y0132535D03*
X0082292Y0142654D03*
X0102528Y0142654D03*
X0102528Y0132535D03*
X0122764Y0132535D03*
X0122764Y0142654D03*
X0143001Y0142654D03*
X0143001Y0132535D03*
X0072056Y0223598D03*
X0062056Y0223598D03*
X0052056Y0223598D03*
X0052056Y0233717D03*
X0062056Y0233717D03*
X0072056Y0233717D03*
X0072056Y0294425D03*
X0072056Y0304543D03*
X0102410Y0314661D03*
X0112764Y0314661D03*
X0122764Y0314661D03*
X0132764Y0314661D03*
X0132764Y0304543D03*
X0122764Y0304543D03*
X0122764Y0294425D03*
X0132764Y0294425D03*
X0112764Y0294425D03*
X0112764Y0304543D03*
X0335245Y0309248D03*
X0335245Y0319248D03*
X0345363Y0319248D03*
X0345363Y0309248D03*
X0345363Y0299248D03*
X0335245Y0299248D03*
X0335245Y0289248D03*
X0345363Y0289248D03*
X0345363Y0279248D03*
X0345363Y0269248D03*
X0335245Y0269248D03*
X0335245Y0279248D03*
X0335245Y0259248D03*
X0345363Y0259248D03*
X0345363Y0249248D03*
X0345363Y0239248D03*
X0335245Y0239248D03*
X0335245Y0249248D03*
X0335245Y0229248D03*
X0345363Y0229248D03*
X0345363Y0219248D03*
X0335245Y0219248D03*
X0335245Y0209248D03*
X0345363Y0209248D03*
X0355481Y0209248D03*
X0355481Y0219248D03*
X0355481Y0229248D03*
X0355481Y0239248D03*
X0355481Y0249248D03*
X0355481Y0259248D03*
X0355481Y0269248D03*
X0355481Y0279248D03*
X0355481Y0289248D03*
X0355481Y0299248D03*
X0355481Y0309248D03*
X0355481Y0319248D03*
X0355481Y0329248D03*
X0355481Y0339248D03*
X0355481Y0349248D03*
X0345363Y0349248D03*
X0335245Y0349248D03*
X0335245Y0339248D03*
X0345363Y0339248D03*
X0345363Y0329248D03*
X0335245Y0329248D03*
D13*
X0177528Y0331898D02*
X0177528Y0337898D01*
X0167528Y0337898D02*
X0167528Y0331898D01*
X0157528Y0331898D02*
X0157528Y0337898D01*
X0147528Y0337898D02*
X0147528Y0331898D01*
X0137528Y0331898D02*
X0137528Y0337898D01*
X0127528Y0337898D02*
X0127528Y0331898D01*
X0117528Y0331898D02*
X0117528Y0337898D01*
X0107528Y0337898D02*
X0107528Y0331898D01*
X0097528Y0331898D02*
X0097528Y0337898D01*
X0087528Y0337898D02*
X0087528Y0331898D01*
X0077528Y0331898D02*
X0077528Y0337898D01*
X0067528Y0337898D02*
X0067528Y0331898D01*
X0057528Y0331898D02*
X0057528Y0337898D01*
X0047528Y0337898D02*
X0047528Y0331898D01*
X0037528Y0331898D02*
X0037528Y0337898D01*
X0027528Y0337898D02*
X0027528Y0331898D01*
X0027528Y0206362D02*
X0027528Y0200362D01*
X0037528Y0200362D02*
X0037528Y0206362D01*
X0047528Y0206362D02*
X0047528Y0200362D01*
X0057528Y0200362D02*
X0057528Y0206362D01*
X0067528Y0206362D02*
X0067528Y0200362D01*
X0077528Y0200362D02*
X0077528Y0206362D01*
X0087528Y0206362D02*
X0087528Y0200362D01*
X0097528Y0200362D02*
X0097528Y0206362D01*
X0107528Y0206362D02*
X0107528Y0200362D01*
X0117528Y0200362D02*
X0117528Y0206362D01*
X0127528Y0206362D02*
X0127528Y0200362D01*
X0137528Y0200362D02*
X0137528Y0206362D01*
X0147528Y0206362D02*
X0147528Y0200362D01*
X0157528Y0200362D02*
X0157528Y0206362D01*
X0167528Y0206362D02*
X0167528Y0200362D01*
X0177528Y0200362D02*
X0177528Y0206362D01*
X0026583Y0181067D02*
X0026583Y0175067D01*
X0016583Y0175067D02*
X0016583Y0181067D01*
X0016701Y0029295D02*
X0016701Y0023295D01*
X0026701Y0023295D02*
X0026701Y0029295D01*
X0036701Y0029295D02*
X0036701Y0023295D01*
X0046701Y0023295D02*
X0046701Y0029295D01*
D14*
X0036642Y0093874D02*
X0036642Y0100370D01*
X0026642Y0100370D02*
X0026642Y0093874D01*
X0016642Y0093874D02*
X0016642Y0100370D01*
X0016642Y0149524D02*
X0016642Y0156020D01*
X0026642Y0156020D02*
X0026642Y0149524D01*
X0036642Y0149524D02*
X0036642Y0156020D01*
X0220698Y0233835D02*
X0227194Y0233835D01*
X0227194Y0243835D02*
X0220698Y0243835D01*
X0220698Y0253835D02*
X0227194Y0253835D01*
X0227194Y0284425D02*
X0220698Y0284425D01*
X0220698Y0294425D02*
X0227194Y0294425D01*
X0227194Y0304425D02*
X0220698Y0304425D01*
D15*
X0035048Y0253953D03*
X0028355Y0253953D03*
X0019871Y0253953D03*
X0013178Y0253953D03*
X0013178Y0238776D03*
X0019871Y0238776D03*
X0028355Y0238776D03*
X0035048Y0238776D03*
X0019871Y0299484D03*
X0013178Y0299484D03*
X0013178Y0309602D03*
X0019871Y0309602D03*
X0019871Y0319720D03*
X0013178Y0319720D03*
X0013178Y0117358D03*
X0019871Y0117358D03*
X0028355Y0117358D03*
X0035048Y0117358D03*
X0035048Y0061709D03*
X0028355Y0061709D03*
X0019871Y0061709D03*
X0013178Y0061709D03*
D16*
X0011465Y0260724D03*
X0011465Y0267417D03*
X0011465Y0275902D03*
X0011465Y0282594D03*
X0024113Y0282594D03*
X0024113Y0275902D03*
X0024113Y0267417D03*
X0024113Y0260724D03*
D17*
X0031701Y0136472D03*
X0027961Y0128598D03*
X0035442Y0128598D03*
X0020264Y0128598D03*
X0012784Y0128598D03*
X0016524Y0136472D03*
X0016524Y0080823D03*
X0012784Y0072949D03*
X0020264Y0072949D03*
X0027961Y0072949D03*
X0035442Y0072949D03*
X0031701Y0080823D03*
D18*
X0306013Y0229720D03*
X0307981Y0229720D03*
X0309950Y0229720D03*
X0311918Y0229720D03*
X0313887Y0229720D03*
X0313887Y0247831D03*
X0311918Y0247831D03*
X0309950Y0247831D03*
X0307981Y0247831D03*
X0306013Y0247831D03*
M02*
