G75*
%MOIN*%
%OFA0B0*%
%FSLAX25Y25*%
%IPPOS*%
%LPD*%
%AMOC8*
5,1,8,0,0,1.08239X$1,22.5*
%
%ADD10C,0.00000*%
%ADD11C,0.00600*%
%ADD12C,0.00500*%
%ADD13C,0.00300*%
%ADD14C,0.00100*%
D10*
X0001347Y0001000D02*
X0001347Y0366551D01*
X0370402Y0366551D01*
X0370402Y0001000D01*
X0001347Y0001000D01*
X0061386Y0012811D02*
X0061388Y0012980D01*
X0061394Y0013149D01*
X0061405Y0013318D01*
X0061419Y0013486D01*
X0061438Y0013654D01*
X0061461Y0013822D01*
X0061487Y0013989D01*
X0061518Y0014155D01*
X0061553Y0014321D01*
X0061592Y0014485D01*
X0061636Y0014649D01*
X0061683Y0014811D01*
X0061734Y0014972D01*
X0061789Y0015132D01*
X0061848Y0015291D01*
X0061910Y0015448D01*
X0061977Y0015603D01*
X0062048Y0015757D01*
X0062122Y0015909D01*
X0062200Y0016059D01*
X0062281Y0016207D01*
X0062366Y0016353D01*
X0062455Y0016497D01*
X0062547Y0016639D01*
X0062643Y0016778D01*
X0062742Y0016915D01*
X0062844Y0017050D01*
X0062950Y0017182D01*
X0063059Y0017311D01*
X0063171Y0017438D01*
X0063286Y0017562D01*
X0063404Y0017683D01*
X0063525Y0017801D01*
X0063649Y0017916D01*
X0063776Y0018028D01*
X0063905Y0018137D01*
X0064037Y0018243D01*
X0064172Y0018345D01*
X0064309Y0018444D01*
X0064448Y0018540D01*
X0064590Y0018632D01*
X0064734Y0018721D01*
X0064880Y0018806D01*
X0065028Y0018887D01*
X0065178Y0018965D01*
X0065330Y0019039D01*
X0065484Y0019110D01*
X0065639Y0019177D01*
X0065796Y0019239D01*
X0065955Y0019298D01*
X0066115Y0019353D01*
X0066276Y0019404D01*
X0066438Y0019451D01*
X0066602Y0019495D01*
X0066766Y0019534D01*
X0066932Y0019569D01*
X0067098Y0019600D01*
X0067265Y0019626D01*
X0067433Y0019649D01*
X0067601Y0019668D01*
X0067769Y0019682D01*
X0067938Y0019693D01*
X0068107Y0019699D01*
X0068276Y0019701D01*
X0068445Y0019699D01*
X0068614Y0019693D01*
X0068783Y0019682D01*
X0068951Y0019668D01*
X0069119Y0019649D01*
X0069287Y0019626D01*
X0069454Y0019600D01*
X0069620Y0019569D01*
X0069786Y0019534D01*
X0069950Y0019495D01*
X0070114Y0019451D01*
X0070276Y0019404D01*
X0070437Y0019353D01*
X0070597Y0019298D01*
X0070756Y0019239D01*
X0070913Y0019177D01*
X0071068Y0019110D01*
X0071222Y0019039D01*
X0071374Y0018965D01*
X0071524Y0018887D01*
X0071672Y0018806D01*
X0071818Y0018721D01*
X0071962Y0018632D01*
X0072104Y0018540D01*
X0072243Y0018444D01*
X0072380Y0018345D01*
X0072515Y0018243D01*
X0072647Y0018137D01*
X0072776Y0018028D01*
X0072903Y0017916D01*
X0073027Y0017801D01*
X0073148Y0017683D01*
X0073266Y0017562D01*
X0073381Y0017438D01*
X0073493Y0017311D01*
X0073602Y0017182D01*
X0073708Y0017050D01*
X0073810Y0016915D01*
X0073909Y0016778D01*
X0074005Y0016639D01*
X0074097Y0016497D01*
X0074186Y0016353D01*
X0074271Y0016207D01*
X0074352Y0016059D01*
X0074430Y0015909D01*
X0074504Y0015757D01*
X0074575Y0015603D01*
X0074642Y0015448D01*
X0074704Y0015291D01*
X0074763Y0015132D01*
X0074818Y0014972D01*
X0074869Y0014811D01*
X0074916Y0014649D01*
X0074960Y0014485D01*
X0074999Y0014321D01*
X0075034Y0014155D01*
X0075065Y0013989D01*
X0075091Y0013822D01*
X0075114Y0013654D01*
X0075133Y0013486D01*
X0075147Y0013318D01*
X0075158Y0013149D01*
X0075164Y0012980D01*
X0075166Y0012811D01*
X0075164Y0012642D01*
X0075158Y0012473D01*
X0075147Y0012304D01*
X0075133Y0012136D01*
X0075114Y0011968D01*
X0075091Y0011800D01*
X0075065Y0011633D01*
X0075034Y0011467D01*
X0074999Y0011301D01*
X0074960Y0011137D01*
X0074916Y0010973D01*
X0074869Y0010811D01*
X0074818Y0010650D01*
X0074763Y0010490D01*
X0074704Y0010331D01*
X0074642Y0010174D01*
X0074575Y0010019D01*
X0074504Y0009865D01*
X0074430Y0009713D01*
X0074352Y0009563D01*
X0074271Y0009415D01*
X0074186Y0009269D01*
X0074097Y0009125D01*
X0074005Y0008983D01*
X0073909Y0008844D01*
X0073810Y0008707D01*
X0073708Y0008572D01*
X0073602Y0008440D01*
X0073493Y0008311D01*
X0073381Y0008184D01*
X0073266Y0008060D01*
X0073148Y0007939D01*
X0073027Y0007821D01*
X0072903Y0007706D01*
X0072776Y0007594D01*
X0072647Y0007485D01*
X0072515Y0007379D01*
X0072380Y0007277D01*
X0072243Y0007178D01*
X0072104Y0007082D01*
X0071962Y0006990D01*
X0071818Y0006901D01*
X0071672Y0006816D01*
X0071524Y0006735D01*
X0071374Y0006657D01*
X0071222Y0006583D01*
X0071068Y0006512D01*
X0070913Y0006445D01*
X0070756Y0006383D01*
X0070597Y0006324D01*
X0070437Y0006269D01*
X0070276Y0006218D01*
X0070114Y0006171D01*
X0069950Y0006127D01*
X0069786Y0006088D01*
X0069620Y0006053D01*
X0069454Y0006022D01*
X0069287Y0005996D01*
X0069119Y0005973D01*
X0068951Y0005954D01*
X0068783Y0005940D01*
X0068614Y0005929D01*
X0068445Y0005923D01*
X0068276Y0005921D01*
X0068107Y0005923D01*
X0067938Y0005929D01*
X0067769Y0005940D01*
X0067601Y0005954D01*
X0067433Y0005973D01*
X0067265Y0005996D01*
X0067098Y0006022D01*
X0066932Y0006053D01*
X0066766Y0006088D01*
X0066602Y0006127D01*
X0066438Y0006171D01*
X0066276Y0006218D01*
X0066115Y0006269D01*
X0065955Y0006324D01*
X0065796Y0006383D01*
X0065639Y0006445D01*
X0065484Y0006512D01*
X0065330Y0006583D01*
X0065178Y0006657D01*
X0065028Y0006735D01*
X0064880Y0006816D01*
X0064734Y0006901D01*
X0064590Y0006990D01*
X0064448Y0007082D01*
X0064309Y0007178D01*
X0064172Y0007277D01*
X0064037Y0007379D01*
X0063905Y0007485D01*
X0063776Y0007594D01*
X0063649Y0007706D01*
X0063525Y0007821D01*
X0063404Y0007939D01*
X0063286Y0008060D01*
X0063171Y0008184D01*
X0063059Y0008311D01*
X0062950Y0008440D01*
X0062844Y0008572D01*
X0062742Y0008707D01*
X0062643Y0008844D01*
X0062547Y0008983D01*
X0062455Y0009125D01*
X0062366Y0009269D01*
X0062281Y0009415D01*
X0062200Y0009563D01*
X0062122Y0009713D01*
X0062048Y0009865D01*
X0061977Y0010019D01*
X0061910Y0010174D01*
X0061848Y0010331D01*
X0061789Y0010490D01*
X0061734Y0010650D01*
X0061683Y0010811D01*
X0061636Y0010973D01*
X0061592Y0011137D01*
X0061553Y0011301D01*
X0061518Y0011467D01*
X0061487Y0011633D01*
X0061461Y0011800D01*
X0061438Y0011968D01*
X0061419Y0012136D01*
X0061405Y0012304D01*
X0061394Y0012473D01*
X0061388Y0012642D01*
X0061386Y0012811D01*
X0342882Y0012811D02*
X0342884Y0012980D01*
X0342890Y0013149D01*
X0342901Y0013318D01*
X0342915Y0013486D01*
X0342934Y0013654D01*
X0342957Y0013822D01*
X0342983Y0013989D01*
X0343014Y0014155D01*
X0343049Y0014321D01*
X0343088Y0014485D01*
X0343132Y0014649D01*
X0343179Y0014811D01*
X0343230Y0014972D01*
X0343285Y0015132D01*
X0343344Y0015291D01*
X0343406Y0015448D01*
X0343473Y0015603D01*
X0343544Y0015757D01*
X0343618Y0015909D01*
X0343696Y0016059D01*
X0343777Y0016207D01*
X0343862Y0016353D01*
X0343951Y0016497D01*
X0344043Y0016639D01*
X0344139Y0016778D01*
X0344238Y0016915D01*
X0344340Y0017050D01*
X0344446Y0017182D01*
X0344555Y0017311D01*
X0344667Y0017438D01*
X0344782Y0017562D01*
X0344900Y0017683D01*
X0345021Y0017801D01*
X0345145Y0017916D01*
X0345272Y0018028D01*
X0345401Y0018137D01*
X0345533Y0018243D01*
X0345668Y0018345D01*
X0345805Y0018444D01*
X0345944Y0018540D01*
X0346086Y0018632D01*
X0346230Y0018721D01*
X0346376Y0018806D01*
X0346524Y0018887D01*
X0346674Y0018965D01*
X0346826Y0019039D01*
X0346980Y0019110D01*
X0347135Y0019177D01*
X0347292Y0019239D01*
X0347451Y0019298D01*
X0347611Y0019353D01*
X0347772Y0019404D01*
X0347934Y0019451D01*
X0348098Y0019495D01*
X0348262Y0019534D01*
X0348428Y0019569D01*
X0348594Y0019600D01*
X0348761Y0019626D01*
X0348929Y0019649D01*
X0349097Y0019668D01*
X0349265Y0019682D01*
X0349434Y0019693D01*
X0349603Y0019699D01*
X0349772Y0019701D01*
X0349941Y0019699D01*
X0350110Y0019693D01*
X0350279Y0019682D01*
X0350447Y0019668D01*
X0350615Y0019649D01*
X0350783Y0019626D01*
X0350950Y0019600D01*
X0351116Y0019569D01*
X0351282Y0019534D01*
X0351446Y0019495D01*
X0351610Y0019451D01*
X0351772Y0019404D01*
X0351933Y0019353D01*
X0352093Y0019298D01*
X0352252Y0019239D01*
X0352409Y0019177D01*
X0352564Y0019110D01*
X0352718Y0019039D01*
X0352870Y0018965D01*
X0353020Y0018887D01*
X0353168Y0018806D01*
X0353314Y0018721D01*
X0353458Y0018632D01*
X0353600Y0018540D01*
X0353739Y0018444D01*
X0353876Y0018345D01*
X0354011Y0018243D01*
X0354143Y0018137D01*
X0354272Y0018028D01*
X0354399Y0017916D01*
X0354523Y0017801D01*
X0354644Y0017683D01*
X0354762Y0017562D01*
X0354877Y0017438D01*
X0354989Y0017311D01*
X0355098Y0017182D01*
X0355204Y0017050D01*
X0355306Y0016915D01*
X0355405Y0016778D01*
X0355501Y0016639D01*
X0355593Y0016497D01*
X0355682Y0016353D01*
X0355767Y0016207D01*
X0355848Y0016059D01*
X0355926Y0015909D01*
X0356000Y0015757D01*
X0356071Y0015603D01*
X0356138Y0015448D01*
X0356200Y0015291D01*
X0356259Y0015132D01*
X0356314Y0014972D01*
X0356365Y0014811D01*
X0356412Y0014649D01*
X0356456Y0014485D01*
X0356495Y0014321D01*
X0356530Y0014155D01*
X0356561Y0013989D01*
X0356587Y0013822D01*
X0356610Y0013654D01*
X0356629Y0013486D01*
X0356643Y0013318D01*
X0356654Y0013149D01*
X0356660Y0012980D01*
X0356662Y0012811D01*
X0356660Y0012642D01*
X0356654Y0012473D01*
X0356643Y0012304D01*
X0356629Y0012136D01*
X0356610Y0011968D01*
X0356587Y0011800D01*
X0356561Y0011633D01*
X0356530Y0011467D01*
X0356495Y0011301D01*
X0356456Y0011137D01*
X0356412Y0010973D01*
X0356365Y0010811D01*
X0356314Y0010650D01*
X0356259Y0010490D01*
X0356200Y0010331D01*
X0356138Y0010174D01*
X0356071Y0010019D01*
X0356000Y0009865D01*
X0355926Y0009713D01*
X0355848Y0009563D01*
X0355767Y0009415D01*
X0355682Y0009269D01*
X0355593Y0009125D01*
X0355501Y0008983D01*
X0355405Y0008844D01*
X0355306Y0008707D01*
X0355204Y0008572D01*
X0355098Y0008440D01*
X0354989Y0008311D01*
X0354877Y0008184D01*
X0354762Y0008060D01*
X0354644Y0007939D01*
X0354523Y0007821D01*
X0354399Y0007706D01*
X0354272Y0007594D01*
X0354143Y0007485D01*
X0354011Y0007379D01*
X0353876Y0007277D01*
X0353739Y0007178D01*
X0353600Y0007082D01*
X0353458Y0006990D01*
X0353314Y0006901D01*
X0353168Y0006816D01*
X0353020Y0006735D01*
X0352870Y0006657D01*
X0352718Y0006583D01*
X0352564Y0006512D01*
X0352409Y0006445D01*
X0352252Y0006383D01*
X0352093Y0006324D01*
X0351933Y0006269D01*
X0351772Y0006218D01*
X0351610Y0006171D01*
X0351446Y0006127D01*
X0351282Y0006088D01*
X0351116Y0006053D01*
X0350950Y0006022D01*
X0350783Y0005996D01*
X0350615Y0005973D01*
X0350447Y0005954D01*
X0350279Y0005940D01*
X0350110Y0005929D01*
X0349941Y0005923D01*
X0349772Y0005921D01*
X0349603Y0005923D01*
X0349434Y0005929D01*
X0349265Y0005940D01*
X0349097Y0005954D01*
X0348929Y0005973D01*
X0348761Y0005996D01*
X0348594Y0006022D01*
X0348428Y0006053D01*
X0348262Y0006088D01*
X0348098Y0006127D01*
X0347934Y0006171D01*
X0347772Y0006218D01*
X0347611Y0006269D01*
X0347451Y0006324D01*
X0347292Y0006383D01*
X0347135Y0006445D01*
X0346980Y0006512D01*
X0346826Y0006583D01*
X0346674Y0006657D01*
X0346524Y0006735D01*
X0346376Y0006816D01*
X0346230Y0006901D01*
X0346086Y0006990D01*
X0345944Y0007082D01*
X0345805Y0007178D01*
X0345668Y0007277D01*
X0345533Y0007379D01*
X0345401Y0007485D01*
X0345272Y0007594D01*
X0345145Y0007706D01*
X0345021Y0007821D01*
X0344900Y0007939D01*
X0344782Y0008060D01*
X0344667Y0008184D01*
X0344555Y0008311D01*
X0344446Y0008440D01*
X0344340Y0008572D01*
X0344238Y0008707D01*
X0344139Y0008844D01*
X0344043Y0008983D01*
X0343951Y0009125D01*
X0343862Y0009269D01*
X0343777Y0009415D01*
X0343696Y0009563D01*
X0343618Y0009713D01*
X0343544Y0009865D01*
X0343473Y0010019D01*
X0343406Y0010174D01*
X0343344Y0010331D01*
X0343285Y0010490D01*
X0343230Y0010650D01*
X0343179Y0010811D01*
X0343132Y0010973D01*
X0343088Y0011137D01*
X0343049Y0011301D01*
X0343014Y0011467D01*
X0342983Y0011633D01*
X0342957Y0011800D01*
X0342934Y0011968D01*
X0342915Y0012136D01*
X0342901Y0012304D01*
X0342890Y0012473D01*
X0342884Y0012642D01*
X0342882Y0012811D01*
X0210993Y0355331D02*
X0210995Y0355500D01*
X0211001Y0355669D01*
X0211012Y0355838D01*
X0211026Y0356006D01*
X0211045Y0356174D01*
X0211068Y0356342D01*
X0211094Y0356509D01*
X0211125Y0356675D01*
X0211160Y0356841D01*
X0211199Y0357005D01*
X0211243Y0357169D01*
X0211290Y0357331D01*
X0211341Y0357492D01*
X0211396Y0357652D01*
X0211455Y0357811D01*
X0211517Y0357968D01*
X0211584Y0358123D01*
X0211655Y0358277D01*
X0211729Y0358429D01*
X0211807Y0358579D01*
X0211888Y0358727D01*
X0211973Y0358873D01*
X0212062Y0359017D01*
X0212154Y0359159D01*
X0212250Y0359298D01*
X0212349Y0359435D01*
X0212451Y0359570D01*
X0212557Y0359702D01*
X0212666Y0359831D01*
X0212778Y0359958D01*
X0212893Y0360082D01*
X0213011Y0360203D01*
X0213132Y0360321D01*
X0213256Y0360436D01*
X0213383Y0360548D01*
X0213512Y0360657D01*
X0213644Y0360763D01*
X0213779Y0360865D01*
X0213916Y0360964D01*
X0214055Y0361060D01*
X0214197Y0361152D01*
X0214341Y0361241D01*
X0214487Y0361326D01*
X0214635Y0361407D01*
X0214785Y0361485D01*
X0214937Y0361559D01*
X0215091Y0361630D01*
X0215246Y0361697D01*
X0215403Y0361759D01*
X0215562Y0361818D01*
X0215722Y0361873D01*
X0215883Y0361924D01*
X0216045Y0361971D01*
X0216209Y0362015D01*
X0216373Y0362054D01*
X0216539Y0362089D01*
X0216705Y0362120D01*
X0216872Y0362146D01*
X0217040Y0362169D01*
X0217208Y0362188D01*
X0217376Y0362202D01*
X0217545Y0362213D01*
X0217714Y0362219D01*
X0217883Y0362221D01*
X0218052Y0362219D01*
X0218221Y0362213D01*
X0218390Y0362202D01*
X0218558Y0362188D01*
X0218726Y0362169D01*
X0218894Y0362146D01*
X0219061Y0362120D01*
X0219227Y0362089D01*
X0219393Y0362054D01*
X0219557Y0362015D01*
X0219721Y0361971D01*
X0219883Y0361924D01*
X0220044Y0361873D01*
X0220204Y0361818D01*
X0220363Y0361759D01*
X0220520Y0361697D01*
X0220675Y0361630D01*
X0220829Y0361559D01*
X0220981Y0361485D01*
X0221131Y0361407D01*
X0221279Y0361326D01*
X0221425Y0361241D01*
X0221569Y0361152D01*
X0221711Y0361060D01*
X0221850Y0360964D01*
X0221987Y0360865D01*
X0222122Y0360763D01*
X0222254Y0360657D01*
X0222383Y0360548D01*
X0222510Y0360436D01*
X0222634Y0360321D01*
X0222755Y0360203D01*
X0222873Y0360082D01*
X0222988Y0359958D01*
X0223100Y0359831D01*
X0223209Y0359702D01*
X0223315Y0359570D01*
X0223417Y0359435D01*
X0223516Y0359298D01*
X0223612Y0359159D01*
X0223704Y0359017D01*
X0223793Y0358873D01*
X0223878Y0358727D01*
X0223959Y0358579D01*
X0224037Y0358429D01*
X0224111Y0358277D01*
X0224182Y0358123D01*
X0224249Y0357968D01*
X0224311Y0357811D01*
X0224370Y0357652D01*
X0224425Y0357492D01*
X0224476Y0357331D01*
X0224523Y0357169D01*
X0224567Y0357005D01*
X0224606Y0356841D01*
X0224641Y0356675D01*
X0224672Y0356509D01*
X0224698Y0356342D01*
X0224721Y0356174D01*
X0224740Y0356006D01*
X0224754Y0355838D01*
X0224765Y0355669D01*
X0224771Y0355500D01*
X0224773Y0355331D01*
X0224771Y0355162D01*
X0224765Y0354993D01*
X0224754Y0354824D01*
X0224740Y0354656D01*
X0224721Y0354488D01*
X0224698Y0354320D01*
X0224672Y0354153D01*
X0224641Y0353987D01*
X0224606Y0353821D01*
X0224567Y0353657D01*
X0224523Y0353493D01*
X0224476Y0353331D01*
X0224425Y0353170D01*
X0224370Y0353010D01*
X0224311Y0352851D01*
X0224249Y0352694D01*
X0224182Y0352539D01*
X0224111Y0352385D01*
X0224037Y0352233D01*
X0223959Y0352083D01*
X0223878Y0351935D01*
X0223793Y0351789D01*
X0223704Y0351645D01*
X0223612Y0351503D01*
X0223516Y0351364D01*
X0223417Y0351227D01*
X0223315Y0351092D01*
X0223209Y0350960D01*
X0223100Y0350831D01*
X0222988Y0350704D01*
X0222873Y0350580D01*
X0222755Y0350459D01*
X0222634Y0350341D01*
X0222510Y0350226D01*
X0222383Y0350114D01*
X0222254Y0350005D01*
X0222122Y0349899D01*
X0221987Y0349797D01*
X0221850Y0349698D01*
X0221711Y0349602D01*
X0221569Y0349510D01*
X0221425Y0349421D01*
X0221279Y0349336D01*
X0221131Y0349255D01*
X0220981Y0349177D01*
X0220829Y0349103D01*
X0220675Y0349032D01*
X0220520Y0348965D01*
X0220363Y0348903D01*
X0220204Y0348844D01*
X0220044Y0348789D01*
X0219883Y0348738D01*
X0219721Y0348691D01*
X0219557Y0348647D01*
X0219393Y0348608D01*
X0219227Y0348573D01*
X0219061Y0348542D01*
X0218894Y0348516D01*
X0218726Y0348493D01*
X0218558Y0348474D01*
X0218390Y0348460D01*
X0218221Y0348449D01*
X0218052Y0348443D01*
X0217883Y0348441D01*
X0217714Y0348443D01*
X0217545Y0348449D01*
X0217376Y0348460D01*
X0217208Y0348474D01*
X0217040Y0348493D01*
X0216872Y0348516D01*
X0216705Y0348542D01*
X0216539Y0348573D01*
X0216373Y0348608D01*
X0216209Y0348647D01*
X0216045Y0348691D01*
X0215883Y0348738D01*
X0215722Y0348789D01*
X0215562Y0348844D01*
X0215403Y0348903D01*
X0215246Y0348965D01*
X0215091Y0349032D01*
X0214937Y0349103D01*
X0214785Y0349177D01*
X0214635Y0349255D01*
X0214487Y0349336D01*
X0214341Y0349421D01*
X0214197Y0349510D01*
X0214055Y0349602D01*
X0213916Y0349698D01*
X0213779Y0349797D01*
X0213644Y0349899D01*
X0213512Y0350005D01*
X0213383Y0350114D01*
X0213256Y0350226D01*
X0213132Y0350341D01*
X0213011Y0350459D01*
X0212893Y0350580D01*
X0212778Y0350704D01*
X0212666Y0350831D01*
X0212557Y0350960D01*
X0212451Y0351092D01*
X0212349Y0351227D01*
X0212250Y0351364D01*
X0212154Y0351503D01*
X0212062Y0351645D01*
X0211973Y0351789D01*
X0211888Y0351935D01*
X0211807Y0352083D01*
X0211729Y0352233D01*
X0211655Y0352385D01*
X0211584Y0352539D01*
X0211517Y0352694D01*
X0211455Y0352851D01*
X0211396Y0353010D01*
X0211341Y0353170D01*
X0211290Y0353331D01*
X0211243Y0353493D01*
X0211199Y0353657D01*
X0211160Y0353821D01*
X0211125Y0353987D01*
X0211094Y0354153D01*
X0211068Y0354320D01*
X0211045Y0354488D01*
X0211026Y0354656D01*
X0211012Y0354824D01*
X0211001Y0354993D01*
X0210995Y0355162D01*
X0210993Y0355331D01*
X0025953Y0355331D02*
X0025955Y0355500D01*
X0025961Y0355669D01*
X0025972Y0355838D01*
X0025986Y0356006D01*
X0026005Y0356174D01*
X0026028Y0356342D01*
X0026054Y0356509D01*
X0026085Y0356675D01*
X0026120Y0356841D01*
X0026159Y0357005D01*
X0026203Y0357169D01*
X0026250Y0357331D01*
X0026301Y0357492D01*
X0026356Y0357652D01*
X0026415Y0357811D01*
X0026477Y0357968D01*
X0026544Y0358123D01*
X0026615Y0358277D01*
X0026689Y0358429D01*
X0026767Y0358579D01*
X0026848Y0358727D01*
X0026933Y0358873D01*
X0027022Y0359017D01*
X0027114Y0359159D01*
X0027210Y0359298D01*
X0027309Y0359435D01*
X0027411Y0359570D01*
X0027517Y0359702D01*
X0027626Y0359831D01*
X0027738Y0359958D01*
X0027853Y0360082D01*
X0027971Y0360203D01*
X0028092Y0360321D01*
X0028216Y0360436D01*
X0028343Y0360548D01*
X0028472Y0360657D01*
X0028604Y0360763D01*
X0028739Y0360865D01*
X0028876Y0360964D01*
X0029015Y0361060D01*
X0029157Y0361152D01*
X0029301Y0361241D01*
X0029447Y0361326D01*
X0029595Y0361407D01*
X0029745Y0361485D01*
X0029897Y0361559D01*
X0030051Y0361630D01*
X0030206Y0361697D01*
X0030363Y0361759D01*
X0030522Y0361818D01*
X0030682Y0361873D01*
X0030843Y0361924D01*
X0031005Y0361971D01*
X0031169Y0362015D01*
X0031333Y0362054D01*
X0031499Y0362089D01*
X0031665Y0362120D01*
X0031832Y0362146D01*
X0032000Y0362169D01*
X0032168Y0362188D01*
X0032336Y0362202D01*
X0032505Y0362213D01*
X0032674Y0362219D01*
X0032843Y0362221D01*
X0033012Y0362219D01*
X0033181Y0362213D01*
X0033350Y0362202D01*
X0033518Y0362188D01*
X0033686Y0362169D01*
X0033854Y0362146D01*
X0034021Y0362120D01*
X0034187Y0362089D01*
X0034353Y0362054D01*
X0034517Y0362015D01*
X0034681Y0361971D01*
X0034843Y0361924D01*
X0035004Y0361873D01*
X0035164Y0361818D01*
X0035323Y0361759D01*
X0035480Y0361697D01*
X0035635Y0361630D01*
X0035789Y0361559D01*
X0035941Y0361485D01*
X0036091Y0361407D01*
X0036239Y0361326D01*
X0036385Y0361241D01*
X0036529Y0361152D01*
X0036671Y0361060D01*
X0036810Y0360964D01*
X0036947Y0360865D01*
X0037082Y0360763D01*
X0037214Y0360657D01*
X0037343Y0360548D01*
X0037470Y0360436D01*
X0037594Y0360321D01*
X0037715Y0360203D01*
X0037833Y0360082D01*
X0037948Y0359958D01*
X0038060Y0359831D01*
X0038169Y0359702D01*
X0038275Y0359570D01*
X0038377Y0359435D01*
X0038476Y0359298D01*
X0038572Y0359159D01*
X0038664Y0359017D01*
X0038753Y0358873D01*
X0038838Y0358727D01*
X0038919Y0358579D01*
X0038997Y0358429D01*
X0039071Y0358277D01*
X0039142Y0358123D01*
X0039209Y0357968D01*
X0039271Y0357811D01*
X0039330Y0357652D01*
X0039385Y0357492D01*
X0039436Y0357331D01*
X0039483Y0357169D01*
X0039527Y0357005D01*
X0039566Y0356841D01*
X0039601Y0356675D01*
X0039632Y0356509D01*
X0039658Y0356342D01*
X0039681Y0356174D01*
X0039700Y0356006D01*
X0039714Y0355838D01*
X0039725Y0355669D01*
X0039731Y0355500D01*
X0039733Y0355331D01*
X0039731Y0355162D01*
X0039725Y0354993D01*
X0039714Y0354824D01*
X0039700Y0354656D01*
X0039681Y0354488D01*
X0039658Y0354320D01*
X0039632Y0354153D01*
X0039601Y0353987D01*
X0039566Y0353821D01*
X0039527Y0353657D01*
X0039483Y0353493D01*
X0039436Y0353331D01*
X0039385Y0353170D01*
X0039330Y0353010D01*
X0039271Y0352851D01*
X0039209Y0352694D01*
X0039142Y0352539D01*
X0039071Y0352385D01*
X0038997Y0352233D01*
X0038919Y0352083D01*
X0038838Y0351935D01*
X0038753Y0351789D01*
X0038664Y0351645D01*
X0038572Y0351503D01*
X0038476Y0351364D01*
X0038377Y0351227D01*
X0038275Y0351092D01*
X0038169Y0350960D01*
X0038060Y0350831D01*
X0037948Y0350704D01*
X0037833Y0350580D01*
X0037715Y0350459D01*
X0037594Y0350341D01*
X0037470Y0350226D01*
X0037343Y0350114D01*
X0037214Y0350005D01*
X0037082Y0349899D01*
X0036947Y0349797D01*
X0036810Y0349698D01*
X0036671Y0349602D01*
X0036529Y0349510D01*
X0036385Y0349421D01*
X0036239Y0349336D01*
X0036091Y0349255D01*
X0035941Y0349177D01*
X0035789Y0349103D01*
X0035635Y0349032D01*
X0035480Y0348965D01*
X0035323Y0348903D01*
X0035164Y0348844D01*
X0035004Y0348789D01*
X0034843Y0348738D01*
X0034681Y0348691D01*
X0034517Y0348647D01*
X0034353Y0348608D01*
X0034187Y0348573D01*
X0034021Y0348542D01*
X0033854Y0348516D01*
X0033686Y0348493D01*
X0033518Y0348474D01*
X0033350Y0348460D01*
X0033181Y0348449D01*
X0033012Y0348443D01*
X0032843Y0348441D01*
X0032674Y0348443D01*
X0032505Y0348449D01*
X0032336Y0348460D01*
X0032168Y0348474D01*
X0032000Y0348493D01*
X0031832Y0348516D01*
X0031665Y0348542D01*
X0031499Y0348573D01*
X0031333Y0348608D01*
X0031169Y0348647D01*
X0031005Y0348691D01*
X0030843Y0348738D01*
X0030682Y0348789D01*
X0030522Y0348844D01*
X0030363Y0348903D01*
X0030206Y0348965D01*
X0030051Y0349032D01*
X0029897Y0349103D01*
X0029745Y0349177D01*
X0029595Y0349255D01*
X0029447Y0349336D01*
X0029301Y0349421D01*
X0029157Y0349510D01*
X0029015Y0349602D01*
X0028876Y0349698D01*
X0028739Y0349797D01*
X0028604Y0349899D01*
X0028472Y0350005D01*
X0028343Y0350114D01*
X0028216Y0350226D01*
X0028092Y0350341D01*
X0027971Y0350459D01*
X0027853Y0350580D01*
X0027738Y0350704D01*
X0027626Y0350831D01*
X0027517Y0350960D01*
X0027411Y0351092D01*
X0027309Y0351227D01*
X0027210Y0351364D01*
X0027114Y0351503D01*
X0027022Y0351645D01*
X0026933Y0351789D01*
X0026848Y0351935D01*
X0026767Y0352083D01*
X0026689Y0352233D01*
X0026615Y0352385D01*
X0026544Y0352539D01*
X0026477Y0352694D01*
X0026415Y0352851D01*
X0026356Y0353010D01*
X0026301Y0353170D01*
X0026250Y0353331D01*
X0026203Y0353493D01*
X0026159Y0353657D01*
X0026120Y0353821D01*
X0026085Y0353987D01*
X0026054Y0354153D01*
X0026028Y0354320D01*
X0026005Y0354488D01*
X0025986Y0354656D01*
X0025972Y0354824D01*
X0025961Y0354993D01*
X0025955Y0355162D01*
X0025953Y0355331D01*
D11*
X0062056Y0173008D02*
X0062056Y0162890D01*
X0082292Y0162890D02*
X0082292Y0173008D01*
X0102528Y0173008D02*
X0102528Y0162890D01*
X0102528Y0142654D02*
X0102528Y0132535D01*
X0082292Y0132535D02*
X0082292Y0142654D01*
X0062056Y0142654D02*
X0062056Y0132535D01*
X0062056Y0112299D02*
X0062056Y0102181D01*
X0062056Y0081945D02*
X0062056Y0071827D01*
X0059969Y0061591D02*
X0057469Y0059091D01*
X0054969Y0061591D01*
X0049969Y0061591D01*
X0047469Y0059091D01*
X0047469Y0044091D01*
X0049969Y0041591D01*
X0054969Y0041591D01*
X0057469Y0044091D01*
X0057469Y0059091D01*
X0059969Y0061591D02*
X0064969Y0061591D01*
X0067469Y0059091D01*
X0067469Y0044091D01*
X0069969Y0041591D01*
X0074969Y0041591D01*
X0077469Y0044091D01*
X0077469Y0059091D01*
X0074969Y0061591D01*
X0069969Y0061591D01*
X0067469Y0059091D01*
X0077469Y0059091D02*
X0079969Y0061591D01*
X0084969Y0061591D01*
X0087469Y0059091D01*
X0087469Y0044091D01*
X0084969Y0041591D01*
X0079969Y0041591D01*
X0077469Y0044091D01*
X0067469Y0044091D02*
X0064969Y0041591D01*
X0059969Y0041591D01*
X0057469Y0044091D01*
X0087469Y0044091D02*
X0089969Y0041591D01*
X0094969Y0041591D01*
X0097469Y0044091D01*
X0097469Y0059091D01*
X0094969Y0061591D01*
X0089969Y0061591D01*
X0087469Y0059091D01*
X0097469Y0059091D02*
X0099969Y0061591D01*
X0104969Y0061591D01*
X0107469Y0059091D01*
X0107469Y0044091D01*
X0104969Y0041591D01*
X0099969Y0041591D01*
X0097469Y0044091D01*
X0107469Y0044091D02*
X0109969Y0041591D01*
X0114969Y0041591D01*
X0117469Y0044091D01*
X0117469Y0059091D01*
X0114969Y0061591D01*
X0109969Y0061591D01*
X0107469Y0059091D01*
X0117469Y0059091D02*
X0119969Y0061591D01*
X0124969Y0061591D01*
X0127469Y0059091D01*
X0127469Y0044091D01*
X0124969Y0041591D01*
X0119969Y0041591D01*
X0117469Y0044091D01*
X0127469Y0044091D02*
X0129969Y0041591D01*
X0134969Y0041591D01*
X0137469Y0044091D01*
X0137469Y0059091D01*
X0134969Y0061591D01*
X0129969Y0061591D01*
X0127469Y0059091D01*
X0137469Y0059091D02*
X0139969Y0061591D01*
X0144969Y0061591D01*
X0147469Y0059091D01*
X0147469Y0044091D01*
X0144969Y0041591D01*
X0139969Y0041591D01*
X0137469Y0044091D01*
X0143001Y0071827D02*
X0143001Y0081945D01*
X0143001Y0102181D02*
X0143001Y0112299D01*
X0122764Y0112299D02*
X0122764Y0102181D01*
X0122764Y0081945D02*
X0122764Y0071827D01*
X0102528Y0071827D02*
X0102528Y0081945D01*
X0082292Y0081945D02*
X0082292Y0071827D01*
X0082292Y0102181D02*
X0082292Y0112299D01*
X0102528Y0112299D02*
X0102528Y0102181D01*
X0122764Y0132535D02*
X0122764Y0142654D01*
X0143001Y0142654D02*
X0143001Y0132535D01*
X0143001Y0162890D02*
X0143001Y0173008D01*
X0122764Y0173008D02*
X0122764Y0162890D01*
X0173355Y0112299D02*
X0173355Y0102181D01*
X0173355Y0081945D02*
X0173355Y0071827D01*
X0171327Y0061591D02*
X0168827Y0059091D01*
X0168827Y0044091D01*
X0171327Y0041591D01*
X0176327Y0041591D01*
X0178827Y0044091D01*
X0178827Y0059091D01*
X0176327Y0061591D01*
X0171327Y0061591D01*
X0178827Y0059091D02*
X0181327Y0061591D01*
X0186327Y0061591D01*
X0188827Y0059091D01*
X0188827Y0044091D01*
X0191327Y0041591D01*
X0196327Y0041591D01*
X0198827Y0044091D01*
X0198827Y0059091D01*
X0196327Y0061591D01*
X0191327Y0061591D01*
X0188827Y0059091D01*
X0198827Y0059091D02*
X0201327Y0061591D01*
X0206327Y0061591D01*
X0208827Y0059091D01*
X0208827Y0044091D01*
X0206327Y0041591D01*
X0201327Y0041591D01*
X0198827Y0044091D01*
X0188827Y0044091D02*
X0186327Y0041591D01*
X0181327Y0041591D01*
X0178827Y0044091D01*
X0208827Y0044091D02*
X0211327Y0041591D01*
X0216327Y0041591D01*
X0218827Y0044091D01*
X0218827Y0059091D01*
X0216327Y0061591D01*
X0211327Y0061591D01*
X0208827Y0059091D01*
X0218827Y0059091D02*
X0221327Y0061591D01*
X0226327Y0061591D01*
X0228827Y0059091D01*
X0228827Y0044091D01*
X0226327Y0041591D01*
X0221327Y0041591D01*
X0218827Y0044091D01*
X0228827Y0044091D02*
X0231327Y0041591D01*
X0236327Y0041591D01*
X0238827Y0044091D01*
X0238827Y0059091D01*
X0236327Y0061591D01*
X0231327Y0061591D01*
X0228827Y0059091D01*
X0238827Y0059091D02*
X0241327Y0061591D01*
X0246327Y0061591D01*
X0248827Y0059091D01*
X0248827Y0044091D01*
X0246327Y0041591D01*
X0241327Y0041591D01*
X0238827Y0044091D01*
X0248827Y0044091D02*
X0251327Y0041591D01*
X0256327Y0041591D01*
X0258827Y0044091D01*
X0258827Y0059091D01*
X0256327Y0061591D01*
X0251327Y0061591D01*
X0248827Y0059091D01*
X0254300Y0071827D02*
X0254300Y0081945D01*
X0254300Y0102181D02*
X0254300Y0112299D01*
X0234064Y0112299D02*
X0234064Y0102181D01*
X0234064Y0081945D02*
X0234064Y0071827D01*
X0213827Y0071827D02*
X0213827Y0081945D01*
X0193591Y0081945D02*
X0193591Y0071827D01*
X0193591Y0102181D02*
X0193591Y0112299D01*
X0213827Y0112299D02*
X0213827Y0102181D01*
X0213827Y0132535D02*
X0213827Y0142654D01*
X0193591Y0142654D02*
X0193591Y0132535D01*
X0193591Y0162890D02*
X0193591Y0173008D01*
X0213827Y0173008D02*
X0213827Y0162890D01*
X0234064Y0162890D02*
X0234064Y0173008D01*
X0254300Y0173008D02*
X0254300Y0162890D01*
X0254300Y0142654D02*
X0254300Y0132535D01*
X0234064Y0132535D02*
X0234064Y0142654D01*
X0284654Y0142654D02*
X0284654Y0132535D01*
X0284654Y0112299D02*
X0284654Y0102181D01*
X0284654Y0081945D02*
X0284654Y0071827D01*
X0282568Y0061591D02*
X0280068Y0059091D01*
X0280068Y0044091D01*
X0282568Y0041591D01*
X0287568Y0041591D01*
X0290068Y0044091D01*
X0290068Y0059091D01*
X0287568Y0061591D01*
X0282568Y0061591D01*
X0290068Y0059091D02*
X0292568Y0061591D01*
X0297568Y0061591D01*
X0300068Y0059091D01*
X0300068Y0044091D01*
X0297568Y0041591D01*
X0292568Y0041591D01*
X0290068Y0044091D01*
X0300068Y0044091D02*
X0302568Y0041591D01*
X0307568Y0041591D01*
X0310068Y0044091D01*
X0310068Y0059091D01*
X0307568Y0061591D01*
X0302568Y0061591D01*
X0300068Y0059091D01*
X0310068Y0059091D02*
X0312568Y0061591D01*
X0317568Y0061591D01*
X0320068Y0059091D01*
X0320068Y0044091D01*
X0317568Y0041591D01*
X0312568Y0041591D01*
X0310068Y0044091D01*
X0320068Y0044091D02*
X0322568Y0041591D01*
X0327568Y0041591D01*
X0330068Y0044091D01*
X0330068Y0059091D01*
X0327568Y0061591D01*
X0322568Y0061591D01*
X0320068Y0059091D01*
X0330068Y0059091D02*
X0332568Y0061591D01*
X0337568Y0061591D01*
X0340068Y0059091D01*
X0340068Y0044091D01*
X0337568Y0041591D01*
X0332568Y0041591D01*
X0330068Y0044091D01*
X0340068Y0044091D02*
X0342568Y0041591D01*
X0347568Y0041591D01*
X0350068Y0044091D01*
X0350068Y0059091D01*
X0347568Y0061591D01*
X0342568Y0061591D01*
X0340068Y0059091D01*
X0350068Y0059091D02*
X0352568Y0061591D01*
X0357568Y0061591D01*
X0360068Y0059091D01*
X0360068Y0044091D01*
X0357568Y0041591D01*
X0352568Y0041591D01*
X0350068Y0044091D01*
X0345363Y0071827D02*
X0345363Y0081945D01*
X0345363Y0102181D02*
X0345363Y0112299D01*
X0325127Y0112299D02*
X0325127Y0102181D01*
X0325127Y0081945D02*
X0325127Y0071827D01*
X0304890Y0071827D02*
X0304890Y0081945D01*
X0304890Y0102181D02*
X0304890Y0112299D01*
X0304890Y0132535D02*
X0304890Y0142654D01*
X0325127Y0142654D02*
X0325127Y0132535D01*
X0345363Y0132535D02*
X0345363Y0142654D01*
X0345363Y0162890D02*
X0345363Y0173008D01*
X0325127Y0173008D02*
X0325127Y0162890D01*
X0304890Y0162890D02*
X0304890Y0173008D01*
X0284654Y0173008D02*
X0284654Y0162890D01*
X0037410Y0135094D02*
X0037410Y0131079D01*
X0037410Y0135094D02*
X0033985Y0135094D01*
X0033158Y0129976D02*
X0030245Y0129976D01*
X0029418Y0135094D02*
X0025993Y0135094D01*
X0025993Y0131079D01*
X0022233Y0131079D02*
X0022233Y0135094D01*
X0018808Y0135094D01*
X0017981Y0129976D02*
X0015068Y0129976D01*
X0014241Y0135094D02*
X0010816Y0135094D01*
X0010816Y0131079D01*
X0010816Y0079445D02*
X0014241Y0079445D01*
X0010816Y0079445D02*
X0010816Y0075429D01*
X0015068Y0074327D02*
X0017981Y0074327D01*
X0022233Y0075429D02*
X0022233Y0079445D01*
X0018808Y0079445D01*
X0025993Y0079445D02*
X0025993Y0075429D01*
X0025993Y0079445D02*
X0029418Y0079445D01*
X0030245Y0074327D02*
X0033158Y0074327D01*
X0033985Y0079445D02*
X0037410Y0079445D01*
X0037410Y0075429D01*
D12*
X0135009Y0064341D02*
X0138011Y0064341D01*
X0136510Y0064341D02*
X0136510Y0068844D01*
X0138011Y0067343D01*
X0139613Y0066592D02*
X0140363Y0065842D01*
X0142615Y0065842D01*
X0142615Y0064341D02*
X0142615Y0068844D01*
X0140363Y0068844D01*
X0139613Y0068094D01*
X0139613Y0066592D01*
X0144217Y0068844D02*
X0145718Y0068844D01*
X0144967Y0068844D02*
X0144967Y0065091D01*
X0145718Y0064341D01*
X0146469Y0064341D01*
X0147219Y0065091D01*
X0246367Y0064341D02*
X0249370Y0064341D01*
X0246367Y0067343D01*
X0246367Y0068094D01*
X0247118Y0068844D01*
X0248619Y0068844D01*
X0249370Y0068094D01*
X0250971Y0068094D02*
X0250971Y0066592D01*
X0251722Y0065842D01*
X0253974Y0065842D01*
X0253974Y0064341D02*
X0253974Y0068844D01*
X0251722Y0068844D01*
X0250971Y0068094D01*
X0255575Y0068844D02*
X0257076Y0068844D01*
X0256326Y0068844D02*
X0256326Y0065091D01*
X0257076Y0064341D01*
X0257827Y0064341D01*
X0258577Y0065091D01*
X0347607Y0065091D02*
X0348358Y0064341D01*
X0349859Y0064341D01*
X0350610Y0065091D01*
X0349109Y0066592D02*
X0348358Y0066592D01*
X0347607Y0065842D01*
X0347607Y0065091D01*
X0348358Y0066592D02*
X0347607Y0067343D01*
X0347607Y0068094D01*
X0348358Y0068844D01*
X0349859Y0068844D01*
X0350610Y0068094D01*
X0352211Y0068094D02*
X0352211Y0066592D01*
X0352962Y0065842D01*
X0355214Y0065842D01*
X0355214Y0064341D02*
X0355214Y0068844D01*
X0352962Y0068844D01*
X0352211Y0068094D01*
X0356815Y0068844D02*
X0358316Y0068844D01*
X0357566Y0068844D02*
X0357566Y0065091D01*
X0358316Y0064341D01*
X0359067Y0064341D01*
X0359818Y0065091D01*
X0193591Y0223598D02*
X0173355Y0223598D01*
X0163237Y0223598D02*
X0143001Y0223598D01*
X0132883Y0223598D02*
X0112646Y0223598D01*
X0102528Y0223598D02*
X0082292Y0223598D01*
X0072174Y0223598D02*
X0051938Y0223598D01*
X0051938Y0233717D02*
X0072174Y0233717D01*
X0072174Y0243835D02*
X0051938Y0243835D01*
X0051938Y0253953D02*
X0072174Y0253953D01*
X0072174Y0264071D02*
X0051938Y0264071D01*
X0051938Y0274189D02*
X0072174Y0274189D01*
X0082292Y0274189D02*
X0102528Y0274189D01*
X0102528Y0284307D02*
X0082292Y0284307D01*
X0072174Y0284307D02*
X0051938Y0284307D01*
X0051938Y0294425D02*
X0072174Y0294425D01*
X0072174Y0304543D02*
X0051938Y0304543D01*
X0051938Y0314661D02*
X0072174Y0314661D01*
X0082292Y0314661D02*
X0102528Y0314661D01*
X0102528Y0304543D02*
X0082292Y0304543D01*
X0082292Y0294425D02*
X0102528Y0294425D01*
X0112646Y0294425D02*
X0132883Y0294425D01*
X0132883Y0304543D02*
X0112646Y0304543D01*
X0112646Y0314661D02*
X0132883Y0314661D01*
X0143001Y0314661D02*
X0163237Y0314661D01*
X0163237Y0304543D02*
X0143001Y0304543D01*
X0143001Y0294425D02*
X0163237Y0294425D01*
X0163237Y0284307D02*
X0143001Y0284307D01*
X0143001Y0274189D02*
X0163237Y0274189D01*
X0173355Y0274189D02*
X0193591Y0274189D01*
X0193591Y0284307D02*
X0173355Y0284307D01*
X0173355Y0294425D02*
X0193591Y0294425D01*
X0193591Y0304543D02*
X0173355Y0304543D01*
X0173355Y0314661D02*
X0193591Y0314661D01*
X0178414Y0334898D02*
X0029172Y0334898D01*
X0082292Y0264071D02*
X0102528Y0264071D01*
X0102528Y0253953D02*
X0082292Y0253953D01*
X0082292Y0243835D02*
X0102528Y0243835D01*
X0112646Y0243835D02*
X0132883Y0243835D01*
X0143001Y0243835D02*
X0163237Y0243835D01*
X0163237Y0253953D02*
X0143001Y0253953D01*
X0143001Y0264071D02*
X0163237Y0264071D01*
X0173355Y0264071D02*
X0193591Y0264071D01*
X0193591Y0253953D02*
X0173355Y0253953D01*
X0173355Y0243835D02*
X0193591Y0243835D01*
X0193591Y0233717D02*
X0173355Y0233717D01*
X0163237Y0233717D02*
X0143001Y0233717D01*
X0132883Y0233717D02*
X0112646Y0233717D01*
X0102528Y0233717D02*
X0082292Y0233717D01*
X0112646Y0253953D02*
X0132883Y0253953D01*
X0132883Y0264071D02*
X0112646Y0264071D01*
X0112646Y0274189D02*
X0132883Y0274189D01*
X0132883Y0284307D02*
X0112646Y0284307D01*
X0175885Y0203362D02*
X0029172Y0203362D01*
X0304044Y0232870D02*
X0304044Y0244681D01*
X0315855Y0244681D01*
X0315855Y0232870D01*
X0304044Y0232870D01*
X0305456Y0242713D02*
X0305458Y0242760D01*
X0305464Y0242806D01*
X0305473Y0242852D01*
X0305487Y0242896D01*
X0305504Y0242940D01*
X0305525Y0242981D01*
X0305549Y0243021D01*
X0305576Y0243059D01*
X0305607Y0243094D01*
X0305640Y0243127D01*
X0305676Y0243157D01*
X0305715Y0243183D01*
X0305755Y0243207D01*
X0305797Y0243226D01*
X0305841Y0243243D01*
X0305886Y0243255D01*
X0305932Y0243264D01*
X0305978Y0243269D01*
X0306025Y0243270D01*
X0306071Y0243267D01*
X0306117Y0243260D01*
X0306163Y0243249D01*
X0306207Y0243235D01*
X0306250Y0243217D01*
X0306291Y0243195D01*
X0306331Y0243170D01*
X0306368Y0243142D01*
X0306403Y0243111D01*
X0306435Y0243077D01*
X0306464Y0243040D01*
X0306489Y0243002D01*
X0306512Y0242961D01*
X0306531Y0242918D01*
X0306546Y0242874D01*
X0306558Y0242829D01*
X0306566Y0242783D01*
X0306570Y0242736D01*
X0306570Y0242690D01*
X0306566Y0242643D01*
X0306558Y0242597D01*
X0306546Y0242552D01*
X0306531Y0242508D01*
X0306512Y0242465D01*
X0306489Y0242424D01*
X0306464Y0242386D01*
X0306435Y0242349D01*
X0306403Y0242315D01*
X0306368Y0242284D01*
X0306331Y0242256D01*
X0306292Y0242231D01*
X0306250Y0242209D01*
X0306207Y0242191D01*
X0306163Y0242177D01*
X0306117Y0242166D01*
X0306071Y0242159D01*
X0306025Y0242156D01*
X0305978Y0242157D01*
X0305932Y0242162D01*
X0305886Y0242171D01*
X0305841Y0242183D01*
X0305797Y0242200D01*
X0305755Y0242219D01*
X0305715Y0242243D01*
X0305676Y0242269D01*
X0305640Y0242299D01*
X0305607Y0242332D01*
X0305576Y0242367D01*
X0305549Y0242405D01*
X0305525Y0242445D01*
X0305504Y0242486D01*
X0305487Y0242530D01*
X0305473Y0242574D01*
X0305464Y0242620D01*
X0305458Y0242666D01*
X0305456Y0242713D01*
D13*
X0042551Y0238828D02*
X0041100Y0238828D01*
X0040617Y0238344D01*
X0040617Y0237377D01*
X0041100Y0236893D01*
X0042551Y0236893D01*
X0041584Y0236893D02*
X0040617Y0235926D01*
X0039605Y0236409D02*
X0039121Y0235926D01*
X0038154Y0235926D01*
X0037670Y0236409D01*
X0037670Y0236893D01*
X0038154Y0237377D01*
X0039605Y0237377D01*
X0039605Y0236409D01*
X0039605Y0237377D02*
X0038637Y0238344D01*
X0037670Y0238828D01*
X0042551Y0238828D02*
X0042551Y0235926D01*
X0042611Y0250485D02*
X0042611Y0253387D01*
X0041159Y0253387D01*
X0040676Y0252903D01*
X0040676Y0251936D01*
X0041159Y0251452D01*
X0042611Y0251452D01*
X0041643Y0251452D02*
X0040676Y0250485D01*
X0039664Y0250968D02*
X0039180Y0250485D01*
X0038213Y0250485D01*
X0037729Y0250968D01*
X0037729Y0251452D01*
X0038213Y0251936D01*
X0038697Y0251936D01*
X0038213Y0251936D02*
X0037729Y0252420D01*
X0037729Y0252903D01*
X0038213Y0253387D01*
X0039180Y0253387D01*
X0039664Y0252903D01*
X0031465Y0257828D02*
X0031465Y0259279D01*
X0030982Y0259763D01*
X0030014Y0259763D01*
X0029530Y0259279D01*
X0029530Y0257828D01*
X0028563Y0257828D02*
X0031465Y0257828D01*
X0029530Y0258795D02*
X0028563Y0259763D01*
X0029047Y0260774D02*
X0028563Y0261258D01*
X0028563Y0262226D01*
X0029047Y0262709D01*
X0030982Y0262709D01*
X0031465Y0262226D01*
X0031465Y0261258D01*
X0030982Y0260774D01*
X0030498Y0260774D01*
X0030014Y0261258D01*
X0030014Y0262709D01*
X0029530Y0272505D02*
X0029530Y0273956D01*
X0030014Y0274440D01*
X0030982Y0274440D01*
X0031465Y0273956D01*
X0031465Y0272505D01*
X0028563Y0272505D01*
X0029530Y0273472D02*
X0028563Y0274440D01*
X0028563Y0275452D02*
X0029047Y0275452D01*
X0030982Y0277386D01*
X0031465Y0277386D01*
X0031465Y0275452D01*
X0010756Y0296575D02*
X0010756Y0299478D01*
X0009305Y0299478D01*
X0008821Y0298994D01*
X0008821Y0298026D01*
X0009305Y0297543D01*
X0010756Y0297543D01*
X0009789Y0297543D02*
X0008821Y0296575D01*
X0007810Y0296575D02*
X0005875Y0296575D01*
X0006842Y0296575D02*
X0006842Y0299478D01*
X0007810Y0298510D01*
X0004863Y0298994D02*
X0004379Y0299478D01*
X0003412Y0299478D01*
X0002928Y0298994D01*
X0002928Y0298510D01*
X0004863Y0296575D01*
X0002928Y0296575D01*
X0005375Y0306193D02*
X0007310Y0306193D01*
X0005375Y0308128D01*
X0005375Y0308612D01*
X0005858Y0309096D01*
X0006826Y0309096D01*
X0007310Y0308612D01*
X0008321Y0308612D02*
X0008805Y0309096D01*
X0010256Y0309096D01*
X0010256Y0306193D01*
X0010256Y0307161D02*
X0008805Y0307161D01*
X0008321Y0307645D01*
X0008321Y0308612D01*
X0009289Y0307161D02*
X0008321Y0306193D01*
X0007821Y0317370D02*
X0008789Y0318338D01*
X0008305Y0318338D02*
X0009756Y0318338D01*
X0009756Y0317370D02*
X0009756Y0320273D01*
X0008305Y0320273D01*
X0007821Y0319789D01*
X0007821Y0318822D01*
X0008305Y0318338D01*
X0006810Y0319305D02*
X0005842Y0320273D01*
X0005842Y0317370D01*
X0004875Y0317370D02*
X0006810Y0317370D01*
X0006393Y0278005D02*
X0005909Y0278005D01*
X0005426Y0277521D01*
X0005426Y0276553D01*
X0005909Y0276070D01*
X0006393Y0276070D01*
X0006877Y0276553D01*
X0006877Y0277521D01*
X0006393Y0278005D01*
X0005426Y0277521D02*
X0004942Y0278005D01*
X0004458Y0278005D01*
X0003974Y0277521D01*
X0003974Y0276553D01*
X0004458Y0276070D01*
X0004942Y0276070D01*
X0005426Y0276553D01*
X0005426Y0275058D02*
X0004942Y0274574D01*
X0004942Y0273123D01*
X0004942Y0274091D02*
X0003974Y0275058D01*
X0005426Y0275058D02*
X0006393Y0275058D01*
X0006877Y0274574D01*
X0006877Y0273123D01*
X0003974Y0273123D01*
X0003840Y0267091D02*
X0003356Y0266607D01*
X0003356Y0265640D01*
X0003840Y0265156D01*
X0005775Y0267091D01*
X0003840Y0267091D01*
X0003840Y0265156D02*
X0005775Y0265156D01*
X0006259Y0265640D01*
X0006259Y0266607D01*
X0005775Y0267091D01*
X0003356Y0264145D02*
X0003356Y0262210D01*
X0003356Y0263177D02*
X0006259Y0263177D01*
X0005291Y0262210D01*
X0004807Y0261198D02*
X0004324Y0260714D01*
X0004324Y0259263D01*
X0004324Y0260231D02*
X0003356Y0261198D01*
X0004807Y0261198D02*
X0005775Y0261198D01*
X0006259Y0260714D01*
X0006259Y0259263D01*
X0003356Y0259263D01*
X0006252Y0253305D02*
X0007703Y0251854D01*
X0005768Y0251854D01*
X0006252Y0250403D02*
X0006252Y0253305D01*
X0008714Y0252821D02*
X0008714Y0251854D01*
X0009198Y0251370D01*
X0010649Y0251370D01*
X0009682Y0251370D02*
X0008714Y0250403D01*
X0010649Y0250403D02*
X0010649Y0253305D01*
X0009198Y0253305D01*
X0008714Y0252821D01*
X0009256Y0238769D02*
X0007805Y0238769D01*
X0007321Y0238285D01*
X0007321Y0237318D01*
X0007805Y0236834D01*
X0009256Y0236834D01*
X0008289Y0236834D02*
X0007321Y0235867D01*
X0006310Y0236350D02*
X0005826Y0235867D01*
X0004858Y0235867D01*
X0004375Y0236350D01*
X0004375Y0237318D01*
X0004858Y0237802D01*
X0005342Y0237802D01*
X0006310Y0237318D01*
X0006310Y0238769D01*
X0004375Y0238769D01*
X0009256Y0238769D02*
X0009256Y0235867D01*
X0009763Y0142871D02*
X0009763Y0139969D01*
X0008796Y0139969D02*
X0010731Y0139969D01*
X0011742Y0139969D02*
X0012710Y0140936D01*
X0013677Y0140453D02*
X0013194Y0139969D01*
X0012226Y0139969D01*
X0011742Y0140453D01*
X0011742Y0142388D01*
X0012226Y0142871D01*
X0013194Y0142871D01*
X0013677Y0142388D01*
X0013677Y0140453D01*
X0010731Y0141904D02*
X0009763Y0142871D01*
X0009675Y0141932D02*
X0009191Y0140964D01*
X0008224Y0139997D01*
X0008224Y0141448D01*
X0007740Y0141932D01*
X0007256Y0141932D01*
X0006773Y0141448D01*
X0006773Y0140480D01*
X0007256Y0139997D01*
X0008224Y0139997D01*
X0008708Y0138985D02*
X0006773Y0137050D01*
X0006773Y0138985D01*
X0008708Y0138985D02*
X0009191Y0138985D01*
X0009675Y0138501D01*
X0009675Y0137534D01*
X0009191Y0137050D01*
X0009675Y0136039D02*
X0009191Y0135071D01*
X0008224Y0134104D01*
X0008224Y0135555D01*
X0007740Y0136039D01*
X0007256Y0136039D01*
X0006773Y0135555D01*
X0006773Y0134587D01*
X0007256Y0134104D01*
X0008224Y0134104D01*
X0009675Y0133092D02*
X0009675Y0132125D01*
X0009675Y0132608D02*
X0007256Y0132608D01*
X0006773Y0132125D01*
X0006773Y0131641D01*
X0007256Y0131157D01*
X0007256Y0130146D02*
X0006773Y0129662D01*
X0006773Y0128694D01*
X0007256Y0128211D01*
X0008224Y0128694D02*
X0008224Y0129662D01*
X0007740Y0130146D01*
X0007256Y0130146D01*
X0008224Y0128694D02*
X0008708Y0128211D01*
X0009191Y0128211D01*
X0009675Y0128694D01*
X0009675Y0129662D01*
X0009191Y0130146D01*
X0009191Y0127199D02*
X0009675Y0126715D01*
X0009675Y0125748D01*
X0009191Y0125264D01*
X0009191Y0127199D02*
X0008708Y0127199D01*
X0006773Y0125264D01*
X0006773Y0127199D01*
X0011530Y0112793D02*
X0011046Y0112309D01*
X0011046Y0111825D01*
X0011530Y0111341D01*
X0011046Y0110858D01*
X0011046Y0110374D01*
X0011530Y0109890D01*
X0012498Y0109890D01*
X0012981Y0110374D01*
X0013993Y0109890D02*
X0015928Y0109890D01*
X0014960Y0109890D02*
X0014960Y0112793D01*
X0015928Y0111825D01*
X0016939Y0111341D02*
X0017423Y0110858D01*
X0018874Y0110858D01*
X0017907Y0110858D02*
X0016939Y0109890D01*
X0016939Y0111341D02*
X0016939Y0112309D01*
X0017423Y0112793D01*
X0018874Y0112793D01*
X0018874Y0109890D01*
X0012981Y0112309D02*
X0012498Y0112793D01*
X0011530Y0112793D01*
X0011530Y0111341D02*
X0012014Y0111341D01*
X0029563Y0110878D02*
X0029563Y0109910D01*
X0030047Y0109426D01*
X0031014Y0109426D01*
X0031498Y0109910D01*
X0031498Y0110878D02*
X0030531Y0111361D01*
X0030047Y0111361D01*
X0029563Y0110878D01*
X0029563Y0112329D02*
X0031498Y0112329D01*
X0031498Y0110878D01*
X0032510Y0109426D02*
X0034445Y0109426D01*
X0033477Y0109426D02*
X0033477Y0112329D01*
X0034445Y0111361D01*
X0035456Y0110878D02*
X0035940Y0110394D01*
X0037391Y0110394D01*
X0036424Y0110394D02*
X0035456Y0109426D01*
X0035456Y0110878D02*
X0035456Y0111845D01*
X0035940Y0112329D01*
X0037391Y0112329D01*
X0037391Y0109426D01*
X0039686Y0125264D02*
X0039686Y0126715D01*
X0040170Y0127199D01*
X0040654Y0127199D01*
X0041137Y0126715D01*
X0041137Y0125264D01*
X0039686Y0125264D02*
X0042589Y0125264D01*
X0042589Y0126715D01*
X0042105Y0127199D01*
X0041621Y0127199D01*
X0041137Y0126715D01*
X0041621Y0128211D02*
X0041137Y0128694D01*
X0041137Y0129662D01*
X0040654Y0130146D01*
X0040170Y0130146D01*
X0039686Y0129662D01*
X0039686Y0128694D01*
X0040170Y0128211D01*
X0041621Y0128211D02*
X0042105Y0128211D01*
X0042589Y0128694D01*
X0042589Y0129662D01*
X0042105Y0130146D01*
X0042105Y0131157D02*
X0041621Y0131157D01*
X0041137Y0131641D01*
X0041137Y0132608D01*
X0040654Y0133092D01*
X0040170Y0133092D01*
X0039686Y0132608D01*
X0039686Y0131641D01*
X0040170Y0131157D01*
X0042105Y0131157D02*
X0042589Y0131641D01*
X0042589Y0132608D01*
X0042105Y0133092D01*
X0041621Y0134104D02*
X0042589Y0135071D01*
X0039686Y0135071D01*
X0039686Y0134104D02*
X0039686Y0136039D01*
X0040170Y0137050D02*
X0039686Y0137534D01*
X0039686Y0138501D01*
X0040170Y0138985D01*
X0040654Y0138985D01*
X0041137Y0138501D01*
X0041137Y0138018D01*
X0041137Y0138501D02*
X0041621Y0138985D01*
X0042105Y0138985D01*
X0042589Y0138501D01*
X0042589Y0137534D01*
X0042105Y0137050D01*
X0042105Y0139997D02*
X0041621Y0139997D01*
X0041137Y0140480D01*
X0041137Y0141448D01*
X0040654Y0141932D01*
X0040170Y0141932D01*
X0039686Y0141448D01*
X0039686Y0140480D01*
X0040170Y0139997D01*
X0040654Y0139997D01*
X0041137Y0140480D01*
X0041137Y0141448D02*
X0041621Y0141932D01*
X0042105Y0141932D01*
X0042589Y0141448D01*
X0042589Y0140480D01*
X0042105Y0139997D01*
X0028855Y0140453D02*
X0028371Y0139969D01*
X0027403Y0139969D01*
X0026920Y0140453D01*
X0026920Y0142388D01*
X0027403Y0142871D01*
X0028371Y0142871D01*
X0028855Y0142388D01*
X0028855Y0140453D01*
X0027887Y0140936D02*
X0026920Y0139969D01*
X0025908Y0140453D02*
X0025424Y0139969D01*
X0024457Y0139969D01*
X0023973Y0140453D01*
X0023973Y0140936D01*
X0024457Y0141420D01*
X0024941Y0141420D01*
X0024457Y0141420D02*
X0023973Y0141904D01*
X0023973Y0142388D01*
X0024457Y0142871D01*
X0025424Y0142871D01*
X0025908Y0142388D01*
X0032276Y0087190D02*
X0033727Y0085739D01*
X0031792Y0085739D01*
X0032276Y0084288D02*
X0032276Y0087190D01*
X0034739Y0086707D02*
X0034739Y0084772D01*
X0035222Y0084288D01*
X0036190Y0084288D01*
X0036674Y0084772D01*
X0036674Y0086707D01*
X0036190Y0087190D01*
X0035222Y0087190D01*
X0034739Y0086707D01*
X0035706Y0085255D02*
X0034739Y0084288D01*
X0041553Y0083962D02*
X0041553Y0082994D01*
X0042037Y0082511D01*
X0042521Y0082511D01*
X0043004Y0082994D01*
X0043004Y0083962D01*
X0042521Y0084446D01*
X0042037Y0084446D01*
X0041553Y0083962D01*
X0043004Y0083962D02*
X0043488Y0084446D01*
X0043972Y0084446D01*
X0044456Y0083962D01*
X0044456Y0082994D01*
X0043972Y0082511D01*
X0043488Y0082511D01*
X0043004Y0082994D01*
X0042521Y0081499D02*
X0042037Y0081499D01*
X0041553Y0081015D01*
X0041553Y0080048D01*
X0042037Y0079564D01*
X0041553Y0078553D02*
X0041553Y0076618D01*
X0041553Y0077585D02*
X0044456Y0077585D01*
X0043488Y0076618D01*
X0043972Y0075606D02*
X0044456Y0075122D01*
X0044456Y0074155D01*
X0043972Y0073671D01*
X0043488Y0073671D01*
X0043004Y0074155D01*
X0043004Y0075122D01*
X0042521Y0075606D01*
X0042037Y0075606D01*
X0041553Y0075122D01*
X0041553Y0074155D01*
X0042037Y0073671D01*
X0042037Y0072659D02*
X0041553Y0072176D01*
X0041553Y0071208D01*
X0042037Y0070724D01*
X0042037Y0069713D02*
X0041553Y0069229D01*
X0041553Y0067778D01*
X0044456Y0067778D01*
X0044456Y0069229D01*
X0043972Y0069713D01*
X0043488Y0069713D01*
X0043004Y0069229D01*
X0043004Y0067778D01*
X0043004Y0069229D02*
X0042521Y0069713D01*
X0042037Y0069713D01*
X0043488Y0070724D02*
X0043004Y0071208D01*
X0043004Y0072176D01*
X0042521Y0072659D01*
X0042037Y0072659D01*
X0043972Y0072659D02*
X0044456Y0072176D01*
X0044456Y0071208D01*
X0043972Y0070724D01*
X0043488Y0070724D01*
X0043972Y0079564D02*
X0044456Y0080048D01*
X0044456Y0081015D01*
X0043972Y0081499D01*
X0043488Y0081499D01*
X0043004Y0081015D01*
X0042521Y0081499D01*
X0043004Y0081015D02*
X0043004Y0080532D01*
X0037891Y0056561D02*
X0036440Y0056561D01*
X0035956Y0056077D01*
X0035956Y0055110D01*
X0036440Y0054626D01*
X0037891Y0054626D01*
X0037891Y0053659D02*
X0037891Y0056561D01*
X0036924Y0054626D02*
X0035956Y0053659D01*
X0034945Y0053659D02*
X0033010Y0053659D01*
X0033977Y0053659D02*
X0033977Y0056561D01*
X0034945Y0055594D01*
X0031998Y0055110D02*
X0030547Y0055110D01*
X0030063Y0054626D01*
X0030063Y0054142D01*
X0030547Y0053659D01*
X0031514Y0053659D01*
X0031998Y0054142D01*
X0031998Y0055110D01*
X0031031Y0056077D01*
X0030063Y0056561D01*
X0020374Y0056761D02*
X0020374Y0053859D01*
X0020374Y0054826D02*
X0018923Y0054826D01*
X0018439Y0055310D01*
X0018439Y0056277D01*
X0018923Y0056761D01*
X0020374Y0056761D01*
X0019407Y0054826D02*
X0018439Y0053859D01*
X0017428Y0053859D02*
X0015493Y0053859D01*
X0016460Y0053859D02*
X0016460Y0056761D01*
X0017428Y0055794D01*
X0014481Y0055310D02*
X0012546Y0055310D01*
X0013030Y0056761D02*
X0014481Y0055310D01*
X0013030Y0053859D02*
X0013030Y0056761D01*
X0008691Y0070174D02*
X0009175Y0070657D01*
X0009175Y0071625D01*
X0008691Y0072109D01*
X0008208Y0072109D01*
X0006273Y0070174D01*
X0006273Y0072109D01*
X0006756Y0073120D02*
X0006273Y0073604D01*
X0006273Y0074571D01*
X0006756Y0075055D01*
X0007240Y0075055D01*
X0007724Y0074571D01*
X0007724Y0073604D01*
X0008208Y0073120D01*
X0008691Y0073120D01*
X0009175Y0073604D01*
X0009175Y0074571D01*
X0008691Y0075055D01*
X0009175Y0077034D02*
X0009175Y0078002D01*
X0009175Y0077518D02*
X0006756Y0077518D01*
X0006273Y0077034D01*
X0006273Y0076550D01*
X0006756Y0076067D01*
X0006756Y0079013D02*
X0006273Y0079497D01*
X0006273Y0080464D01*
X0006756Y0080948D01*
X0007240Y0080948D01*
X0007724Y0080464D01*
X0007724Y0079013D01*
X0006756Y0079013D01*
X0007724Y0079013D02*
X0008691Y0079981D01*
X0009175Y0080948D01*
X0008691Y0081960D02*
X0009175Y0082443D01*
X0009175Y0083411D01*
X0008691Y0083895D01*
X0008208Y0083895D01*
X0006273Y0081960D01*
X0006273Y0083895D01*
X0006756Y0084906D02*
X0006273Y0085390D01*
X0006273Y0086357D01*
X0006756Y0086841D01*
X0007240Y0086841D01*
X0007724Y0086357D01*
X0007724Y0084906D01*
X0006756Y0084906D01*
X0007724Y0084906D02*
X0008691Y0085874D01*
X0009175Y0086841D01*
X0010292Y0087029D02*
X0010776Y0087513D01*
X0011743Y0087513D01*
X0012227Y0087029D01*
X0013239Y0087029D02*
X0013239Y0085094D01*
X0013722Y0084611D01*
X0014690Y0084611D01*
X0015174Y0085094D01*
X0015174Y0087029D01*
X0014690Y0087513D01*
X0013722Y0087513D01*
X0013239Y0087029D01*
X0014206Y0085578D02*
X0013239Y0084611D01*
X0012227Y0084611D02*
X0010292Y0086546D01*
X0010292Y0087029D01*
X0010292Y0084611D02*
X0012227Y0084611D01*
D14*
X0307218Y0232843D02*
X0308720Y0232843D01*
X0308219Y0233344D01*
X0308720Y0233844D01*
X0307218Y0233844D01*
X0307469Y0234317D02*
X0307218Y0234567D01*
X0307218Y0235067D01*
X0307469Y0235318D01*
X0307719Y0235790D02*
X0307719Y0236541D01*
X0307969Y0236791D01*
X0308469Y0236791D01*
X0308720Y0236541D01*
X0308720Y0235790D01*
X0307218Y0235790D01*
X0308469Y0235318D02*
X0308720Y0235067D01*
X0308720Y0234567D01*
X0308469Y0234317D01*
X0307469Y0234317D01*
X0307969Y0237263D02*
X0307969Y0238264D01*
X0307469Y0238737D02*
X0307218Y0238737D01*
X0307469Y0238737D02*
X0308469Y0239737D01*
X0308720Y0239737D01*
X0308720Y0238737D01*
X0308720Y0238014D02*
X0307969Y0237263D01*
X0307218Y0238014D02*
X0308720Y0238014D01*
X0308469Y0240210D02*
X0308720Y0240460D01*
X0308720Y0240960D01*
X0308469Y0241211D01*
X0308219Y0241211D01*
X0307218Y0240210D01*
X0307218Y0241211D01*
X0307469Y0241683D02*
X0307719Y0241683D01*
X0307969Y0241933D01*
X0307969Y0242434D01*
X0307719Y0242684D01*
X0307469Y0242684D01*
X0307218Y0242434D01*
X0307218Y0241933D01*
X0307469Y0241683D01*
X0307969Y0241933D02*
X0308219Y0241683D01*
X0308469Y0241683D01*
X0308720Y0241933D01*
X0308720Y0242434D01*
X0308469Y0242684D01*
X0308219Y0242684D01*
X0307969Y0242434D01*
M02*
