%
M48
M72
T01C0.01378
T02C0.04000
T03C0.04331
T04C0.13780
%
T01
X51938Y76886
X51938Y97122
X51938Y109770
X51938Y137594
X51938Y152772
X41820Y223598
X41820Y228657
X31701Y233717
X24347Y245500
X31701Y248894
X34231Y246364
X36761Y264071
X16524Y248894
X8936Y248894
X16524Y233717
X24113Y289366
X26642Y299484
X26642Y304543
X26642Y309602
X26642Y314661
X26642Y319720
X211298Y284307
X246711Y264071
X279595Y251423
X284654Y251423
X289713Y251423
X294772Y251423
X304890Y259012
X309950Y266600
X307420Y276719
X315009Y286837
X312479Y289366
X325127Y296955
X307420Y309602
X302361Y319720
X297302Y329839
X241652Y322250
X239123Y223598
X231534Y216010
X261888Y193244
X264418Y188185
X279595Y188185
X284654Y185656
X289713Y185656
X294772Y185656
X340304Y167949
X203709Y127476
X201180Y124947
X203709Y87004
X134347Y92559
X130847Y92559
T02
X16701Y26295
X26701Y26295
X36701Y26295
X46701Y26295
X52469Y46591
X62469Y46591
X62469Y56591
X52469Y56591
X62056Y71827
X62056Y81945
X62056Y102181
X62056Y112299
X82292Y112299
X82292Y102181
X82292Y81945
X82292Y71827
X82469Y56591
X92469Y56591
X102469Y56591
X112469Y56591
X122469Y56591
X132469Y56591
X142469Y56591
X142469Y46591
X132469Y46591
X122469Y46591
X112469Y46591
X102469Y46591
X92469Y46591
X82469Y46591
X72469Y46591
X72469Y56591
X102528Y71827
X102528Y81945
X102528Y102181
X102528Y112299
X102528Y132535
X102528Y142654
X82292Y142654
X82292Y132535
X62056Y132535
X62056Y142654
X62056Y162890
X62056Y173008
X82292Y173008
X82292Y162890
X102528Y162890
X102528Y173008
X122764Y173008
X122764Y162890
X143001Y162890
X143001Y173008
X147528Y203362
X137528Y203362
X127528Y203362
X117528Y203362
X107528Y203362
X97528Y203362
X87528Y203362
X77528Y203362
X67528Y203362
X57528Y203362
X47528Y203362
X37528Y203362
X27528Y203362
X26583Y178067
X16583Y178067
X52056Y223598
X62056Y223598
X72056Y223598
X72056Y233717
X62056Y233717
X52056Y233717
X52056Y243835
X62056Y243835
X72056Y243835
X72056Y253953
X72056Y264071
X62056Y264071
X52056Y264071
X52056Y253953
X62056Y253953
X62056Y274189
X52056Y274189
X52056Y284307
X62056Y284307
X72056Y284307
X72056Y274189
X82410Y274189
X92410Y274189
X102410Y274189
X102410Y284307
X92410Y284307
X82410Y284307
X82410Y294425
X92410Y294425
X92410Y304543
X82410Y304543
X82410Y314661
X92410Y314661
X102410Y314661
X102410Y304543
X102410Y294425
X112764Y294425
X112764Y304543
X122764Y304543
X132764Y304543
X132764Y294425
X122764Y294425
X122764Y284307
X132764Y284307
X132764Y274189
X122764Y274189
X112764Y274189
X112764Y284307
X112764Y264071
X112764Y253953
X122764Y253953
X132764Y253953
X132764Y264071
X122764Y264071
X122764Y243835
X132764Y243835
X132764Y233717
X122764Y233717
X112764Y233717
X112764Y243835
X102410Y243835
X92410Y243835
X82410Y243835
X82410Y253953
X92410Y253953
X92410Y264071
X82410Y264071
X102410Y264071
X102410Y253953
X102410Y233717
X92410Y233717
X82410Y233717
X82410Y223598
X92410Y223598
X102410Y223598
X112764Y223598
X122764Y223598
X132764Y223598
X143119Y223598
X153119Y223598
X163119Y223598
X163119Y233717
X153119Y233717
X143119Y233717
X143119Y243835
X153119Y243835
X163119Y243835
X163119Y253953
X153119Y253953
X153119Y264071
X163119Y264071
X163119Y274189
X153119Y274189
X143119Y274189
X143119Y284307
X153119Y284307
X163119Y284307
X163119Y294425
X153119Y294425
X153119Y304543
X163119Y304543
X163178Y314807
X153178Y314807
X143178Y314807
X143119Y304543
X143119Y294425
X132764Y314661
X122764Y314661
X112764Y314661
X117528Y334898
X107528Y334898
X97528Y334898
X87528Y334898
X77528Y334898
X67528Y334898
X57528Y334898
X47528Y334898
X37528Y334898
X27528Y334898
X52056Y314661
X62056Y314661
X72056Y314661
X72056Y304543
X72056Y294425
X62056Y294425
X52056Y294425
X52056Y304543
X62056Y304543
X127528Y334898
X137528Y334898
X147528Y334898
X157528Y334898
X167528Y334898
X177528Y334898
X173178Y314598
X183178Y314598
X193178Y314598
X193473Y304543
X193473Y294425
X183473Y294425
X183473Y304543
X173473Y304543
X173473Y294425
X173473Y284307
X183473Y284307
X193473Y284307
X193473Y274189
X183473Y274189
X173473Y274189
X173473Y264071
X173473Y253953
X183473Y253953
X183473Y264071
X193473Y264071
X193473Y253953
X193473Y243835
X183473Y243835
X173473Y243835
X173473Y233717
X183473Y233717
X193473Y233717
X193473Y223598
X183473Y223598
X173473Y223598
X177528Y203362
X167528Y203362
X157528Y203362
X193591Y173008
X193591Y162890
X213827Y162890
X213827Y173008
X234064Y173008
X234064Y162890
X254300Y162890
X254300Y173008
X284654Y173008
X284654Y162890
X284654Y142654
X284654Y132535
X284654Y112299
X284654Y102181
X284654Y81945
X284654Y71827
X285068Y56591
X295068Y56591
X305068Y56591
X315068Y56591
X325068Y56591
X335068Y56591
X345068Y56591
X355068Y56591
X355068Y46591
X345068Y46591
X335068Y46591
X325068Y46591
X315068Y46591
X305068Y46591
X295068Y46591
X285068Y46591
X304890Y71827
X304890Y81945
X304890Y102181
X304890Y112299
X325127Y112299
X325127Y102181
X345363Y102181
X345363Y112299
X345363Y132535
X345363Y142654
X325127Y142654
X325127Y132535
X304890Y132535
X304890Y142654
X304890Y162890
X304890Y173008
X325127Y173008
X325127Y162890
X345363Y162890
X345363Y173008
X345363Y209248
X335245Y209248
X335245Y219248
X345363Y219248
X345363Y229248
X335245Y229248
X335245Y239248
X335245Y249248
X345363Y249248
X345363Y239248
X355481Y239248
X355481Y249248
X355481Y259248
X355481Y269248
X355481Y279248
X355481Y289248
X355481Y299248
X355481Y309248
X355481Y319248
X355481Y329248
X355481Y339248
X355481Y349248
X345363Y349248
X335245Y349248
X335245Y339248
X345363Y339248
X345363Y329248
X335245Y329248
X335245Y319248
X335245Y309248
X345363Y309248
X345363Y319248
X345363Y299248
X335245Y299248
X335245Y289248
X345363Y289248
X345363Y279248
X345363Y269248
X335245Y269248
X335245Y279248
X335245Y259248
X345363Y259248
X355481Y229248
X355481Y219248
X355481Y209248
X274536Y209248
X264418Y209248
X264418Y219248
X274536Y219248
X274536Y229248
X264418Y229248
X264418Y239248
X264418Y249248
X274536Y249248
X274536Y239248
X274536Y259248
X264418Y259248
X264418Y269248
X264418Y279248
X274536Y279248
X274536Y269248
X274536Y289248
X264418Y289248
X264418Y299248
X274536Y299248
X274536Y309248
X274536Y319248
X264418Y319248
X264418Y309248
X254300Y309248
X254300Y319248
X254300Y329248
X254300Y339248
X254300Y349248
X264418Y349248
X274536Y349248
X274536Y339248
X264418Y339248
X264418Y329248
X274536Y329248
X254300Y299248
X254300Y289248
X254300Y279248
X254300Y269248
X254300Y259248
X254300Y249248
X254300Y239248
X254300Y229248
X254300Y219248
X254300Y209248
X254300Y142654
X254300Y132535
X234064Y132535
X234064Y142654
X213827Y142654
X213827Y132535
X193591Y132535
X193591Y142654
X193591Y112299
X193591Y102181
X193591Y81945
X193591Y71827
X193827Y56591
X203827Y56591
X203827Y46591
X193827Y46591
X183827Y46591
X173827Y46591
X173827Y56591
X183827Y56591
X173355Y71827
X173355Y81945
X173355Y102181
X173355Y112299
X143001Y112299
X143001Y102181
X143001Y81945
X143001Y71827
X122764Y71827
X122764Y81945
X122764Y102181
X122764Y112299
X122764Y132535
X122764Y142654
X143001Y142654
X143001Y132535
X213827Y112299
X213827Y102181
X213827Y81945
X213827Y71827
X213827Y56591
X213827Y46591
X223827Y46591
X233827Y46591
X233827Y56591
X223827Y56591
X234064Y71827
X234064Y81945
X254300Y81945
X254300Y71827
X253827Y56591
X243827Y56591
X243827Y46591
X253827Y46591
X254300Y102181
X254300Y112299
X234064Y112299
X234064Y102181
X325127Y81945
X325127Y71827
X345363Y71827
X345363Y81945
X143119Y253953
X143119Y264071
T03
X223946Y253835
X223946Y243835
X223946Y233835
X223946Y284425
X223946Y294425
X223946Y304425
X36642Y152772
X26642Y152772
X16642Y152772
X16642Y97122
X26642Y97122
X36642Y97122
T04
X68276Y12811
X349772Y12811
X217883Y355331
X32843Y355331
M30
