G75*
%MOIN*%
%OFA0B0*%
%FSLAX25Y25*%
%IPPOS*%
%LPD*%
%AMOC8*
5,1,8,0,0,1.08239X$1,22.5*
%
%ADD10C,0.00000*%
%ADD11OC8,0.06000*%
%ADD12C,0.06000*%
%ADD13C,0.06496*%
%ADD14R,0.03150X0.03150*%
%ADD15R,0.03543X0.03150*%
%ADD16R,0.04331X0.03937*%
%ADD17R,0.03150X0.03543*%
%ADD18R,0.03937X0.04331*%
%ADD19R,0.02756X0.01969*%
%ADD20C,0.00600*%
%ADD21C,0.02578*%
%ADD22C,0.02000*%
%ADD23C,0.10000*%
%ADD24C,0.04000*%
D10*
X0001347Y0001000D02*
X0001347Y0366551D01*
X0370402Y0366551D01*
X0370402Y0001000D01*
X0001347Y0001000D01*
X0061386Y0012811D02*
X0061388Y0012980D01*
X0061394Y0013149D01*
X0061405Y0013318D01*
X0061419Y0013486D01*
X0061438Y0013654D01*
X0061461Y0013822D01*
X0061487Y0013989D01*
X0061518Y0014155D01*
X0061553Y0014321D01*
X0061592Y0014485D01*
X0061636Y0014649D01*
X0061683Y0014811D01*
X0061734Y0014972D01*
X0061789Y0015132D01*
X0061848Y0015291D01*
X0061910Y0015448D01*
X0061977Y0015603D01*
X0062048Y0015757D01*
X0062122Y0015909D01*
X0062200Y0016059D01*
X0062281Y0016207D01*
X0062366Y0016353D01*
X0062455Y0016497D01*
X0062547Y0016639D01*
X0062643Y0016778D01*
X0062742Y0016915D01*
X0062844Y0017050D01*
X0062950Y0017182D01*
X0063059Y0017311D01*
X0063171Y0017438D01*
X0063286Y0017562D01*
X0063404Y0017683D01*
X0063525Y0017801D01*
X0063649Y0017916D01*
X0063776Y0018028D01*
X0063905Y0018137D01*
X0064037Y0018243D01*
X0064172Y0018345D01*
X0064309Y0018444D01*
X0064448Y0018540D01*
X0064590Y0018632D01*
X0064734Y0018721D01*
X0064880Y0018806D01*
X0065028Y0018887D01*
X0065178Y0018965D01*
X0065330Y0019039D01*
X0065484Y0019110D01*
X0065639Y0019177D01*
X0065796Y0019239D01*
X0065955Y0019298D01*
X0066115Y0019353D01*
X0066276Y0019404D01*
X0066438Y0019451D01*
X0066602Y0019495D01*
X0066766Y0019534D01*
X0066932Y0019569D01*
X0067098Y0019600D01*
X0067265Y0019626D01*
X0067433Y0019649D01*
X0067601Y0019668D01*
X0067769Y0019682D01*
X0067938Y0019693D01*
X0068107Y0019699D01*
X0068276Y0019701D01*
X0068445Y0019699D01*
X0068614Y0019693D01*
X0068783Y0019682D01*
X0068951Y0019668D01*
X0069119Y0019649D01*
X0069287Y0019626D01*
X0069454Y0019600D01*
X0069620Y0019569D01*
X0069786Y0019534D01*
X0069950Y0019495D01*
X0070114Y0019451D01*
X0070276Y0019404D01*
X0070437Y0019353D01*
X0070597Y0019298D01*
X0070756Y0019239D01*
X0070913Y0019177D01*
X0071068Y0019110D01*
X0071222Y0019039D01*
X0071374Y0018965D01*
X0071524Y0018887D01*
X0071672Y0018806D01*
X0071818Y0018721D01*
X0071962Y0018632D01*
X0072104Y0018540D01*
X0072243Y0018444D01*
X0072380Y0018345D01*
X0072515Y0018243D01*
X0072647Y0018137D01*
X0072776Y0018028D01*
X0072903Y0017916D01*
X0073027Y0017801D01*
X0073148Y0017683D01*
X0073266Y0017562D01*
X0073381Y0017438D01*
X0073493Y0017311D01*
X0073602Y0017182D01*
X0073708Y0017050D01*
X0073810Y0016915D01*
X0073909Y0016778D01*
X0074005Y0016639D01*
X0074097Y0016497D01*
X0074186Y0016353D01*
X0074271Y0016207D01*
X0074352Y0016059D01*
X0074430Y0015909D01*
X0074504Y0015757D01*
X0074575Y0015603D01*
X0074642Y0015448D01*
X0074704Y0015291D01*
X0074763Y0015132D01*
X0074818Y0014972D01*
X0074869Y0014811D01*
X0074916Y0014649D01*
X0074960Y0014485D01*
X0074999Y0014321D01*
X0075034Y0014155D01*
X0075065Y0013989D01*
X0075091Y0013822D01*
X0075114Y0013654D01*
X0075133Y0013486D01*
X0075147Y0013318D01*
X0075158Y0013149D01*
X0075164Y0012980D01*
X0075166Y0012811D01*
X0075164Y0012642D01*
X0075158Y0012473D01*
X0075147Y0012304D01*
X0075133Y0012136D01*
X0075114Y0011968D01*
X0075091Y0011800D01*
X0075065Y0011633D01*
X0075034Y0011467D01*
X0074999Y0011301D01*
X0074960Y0011137D01*
X0074916Y0010973D01*
X0074869Y0010811D01*
X0074818Y0010650D01*
X0074763Y0010490D01*
X0074704Y0010331D01*
X0074642Y0010174D01*
X0074575Y0010019D01*
X0074504Y0009865D01*
X0074430Y0009713D01*
X0074352Y0009563D01*
X0074271Y0009415D01*
X0074186Y0009269D01*
X0074097Y0009125D01*
X0074005Y0008983D01*
X0073909Y0008844D01*
X0073810Y0008707D01*
X0073708Y0008572D01*
X0073602Y0008440D01*
X0073493Y0008311D01*
X0073381Y0008184D01*
X0073266Y0008060D01*
X0073148Y0007939D01*
X0073027Y0007821D01*
X0072903Y0007706D01*
X0072776Y0007594D01*
X0072647Y0007485D01*
X0072515Y0007379D01*
X0072380Y0007277D01*
X0072243Y0007178D01*
X0072104Y0007082D01*
X0071962Y0006990D01*
X0071818Y0006901D01*
X0071672Y0006816D01*
X0071524Y0006735D01*
X0071374Y0006657D01*
X0071222Y0006583D01*
X0071068Y0006512D01*
X0070913Y0006445D01*
X0070756Y0006383D01*
X0070597Y0006324D01*
X0070437Y0006269D01*
X0070276Y0006218D01*
X0070114Y0006171D01*
X0069950Y0006127D01*
X0069786Y0006088D01*
X0069620Y0006053D01*
X0069454Y0006022D01*
X0069287Y0005996D01*
X0069119Y0005973D01*
X0068951Y0005954D01*
X0068783Y0005940D01*
X0068614Y0005929D01*
X0068445Y0005923D01*
X0068276Y0005921D01*
X0068107Y0005923D01*
X0067938Y0005929D01*
X0067769Y0005940D01*
X0067601Y0005954D01*
X0067433Y0005973D01*
X0067265Y0005996D01*
X0067098Y0006022D01*
X0066932Y0006053D01*
X0066766Y0006088D01*
X0066602Y0006127D01*
X0066438Y0006171D01*
X0066276Y0006218D01*
X0066115Y0006269D01*
X0065955Y0006324D01*
X0065796Y0006383D01*
X0065639Y0006445D01*
X0065484Y0006512D01*
X0065330Y0006583D01*
X0065178Y0006657D01*
X0065028Y0006735D01*
X0064880Y0006816D01*
X0064734Y0006901D01*
X0064590Y0006990D01*
X0064448Y0007082D01*
X0064309Y0007178D01*
X0064172Y0007277D01*
X0064037Y0007379D01*
X0063905Y0007485D01*
X0063776Y0007594D01*
X0063649Y0007706D01*
X0063525Y0007821D01*
X0063404Y0007939D01*
X0063286Y0008060D01*
X0063171Y0008184D01*
X0063059Y0008311D01*
X0062950Y0008440D01*
X0062844Y0008572D01*
X0062742Y0008707D01*
X0062643Y0008844D01*
X0062547Y0008983D01*
X0062455Y0009125D01*
X0062366Y0009269D01*
X0062281Y0009415D01*
X0062200Y0009563D01*
X0062122Y0009713D01*
X0062048Y0009865D01*
X0061977Y0010019D01*
X0061910Y0010174D01*
X0061848Y0010331D01*
X0061789Y0010490D01*
X0061734Y0010650D01*
X0061683Y0010811D01*
X0061636Y0010973D01*
X0061592Y0011137D01*
X0061553Y0011301D01*
X0061518Y0011467D01*
X0061487Y0011633D01*
X0061461Y0011800D01*
X0061438Y0011968D01*
X0061419Y0012136D01*
X0061405Y0012304D01*
X0061394Y0012473D01*
X0061388Y0012642D01*
X0061386Y0012811D01*
X0342882Y0012811D02*
X0342884Y0012980D01*
X0342890Y0013149D01*
X0342901Y0013318D01*
X0342915Y0013486D01*
X0342934Y0013654D01*
X0342957Y0013822D01*
X0342983Y0013989D01*
X0343014Y0014155D01*
X0343049Y0014321D01*
X0343088Y0014485D01*
X0343132Y0014649D01*
X0343179Y0014811D01*
X0343230Y0014972D01*
X0343285Y0015132D01*
X0343344Y0015291D01*
X0343406Y0015448D01*
X0343473Y0015603D01*
X0343544Y0015757D01*
X0343618Y0015909D01*
X0343696Y0016059D01*
X0343777Y0016207D01*
X0343862Y0016353D01*
X0343951Y0016497D01*
X0344043Y0016639D01*
X0344139Y0016778D01*
X0344238Y0016915D01*
X0344340Y0017050D01*
X0344446Y0017182D01*
X0344555Y0017311D01*
X0344667Y0017438D01*
X0344782Y0017562D01*
X0344900Y0017683D01*
X0345021Y0017801D01*
X0345145Y0017916D01*
X0345272Y0018028D01*
X0345401Y0018137D01*
X0345533Y0018243D01*
X0345668Y0018345D01*
X0345805Y0018444D01*
X0345944Y0018540D01*
X0346086Y0018632D01*
X0346230Y0018721D01*
X0346376Y0018806D01*
X0346524Y0018887D01*
X0346674Y0018965D01*
X0346826Y0019039D01*
X0346980Y0019110D01*
X0347135Y0019177D01*
X0347292Y0019239D01*
X0347451Y0019298D01*
X0347611Y0019353D01*
X0347772Y0019404D01*
X0347934Y0019451D01*
X0348098Y0019495D01*
X0348262Y0019534D01*
X0348428Y0019569D01*
X0348594Y0019600D01*
X0348761Y0019626D01*
X0348929Y0019649D01*
X0349097Y0019668D01*
X0349265Y0019682D01*
X0349434Y0019693D01*
X0349603Y0019699D01*
X0349772Y0019701D01*
X0349941Y0019699D01*
X0350110Y0019693D01*
X0350279Y0019682D01*
X0350447Y0019668D01*
X0350615Y0019649D01*
X0350783Y0019626D01*
X0350950Y0019600D01*
X0351116Y0019569D01*
X0351282Y0019534D01*
X0351446Y0019495D01*
X0351610Y0019451D01*
X0351772Y0019404D01*
X0351933Y0019353D01*
X0352093Y0019298D01*
X0352252Y0019239D01*
X0352409Y0019177D01*
X0352564Y0019110D01*
X0352718Y0019039D01*
X0352870Y0018965D01*
X0353020Y0018887D01*
X0353168Y0018806D01*
X0353314Y0018721D01*
X0353458Y0018632D01*
X0353600Y0018540D01*
X0353739Y0018444D01*
X0353876Y0018345D01*
X0354011Y0018243D01*
X0354143Y0018137D01*
X0354272Y0018028D01*
X0354399Y0017916D01*
X0354523Y0017801D01*
X0354644Y0017683D01*
X0354762Y0017562D01*
X0354877Y0017438D01*
X0354989Y0017311D01*
X0355098Y0017182D01*
X0355204Y0017050D01*
X0355306Y0016915D01*
X0355405Y0016778D01*
X0355501Y0016639D01*
X0355593Y0016497D01*
X0355682Y0016353D01*
X0355767Y0016207D01*
X0355848Y0016059D01*
X0355926Y0015909D01*
X0356000Y0015757D01*
X0356071Y0015603D01*
X0356138Y0015448D01*
X0356200Y0015291D01*
X0356259Y0015132D01*
X0356314Y0014972D01*
X0356365Y0014811D01*
X0356412Y0014649D01*
X0356456Y0014485D01*
X0356495Y0014321D01*
X0356530Y0014155D01*
X0356561Y0013989D01*
X0356587Y0013822D01*
X0356610Y0013654D01*
X0356629Y0013486D01*
X0356643Y0013318D01*
X0356654Y0013149D01*
X0356660Y0012980D01*
X0356662Y0012811D01*
X0356660Y0012642D01*
X0356654Y0012473D01*
X0356643Y0012304D01*
X0356629Y0012136D01*
X0356610Y0011968D01*
X0356587Y0011800D01*
X0356561Y0011633D01*
X0356530Y0011467D01*
X0356495Y0011301D01*
X0356456Y0011137D01*
X0356412Y0010973D01*
X0356365Y0010811D01*
X0356314Y0010650D01*
X0356259Y0010490D01*
X0356200Y0010331D01*
X0356138Y0010174D01*
X0356071Y0010019D01*
X0356000Y0009865D01*
X0355926Y0009713D01*
X0355848Y0009563D01*
X0355767Y0009415D01*
X0355682Y0009269D01*
X0355593Y0009125D01*
X0355501Y0008983D01*
X0355405Y0008844D01*
X0355306Y0008707D01*
X0355204Y0008572D01*
X0355098Y0008440D01*
X0354989Y0008311D01*
X0354877Y0008184D01*
X0354762Y0008060D01*
X0354644Y0007939D01*
X0354523Y0007821D01*
X0354399Y0007706D01*
X0354272Y0007594D01*
X0354143Y0007485D01*
X0354011Y0007379D01*
X0353876Y0007277D01*
X0353739Y0007178D01*
X0353600Y0007082D01*
X0353458Y0006990D01*
X0353314Y0006901D01*
X0353168Y0006816D01*
X0353020Y0006735D01*
X0352870Y0006657D01*
X0352718Y0006583D01*
X0352564Y0006512D01*
X0352409Y0006445D01*
X0352252Y0006383D01*
X0352093Y0006324D01*
X0351933Y0006269D01*
X0351772Y0006218D01*
X0351610Y0006171D01*
X0351446Y0006127D01*
X0351282Y0006088D01*
X0351116Y0006053D01*
X0350950Y0006022D01*
X0350783Y0005996D01*
X0350615Y0005973D01*
X0350447Y0005954D01*
X0350279Y0005940D01*
X0350110Y0005929D01*
X0349941Y0005923D01*
X0349772Y0005921D01*
X0349603Y0005923D01*
X0349434Y0005929D01*
X0349265Y0005940D01*
X0349097Y0005954D01*
X0348929Y0005973D01*
X0348761Y0005996D01*
X0348594Y0006022D01*
X0348428Y0006053D01*
X0348262Y0006088D01*
X0348098Y0006127D01*
X0347934Y0006171D01*
X0347772Y0006218D01*
X0347611Y0006269D01*
X0347451Y0006324D01*
X0347292Y0006383D01*
X0347135Y0006445D01*
X0346980Y0006512D01*
X0346826Y0006583D01*
X0346674Y0006657D01*
X0346524Y0006735D01*
X0346376Y0006816D01*
X0346230Y0006901D01*
X0346086Y0006990D01*
X0345944Y0007082D01*
X0345805Y0007178D01*
X0345668Y0007277D01*
X0345533Y0007379D01*
X0345401Y0007485D01*
X0345272Y0007594D01*
X0345145Y0007706D01*
X0345021Y0007821D01*
X0344900Y0007939D01*
X0344782Y0008060D01*
X0344667Y0008184D01*
X0344555Y0008311D01*
X0344446Y0008440D01*
X0344340Y0008572D01*
X0344238Y0008707D01*
X0344139Y0008844D01*
X0344043Y0008983D01*
X0343951Y0009125D01*
X0343862Y0009269D01*
X0343777Y0009415D01*
X0343696Y0009563D01*
X0343618Y0009713D01*
X0343544Y0009865D01*
X0343473Y0010019D01*
X0343406Y0010174D01*
X0343344Y0010331D01*
X0343285Y0010490D01*
X0343230Y0010650D01*
X0343179Y0010811D01*
X0343132Y0010973D01*
X0343088Y0011137D01*
X0343049Y0011301D01*
X0343014Y0011467D01*
X0342983Y0011633D01*
X0342957Y0011800D01*
X0342934Y0011968D01*
X0342915Y0012136D01*
X0342901Y0012304D01*
X0342890Y0012473D01*
X0342884Y0012642D01*
X0342882Y0012811D01*
X0210993Y0355331D02*
X0210995Y0355500D01*
X0211001Y0355669D01*
X0211012Y0355838D01*
X0211026Y0356006D01*
X0211045Y0356174D01*
X0211068Y0356342D01*
X0211094Y0356509D01*
X0211125Y0356675D01*
X0211160Y0356841D01*
X0211199Y0357005D01*
X0211243Y0357169D01*
X0211290Y0357331D01*
X0211341Y0357492D01*
X0211396Y0357652D01*
X0211455Y0357811D01*
X0211517Y0357968D01*
X0211584Y0358123D01*
X0211655Y0358277D01*
X0211729Y0358429D01*
X0211807Y0358579D01*
X0211888Y0358727D01*
X0211973Y0358873D01*
X0212062Y0359017D01*
X0212154Y0359159D01*
X0212250Y0359298D01*
X0212349Y0359435D01*
X0212451Y0359570D01*
X0212557Y0359702D01*
X0212666Y0359831D01*
X0212778Y0359958D01*
X0212893Y0360082D01*
X0213011Y0360203D01*
X0213132Y0360321D01*
X0213256Y0360436D01*
X0213383Y0360548D01*
X0213512Y0360657D01*
X0213644Y0360763D01*
X0213779Y0360865D01*
X0213916Y0360964D01*
X0214055Y0361060D01*
X0214197Y0361152D01*
X0214341Y0361241D01*
X0214487Y0361326D01*
X0214635Y0361407D01*
X0214785Y0361485D01*
X0214937Y0361559D01*
X0215091Y0361630D01*
X0215246Y0361697D01*
X0215403Y0361759D01*
X0215562Y0361818D01*
X0215722Y0361873D01*
X0215883Y0361924D01*
X0216045Y0361971D01*
X0216209Y0362015D01*
X0216373Y0362054D01*
X0216539Y0362089D01*
X0216705Y0362120D01*
X0216872Y0362146D01*
X0217040Y0362169D01*
X0217208Y0362188D01*
X0217376Y0362202D01*
X0217545Y0362213D01*
X0217714Y0362219D01*
X0217883Y0362221D01*
X0218052Y0362219D01*
X0218221Y0362213D01*
X0218390Y0362202D01*
X0218558Y0362188D01*
X0218726Y0362169D01*
X0218894Y0362146D01*
X0219061Y0362120D01*
X0219227Y0362089D01*
X0219393Y0362054D01*
X0219557Y0362015D01*
X0219721Y0361971D01*
X0219883Y0361924D01*
X0220044Y0361873D01*
X0220204Y0361818D01*
X0220363Y0361759D01*
X0220520Y0361697D01*
X0220675Y0361630D01*
X0220829Y0361559D01*
X0220981Y0361485D01*
X0221131Y0361407D01*
X0221279Y0361326D01*
X0221425Y0361241D01*
X0221569Y0361152D01*
X0221711Y0361060D01*
X0221850Y0360964D01*
X0221987Y0360865D01*
X0222122Y0360763D01*
X0222254Y0360657D01*
X0222383Y0360548D01*
X0222510Y0360436D01*
X0222634Y0360321D01*
X0222755Y0360203D01*
X0222873Y0360082D01*
X0222988Y0359958D01*
X0223100Y0359831D01*
X0223209Y0359702D01*
X0223315Y0359570D01*
X0223417Y0359435D01*
X0223516Y0359298D01*
X0223612Y0359159D01*
X0223704Y0359017D01*
X0223793Y0358873D01*
X0223878Y0358727D01*
X0223959Y0358579D01*
X0224037Y0358429D01*
X0224111Y0358277D01*
X0224182Y0358123D01*
X0224249Y0357968D01*
X0224311Y0357811D01*
X0224370Y0357652D01*
X0224425Y0357492D01*
X0224476Y0357331D01*
X0224523Y0357169D01*
X0224567Y0357005D01*
X0224606Y0356841D01*
X0224641Y0356675D01*
X0224672Y0356509D01*
X0224698Y0356342D01*
X0224721Y0356174D01*
X0224740Y0356006D01*
X0224754Y0355838D01*
X0224765Y0355669D01*
X0224771Y0355500D01*
X0224773Y0355331D01*
X0224771Y0355162D01*
X0224765Y0354993D01*
X0224754Y0354824D01*
X0224740Y0354656D01*
X0224721Y0354488D01*
X0224698Y0354320D01*
X0224672Y0354153D01*
X0224641Y0353987D01*
X0224606Y0353821D01*
X0224567Y0353657D01*
X0224523Y0353493D01*
X0224476Y0353331D01*
X0224425Y0353170D01*
X0224370Y0353010D01*
X0224311Y0352851D01*
X0224249Y0352694D01*
X0224182Y0352539D01*
X0224111Y0352385D01*
X0224037Y0352233D01*
X0223959Y0352083D01*
X0223878Y0351935D01*
X0223793Y0351789D01*
X0223704Y0351645D01*
X0223612Y0351503D01*
X0223516Y0351364D01*
X0223417Y0351227D01*
X0223315Y0351092D01*
X0223209Y0350960D01*
X0223100Y0350831D01*
X0222988Y0350704D01*
X0222873Y0350580D01*
X0222755Y0350459D01*
X0222634Y0350341D01*
X0222510Y0350226D01*
X0222383Y0350114D01*
X0222254Y0350005D01*
X0222122Y0349899D01*
X0221987Y0349797D01*
X0221850Y0349698D01*
X0221711Y0349602D01*
X0221569Y0349510D01*
X0221425Y0349421D01*
X0221279Y0349336D01*
X0221131Y0349255D01*
X0220981Y0349177D01*
X0220829Y0349103D01*
X0220675Y0349032D01*
X0220520Y0348965D01*
X0220363Y0348903D01*
X0220204Y0348844D01*
X0220044Y0348789D01*
X0219883Y0348738D01*
X0219721Y0348691D01*
X0219557Y0348647D01*
X0219393Y0348608D01*
X0219227Y0348573D01*
X0219061Y0348542D01*
X0218894Y0348516D01*
X0218726Y0348493D01*
X0218558Y0348474D01*
X0218390Y0348460D01*
X0218221Y0348449D01*
X0218052Y0348443D01*
X0217883Y0348441D01*
X0217714Y0348443D01*
X0217545Y0348449D01*
X0217376Y0348460D01*
X0217208Y0348474D01*
X0217040Y0348493D01*
X0216872Y0348516D01*
X0216705Y0348542D01*
X0216539Y0348573D01*
X0216373Y0348608D01*
X0216209Y0348647D01*
X0216045Y0348691D01*
X0215883Y0348738D01*
X0215722Y0348789D01*
X0215562Y0348844D01*
X0215403Y0348903D01*
X0215246Y0348965D01*
X0215091Y0349032D01*
X0214937Y0349103D01*
X0214785Y0349177D01*
X0214635Y0349255D01*
X0214487Y0349336D01*
X0214341Y0349421D01*
X0214197Y0349510D01*
X0214055Y0349602D01*
X0213916Y0349698D01*
X0213779Y0349797D01*
X0213644Y0349899D01*
X0213512Y0350005D01*
X0213383Y0350114D01*
X0213256Y0350226D01*
X0213132Y0350341D01*
X0213011Y0350459D01*
X0212893Y0350580D01*
X0212778Y0350704D01*
X0212666Y0350831D01*
X0212557Y0350960D01*
X0212451Y0351092D01*
X0212349Y0351227D01*
X0212250Y0351364D01*
X0212154Y0351503D01*
X0212062Y0351645D01*
X0211973Y0351789D01*
X0211888Y0351935D01*
X0211807Y0352083D01*
X0211729Y0352233D01*
X0211655Y0352385D01*
X0211584Y0352539D01*
X0211517Y0352694D01*
X0211455Y0352851D01*
X0211396Y0353010D01*
X0211341Y0353170D01*
X0211290Y0353331D01*
X0211243Y0353493D01*
X0211199Y0353657D01*
X0211160Y0353821D01*
X0211125Y0353987D01*
X0211094Y0354153D01*
X0211068Y0354320D01*
X0211045Y0354488D01*
X0211026Y0354656D01*
X0211012Y0354824D01*
X0211001Y0354993D01*
X0210995Y0355162D01*
X0210993Y0355331D01*
X0025953Y0355331D02*
X0025955Y0355500D01*
X0025961Y0355669D01*
X0025972Y0355838D01*
X0025986Y0356006D01*
X0026005Y0356174D01*
X0026028Y0356342D01*
X0026054Y0356509D01*
X0026085Y0356675D01*
X0026120Y0356841D01*
X0026159Y0357005D01*
X0026203Y0357169D01*
X0026250Y0357331D01*
X0026301Y0357492D01*
X0026356Y0357652D01*
X0026415Y0357811D01*
X0026477Y0357968D01*
X0026544Y0358123D01*
X0026615Y0358277D01*
X0026689Y0358429D01*
X0026767Y0358579D01*
X0026848Y0358727D01*
X0026933Y0358873D01*
X0027022Y0359017D01*
X0027114Y0359159D01*
X0027210Y0359298D01*
X0027309Y0359435D01*
X0027411Y0359570D01*
X0027517Y0359702D01*
X0027626Y0359831D01*
X0027738Y0359958D01*
X0027853Y0360082D01*
X0027971Y0360203D01*
X0028092Y0360321D01*
X0028216Y0360436D01*
X0028343Y0360548D01*
X0028472Y0360657D01*
X0028604Y0360763D01*
X0028739Y0360865D01*
X0028876Y0360964D01*
X0029015Y0361060D01*
X0029157Y0361152D01*
X0029301Y0361241D01*
X0029447Y0361326D01*
X0029595Y0361407D01*
X0029745Y0361485D01*
X0029897Y0361559D01*
X0030051Y0361630D01*
X0030206Y0361697D01*
X0030363Y0361759D01*
X0030522Y0361818D01*
X0030682Y0361873D01*
X0030843Y0361924D01*
X0031005Y0361971D01*
X0031169Y0362015D01*
X0031333Y0362054D01*
X0031499Y0362089D01*
X0031665Y0362120D01*
X0031832Y0362146D01*
X0032000Y0362169D01*
X0032168Y0362188D01*
X0032336Y0362202D01*
X0032505Y0362213D01*
X0032674Y0362219D01*
X0032843Y0362221D01*
X0033012Y0362219D01*
X0033181Y0362213D01*
X0033350Y0362202D01*
X0033518Y0362188D01*
X0033686Y0362169D01*
X0033854Y0362146D01*
X0034021Y0362120D01*
X0034187Y0362089D01*
X0034353Y0362054D01*
X0034517Y0362015D01*
X0034681Y0361971D01*
X0034843Y0361924D01*
X0035004Y0361873D01*
X0035164Y0361818D01*
X0035323Y0361759D01*
X0035480Y0361697D01*
X0035635Y0361630D01*
X0035789Y0361559D01*
X0035941Y0361485D01*
X0036091Y0361407D01*
X0036239Y0361326D01*
X0036385Y0361241D01*
X0036529Y0361152D01*
X0036671Y0361060D01*
X0036810Y0360964D01*
X0036947Y0360865D01*
X0037082Y0360763D01*
X0037214Y0360657D01*
X0037343Y0360548D01*
X0037470Y0360436D01*
X0037594Y0360321D01*
X0037715Y0360203D01*
X0037833Y0360082D01*
X0037948Y0359958D01*
X0038060Y0359831D01*
X0038169Y0359702D01*
X0038275Y0359570D01*
X0038377Y0359435D01*
X0038476Y0359298D01*
X0038572Y0359159D01*
X0038664Y0359017D01*
X0038753Y0358873D01*
X0038838Y0358727D01*
X0038919Y0358579D01*
X0038997Y0358429D01*
X0039071Y0358277D01*
X0039142Y0358123D01*
X0039209Y0357968D01*
X0039271Y0357811D01*
X0039330Y0357652D01*
X0039385Y0357492D01*
X0039436Y0357331D01*
X0039483Y0357169D01*
X0039527Y0357005D01*
X0039566Y0356841D01*
X0039601Y0356675D01*
X0039632Y0356509D01*
X0039658Y0356342D01*
X0039681Y0356174D01*
X0039700Y0356006D01*
X0039714Y0355838D01*
X0039725Y0355669D01*
X0039731Y0355500D01*
X0039733Y0355331D01*
X0039731Y0355162D01*
X0039725Y0354993D01*
X0039714Y0354824D01*
X0039700Y0354656D01*
X0039681Y0354488D01*
X0039658Y0354320D01*
X0039632Y0354153D01*
X0039601Y0353987D01*
X0039566Y0353821D01*
X0039527Y0353657D01*
X0039483Y0353493D01*
X0039436Y0353331D01*
X0039385Y0353170D01*
X0039330Y0353010D01*
X0039271Y0352851D01*
X0039209Y0352694D01*
X0039142Y0352539D01*
X0039071Y0352385D01*
X0038997Y0352233D01*
X0038919Y0352083D01*
X0038838Y0351935D01*
X0038753Y0351789D01*
X0038664Y0351645D01*
X0038572Y0351503D01*
X0038476Y0351364D01*
X0038377Y0351227D01*
X0038275Y0351092D01*
X0038169Y0350960D01*
X0038060Y0350831D01*
X0037948Y0350704D01*
X0037833Y0350580D01*
X0037715Y0350459D01*
X0037594Y0350341D01*
X0037470Y0350226D01*
X0037343Y0350114D01*
X0037214Y0350005D01*
X0037082Y0349899D01*
X0036947Y0349797D01*
X0036810Y0349698D01*
X0036671Y0349602D01*
X0036529Y0349510D01*
X0036385Y0349421D01*
X0036239Y0349336D01*
X0036091Y0349255D01*
X0035941Y0349177D01*
X0035789Y0349103D01*
X0035635Y0349032D01*
X0035480Y0348965D01*
X0035323Y0348903D01*
X0035164Y0348844D01*
X0035004Y0348789D01*
X0034843Y0348738D01*
X0034681Y0348691D01*
X0034517Y0348647D01*
X0034353Y0348608D01*
X0034187Y0348573D01*
X0034021Y0348542D01*
X0033854Y0348516D01*
X0033686Y0348493D01*
X0033518Y0348474D01*
X0033350Y0348460D01*
X0033181Y0348449D01*
X0033012Y0348443D01*
X0032843Y0348441D01*
X0032674Y0348443D01*
X0032505Y0348449D01*
X0032336Y0348460D01*
X0032168Y0348474D01*
X0032000Y0348493D01*
X0031832Y0348516D01*
X0031665Y0348542D01*
X0031499Y0348573D01*
X0031333Y0348608D01*
X0031169Y0348647D01*
X0031005Y0348691D01*
X0030843Y0348738D01*
X0030682Y0348789D01*
X0030522Y0348844D01*
X0030363Y0348903D01*
X0030206Y0348965D01*
X0030051Y0349032D01*
X0029897Y0349103D01*
X0029745Y0349177D01*
X0029595Y0349255D01*
X0029447Y0349336D01*
X0029301Y0349421D01*
X0029157Y0349510D01*
X0029015Y0349602D01*
X0028876Y0349698D01*
X0028739Y0349797D01*
X0028604Y0349899D01*
X0028472Y0350005D01*
X0028343Y0350114D01*
X0028216Y0350226D01*
X0028092Y0350341D01*
X0027971Y0350459D01*
X0027853Y0350580D01*
X0027738Y0350704D01*
X0027626Y0350831D01*
X0027517Y0350960D01*
X0027411Y0351092D01*
X0027309Y0351227D01*
X0027210Y0351364D01*
X0027114Y0351503D01*
X0027022Y0351645D01*
X0026933Y0351789D01*
X0026848Y0351935D01*
X0026767Y0352083D01*
X0026689Y0352233D01*
X0026615Y0352385D01*
X0026544Y0352539D01*
X0026477Y0352694D01*
X0026415Y0352851D01*
X0026356Y0353010D01*
X0026301Y0353170D01*
X0026250Y0353331D01*
X0026203Y0353493D01*
X0026159Y0353657D01*
X0026120Y0353821D01*
X0026085Y0353987D01*
X0026054Y0354153D01*
X0026028Y0354320D01*
X0026005Y0354488D01*
X0025986Y0354656D01*
X0025972Y0354824D01*
X0025961Y0354993D01*
X0025955Y0355162D01*
X0025953Y0355331D01*
D11*
X0052056Y0314661D03*
X0062056Y0314661D03*
X0072056Y0314661D03*
X0072056Y0304543D03*
X0072056Y0294425D03*
X0062056Y0294425D03*
X0052056Y0294425D03*
X0052056Y0304543D03*
X0062056Y0304543D03*
X0062056Y0284307D03*
X0052056Y0284307D03*
X0052056Y0274189D03*
X0062056Y0274189D03*
X0072056Y0274189D03*
X0072056Y0284307D03*
X0082410Y0284307D03*
X0092410Y0284307D03*
X0102410Y0284307D03*
X0102410Y0274189D03*
X0092410Y0274189D03*
X0082410Y0274189D03*
X0082410Y0264071D03*
X0092410Y0264071D03*
X0092410Y0253953D03*
X0082410Y0253953D03*
X0082410Y0243835D03*
X0092410Y0243835D03*
X0102410Y0243835D03*
X0102410Y0253953D03*
X0102410Y0264071D03*
X0112764Y0264071D03*
X0112764Y0253953D03*
X0122764Y0253953D03*
X0132764Y0253953D03*
X0132764Y0264071D03*
X0122764Y0264071D03*
X0122764Y0274189D03*
X0132764Y0274189D03*
X0132764Y0284307D03*
X0122764Y0284307D03*
X0112764Y0284307D03*
X0112764Y0274189D03*
X0112764Y0294425D03*
X0112764Y0304543D03*
X0122764Y0304543D03*
X0132764Y0304543D03*
X0132764Y0294425D03*
X0122764Y0294425D03*
X0122764Y0314661D03*
X0132764Y0314661D03*
X0143178Y0314807D03*
X0153178Y0314807D03*
X0163178Y0314807D03*
X0173178Y0314598D03*
X0183178Y0314598D03*
X0193178Y0314598D03*
X0193473Y0304543D03*
X0193473Y0294425D03*
X0183473Y0294425D03*
X0183473Y0304543D03*
X0173473Y0304543D03*
X0173473Y0294425D03*
X0173473Y0284307D03*
X0183473Y0284307D03*
X0193473Y0284307D03*
X0193473Y0274189D03*
X0183473Y0274189D03*
X0173473Y0274189D03*
X0173473Y0264071D03*
X0173473Y0253953D03*
X0183473Y0253953D03*
X0183473Y0264071D03*
X0193473Y0264071D03*
X0193473Y0253953D03*
X0193473Y0243835D03*
X0183473Y0243835D03*
X0173473Y0243835D03*
X0173473Y0233717D03*
X0183473Y0233717D03*
X0193473Y0233717D03*
X0193473Y0223598D03*
X0183473Y0223598D03*
X0173473Y0223598D03*
X0163119Y0223598D03*
X0153119Y0223598D03*
X0143119Y0223598D03*
X0143119Y0233717D03*
X0153119Y0233717D03*
X0163119Y0233717D03*
X0163119Y0243835D03*
X0153119Y0243835D03*
X0143119Y0243835D03*
X0143119Y0253953D03*
X0143119Y0264071D03*
X0153119Y0264071D03*
X0163119Y0264071D03*
X0163119Y0253953D03*
X0153119Y0253953D03*
X0153119Y0274189D03*
X0163119Y0274189D03*
X0163119Y0284307D03*
X0153119Y0284307D03*
X0143119Y0284307D03*
X0143119Y0274189D03*
X0143119Y0294425D03*
X0143119Y0304543D03*
X0153119Y0304543D03*
X0163119Y0304543D03*
X0163119Y0294425D03*
X0153119Y0294425D03*
X0112764Y0314661D03*
X0102410Y0314661D03*
X0092410Y0314661D03*
X0082410Y0314661D03*
X0082410Y0304543D03*
X0092410Y0304543D03*
X0092410Y0294425D03*
X0082410Y0294425D03*
X0102410Y0294425D03*
X0102410Y0304543D03*
X0072056Y0264071D03*
X0072056Y0253953D03*
X0062056Y0253953D03*
X0052056Y0253953D03*
X0052056Y0264071D03*
X0062056Y0264071D03*
X0062056Y0243835D03*
X0052056Y0243835D03*
X0052056Y0233717D03*
X0062056Y0233717D03*
X0072056Y0233717D03*
X0072056Y0243835D03*
X0082410Y0233717D03*
X0092410Y0233717D03*
X0102410Y0233717D03*
X0102410Y0223598D03*
X0092410Y0223598D03*
X0082410Y0223598D03*
X0072056Y0223598D03*
X0062056Y0223598D03*
X0052056Y0223598D03*
X0062056Y0173008D03*
X0062056Y0162890D03*
X0082292Y0162890D03*
X0082292Y0173008D03*
X0102528Y0173008D03*
X0102528Y0162890D03*
X0102528Y0142654D03*
X0102528Y0132535D03*
X0082292Y0132535D03*
X0082292Y0142654D03*
X0062056Y0142654D03*
X0062056Y0132535D03*
X0062056Y0112299D03*
X0062056Y0102181D03*
X0062056Y0081945D03*
X0062056Y0071827D03*
X0062469Y0056591D03*
X0052469Y0056591D03*
X0052469Y0046591D03*
X0062469Y0046591D03*
X0072469Y0046591D03*
X0072469Y0056591D03*
X0082469Y0056591D03*
X0092469Y0056591D03*
X0102469Y0056591D03*
X0112469Y0056591D03*
X0122469Y0056591D03*
X0132469Y0056591D03*
X0142469Y0056591D03*
X0142469Y0046591D03*
X0132469Y0046591D03*
X0122469Y0046591D03*
X0112469Y0046591D03*
X0102469Y0046591D03*
X0092469Y0046591D03*
X0082469Y0046591D03*
X0082292Y0071827D03*
X0082292Y0081945D03*
X0082292Y0102181D03*
X0082292Y0112299D03*
X0102528Y0112299D03*
X0102528Y0102181D03*
X0102528Y0081945D03*
X0102528Y0071827D03*
X0122764Y0071827D03*
X0122764Y0081945D03*
X0122764Y0102181D03*
X0122764Y0112299D03*
X0143001Y0112299D03*
X0143001Y0102181D03*
X0143001Y0081945D03*
X0143001Y0071827D03*
X0173355Y0071827D03*
X0173355Y0081945D03*
X0173355Y0102181D03*
X0173355Y0112299D03*
X0193591Y0112299D03*
X0193591Y0102181D03*
X0193591Y0081945D03*
X0193591Y0071827D03*
X0193827Y0056591D03*
X0203827Y0056591D03*
X0203827Y0046591D03*
X0193827Y0046591D03*
X0183827Y0046591D03*
X0173827Y0046591D03*
X0173827Y0056591D03*
X0183827Y0056591D03*
X0213827Y0056591D03*
X0213827Y0046591D03*
X0223827Y0046591D03*
X0233827Y0046591D03*
X0233827Y0056591D03*
X0223827Y0056591D03*
X0213827Y0071827D03*
X0213827Y0081945D03*
X0213827Y0102181D03*
X0213827Y0112299D03*
X0213827Y0132535D03*
X0213827Y0142654D03*
X0193591Y0142654D03*
X0193591Y0132535D03*
X0193591Y0162890D03*
X0193591Y0173008D03*
X0213827Y0173008D03*
X0213827Y0162890D03*
X0234064Y0162890D03*
X0234064Y0173008D03*
X0254300Y0173008D03*
X0254300Y0162890D03*
X0254300Y0142654D03*
X0254300Y0132535D03*
X0234064Y0132535D03*
X0234064Y0142654D03*
X0234064Y0112299D03*
X0234064Y0102181D03*
X0254300Y0102181D03*
X0254300Y0112299D03*
X0254300Y0081945D03*
X0254300Y0071827D03*
X0253827Y0056591D03*
X0243827Y0056591D03*
X0243827Y0046591D03*
X0253827Y0046591D03*
X0234064Y0071827D03*
X0234064Y0081945D03*
X0284654Y0081945D03*
X0284654Y0071827D03*
X0285068Y0056591D03*
X0295068Y0056591D03*
X0305068Y0056591D03*
X0315068Y0056591D03*
X0325068Y0056591D03*
X0335068Y0056591D03*
X0345068Y0056591D03*
X0355068Y0056591D03*
X0355068Y0046591D03*
X0345068Y0046591D03*
X0335068Y0046591D03*
X0325068Y0046591D03*
X0315068Y0046591D03*
X0305068Y0046591D03*
X0295068Y0046591D03*
X0285068Y0046591D03*
X0304890Y0071827D03*
X0304890Y0081945D03*
X0304890Y0102181D03*
X0304890Y0112299D03*
X0325127Y0112299D03*
X0325127Y0102181D03*
X0345363Y0102181D03*
X0345363Y0112299D03*
X0345363Y0132535D03*
X0345363Y0142654D03*
X0325127Y0142654D03*
X0325127Y0132535D03*
X0304890Y0132535D03*
X0304890Y0142654D03*
X0284654Y0142654D03*
X0284654Y0132535D03*
X0284654Y0112299D03*
X0284654Y0102181D03*
X0325127Y0081945D03*
X0325127Y0071827D03*
X0345363Y0071827D03*
X0345363Y0081945D03*
X0345363Y0162890D03*
X0345363Y0173008D03*
X0325127Y0173008D03*
X0325127Y0162890D03*
X0304890Y0162890D03*
X0304890Y0173008D03*
X0284654Y0173008D03*
X0284654Y0162890D03*
X0274536Y0209248D03*
X0264418Y0209248D03*
X0264418Y0219248D03*
X0274536Y0219248D03*
X0274536Y0229248D03*
X0264418Y0229248D03*
X0264418Y0239248D03*
X0264418Y0249248D03*
X0274536Y0249248D03*
X0274536Y0239248D03*
X0274536Y0259248D03*
X0264418Y0259248D03*
X0264418Y0269248D03*
X0264418Y0279248D03*
X0274536Y0279248D03*
X0274536Y0269248D03*
X0274536Y0289248D03*
X0264418Y0289248D03*
X0264418Y0299248D03*
X0274536Y0299248D03*
X0274536Y0309248D03*
X0274536Y0319248D03*
X0264418Y0319248D03*
X0264418Y0309248D03*
X0254300Y0309248D03*
X0254300Y0319248D03*
X0254300Y0329248D03*
X0254300Y0339248D03*
X0254300Y0349248D03*
X0264418Y0349248D03*
X0274536Y0349248D03*
X0274536Y0339248D03*
X0264418Y0339248D03*
X0264418Y0329248D03*
X0274536Y0329248D03*
X0254300Y0299248D03*
X0254300Y0289248D03*
X0254300Y0279248D03*
X0254300Y0269248D03*
X0254300Y0259248D03*
X0254300Y0249248D03*
X0254300Y0239248D03*
X0254300Y0229248D03*
X0254300Y0219248D03*
X0254300Y0209248D03*
X0335245Y0209248D03*
X0345363Y0209248D03*
X0345363Y0219248D03*
X0335245Y0219248D03*
X0335245Y0229248D03*
X0345363Y0229248D03*
X0345363Y0239248D03*
X0345363Y0249248D03*
X0335245Y0249248D03*
X0335245Y0239248D03*
X0335245Y0259248D03*
X0345363Y0259248D03*
X0345363Y0269248D03*
X0345363Y0279248D03*
X0335245Y0279248D03*
X0335245Y0269248D03*
X0335245Y0289248D03*
X0345363Y0289248D03*
X0345363Y0299248D03*
X0335245Y0299248D03*
X0335245Y0309248D03*
X0335245Y0319248D03*
X0345363Y0319248D03*
X0345363Y0309248D03*
X0355481Y0309248D03*
X0355481Y0319248D03*
X0355481Y0329248D03*
X0355481Y0339248D03*
X0355481Y0349248D03*
X0345363Y0349248D03*
X0335245Y0349248D03*
X0335245Y0339248D03*
X0345363Y0339248D03*
X0345363Y0329248D03*
X0335245Y0329248D03*
X0355481Y0299248D03*
X0355481Y0289248D03*
X0355481Y0279248D03*
X0355481Y0269248D03*
X0355481Y0259248D03*
X0355481Y0249248D03*
X0355481Y0239248D03*
X0355481Y0229248D03*
X0355481Y0219248D03*
X0355481Y0209248D03*
X0143001Y0173008D03*
X0143001Y0162890D03*
X0122764Y0162890D03*
X0122764Y0173008D03*
X0122764Y0142654D03*
X0122764Y0132535D03*
X0143001Y0132535D03*
X0143001Y0142654D03*
X0132764Y0223598D03*
X0122764Y0223598D03*
X0112764Y0223598D03*
X0112764Y0233717D03*
X0122764Y0233717D03*
X0132764Y0233717D03*
X0132764Y0243835D03*
X0122764Y0243835D03*
X0112764Y0243835D03*
D12*
X0117528Y0206362D02*
X0117528Y0200362D01*
X0107528Y0200362D02*
X0107528Y0206362D01*
X0097528Y0206362D02*
X0097528Y0200362D01*
X0087528Y0200362D02*
X0087528Y0206362D01*
X0077528Y0206362D02*
X0077528Y0200362D01*
X0067528Y0200362D02*
X0067528Y0206362D01*
X0057528Y0206362D02*
X0057528Y0200362D01*
X0047528Y0200362D02*
X0047528Y0206362D01*
X0037528Y0206362D02*
X0037528Y0200362D01*
X0027528Y0200362D02*
X0027528Y0206362D01*
X0026583Y0181067D02*
X0026583Y0175067D01*
X0016583Y0175067D02*
X0016583Y0181067D01*
X0127528Y0200362D02*
X0127528Y0206362D01*
X0137528Y0206362D02*
X0137528Y0200362D01*
X0147528Y0200362D02*
X0147528Y0206362D01*
X0157528Y0206362D02*
X0157528Y0200362D01*
X0167528Y0200362D02*
X0167528Y0206362D01*
X0177528Y0206362D02*
X0177528Y0200362D01*
X0177528Y0331898D02*
X0177528Y0337898D01*
X0167528Y0337898D02*
X0167528Y0331898D01*
X0157528Y0331898D02*
X0157528Y0337898D01*
X0147528Y0337898D02*
X0147528Y0331898D01*
X0137528Y0331898D02*
X0137528Y0337898D01*
X0127528Y0337898D02*
X0127528Y0331898D01*
X0117528Y0331898D02*
X0117528Y0337898D01*
X0107528Y0337898D02*
X0107528Y0331898D01*
X0097528Y0331898D02*
X0097528Y0337898D01*
X0087528Y0337898D02*
X0087528Y0331898D01*
X0077528Y0331898D02*
X0077528Y0337898D01*
X0067528Y0337898D02*
X0067528Y0331898D01*
X0057528Y0331898D02*
X0057528Y0337898D01*
X0047528Y0337898D02*
X0047528Y0331898D01*
X0037528Y0331898D02*
X0037528Y0337898D01*
X0027528Y0337898D02*
X0027528Y0331898D01*
X0026701Y0029295D02*
X0026701Y0023295D01*
X0036701Y0023295D02*
X0036701Y0029295D01*
X0046701Y0029295D02*
X0046701Y0023295D01*
X0016701Y0023295D02*
X0016701Y0029295D01*
D13*
X0016642Y0093874D02*
X0016642Y0100370D01*
X0026642Y0100370D02*
X0026642Y0093874D01*
X0036642Y0093874D02*
X0036642Y0100370D01*
X0036642Y0149524D02*
X0036642Y0156020D01*
X0026642Y0156020D02*
X0026642Y0149524D01*
X0016642Y0149524D02*
X0016642Y0156020D01*
X0220698Y0233835D02*
X0227194Y0233835D01*
X0227194Y0243835D02*
X0220698Y0243835D01*
X0220698Y0253835D02*
X0227194Y0253835D01*
X0227194Y0284425D02*
X0220698Y0284425D01*
X0220698Y0294425D02*
X0227194Y0294425D01*
X0227194Y0304425D02*
X0220698Y0304425D01*
D14*
X0034654Y0253953D03*
X0028749Y0253953D03*
X0019477Y0253953D03*
X0013572Y0253953D03*
X0013572Y0238776D03*
X0019477Y0238776D03*
X0028749Y0238776D03*
X0034654Y0238776D03*
X0019477Y0289366D03*
X0013572Y0289366D03*
X0013572Y0299484D03*
X0019477Y0299484D03*
X0019477Y0309602D03*
X0013572Y0309602D03*
X0013572Y0319720D03*
X0019477Y0319720D03*
D15*
X0209890Y0328343D03*
X0209890Y0335823D03*
X0217764Y0332083D03*
D16*
X0198650Y0332673D03*
X0198650Y0339366D03*
D17*
X0230324Y0336020D03*
X0237804Y0336020D03*
X0234064Y0343894D03*
X0223946Y0212358D03*
X0227686Y0204484D03*
X0220205Y0204484D03*
D18*
X0220599Y0193244D03*
X0227292Y0193244D03*
X0230717Y0324780D03*
X0237410Y0324780D03*
D19*
X0287351Y0329839D03*
X0292469Y0329839D03*
X0292469Y0319720D03*
X0287351Y0319720D03*
X0287351Y0309602D03*
X0292469Y0309602D03*
D20*
X0307420Y0309602D01*
X0315009Y0302014D02*
X0284654Y0302014D01*
X0277420Y0309248D01*
X0274536Y0309248D01*
X0270636Y0307633D02*
X0270636Y0310863D01*
X0274536Y0314763D01*
X0274536Y0319248D01*
X0264418Y0319248D02*
X0254300Y0319248D01*
X0246711Y0322250D02*
X0246711Y0329839D01*
X0251770Y0334898D01*
X0322597Y0334898D01*
X0327656Y0329839D01*
X0327656Y0322250D01*
X0330658Y0319248D01*
X0335245Y0319248D01*
X0345363Y0319248D02*
X0355481Y0319248D01*
X0355481Y0309248D02*
X0345363Y0309248D01*
X0345363Y0299248D02*
X0355481Y0299248D01*
X0355481Y0289248D02*
X0345363Y0289248D01*
X0345363Y0279248D02*
X0355481Y0279248D01*
X0355481Y0269248D02*
X0345363Y0269248D01*
X0345363Y0259248D02*
X0355481Y0259248D01*
X0355481Y0249248D02*
X0345363Y0249248D01*
X0345363Y0239248D02*
X0355481Y0239248D01*
X0355481Y0229248D02*
X0345363Y0229248D01*
X0340304Y0223598D02*
X0335245Y0228657D01*
X0335245Y0229248D01*
X0340304Y0223598D02*
X0340304Y0167949D01*
X0345363Y0162890D02*
X0340304Y0157831D01*
X0340304Y0061709D01*
X0345068Y0056945D01*
X0345068Y0056591D01*
X0350422Y0051591D02*
X0350422Y0127476D01*
X0345363Y0132535D01*
X0346387Y0134031D01*
X0346387Y0141906D01*
X0345363Y0142654D01*
X0330186Y0147713D02*
X0330186Y0200833D01*
X0325127Y0205892D01*
X0325127Y0291896D01*
X0315009Y0302014D01*
X0312479Y0299484D02*
X0284654Y0299484D01*
X0278790Y0305348D01*
X0272921Y0305348D01*
X0270636Y0307633D01*
X0264418Y0309248D02*
X0254300Y0309248D01*
X0254300Y0299248D02*
X0264418Y0299248D01*
X0264418Y0289248D02*
X0254300Y0289248D01*
X0251770Y0284307D02*
X0241652Y0274189D01*
X0241652Y0226128D01*
X0239123Y0223598D01*
X0236593Y0221069D02*
X0223946Y0233717D01*
X0223946Y0233835D01*
X0216357Y0236246D02*
X0223946Y0243835D01*
X0216357Y0236246D02*
X0216357Y0219947D01*
X0223946Y0212358D01*
X0218743Y0207156D01*
X0218258Y0207156D01*
X0216357Y0205255D01*
X0216357Y0188185D01*
X0218887Y0185656D01*
X0218887Y0147713D01*
X0213827Y0142654D01*
X0214497Y0141906D01*
X0214497Y0134031D01*
X0213827Y0132535D01*
X0214047Y0132755D01*
X0214047Y0133027D01*
X0208768Y0127748D01*
X0208768Y0051591D01*
X0203827Y0046650D01*
X0203827Y0046591D01*
X0203827Y0056591D02*
X0203827Y0056768D01*
X0206068Y0059009D01*
X0206068Y0155131D01*
X0213827Y0162890D01*
X0214497Y0163244D01*
X0214497Y0171118D01*
X0213827Y0173008D01*
X0213827Y0226128D01*
X0211298Y0228657D01*
X0211298Y0284307D01*
X0218768Y0284425D02*
X0211298Y0291896D01*
X0211298Y0326935D01*
X0209890Y0328343D01*
X0202981Y0328343D01*
X0198650Y0332673D01*
X0179241Y0336610D01*
X0177528Y0334898D01*
X0176544Y0335646D01*
X0168670Y0335646D01*
X0167528Y0334898D01*
X0166701Y0335646D01*
X0158827Y0335646D01*
X0157528Y0334898D01*
X0156859Y0335646D01*
X0148985Y0335646D01*
X0147528Y0334898D01*
X0147016Y0335646D01*
X0139142Y0335646D01*
X0137528Y0334898D01*
X0137942Y0334484D01*
X0137942Y0213480D01*
X0143001Y0208421D01*
X0143001Y0178523D01*
X0146901Y0174623D01*
X0146901Y0161274D01*
X0143001Y0157374D01*
X0143001Y0142654D01*
X0143631Y0141906D01*
X0143631Y0134031D01*
X0143001Y0132535D01*
X0137942Y0127476D01*
X0137942Y0051591D01*
X0132942Y0046591D01*
X0132469Y0046591D01*
X0132469Y0056591D02*
X0132824Y0056591D01*
X0136742Y0060509D01*
X0136742Y0156631D01*
X0143001Y0162890D01*
X0143631Y0163244D01*
X0143631Y0171118D01*
X0143001Y0173008D01*
X0137942Y0178067D01*
X0137942Y0193244D01*
X0132883Y0198303D01*
X0132883Y0210951D01*
X0064585Y0210951D01*
X0055838Y0219698D01*
X0050440Y0219698D01*
X0046749Y0223390D01*
X0046749Y0255779D01*
X0039290Y0263238D01*
X0039290Y0299484D01*
X0034231Y0304543D01*
X0026642Y0304543D01*
X0026642Y0299484D02*
X0019477Y0299484D01*
X0013572Y0299484D02*
X0013572Y0289366D01*
X0019477Y0289366D02*
X0024113Y0289366D01*
X0013572Y0299484D02*
X0013572Y0309602D01*
X0013572Y0314661D01*
X0026642Y0314661D01*
X0026642Y0309602D02*
X0019477Y0309602D01*
X0013572Y0314661D02*
X0013572Y0319720D01*
X0019477Y0319720D02*
X0026642Y0319720D01*
X0027528Y0334898D02*
X0028906Y0335646D01*
X0036780Y0335646D01*
X0037528Y0334898D01*
X0038749Y0335646D01*
X0046623Y0335646D01*
X0047528Y0334898D01*
X0048591Y0335646D01*
X0056465Y0335646D01*
X0057528Y0334898D01*
X0058434Y0335646D01*
X0066308Y0335646D01*
X0067528Y0334898D01*
X0068276Y0335646D01*
X0076150Y0335646D01*
X0077528Y0334898D01*
X0078119Y0335646D01*
X0085993Y0335646D01*
X0087528Y0334898D01*
X0087961Y0335646D01*
X0095835Y0335646D01*
X0097528Y0334898D01*
X0097804Y0335646D01*
X0105678Y0335646D01*
X0107528Y0334898D01*
X0107646Y0335646D01*
X0117489Y0335646D01*
X0117528Y0334898D01*
X0119457Y0335646D01*
X0127331Y0335646D01*
X0127528Y0334898D01*
X0129300Y0335646D01*
X0137174Y0335646D01*
X0137528Y0334898D01*
X0132764Y0314661D02*
X0122764Y0314661D01*
X0132764Y0314661D02*
X0112764Y0314661D01*
X0112764Y0304543D02*
X0132764Y0304543D01*
X0122764Y0304543D01*
X0122764Y0294425D02*
X0132764Y0294425D01*
X0112764Y0294425D01*
X0112764Y0284307D02*
X0132764Y0284307D01*
X0122764Y0284307D01*
X0122764Y0274189D02*
X0132260Y0274189D01*
X0132764Y0274189D01*
X0132260Y0274189D02*
X0112764Y0274189D01*
X0112764Y0264071D02*
X0132764Y0264071D01*
X0122764Y0264071D01*
X0122764Y0253953D02*
X0132764Y0253953D01*
X0112764Y0253953D01*
X0112764Y0243835D02*
X0132764Y0243835D01*
X0122764Y0243835D01*
X0122764Y0233717D02*
X0132208Y0233717D01*
X0132764Y0233717D01*
X0132208Y0233717D02*
X0112764Y0233717D01*
X0112764Y0223598D02*
X0132764Y0223598D01*
X0122764Y0223598D01*
X0143119Y0223598D02*
X0153907Y0223598D01*
X0153119Y0223598D01*
X0153907Y0223598D02*
X0163119Y0223598D01*
X0163119Y0233717D02*
X0153119Y0233717D01*
X0163119Y0233717D02*
X0143119Y0233717D01*
X0143119Y0243835D02*
X0163119Y0243835D01*
X0153119Y0243835D01*
X0153119Y0253953D02*
X0163119Y0253953D01*
X0143119Y0253953D01*
X0143119Y0264071D02*
X0163119Y0264071D01*
X0153119Y0264071D01*
X0153119Y0274189D02*
X0163119Y0274189D01*
X0143119Y0274189D01*
X0143119Y0284307D02*
X0163089Y0284307D01*
X0153119Y0284307D01*
X0163089Y0284307D02*
X0163119Y0284307D01*
X0163119Y0294425D02*
X0153119Y0294425D01*
X0163119Y0294425D02*
X0143119Y0294425D01*
X0143119Y0304543D02*
X0163119Y0304543D01*
X0153119Y0304543D01*
X0153178Y0314807D02*
X0163178Y0314807D01*
X0143178Y0314807D01*
X0173178Y0314598D02*
X0193178Y0314598D01*
X0183178Y0314598D01*
X0183473Y0304543D02*
X0193473Y0304543D01*
X0173473Y0304543D01*
X0173473Y0294425D02*
X0193473Y0294425D01*
X0183473Y0294425D01*
X0183473Y0284307D02*
X0193473Y0284307D01*
X0173473Y0284307D01*
X0173473Y0274189D02*
X0193473Y0274189D01*
X0183473Y0274189D01*
X0183473Y0264071D02*
X0193473Y0264071D01*
X0173473Y0264071D01*
X0173473Y0253953D02*
X0193473Y0253953D01*
X0183473Y0253953D01*
X0183473Y0243835D02*
X0193473Y0243835D01*
X0173473Y0243835D01*
X0173473Y0233717D02*
X0193473Y0233717D01*
X0183473Y0233717D01*
X0183473Y0223598D02*
X0193473Y0223598D01*
X0173473Y0223598D01*
X0135412Y0190715D02*
X0129664Y0196462D01*
X0065913Y0196462D01*
X0063628Y0198747D01*
X0063628Y0199260D01*
X0062056Y0200833D01*
X0062056Y0210951D01*
X0059526Y0213480D01*
X0054467Y0213480D01*
X0045549Y0222398D01*
X0045549Y0229155D01*
X0044349Y0230355D01*
X0044349Y0256482D01*
X0036761Y0264071D01*
X0034654Y0253953D02*
X0031701Y0251000D01*
X0031701Y0248894D01*
X0028749Y0249902D02*
X0028749Y0253953D01*
X0028749Y0249902D02*
X0024347Y0245500D01*
X0028749Y0241098D01*
X0028749Y0238776D01*
X0031701Y0235823D02*
X0031701Y0233717D01*
X0031701Y0235823D02*
X0034654Y0238776D01*
X0039290Y0241305D02*
X0034231Y0246364D01*
X0039290Y0241305D02*
X0039290Y0228657D01*
X0031701Y0221069D01*
X0031701Y0193244D01*
X0036761Y0188185D01*
X0122764Y0188185D01*
X0127824Y0183126D01*
X0127824Y0147713D01*
X0122764Y0142654D01*
X0121977Y0141906D01*
X0121977Y0134031D01*
X0122764Y0132535D01*
X0117705Y0127476D01*
X0117705Y0051591D01*
X0112705Y0046591D01*
X0112469Y0046591D01*
X0112469Y0056591D02*
X0112587Y0056591D01*
X0116505Y0060509D01*
X0116505Y0156390D01*
X0123108Y0162993D01*
X0122764Y0162890D01*
X0123108Y0162993D02*
X0123946Y0163244D01*
X0123946Y0171118D01*
X0122764Y0173008D01*
X0122764Y0180596D01*
X0120235Y0183126D01*
X0036761Y0183126D01*
X0029172Y0190715D01*
X0011465Y0190715D01*
X0008936Y0195774D01*
X0008936Y0248894D01*
X0013572Y0253953D02*
X0013572Y0243835D01*
X0015237Y0245500D01*
X0024347Y0245500D01*
X0019477Y0238776D02*
X0016524Y0235823D01*
X0016524Y0233717D01*
X0013572Y0238776D02*
X0013572Y0243835D01*
X0016524Y0248894D02*
X0016524Y0251000D01*
X0019477Y0253953D01*
X0041820Y0228657D02*
X0044349Y0226128D01*
X0044349Y0218539D01*
X0051938Y0210951D01*
X0051938Y0198303D01*
X0056997Y0193244D01*
X0127824Y0193244D01*
X0132883Y0188185D01*
X0132883Y0094594D01*
X0130847Y0092559D01*
X0134347Y0092559D02*
X0135542Y0093754D01*
X0135542Y0157128D01*
X0135412Y0157257D01*
X0135412Y0190715D01*
X0130353Y0185656D02*
X0125294Y0190715D01*
X0046879Y0190715D01*
X0044349Y0193244D01*
X0044349Y0195774D01*
X0041820Y0198303D01*
X0041820Y0223598D01*
X0052056Y0223598D02*
X0072056Y0223598D01*
X0062056Y0223598D01*
X0062056Y0233717D02*
X0072056Y0233717D01*
X0052056Y0233717D01*
X0052056Y0243835D02*
X0072056Y0243835D01*
X0062056Y0243835D01*
X0062056Y0253953D02*
X0072056Y0253953D01*
X0052056Y0253953D01*
X0052056Y0264071D02*
X0071224Y0264071D01*
X0062056Y0264071D01*
X0071224Y0264071D02*
X0072056Y0264071D01*
X0072056Y0274189D02*
X0070529Y0274189D01*
X0062056Y0274189D01*
X0070529Y0274189D02*
X0052056Y0274189D01*
X0052056Y0284307D02*
X0072056Y0284307D01*
X0062056Y0284307D01*
X0062056Y0294425D02*
X0069718Y0294425D01*
X0072056Y0294425D01*
X0069718Y0294425D02*
X0052056Y0294425D01*
X0052056Y0304543D02*
X0070529Y0304543D01*
X0062056Y0304543D01*
X0070529Y0304543D02*
X0072056Y0304543D01*
X0072056Y0314661D02*
X0071572Y0314661D01*
X0062056Y0314661D01*
X0071572Y0314661D02*
X0052056Y0314661D01*
X0082410Y0314661D02*
X0101354Y0314661D01*
X0092410Y0314661D01*
X0101354Y0314661D02*
X0102410Y0314661D01*
X0102410Y0304543D02*
X0092410Y0304543D01*
X0094053Y0304543D01*
X0082410Y0304543D01*
X0082410Y0294425D02*
X0102281Y0294425D01*
X0092410Y0294425D01*
X0094053Y0304543D02*
X0102410Y0304543D01*
X0102281Y0294425D02*
X0102410Y0294425D01*
X0102410Y0284307D02*
X0092410Y0284307D01*
X0102410Y0284307D02*
X0082410Y0284307D01*
X0082410Y0274189D02*
X0102410Y0274189D01*
X0092410Y0274189D01*
X0092410Y0264071D02*
X0102410Y0264071D01*
X0082410Y0264071D01*
X0082410Y0253953D02*
X0102410Y0253953D01*
X0092410Y0253953D01*
X0092410Y0243835D02*
X0101997Y0243835D01*
X0082410Y0243835D01*
X0082410Y0233717D02*
X0100995Y0233717D01*
X0092410Y0233717D01*
X0100995Y0233717D02*
X0102410Y0233717D01*
X0102410Y0243835D02*
X0101997Y0243835D01*
X0102410Y0223598D02*
X0092410Y0223598D01*
X0082410Y0223598D01*
X0082292Y0173008D02*
X0082607Y0171118D01*
X0082607Y0163244D01*
X0082292Y0162890D01*
X0076033Y0156631D01*
X0076033Y0060509D01*
X0072469Y0056945D01*
X0072469Y0056591D01*
X0077233Y0051591D02*
X0077233Y0127540D01*
X0082309Y0132616D01*
X0082292Y0132535D01*
X0082309Y0132616D02*
X0082607Y0134031D01*
X0082607Y0141906D01*
X0082292Y0142654D01*
X0096269Y0156900D02*
X0102421Y0163051D01*
X0102528Y0162890D01*
X0102421Y0163051D02*
X0102292Y0163244D01*
X0102292Y0171118D01*
X0102528Y0173008D01*
X0096269Y0156900D02*
X0096269Y0060509D01*
X0092469Y0056709D01*
X0092469Y0056591D01*
X0087351Y0061709D02*
X0087351Y0097476D01*
X0082607Y0102220D01*
X0082292Y0102181D01*
X0082607Y0102220D02*
X0082607Y0112063D01*
X0082292Y0112299D01*
X0067115Y0098028D02*
X0067115Y0061709D01*
X0062469Y0057063D01*
X0062469Y0056591D01*
X0056997Y0051591D02*
X0056997Y0127485D01*
X0062068Y0132556D01*
X0062056Y0132535D01*
X0062068Y0132556D02*
X0062922Y0134031D01*
X0062922Y0141906D01*
X0062056Y0142654D01*
X0055797Y0156603D02*
X0062103Y0162909D01*
X0062056Y0162890D01*
X0062103Y0162909D02*
X0062922Y0163244D01*
X0062922Y0171118D01*
X0062056Y0173008D01*
X0055797Y0156603D02*
X0055797Y0060509D01*
X0052469Y0057181D01*
X0052469Y0056591D01*
X0056997Y0051591D02*
X0052469Y0047063D01*
X0052469Y0046591D01*
X0072469Y0046591D02*
X0072469Y0046827D01*
X0077233Y0051591D01*
X0082469Y0056591D02*
X0082469Y0056827D01*
X0087351Y0061709D01*
X0082292Y0071827D02*
X0082607Y0073008D01*
X0082607Y0080882D01*
X0082292Y0081945D01*
X0067115Y0098028D02*
X0062922Y0102220D01*
X0062056Y0102181D01*
X0062922Y0102220D02*
X0062922Y0112063D01*
X0062056Y0112299D01*
X0062056Y0081945D02*
X0062922Y0080882D01*
X0062922Y0073008D01*
X0062056Y0071827D01*
X0092469Y0046591D02*
X0097469Y0051591D01*
X0097469Y0127476D01*
X0102528Y0132535D01*
X0102292Y0134031D01*
X0102292Y0141906D01*
X0102528Y0142654D01*
X0102528Y0112299D02*
X0102292Y0112063D01*
X0102292Y0102220D01*
X0102528Y0102181D01*
X0107587Y0097122D01*
X0107587Y0061709D01*
X0102469Y0056591D01*
X0102528Y0071827D02*
X0102292Y0073008D01*
X0102292Y0080882D01*
X0102528Y0081945D01*
X0121977Y0080882D02*
X0121977Y0073008D01*
X0122764Y0071827D01*
X0121977Y0080882D02*
X0122764Y0081945D01*
X0127824Y0097122D02*
X0122764Y0102181D01*
X0121977Y0102220D01*
X0121977Y0112063D01*
X0122764Y0112299D01*
X0130353Y0119888D01*
X0130353Y0185656D01*
X0187332Y0156631D02*
X0193591Y0162890D01*
X0194812Y0163244D01*
X0194812Y0171118D01*
X0193591Y0173008D01*
X0187332Y0156631D02*
X0187332Y0060509D01*
X0183827Y0057004D01*
X0183827Y0056591D01*
X0188532Y0051591D02*
X0188532Y0127476D01*
X0193591Y0132535D01*
X0192843Y0134031D01*
X0192843Y0141906D01*
X0193591Y0142654D01*
X0203709Y0127476D02*
X0203709Y0087004D01*
X0193591Y0081945D02*
X0192843Y0080882D01*
X0192843Y0073008D01*
X0193591Y0071827D01*
X0198650Y0061709D02*
X0198650Y0097122D01*
X0193591Y0102181D01*
X0192843Y0102220D01*
X0192843Y0112063D01*
X0193591Y0112299D01*
X0193591Y0117358D01*
X0201180Y0124947D01*
X0213827Y0112299D02*
X0214497Y0112063D01*
X0214497Y0102220D01*
X0213860Y0102183D01*
X0218887Y0097157D01*
X0218887Y0061709D01*
X0213827Y0056650D01*
X0213827Y0056591D01*
X0223827Y0056591D02*
X0223887Y0056591D01*
X0227805Y0060509D01*
X0227805Y0156631D01*
X0234064Y0162890D01*
X0234182Y0163244D01*
X0234182Y0171118D01*
X0234064Y0173008D01*
X0254300Y0173008D02*
X0255835Y0171118D01*
X0255835Y0163244D01*
X0254300Y0162890D01*
X0248041Y0156631D01*
X0248041Y0065568D01*
X0243827Y0061354D01*
X0243827Y0056591D01*
X0239123Y0061709D02*
X0239123Y0097122D01*
X0234064Y0102181D01*
X0234064Y0112299D01*
X0234182Y0112063D01*
X0234182Y0102220D02*
X0234064Y0102181D01*
X0253867Y0102220D02*
X0254300Y0102181D01*
X0259359Y0097122D01*
X0259359Y0061709D01*
X0254241Y0056591D01*
X0253827Y0056591D01*
X0249241Y0051591D02*
X0249241Y0127476D01*
X0254300Y0132535D01*
X0253867Y0134031D01*
X0253867Y0141906D01*
X0254300Y0142654D01*
X0234182Y0141906D02*
X0234182Y0134031D01*
X0234064Y0132535D01*
X0229005Y0127476D01*
X0229005Y0051591D01*
X0224005Y0046591D01*
X0223827Y0046591D01*
X0233827Y0056591D02*
X0234005Y0056591D01*
X0239123Y0061709D01*
X0234064Y0071827D02*
X0234182Y0073008D01*
X0234182Y0080882D01*
X0234064Y0081945D01*
X0253867Y0080882D02*
X0253867Y0073008D01*
X0254300Y0071827D01*
X0253867Y0080882D02*
X0254300Y0081945D01*
X0253867Y0102220D02*
X0253867Y0112063D01*
X0254300Y0112299D01*
X0284654Y0112299D02*
X0284654Y0102181D01*
X0284654Y0081945D02*
X0284654Y0071827D01*
X0279595Y0061709D02*
X0279595Y0157831D01*
X0279647Y0157831D01*
X0284757Y0162941D01*
X0284654Y0162890D01*
X0284757Y0162941D02*
X0285363Y0163244D01*
X0285363Y0171118D01*
X0284654Y0173008D01*
X0284654Y0185656D02*
X0284654Y0251423D01*
X0282125Y0248894D02*
X0279595Y0251423D01*
X0282125Y0248894D02*
X0282125Y0190715D01*
X0279595Y0188185D01*
X0289713Y0185656D02*
X0289713Y0251423D01*
X0294772Y0251423D02*
X0294772Y0185656D01*
X0304890Y0173008D02*
X0305048Y0171118D01*
X0305048Y0163244D01*
X0304890Y0162890D01*
X0299831Y0157831D01*
X0299831Y0061709D01*
X0304950Y0056591D01*
X0305068Y0056591D01*
X0309950Y0051591D02*
X0309950Y0127476D01*
X0304890Y0132535D01*
X0305048Y0134031D01*
X0305048Y0141906D01*
X0304890Y0142654D01*
X0289713Y0127516D02*
X0289713Y0051591D01*
X0285068Y0046945D01*
X0285068Y0046591D01*
X0285068Y0056591D02*
X0284713Y0056591D01*
X0279595Y0061709D01*
X0285068Y0057063D02*
X0285068Y0056591D01*
X0305068Y0046709D02*
X0309950Y0051591D01*
X0305068Y0046709D02*
X0305068Y0046591D01*
X0320068Y0061709D02*
X0320068Y0157831D01*
X0325127Y0162890D01*
X0326701Y0163244D01*
X0326701Y0171118D01*
X0325127Y0173008D01*
X0325127Y0200833D01*
X0322597Y0203362D01*
X0322597Y0289366D01*
X0312479Y0299484D01*
X0312479Y0289366D02*
X0312361Y0289248D01*
X0274536Y0289248D01*
X0277066Y0284307D02*
X0251770Y0284307D01*
X0254300Y0279248D02*
X0264418Y0279248D01*
X0264418Y0269248D02*
X0254300Y0269248D01*
X0246711Y0264071D02*
X0299831Y0264071D01*
X0304890Y0259012D01*
X0309950Y0266600D02*
X0307302Y0269248D01*
X0274536Y0269248D01*
X0274536Y0279248D02*
X0304890Y0279248D01*
X0307420Y0276719D01*
X0315009Y0286837D02*
X0279595Y0286837D01*
X0277066Y0284307D01*
X0274536Y0259248D02*
X0274536Y0259012D01*
X0269477Y0253953D01*
X0269477Y0200833D01*
X0261888Y0193244D01*
X0264418Y0188185D02*
X0279595Y0203362D01*
X0279595Y0243835D01*
X0274536Y0248894D01*
X0274536Y0249248D01*
X0264418Y0249248D02*
X0254300Y0249248D01*
X0254300Y0239248D02*
X0264418Y0239248D01*
X0264418Y0229248D02*
X0254300Y0229248D01*
X0254300Y0219248D02*
X0264418Y0219248D01*
X0264418Y0209248D02*
X0254300Y0209248D01*
X0236593Y0210862D02*
X0236593Y0221069D01*
X0231534Y0216010D02*
X0231534Y0215328D01*
X0225893Y0209687D01*
X0225408Y0209687D01*
X0220205Y0204484D01*
X0220205Y0193638D01*
X0220599Y0193244D01*
X0227292Y0193244D02*
X0227292Y0204091D01*
X0227686Y0204484D01*
X0236593Y0210862D01*
X0254300Y0259248D02*
X0264418Y0259248D01*
X0223946Y0284425D02*
X0218768Y0284425D01*
X0221416Y0294425D02*
X0223946Y0294425D01*
X0221416Y0294425D02*
X0213827Y0302014D01*
X0213827Y0312132D01*
X0218887Y0317191D01*
X0218887Y0330961D01*
X0217764Y0332083D01*
X0209890Y0335823D02*
X0205560Y0335429D01*
X0198650Y0339366D01*
X0209890Y0335823D02*
X0229930Y0343697D01*
X0234064Y0343894D01*
X0241032Y0339248D02*
X0254300Y0339248D01*
X0264418Y0339248D01*
X0274536Y0339248D01*
X0335245Y0339248D01*
X0345363Y0339248D01*
X0355481Y0339248D01*
X0355481Y0329248D02*
X0345363Y0329248D01*
X0345363Y0349248D02*
X0355481Y0349248D01*
X0335009Y0299484D02*
X0327656Y0299484D01*
X0325127Y0296955D01*
X0335009Y0299484D02*
X0335245Y0299248D01*
X0302361Y0319720D02*
X0292469Y0319720D01*
X0287351Y0319720D02*
X0287351Y0309602D01*
X0287351Y0319720D02*
X0287351Y0329839D01*
X0275127Y0329839D01*
X0274536Y0329248D01*
X0264418Y0329248D02*
X0254300Y0329248D01*
X0246711Y0322250D02*
X0244182Y0319720D01*
X0235776Y0319720D01*
X0230717Y0324780D01*
X0230324Y0325173D01*
X0230324Y0336020D01*
X0237804Y0336020D02*
X0241032Y0339248D01*
X0237804Y0336020D02*
X0237804Y0325173D01*
X0237410Y0324780D01*
X0239940Y0323963D01*
X0241652Y0322250D01*
X0254300Y0349248D02*
X0264418Y0349248D01*
X0292469Y0329839D02*
X0297302Y0329839D01*
X0345363Y0219248D02*
X0355481Y0219248D01*
X0355481Y0209248D02*
X0345363Y0209248D01*
X0345363Y0173008D02*
X0346387Y0171118D01*
X0346387Y0163244D01*
X0345363Y0162890D01*
X0330186Y0147713D02*
X0325127Y0142654D01*
X0324733Y0141906D01*
X0324733Y0134031D01*
X0325127Y0132535D01*
X0330186Y0127476D01*
X0330186Y0051591D01*
X0325186Y0046591D01*
X0325068Y0046591D01*
X0325068Y0056591D02*
X0325068Y0056709D01*
X0320068Y0061709D01*
X0325127Y0071827D02*
X0325127Y0081945D01*
X0345363Y0081945D02*
X0345363Y0071827D01*
X0350422Y0051591D02*
X0345422Y0046591D01*
X0345068Y0046591D01*
X0304890Y0071827D02*
X0304890Y0081945D01*
X0304890Y0102181D02*
X0304890Y0112299D01*
X0289713Y0127516D02*
X0284667Y0132562D01*
X0284654Y0132535D01*
X0284667Y0132562D02*
X0285363Y0134031D01*
X0285363Y0141906D01*
X0284654Y0142654D01*
X0325127Y0112299D02*
X0325127Y0102181D01*
X0345363Y0102181D02*
X0345363Y0112299D01*
X0249241Y0051591D02*
X0244241Y0046591D01*
X0243827Y0046591D01*
X0213827Y0071827D02*
X0214497Y0073008D01*
X0214497Y0080882D01*
X0213827Y0081945D01*
X0213827Y0102181D02*
X0213860Y0102183D01*
X0178414Y0097122D02*
X0173355Y0102181D01*
X0173158Y0102220D01*
X0173158Y0112063D01*
X0173355Y0112299D01*
X0178414Y0097122D02*
X0178414Y0061709D01*
X0173827Y0057122D01*
X0173827Y0056591D01*
X0183827Y0046886D02*
X0188532Y0051591D01*
X0183827Y0046886D02*
X0183827Y0046591D01*
X0193827Y0056591D02*
X0193827Y0056886D01*
X0198650Y0061709D01*
X0173355Y0071827D02*
X0173158Y0073008D01*
X0173158Y0080882D01*
X0173355Y0081945D01*
X0148060Y0097122D02*
X0148060Y0061709D01*
X0142942Y0056591D01*
X0142469Y0056591D01*
X0143001Y0071827D02*
X0143079Y0073008D01*
X0143079Y0080882D01*
X0143001Y0081945D01*
X0148060Y0097122D02*
X0143001Y0102181D01*
X0143631Y0102220D01*
X0143631Y0112063D01*
X0143001Y0112299D01*
X0127824Y0097122D02*
X0127824Y0061709D01*
X0122705Y0056591D01*
X0122469Y0056591D01*
X0019083Y0104218D02*
X0019026Y0104260D01*
X0018388Y0104585D01*
X0017707Y0104806D01*
X0017000Y0104918D01*
X0016942Y0104918D01*
X0016942Y0097422D01*
X0016342Y0097422D01*
X0016342Y0096822D01*
X0012094Y0096822D01*
X0012094Y0093516D01*
X0012206Y0092809D01*
X0012372Y0092298D01*
X0006406Y0092063D01*
X0006406Y0188185D01*
X0019083Y0188685D01*
X0019083Y0184566D01*
X0018837Y0184745D01*
X0018234Y0185052D01*
X0017590Y0185261D01*
X0016922Y0185367D01*
X0016883Y0185367D01*
X0016883Y0178367D01*
X0016283Y0178367D01*
X0016283Y0177767D01*
X0012283Y0177767D01*
X0012283Y0174729D01*
X0012389Y0174060D01*
X0012598Y0173416D01*
X0012906Y0172813D01*
X0013304Y0172266D01*
X0013782Y0171787D01*
X0014330Y0171389D01*
X0014933Y0171082D01*
X0015576Y0170873D01*
X0016245Y0170767D01*
X0016283Y0170767D01*
X0016283Y0177767D01*
X0016883Y0177767D01*
X0016883Y0170767D01*
X0016922Y0170767D01*
X0017590Y0170873D01*
X0018234Y0171082D01*
X0018837Y0171389D01*
X0019083Y0171568D01*
X0019083Y0159868D01*
X0019026Y0159909D01*
X0018388Y0160234D01*
X0017707Y0160456D01*
X0017000Y0160568D01*
X0016942Y0160568D01*
X0016942Y0153072D01*
X0016342Y0153072D01*
X0016342Y0152472D01*
X0012094Y0152472D01*
X0012094Y0149166D01*
X0012206Y0148459D01*
X0012428Y0147778D01*
X0012753Y0147140D01*
X0013173Y0146561D01*
X0013680Y0146055D01*
X0014259Y0145634D01*
X0014897Y0145309D01*
X0015577Y0145088D01*
X0016284Y0144976D01*
X0016342Y0144976D01*
X0016342Y0152472D01*
X0016942Y0152472D01*
X0016942Y0144976D01*
X0017000Y0144976D01*
X0017707Y0145088D01*
X0018388Y0145309D01*
X0019026Y0145634D01*
X0019083Y0145675D01*
X0019083Y0104218D01*
X0019083Y0104542D02*
X0018472Y0104542D01*
X0019083Y0105141D02*
X0006406Y0105141D01*
X0006406Y0105739D02*
X0019083Y0105739D01*
X0019083Y0106338D02*
X0006406Y0106338D01*
X0006406Y0106937D02*
X0019083Y0106937D01*
X0019083Y0107535D02*
X0006406Y0107535D01*
X0006406Y0108134D02*
X0019083Y0108134D01*
X0019083Y0108732D02*
X0006406Y0108732D01*
X0006406Y0109331D02*
X0019083Y0109331D01*
X0019083Y0109929D02*
X0006406Y0109929D01*
X0006406Y0110528D02*
X0019083Y0110528D01*
X0019083Y0111126D02*
X0006406Y0111126D01*
X0006406Y0111725D02*
X0019083Y0111725D01*
X0019083Y0112323D02*
X0006406Y0112323D01*
X0006406Y0112922D02*
X0019083Y0112922D01*
X0019083Y0113520D02*
X0006406Y0113520D01*
X0006406Y0114119D02*
X0019083Y0114119D01*
X0019083Y0114717D02*
X0006406Y0114717D01*
X0006406Y0115316D02*
X0019083Y0115316D01*
X0019083Y0115914D02*
X0006406Y0115914D01*
X0006406Y0116513D02*
X0019083Y0116513D01*
X0019083Y0117111D02*
X0006406Y0117111D01*
X0006406Y0117710D02*
X0019083Y0117710D01*
X0019083Y0118308D02*
X0006406Y0118308D01*
X0006406Y0118907D02*
X0019083Y0118907D01*
X0019083Y0119505D02*
X0006406Y0119505D01*
X0006406Y0120104D02*
X0019083Y0120104D01*
X0019083Y0120702D02*
X0006406Y0120702D01*
X0006406Y0121301D02*
X0019083Y0121301D01*
X0019083Y0121899D02*
X0006406Y0121899D01*
X0006406Y0122498D02*
X0019083Y0122498D01*
X0019083Y0123096D02*
X0006406Y0123096D01*
X0006406Y0123695D02*
X0019083Y0123695D01*
X0019083Y0124293D02*
X0006406Y0124293D01*
X0006406Y0124892D02*
X0019083Y0124892D01*
X0019083Y0125490D02*
X0006406Y0125490D01*
X0006406Y0126089D02*
X0019083Y0126089D01*
X0019083Y0126687D02*
X0006406Y0126687D01*
X0006406Y0127286D02*
X0019083Y0127286D01*
X0019083Y0127884D02*
X0006406Y0127884D01*
X0006406Y0128483D02*
X0019083Y0128483D01*
X0019083Y0129081D02*
X0006406Y0129081D01*
X0006406Y0129680D02*
X0019083Y0129680D01*
X0019083Y0130278D02*
X0006406Y0130278D01*
X0006406Y0130877D02*
X0019083Y0130877D01*
X0019083Y0131475D02*
X0006406Y0131475D01*
X0006406Y0132074D02*
X0019083Y0132074D01*
X0019083Y0132672D02*
X0006406Y0132672D01*
X0006406Y0133271D02*
X0019083Y0133271D01*
X0019083Y0133870D02*
X0006406Y0133870D01*
X0006406Y0134468D02*
X0019083Y0134468D01*
X0019083Y0135067D02*
X0006406Y0135067D01*
X0006406Y0135665D02*
X0019083Y0135665D01*
X0019083Y0136264D02*
X0006406Y0136264D01*
X0006406Y0136862D02*
X0019083Y0136862D01*
X0019083Y0137461D02*
X0006406Y0137461D01*
X0006406Y0138059D02*
X0019083Y0138059D01*
X0019083Y0138658D02*
X0006406Y0138658D01*
X0006406Y0139256D02*
X0019083Y0139256D01*
X0019083Y0139855D02*
X0006406Y0139855D01*
X0006406Y0140453D02*
X0019083Y0140453D01*
X0019083Y0141052D02*
X0006406Y0141052D01*
X0006406Y0141650D02*
X0019083Y0141650D01*
X0019083Y0142249D02*
X0006406Y0142249D01*
X0006406Y0142847D02*
X0019083Y0142847D01*
X0019083Y0143446D02*
X0006406Y0143446D01*
X0006406Y0144044D02*
X0019083Y0144044D01*
X0019083Y0144643D02*
X0006406Y0144643D01*
X0006406Y0145241D02*
X0015105Y0145241D01*
X0016342Y0145241D02*
X0016942Y0145241D01*
X0016942Y0145840D02*
X0016342Y0145840D01*
X0016342Y0146438D02*
X0016942Y0146438D01*
X0016942Y0147037D02*
X0016342Y0147037D01*
X0016342Y0147635D02*
X0016942Y0147635D01*
X0016942Y0148234D02*
X0016342Y0148234D01*
X0016342Y0148832D02*
X0016942Y0148832D01*
X0016942Y0149431D02*
X0016342Y0149431D01*
X0016342Y0150029D02*
X0016942Y0150029D01*
X0016942Y0150628D02*
X0016342Y0150628D01*
X0016342Y0151226D02*
X0016942Y0151226D01*
X0016942Y0151825D02*
X0016342Y0151825D01*
X0016342Y0152423D02*
X0016942Y0152423D01*
X0016342Y0153022D02*
X0006406Y0153022D01*
X0006406Y0153620D02*
X0012094Y0153620D01*
X0012094Y0153072D02*
X0016342Y0153072D01*
X0016342Y0160568D01*
X0016284Y0160568D01*
X0015577Y0160456D01*
X0014897Y0160234D01*
X0014259Y0159909D01*
X0013680Y0159489D01*
X0013173Y0158983D01*
X0012753Y0158403D01*
X0012428Y0157766D01*
X0012206Y0157085D01*
X0012094Y0156378D01*
X0012094Y0153072D01*
X0012094Y0152423D02*
X0006406Y0152423D01*
X0006406Y0151825D02*
X0012094Y0151825D01*
X0012094Y0151226D02*
X0006406Y0151226D01*
X0006406Y0150628D02*
X0012094Y0150628D01*
X0012094Y0150029D02*
X0006406Y0150029D01*
X0006406Y0149431D02*
X0012094Y0149431D01*
X0012147Y0148832D02*
X0006406Y0148832D01*
X0006406Y0148234D02*
X0012279Y0148234D01*
X0012500Y0147635D02*
X0006406Y0147635D01*
X0006406Y0147037D02*
X0012828Y0147037D01*
X0013296Y0146438D02*
X0006406Y0146438D01*
X0006406Y0145840D02*
X0013975Y0145840D01*
X0018180Y0145241D02*
X0019083Y0145241D01*
X0016942Y0153620D02*
X0016342Y0153620D01*
X0016342Y0154219D02*
X0016942Y0154219D01*
X0016942Y0154817D02*
X0016342Y0154817D01*
X0016342Y0155416D02*
X0016942Y0155416D01*
X0016942Y0156014D02*
X0016342Y0156014D01*
X0016342Y0156613D02*
X0016942Y0156613D01*
X0016942Y0157211D02*
X0016342Y0157211D01*
X0016342Y0157810D02*
X0016942Y0157810D01*
X0016942Y0158408D02*
X0016342Y0158408D01*
X0016342Y0159007D02*
X0016942Y0159007D01*
X0016942Y0159605D02*
X0016342Y0159605D01*
X0016342Y0160204D02*
X0016942Y0160204D01*
X0018448Y0160204D02*
X0019083Y0160204D01*
X0019083Y0160803D02*
X0006406Y0160803D01*
X0006406Y0161401D02*
X0019083Y0161401D01*
X0019083Y0162000D02*
X0006406Y0162000D01*
X0006406Y0162598D02*
X0019083Y0162598D01*
X0019083Y0163197D02*
X0006406Y0163197D01*
X0006406Y0163795D02*
X0019083Y0163795D01*
X0019083Y0164394D02*
X0006406Y0164394D01*
X0006406Y0164992D02*
X0019083Y0164992D01*
X0019083Y0165591D02*
X0006406Y0165591D01*
X0006406Y0166189D02*
X0019083Y0166189D01*
X0019083Y0166788D02*
X0006406Y0166788D01*
X0006406Y0167386D02*
X0019083Y0167386D01*
X0019083Y0167985D02*
X0006406Y0167985D01*
X0006406Y0168583D02*
X0019083Y0168583D01*
X0019083Y0169182D02*
X0006406Y0169182D01*
X0006406Y0169780D02*
X0019083Y0169780D01*
X0019083Y0170379D02*
X0006406Y0170379D01*
X0006406Y0170977D02*
X0015255Y0170977D01*
X0016283Y0170977D02*
X0016883Y0170977D01*
X0016883Y0171576D02*
X0016283Y0171576D01*
X0016283Y0172174D02*
X0016883Y0172174D01*
X0016883Y0172773D02*
X0016283Y0172773D01*
X0016283Y0173371D02*
X0016883Y0173371D01*
X0016883Y0173970D02*
X0016283Y0173970D01*
X0016283Y0174568D02*
X0016883Y0174568D01*
X0016883Y0175167D02*
X0016283Y0175167D01*
X0016283Y0175765D02*
X0016883Y0175765D01*
X0016883Y0176364D02*
X0016283Y0176364D01*
X0016283Y0176962D02*
X0016883Y0176962D01*
X0016883Y0177561D02*
X0016283Y0177561D01*
X0016283Y0178159D02*
X0006406Y0178159D01*
X0006406Y0177561D02*
X0012283Y0177561D01*
X0012283Y0176962D02*
X0006406Y0176962D01*
X0006406Y0176364D02*
X0012283Y0176364D01*
X0012283Y0175765D02*
X0006406Y0175765D01*
X0006406Y0175167D02*
X0012283Y0175167D01*
X0012309Y0174568D02*
X0006406Y0174568D01*
X0006406Y0173970D02*
X0012419Y0173970D01*
X0012621Y0173371D02*
X0006406Y0173371D01*
X0006406Y0172773D02*
X0012935Y0172773D01*
X0013395Y0172174D02*
X0006406Y0172174D01*
X0006406Y0171576D02*
X0014073Y0171576D01*
X0017912Y0170977D02*
X0019083Y0170977D01*
X0016283Y0178367D02*
X0012283Y0178367D01*
X0012283Y0181405D01*
X0012389Y0182074D01*
X0012598Y0182718D01*
X0012906Y0183321D01*
X0013304Y0183868D01*
X0013782Y0184347D01*
X0014330Y0184745D01*
X0014933Y0185052D01*
X0015576Y0185261D01*
X0016245Y0185367D01*
X0016283Y0185367D01*
X0016283Y0178367D01*
X0016283Y0178758D02*
X0016883Y0178758D01*
X0016883Y0179356D02*
X0016283Y0179356D01*
X0016283Y0179955D02*
X0016883Y0179955D01*
X0016883Y0180553D02*
X0016283Y0180553D01*
X0016283Y0181152D02*
X0016883Y0181152D01*
X0016883Y0181750D02*
X0016283Y0181750D01*
X0016283Y0182349D02*
X0016883Y0182349D01*
X0016883Y0182947D02*
X0016283Y0182947D01*
X0016283Y0183546D02*
X0016883Y0183546D01*
X0016883Y0184144D02*
X0016283Y0184144D01*
X0016283Y0184743D02*
X0016883Y0184743D01*
X0016883Y0185341D02*
X0016283Y0185341D01*
X0016084Y0185341D02*
X0006406Y0185341D01*
X0006406Y0184743D02*
X0014327Y0184743D01*
X0013580Y0184144D02*
X0006406Y0184144D01*
X0006406Y0183546D02*
X0013069Y0183546D01*
X0012716Y0182947D02*
X0006406Y0182947D01*
X0006406Y0182349D02*
X0012479Y0182349D01*
X0012338Y0181750D02*
X0006406Y0181750D01*
X0006406Y0181152D02*
X0012283Y0181152D01*
X0012283Y0180553D02*
X0006406Y0180553D01*
X0006406Y0179955D02*
X0012283Y0179955D01*
X0012283Y0179356D02*
X0006406Y0179356D01*
X0006406Y0178758D02*
X0012283Y0178758D01*
X0017082Y0185341D02*
X0019083Y0185341D01*
X0019083Y0184743D02*
X0018839Y0184743D01*
X0019083Y0185940D02*
X0006406Y0185940D01*
X0006406Y0186539D02*
X0019083Y0186539D01*
X0019083Y0187137D02*
X0006406Y0187137D01*
X0006406Y0187736D02*
X0019083Y0187736D01*
X0019083Y0188334D02*
X0010184Y0188334D01*
X0006406Y0160204D02*
X0014837Y0160204D01*
X0013840Y0159605D02*
X0006406Y0159605D01*
X0006406Y0159007D02*
X0013198Y0159007D01*
X0012756Y0158408D02*
X0006406Y0158408D01*
X0006406Y0157810D02*
X0012450Y0157810D01*
X0012248Y0157211D02*
X0006406Y0157211D01*
X0006406Y0156613D02*
X0012132Y0156613D01*
X0012094Y0156014D02*
X0006406Y0156014D01*
X0006406Y0155416D02*
X0012094Y0155416D01*
X0012094Y0154817D02*
X0006406Y0154817D01*
X0006406Y0154219D02*
X0012094Y0154219D01*
X0016284Y0104918D02*
X0015577Y0104806D01*
X0014897Y0104585D01*
X0014259Y0104260D01*
X0013680Y0103839D01*
X0013173Y0103333D01*
X0012753Y0102754D01*
X0012428Y0102116D01*
X0012206Y0101435D01*
X0012094Y0100728D01*
X0012094Y0097422D01*
X0016342Y0097422D01*
X0016342Y0104918D01*
X0016284Y0104918D01*
X0016342Y0104542D02*
X0016942Y0104542D01*
X0016942Y0103944D02*
X0016342Y0103944D01*
X0016342Y0103345D02*
X0016942Y0103345D01*
X0016942Y0102747D02*
X0016342Y0102747D01*
X0016342Y0102148D02*
X0016942Y0102148D01*
X0016942Y0101550D02*
X0016342Y0101550D01*
X0016342Y0100951D02*
X0016942Y0100951D01*
X0016942Y0100353D02*
X0016342Y0100353D01*
X0016342Y0099754D02*
X0016942Y0099754D01*
X0016942Y0099156D02*
X0016342Y0099156D01*
X0016342Y0098557D02*
X0016942Y0098557D01*
X0016942Y0097959D02*
X0016342Y0097959D01*
X0016342Y0097360D02*
X0006406Y0097360D01*
X0006406Y0096762D02*
X0012094Y0096762D01*
X0012094Y0096163D02*
X0006406Y0096163D01*
X0006406Y0095565D02*
X0012094Y0095565D01*
X0012094Y0094966D02*
X0006406Y0094966D01*
X0006406Y0094368D02*
X0012094Y0094368D01*
X0012094Y0093769D02*
X0006406Y0093769D01*
X0006406Y0093171D02*
X0012149Y0093171D01*
X0012283Y0092572D02*
X0006406Y0092572D01*
X0006406Y0097959D02*
X0012094Y0097959D01*
X0012094Y0098557D02*
X0006406Y0098557D01*
X0006406Y0099156D02*
X0012094Y0099156D01*
X0012094Y0099754D02*
X0006406Y0099754D01*
X0006406Y0100353D02*
X0012094Y0100353D01*
X0012130Y0100951D02*
X0006406Y0100951D01*
X0006406Y0101550D02*
X0012244Y0101550D01*
X0012444Y0102148D02*
X0006406Y0102148D01*
X0006406Y0102747D02*
X0012749Y0102747D01*
X0013186Y0103345D02*
X0006406Y0103345D01*
X0006406Y0103944D02*
X0013824Y0103944D01*
X0014813Y0104542D02*
X0006406Y0104542D01*
X0234182Y0141906D02*
X0234064Y0142654D01*
D21*
X0203709Y0127476D03*
X0201180Y0124947D03*
X0203709Y0087004D03*
X0134347Y0092559D03*
X0130847Y0092559D03*
X0051938Y0097122D03*
X0051938Y0109770D03*
X0051938Y0137594D03*
X0051938Y0152772D03*
X0041820Y0223598D03*
X0041820Y0228657D03*
X0031701Y0233717D03*
X0024347Y0245500D03*
X0031701Y0248894D03*
X0034231Y0246364D03*
X0036761Y0264071D03*
X0016524Y0248894D03*
X0008936Y0248894D03*
X0016524Y0233717D03*
X0024113Y0289366D03*
X0026642Y0299484D03*
X0026642Y0304543D03*
X0026642Y0309602D03*
X0026642Y0314661D03*
X0026642Y0319720D03*
X0211298Y0284307D03*
X0246711Y0264071D03*
X0279595Y0251423D03*
X0284654Y0251423D03*
X0289713Y0251423D03*
X0294772Y0251423D03*
X0304890Y0259012D03*
X0309950Y0266600D03*
X0307420Y0276719D03*
X0315009Y0286837D03*
X0312479Y0289366D03*
X0325127Y0296955D03*
X0307420Y0309602D03*
X0302361Y0319720D03*
X0297302Y0329839D03*
X0241652Y0322250D03*
X0239123Y0223598D03*
X0231534Y0216010D03*
X0261888Y0193244D03*
X0264418Y0188185D03*
X0279595Y0188185D03*
X0284654Y0185656D03*
X0289713Y0185656D03*
X0294772Y0185656D03*
X0340304Y0167949D03*
X0051938Y0076886D03*
D22*
X0051938Y0097122D01*
X0016642Y0097122D02*
X0011465Y0122417D01*
X0051938Y0137594D02*
X0051938Y0152772D01*
D23*
X0016583Y0178067D02*
X0011465Y0178067D01*
X0011465Y0122417D01*
X0011465Y0097122D01*
D24*
X0026642Y0097122D02*
X0026642Y0026354D01*
X0026701Y0026295D01*
X0036701Y0026295D02*
X0036761Y0026354D01*
X0036761Y0046531D01*
X0046869Y0056640D01*
X0046869Y0058910D01*
X0046879Y0058920D01*
X0046879Y0127476D01*
X0026642Y0147713D01*
X0026642Y0152772D01*
M02*
