G75*
%MOIN*%
%OFA0B0*%
%FSLAX25Y25*%
%IPPOS*%
%LPD*%
%AMOC8*
5,1,8,0,0,1.08239X$1,22.5*
%
%ADD10C,0.00000*%
%ADD11C,0.00400*%
%ADD12C,0.00600*%
%ADD13C,0.00500*%
%ADD14C,0.00800*%
%ADD15R,0.01181X0.00591*%
%ADD16R,0.01181X0.01181*%
%ADD17C,0.00300*%
D10*
X0001347Y0001000D02*
X0001347Y0366551D01*
X0370402Y0366551D01*
X0370402Y0001000D01*
X0001347Y0001000D01*
X0061386Y0012811D02*
X0061388Y0012980D01*
X0061394Y0013149D01*
X0061405Y0013318D01*
X0061419Y0013486D01*
X0061438Y0013654D01*
X0061461Y0013822D01*
X0061487Y0013989D01*
X0061518Y0014155D01*
X0061553Y0014321D01*
X0061592Y0014485D01*
X0061636Y0014649D01*
X0061683Y0014811D01*
X0061734Y0014972D01*
X0061789Y0015132D01*
X0061848Y0015291D01*
X0061910Y0015448D01*
X0061977Y0015603D01*
X0062048Y0015757D01*
X0062122Y0015909D01*
X0062200Y0016059D01*
X0062281Y0016207D01*
X0062366Y0016353D01*
X0062455Y0016497D01*
X0062547Y0016639D01*
X0062643Y0016778D01*
X0062742Y0016915D01*
X0062844Y0017050D01*
X0062950Y0017182D01*
X0063059Y0017311D01*
X0063171Y0017438D01*
X0063286Y0017562D01*
X0063404Y0017683D01*
X0063525Y0017801D01*
X0063649Y0017916D01*
X0063776Y0018028D01*
X0063905Y0018137D01*
X0064037Y0018243D01*
X0064172Y0018345D01*
X0064309Y0018444D01*
X0064448Y0018540D01*
X0064590Y0018632D01*
X0064734Y0018721D01*
X0064880Y0018806D01*
X0065028Y0018887D01*
X0065178Y0018965D01*
X0065330Y0019039D01*
X0065484Y0019110D01*
X0065639Y0019177D01*
X0065796Y0019239D01*
X0065955Y0019298D01*
X0066115Y0019353D01*
X0066276Y0019404D01*
X0066438Y0019451D01*
X0066602Y0019495D01*
X0066766Y0019534D01*
X0066932Y0019569D01*
X0067098Y0019600D01*
X0067265Y0019626D01*
X0067433Y0019649D01*
X0067601Y0019668D01*
X0067769Y0019682D01*
X0067938Y0019693D01*
X0068107Y0019699D01*
X0068276Y0019701D01*
X0068445Y0019699D01*
X0068614Y0019693D01*
X0068783Y0019682D01*
X0068951Y0019668D01*
X0069119Y0019649D01*
X0069287Y0019626D01*
X0069454Y0019600D01*
X0069620Y0019569D01*
X0069786Y0019534D01*
X0069950Y0019495D01*
X0070114Y0019451D01*
X0070276Y0019404D01*
X0070437Y0019353D01*
X0070597Y0019298D01*
X0070756Y0019239D01*
X0070913Y0019177D01*
X0071068Y0019110D01*
X0071222Y0019039D01*
X0071374Y0018965D01*
X0071524Y0018887D01*
X0071672Y0018806D01*
X0071818Y0018721D01*
X0071962Y0018632D01*
X0072104Y0018540D01*
X0072243Y0018444D01*
X0072380Y0018345D01*
X0072515Y0018243D01*
X0072647Y0018137D01*
X0072776Y0018028D01*
X0072903Y0017916D01*
X0073027Y0017801D01*
X0073148Y0017683D01*
X0073266Y0017562D01*
X0073381Y0017438D01*
X0073493Y0017311D01*
X0073602Y0017182D01*
X0073708Y0017050D01*
X0073810Y0016915D01*
X0073909Y0016778D01*
X0074005Y0016639D01*
X0074097Y0016497D01*
X0074186Y0016353D01*
X0074271Y0016207D01*
X0074352Y0016059D01*
X0074430Y0015909D01*
X0074504Y0015757D01*
X0074575Y0015603D01*
X0074642Y0015448D01*
X0074704Y0015291D01*
X0074763Y0015132D01*
X0074818Y0014972D01*
X0074869Y0014811D01*
X0074916Y0014649D01*
X0074960Y0014485D01*
X0074999Y0014321D01*
X0075034Y0014155D01*
X0075065Y0013989D01*
X0075091Y0013822D01*
X0075114Y0013654D01*
X0075133Y0013486D01*
X0075147Y0013318D01*
X0075158Y0013149D01*
X0075164Y0012980D01*
X0075166Y0012811D01*
X0075164Y0012642D01*
X0075158Y0012473D01*
X0075147Y0012304D01*
X0075133Y0012136D01*
X0075114Y0011968D01*
X0075091Y0011800D01*
X0075065Y0011633D01*
X0075034Y0011467D01*
X0074999Y0011301D01*
X0074960Y0011137D01*
X0074916Y0010973D01*
X0074869Y0010811D01*
X0074818Y0010650D01*
X0074763Y0010490D01*
X0074704Y0010331D01*
X0074642Y0010174D01*
X0074575Y0010019D01*
X0074504Y0009865D01*
X0074430Y0009713D01*
X0074352Y0009563D01*
X0074271Y0009415D01*
X0074186Y0009269D01*
X0074097Y0009125D01*
X0074005Y0008983D01*
X0073909Y0008844D01*
X0073810Y0008707D01*
X0073708Y0008572D01*
X0073602Y0008440D01*
X0073493Y0008311D01*
X0073381Y0008184D01*
X0073266Y0008060D01*
X0073148Y0007939D01*
X0073027Y0007821D01*
X0072903Y0007706D01*
X0072776Y0007594D01*
X0072647Y0007485D01*
X0072515Y0007379D01*
X0072380Y0007277D01*
X0072243Y0007178D01*
X0072104Y0007082D01*
X0071962Y0006990D01*
X0071818Y0006901D01*
X0071672Y0006816D01*
X0071524Y0006735D01*
X0071374Y0006657D01*
X0071222Y0006583D01*
X0071068Y0006512D01*
X0070913Y0006445D01*
X0070756Y0006383D01*
X0070597Y0006324D01*
X0070437Y0006269D01*
X0070276Y0006218D01*
X0070114Y0006171D01*
X0069950Y0006127D01*
X0069786Y0006088D01*
X0069620Y0006053D01*
X0069454Y0006022D01*
X0069287Y0005996D01*
X0069119Y0005973D01*
X0068951Y0005954D01*
X0068783Y0005940D01*
X0068614Y0005929D01*
X0068445Y0005923D01*
X0068276Y0005921D01*
X0068107Y0005923D01*
X0067938Y0005929D01*
X0067769Y0005940D01*
X0067601Y0005954D01*
X0067433Y0005973D01*
X0067265Y0005996D01*
X0067098Y0006022D01*
X0066932Y0006053D01*
X0066766Y0006088D01*
X0066602Y0006127D01*
X0066438Y0006171D01*
X0066276Y0006218D01*
X0066115Y0006269D01*
X0065955Y0006324D01*
X0065796Y0006383D01*
X0065639Y0006445D01*
X0065484Y0006512D01*
X0065330Y0006583D01*
X0065178Y0006657D01*
X0065028Y0006735D01*
X0064880Y0006816D01*
X0064734Y0006901D01*
X0064590Y0006990D01*
X0064448Y0007082D01*
X0064309Y0007178D01*
X0064172Y0007277D01*
X0064037Y0007379D01*
X0063905Y0007485D01*
X0063776Y0007594D01*
X0063649Y0007706D01*
X0063525Y0007821D01*
X0063404Y0007939D01*
X0063286Y0008060D01*
X0063171Y0008184D01*
X0063059Y0008311D01*
X0062950Y0008440D01*
X0062844Y0008572D01*
X0062742Y0008707D01*
X0062643Y0008844D01*
X0062547Y0008983D01*
X0062455Y0009125D01*
X0062366Y0009269D01*
X0062281Y0009415D01*
X0062200Y0009563D01*
X0062122Y0009713D01*
X0062048Y0009865D01*
X0061977Y0010019D01*
X0061910Y0010174D01*
X0061848Y0010331D01*
X0061789Y0010490D01*
X0061734Y0010650D01*
X0061683Y0010811D01*
X0061636Y0010973D01*
X0061592Y0011137D01*
X0061553Y0011301D01*
X0061518Y0011467D01*
X0061487Y0011633D01*
X0061461Y0011800D01*
X0061438Y0011968D01*
X0061419Y0012136D01*
X0061405Y0012304D01*
X0061394Y0012473D01*
X0061388Y0012642D01*
X0061386Y0012811D01*
X0342882Y0012811D02*
X0342884Y0012980D01*
X0342890Y0013149D01*
X0342901Y0013318D01*
X0342915Y0013486D01*
X0342934Y0013654D01*
X0342957Y0013822D01*
X0342983Y0013989D01*
X0343014Y0014155D01*
X0343049Y0014321D01*
X0343088Y0014485D01*
X0343132Y0014649D01*
X0343179Y0014811D01*
X0343230Y0014972D01*
X0343285Y0015132D01*
X0343344Y0015291D01*
X0343406Y0015448D01*
X0343473Y0015603D01*
X0343544Y0015757D01*
X0343618Y0015909D01*
X0343696Y0016059D01*
X0343777Y0016207D01*
X0343862Y0016353D01*
X0343951Y0016497D01*
X0344043Y0016639D01*
X0344139Y0016778D01*
X0344238Y0016915D01*
X0344340Y0017050D01*
X0344446Y0017182D01*
X0344555Y0017311D01*
X0344667Y0017438D01*
X0344782Y0017562D01*
X0344900Y0017683D01*
X0345021Y0017801D01*
X0345145Y0017916D01*
X0345272Y0018028D01*
X0345401Y0018137D01*
X0345533Y0018243D01*
X0345668Y0018345D01*
X0345805Y0018444D01*
X0345944Y0018540D01*
X0346086Y0018632D01*
X0346230Y0018721D01*
X0346376Y0018806D01*
X0346524Y0018887D01*
X0346674Y0018965D01*
X0346826Y0019039D01*
X0346980Y0019110D01*
X0347135Y0019177D01*
X0347292Y0019239D01*
X0347451Y0019298D01*
X0347611Y0019353D01*
X0347772Y0019404D01*
X0347934Y0019451D01*
X0348098Y0019495D01*
X0348262Y0019534D01*
X0348428Y0019569D01*
X0348594Y0019600D01*
X0348761Y0019626D01*
X0348929Y0019649D01*
X0349097Y0019668D01*
X0349265Y0019682D01*
X0349434Y0019693D01*
X0349603Y0019699D01*
X0349772Y0019701D01*
X0349941Y0019699D01*
X0350110Y0019693D01*
X0350279Y0019682D01*
X0350447Y0019668D01*
X0350615Y0019649D01*
X0350783Y0019626D01*
X0350950Y0019600D01*
X0351116Y0019569D01*
X0351282Y0019534D01*
X0351446Y0019495D01*
X0351610Y0019451D01*
X0351772Y0019404D01*
X0351933Y0019353D01*
X0352093Y0019298D01*
X0352252Y0019239D01*
X0352409Y0019177D01*
X0352564Y0019110D01*
X0352718Y0019039D01*
X0352870Y0018965D01*
X0353020Y0018887D01*
X0353168Y0018806D01*
X0353314Y0018721D01*
X0353458Y0018632D01*
X0353600Y0018540D01*
X0353739Y0018444D01*
X0353876Y0018345D01*
X0354011Y0018243D01*
X0354143Y0018137D01*
X0354272Y0018028D01*
X0354399Y0017916D01*
X0354523Y0017801D01*
X0354644Y0017683D01*
X0354762Y0017562D01*
X0354877Y0017438D01*
X0354989Y0017311D01*
X0355098Y0017182D01*
X0355204Y0017050D01*
X0355306Y0016915D01*
X0355405Y0016778D01*
X0355501Y0016639D01*
X0355593Y0016497D01*
X0355682Y0016353D01*
X0355767Y0016207D01*
X0355848Y0016059D01*
X0355926Y0015909D01*
X0356000Y0015757D01*
X0356071Y0015603D01*
X0356138Y0015448D01*
X0356200Y0015291D01*
X0356259Y0015132D01*
X0356314Y0014972D01*
X0356365Y0014811D01*
X0356412Y0014649D01*
X0356456Y0014485D01*
X0356495Y0014321D01*
X0356530Y0014155D01*
X0356561Y0013989D01*
X0356587Y0013822D01*
X0356610Y0013654D01*
X0356629Y0013486D01*
X0356643Y0013318D01*
X0356654Y0013149D01*
X0356660Y0012980D01*
X0356662Y0012811D01*
X0356660Y0012642D01*
X0356654Y0012473D01*
X0356643Y0012304D01*
X0356629Y0012136D01*
X0356610Y0011968D01*
X0356587Y0011800D01*
X0356561Y0011633D01*
X0356530Y0011467D01*
X0356495Y0011301D01*
X0356456Y0011137D01*
X0356412Y0010973D01*
X0356365Y0010811D01*
X0356314Y0010650D01*
X0356259Y0010490D01*
X0356200Y0010331D01*
X0356138Y0010174D01*
X0356071Y0010019D01*
X0356000Y0009865D01*
X0355926Y0009713D01*
X0355848Y0009563D01*
X0355767Y0009415D01*
X0355682Y0009269D01*
X0355593Y0009125D01*
X0355501Y0008983D01*
X0355405Y0008844D01*
X0355306Y0008707D01*
X0355204Y0008572D01*
X0355098Y0008440D01*
X0354989Y0008311D01*
X0354877Y0008184D01*
X0354762Y0008060D01*
X0354644Y0007939D01*
X0354523Y0007821D01*
X0354399Y0007706D01*
X0354272Y0007594D01*
X0354143Y0007485D01*
X0354011Y0007379D01*
X0353876Y0007277D01*
X0353739Y0007178D01*
X0353600Y0007082D01*
X0353458Y0006990D01*
X0353314Y0006901D01*
X0353168Y0006816D01*
X0353020Y0006735D01*
X0352870Y0006657D01*
X0352718Y0006583D01*
X0352564Y0006512D01*
X0352409Y0006445D01*
X0352252Y0006383D01*
X0352093Y0006324D01*
X0351933Y0006269D01*
X0351772Y0006218D01*
X0351610Y0006171D01*
X0351446Y0006127D01*
X0351282Y0006088D01*
X0351116Y0006053D01*
X0350950Y0006022D01*
X0350783Y0005996D01*
X0350615Y0005973D01*
X0350447Y0005954D01*
X0350279Y0005940D01*
X0350110Y0005929D01*
X0349941Y0005923D01*
X0349772Y0005921D01*
X0349603Y0005923D01*
X0349434Y0005929D01*
X0349265Y0005940D01*
X0349097Y0005954D01*
X0348929Y0005973D01*
X0348761Y0005996D01*
X0348594Y0006022D01*
X0348428Y0006053D01*
X0348262Y0006088D01*
X0348098Y0006127D01*
X0347934Y0006171D01*
X0347772Y0006218D01*
X0347611Y0006269D01*
X0347451Y0006324D01*
X0347292Y0006383D01*
X0347135Y0006445D01*
X0346980Y0006512D01*
X0346826Y0006583D01*
X0346674Y0006657D01*
X0346524Y0006735D01*
X0346376Y0006816D01*
X0346230Y0006901D01*
X0346086Y0006990D01*
X0345944Y0007082D01*
X0345805Y0007178D01*
X0345668Y0007277D01*
X0345533Y0007379D01*
X0345401Y0007485D01*
X0345272Y0007594D01*
X0345145Y0007706D01*
X0345021Y0007821D01*
X0344900Y0007939D01*
X0344782Y0008060D01*
X0344667Y0008184D01*
X0344555Y0008311D01*
X0344446Y0008440D01*
X0344340Y0008572D01*
X0344238Y0008707D01*
X0344139Y0008844D01*
X0344043Y0008983D01*
X0343951Y0009125D01*
X0343862Y0009269D01*
X0343777Y0009415D01*
X0343696Y0009563D01*
X0343618Y0009713D01*
X0343544Y0009865D01*
X0343473Y0010019D01*
X0343406Y0010174D01*
X0343344Y0010331D01*
X0343285Y0010490D01*
X0343230Y0010650D01*
X0343179Y0010811D01*
X0343132Y0010973D01*
X0343088Y0011137D01*
X0343049Y0011301D01*
X0343014Y0011467D01*
X0342983Y0011633D01*
X0342957Y0011800D01*
X0342934Y0011968D01*
X0342915Y0012136D01*
X0342901Y0012304D01*
X0342890Y0012473D01*
X0342884Y0012642D01*
X0342882Y0012811D01*
X0210993Y0355331D02*
X0210995Y0355500D01*
X0211001Y0355669D01*
X0211012Y0355838D01*
X0211026Y0356006D01*
X0211045Y0356174D01*
X0211068Y0356342D01*
X0211094Y0356509D01*
X0211125Y0356675D01*
X0211160Y0356841D01*
X0211199Y0357005D01*
X0211243Y0357169D01*
X0211290Y0357331D01*
X0211341Y0357492D01*
X0211396Y0357652D01*
X0211455Y0357811D01*
X0211517Y0357968D01*
X0211584Y0358123D01*
X0211655Y0358277D01*
X0211729Y0358429D01*
X0211807Y0358579D01*
X0211888Y0358727D01*
X0211973Y0358873D01*
X0212062Y0359017D01*
X0212154Y0359159D01*
X0212250Y0359298D01*
X0212349Y0359435D01*
X0212451Y0359570D01*
X0212557Y0359702D01*
X0212666Y0359831D01*
X0212778Y0359958D01*
X0212893Y0360082D01*
X0213011Y0360203D01*
X0213132Y0360321D01*
X0213256Y0360436D01*
X0213383Y0360548D01*
X0213512Y0360657D01*
X0213644Y0360763D01*
X0213779Y0360865D01*
X0213916Y0360964D01*
X0214055Y0361060D01*
X0214197Y0361152D01*
X0214341Y0361241D01*
X0214487Y0361326D01*
X0214635Y0361407D01*
X0214785Y0361485D01*
X0214937Y0361559D01*
X0215091Y0361630D01*
X0215246Y0361697D01*
X0215403Y0361759D01*
X0215562Y0361818D01*
X0215722Y0361873D01*
X0215883Y0361924D01*
X0216045Y0361971D01*
X0216209Y0362015D01*
X0216373Y0362054D01*
X0216539Y0362089D01*
X0216705Y0362120D01*
X0216872Y0362146D01*
X0217040Y0362169D01*
X0217208Y0362188D01*
X0217376Y0362202D01*
X0217545Y0362213D01*
X0217714Y0362219D01*
X0217883Y0362221D01*
X0218052Y0362219D01*
X0218221Y0362213D01*
X0218390Y0362202D01*
X0218558Y0362188D01*
X0218726Y0362169D01*
X0218894Y0362146D01*
X0219061Y0362120D01*
X0219227Y0362089D01*
X0219393Y0362054D01*
X0219557Y0362015D01*
X0219721Y0361971D01*
X0219883Y0361924D01*
X0220044Y0361873D01*
X0220204Y0361818D01*
X0220363Y0361759D01*
X0220520Y0361697D01*
X0220675Y0361630D01*
X0220829Y0361559D01*
X0220981Y0361485D01*
X0221131Y0361407D01*
X0221279Y0361326D01*
X0221425Y0361241D01*
X0221569Y0361152D01*
X0221711Y0361060D01*
X0221850Y0360964D01*
X0221987Y0360865D01*
X0222122Y0360763D01*
X0222254Y0360657D01*
X0222383Y0360548D01*
X0222510Y0360436D01*
X0222634Y0360321D01*
X0222755Y0360203D01*
X0222873Y0360082D01*
X0222988Y0359958D01*
X0223100Y0359831D01*
X0223209Y0359702D01*
X0223315Y0359570D01*
X0223417Y0359435D01*
X0223516Y0359298D01*
X0223612Y0359159D01*
X0223704Y0359017D01*
X0223793Y0358873D01*
X0223878Y0358727D01*
X0223959Y0358579D01*
X0224037Y0358429D01*
X0224111Y0358277D01*
X0224182Y0358123D01*
X0224249Y0357968D01*
X0224311Y0357811D01*
X0224370Y0357652D01*
X0224425Y0357492D01*
X0224476Y0357331D01*
X0224523Y0357169D01*
X0224567Y0357005D01*
X0224606Y0356841D01*
X0224641Y0356675D01*
X0224672Y0356509D01*
X0224698Y0356342D01*
X0224721Y0356174D01*
X0224740Y0356006D01*
X0224754Y0355838D01*
X0224765Y0355669D01*
X0224771Y0355500D01*
X0224773Y0355331D01*
X0224771Y0355162D01*
X0224765Y0354993D01*
X0224754Y0354824D01*
X0224740Y0354656D01*
X0224721Y0354488D01*
X0224698Y0354320D01*
X0224672Y0354153D01*
X0224641Y0353987D01*
X0224606Y0353821D01*
X0224567Y0353657D01*
X0224523Y0353493D01*
X0224476Y0353331D01*
X0224425Y0353170D01*
X0224370Y0353010D01*
X0224311Y0352851D01*
X0224249Y0352694D01*
X0224182Y0352539D01*
X0224111Y0352385D01*
X0224037Y0352233D01*
X0223959Y0352083D01*
X0223878Y0351935D01*
X0223793Y0351789D01*
X0223704Y0351645D01*
X0223612Y0351503D01*
X0223516Y0351364D01*
X0223417Y0351227D01*
X0223315Y0351092D01*
X0223209Y0350960D01*
X0223100Y0350831D01*
X0222988Y0350704D01*
X0222873Y0350580D01*
X0222755Y0350459D01*
X0222634Y0350341D01*
X0222510Y0350226D01*
X0222383Y0350114D01*
X0222254Y0350005D01*
X0222122Y0349899D01*
X0221987Y0349797D01*
X0221850Y0349698D01*
X0221711Y0349602D01*
X0221569Y0349510D01*
X0221425Y0349421D01*
X0221279Y0349336D01*
X0221131Y0349255D01*
X0220981Y0349177D01*
X0220829Y0349103D01*
X0220675Y0349032D01*
X0220520Y0348965D01*
X0220363Y0348903D01*
X0220204Y0348844D01*
X0220044Y0348789D01*
X0219883Y0348738D01*
X0219721Y0348691D01*
X0219557Y0348647D01*
X0219393Y0348608D01*
X0219227Y0348573D01*
X0219061Y0348542D01*
X0218894Y0348516D01*
X0218726Y0348493D01*
X0218558Y0348474D01*
X0218390Y0348460D01*
X0218221Y0348449D01*
X0218052Y0348443D01*
X0217883Y0348441D01*
X0217714Y0348443D01*
X0217545Y0348449D01*
X0217376Y0348460D01*
X0217208Y0348474D01*
X0217040Y0348493D01*
X0216872Y0348516D01*
X0216705Y0348542D01*
X0216539Y0348573D01*
X0216373Y0348608D01*
X0216209Y0348647D01*
X0216045Y0348691D01*
X0215883Y0348738D01*
X0215722Y0348789D01*
X0215562Y0348844D01*
X0215403Y0348903D01*
X0215246Y0348965D01*
X0215091Y0349032D01*
X0214937Y0349103D01*
X0214785Y0349177D01*
X0214635Y0349255D01*
X0214487Y0349336D01*
X0214341Y0349421D01*
X0214197Y0349510D01*
X0214055Y0349602D01*
X0213916Y0349698D01*
X0213779Y0349797D01*
X0213644Y0349899D01*
X0213512Y0350005D01*
X0213383Y0350114D01*
X0213256Y0350226D01*
X0213132Y0350341D01*
X0213011Y0350459D01*
X0212893Y0350580D01*
X0212778Y0350704D01*
X0212666Y0350831D01*
X0212557Y0350960D01*
X0212451Y0351092D01*
X0212349Y0351227D01*
X0212250Y0351364D01*
X0212154Y0351503D01*
X0212062Y0351645D01*
X0211973Y0351789D01*
X0211888Y0351935D01*
X0211807Y0352083D01*
X0211729Y0352233D01*
X0211655Y0352385D01*
X0211584Y0352539D01*
X0211517Y0352694D01*
X0211455Y0352851D01*
X0211396Y0353010D01*
X0211341Y0353170D01*
X0211290Y0353331D01*
X0211243Y0353493D01*
X0211199Y0353657D01*
X0211160Y0353821D01*
X0211125Y0353987D01*
X0211094Y0354153D01*
X0211068Y0354320D01*
X0211045Y0354488D01*
X0211026Y0354656D01*
X0211012Y0354824D01*
X0211001Y0354993D01*
X0210995Y0355162D01*
X0210993Y0355331D01*
X0025953Y0355331D02*
X0025955Y0355500D01*
X0025961Y0355669D01*
X0025972Y0355838D01*
X0025986Y0356006D01*
X0026005Y0356174D01*
X0026028Y0356342D01*
X0026054Y0356509D01*
X0026085Y0356675D01*
X0026120Y0356841D01*
X0026159Y0357005D01*
X0026203Y0357169D01*
X0026250Y0357331D01*
X0026301Y0357492D01*
X0026356Y0357652D01*
X0026415Y0357811D01*
X0026477Y0357968D01*
X0026544Y0358123D01*
X0026615Y0358277D01*
X0026689Y0358429D01*
X0026767Y0358579D01*
X0026848Y0358727D01*
X0026933Y0358873D01*
X0027022Y0359017D01*
X0027114Y0359159D01*
X0027210Y0359298D01*
X0027309Y0359435D01*
X0027411Y0359570D01*
X0027517Y0359702D01*
X0027626Y0359831D01*
X0027738Y0359958D01*
X0027853Y0360082D01*
X0027971Y0360203D01*
X0028092Y0360321D01*
X0028216Y0360436D01*
X0028343Y0360548D01*
X0028472Y0360657D01*
X0028604Y0360763D01*
X0028739Y0360865D01*
X0028876Y0360964D01*
X0029015Y0361060D01*
X0029157Y0361152D01*
X0029301Y0361241D01*
X0029447Y0361326D01*
X0029595Y0361407D01*
X0029745Y0361485D01*
X0029897Y0361559D01*
X0030051Y0361630D01*
X0030206Y0361697D01*
X0030363Y0361759D01*
X0030522Y0361818D01*
X0030682Y0361873D01*
X0030843Y0361924D01*
X0031005Y0361971D01*
X0031169Y0362015D01*
X0031333Y0362054D01*
X0031499Y0362089D01*
X0031665Y0362120D01*
X0031832Y0362146D01*
X0032000Y0362169D01*
X0032168Y0362188D01*
X0032336Y0362202D01*
X0032505Y0362213D01*
X0032674Y0362219D01*
X0032843Y0362221D01*
X0033012Y0362219D01*
X0033181Y0362213D01*
X0033350Y0362202D01*
X0033518Y0362188D01*
X0033686Y0362169D01*
X0033854Y0362146D01*
X0034021Y0362120D01*
X0034187Y0362089D01*
X0034353Y0362054D01*
X0034517Y0362015D01*
X0034681Y0361971D01*
X0034843Y0361924D01*
X0035004Y0361873D01*
X0035164Y0361818D01*
X0035323Y0361759D01*
X0035480Y0361697D01*
X0035635Y0361630D01*
X0035789Y0361559D01*
X0035941Y0361485D01*
X0036091Y0361407D01*
X0036239Y0361326D01*
X0036385Y0361241D01*
X0036529Y0361152D01*
X0036671Y0361060D01*
X0036810Y0360964D01*
X0036947Y0360865D01*
X0037082Y0360763D01*
X0037214Y0360657D01*
X0037343Y0360548D01*
X0037470Y0360436D01*
X0037594Y0360321D01*
X0037715Y0360203D01*
X0037833Y0360082D01*
X0037948Y0359958D01*
X0038060Y0359831D01*
X0038169Y0359702D01*
X0038275Y0359570D01*
X0038377Y0359435D01*
X0038476Y0359298D01*
X0038572Y0359159D01*
X0038664Y0359017D01*
X0038753Y0358873D01*
X0038838Y0358727D01*
X0038919Y0358579D01*
X0038997Y0358429D01*
X0039071Y0358277D01*
X0039142Y0358123D01*
X0039209Y0357968D01*
X0039271Y0357811D01*
X0039330Y0357652D01*
X0039385Y0357492D01*
X0039436Y0357331D01*
X0039483Y0357169D01*
X0039527Y0357005D01*
X0039566Y0356841D01*
X0039601Y0356675D01*
X0039632Y0356509D01*
X0039658Y0356342D01*
X0039681Y0356174D01*
X0039700Y0356006D01*
X0039714Y0355838D01*
X0039725Y0355669D01*
X0039731Y0355500D01*
X0039733Y0355331D01*
X0039731Y0355162D01*
X0039725Y0354993D01*
X0039714Y0354824D01*
X0039700Y0354656D01*
X0039681Y0354488D01*
X0039658Y0354320D01*
X0039632Y0354153D01*
X0039601Y0353987D01*
X0039566Y0353821D01*
X0039527Y0353657D01*
X0039483Y0353493D01*
X0039436Y0353331D01*
X0039385Y0353170D01*
X0039330Y0353010D01*
X0039271Y0352851D01*
X0039209Y0352694D01*
X0039142Y0352539D01*
X0039071Y0352385D01*
X0038997Y0352233D01*
X0038919Y0352083D01*
X0038838Y0351935D01*
X0038753Y0351789D01*
X0038664Y0351645D01*
X0038572Y0351503D01*
X0038476Y0351364D01*
X0038377Y0351227D01*
X0038275Y0351092D01*
X0038169Y0350960D01*
X0038060Y0350831D01*
X0037948Y0350704D01*
X0037833Y0350580D01*
X0037715Y0350459D01*
X0037594Y0350341D01*
X0037470Y0350226D01*
X0037343Y0350114D01*
X0037214Y0350005D01*
X0037082Y0349899D01*
X0036947Y0349797D01*
X0036810Y0349698D01*
X0036671Y0349602D01*
X0036529Y0349510D01*
X0036385Y0349421D01*
X0036239Y0349336D01*
X0036091Y0349255D01*
X0035941Y0349177D01*
X0035789Y0349103D01*
X0035635Y0349032D01*
X0035480Y0348965D01*
X0035323Y0348903D01*
X0035164Y0348844D01*
X0035004Y0348789D01*
X0034843Y0348738D01*
X0034681Y0348691D01*
X0034517Y0348647D01*
X0034353Y0348608D01*
X0034187Y0348573D01*
X0034021Y0348542D01*
X0033854Y0348516D01*
X0033686Y0348493D01*
X0033518Y0348474D01*
X0033350Y0348460D01*
X0033181Y0348449D01*
X0033012Y0348443D01*
X0032843Y0348441D01*
X0032674Y0348443D01*
X0032505Y0348449D01*
X0032336Y0348460D01*
X0032168Y0348474D01*
X0032000Y0348493D01*
X0031832Y0348516D01*
X0031665Y0348542D01*
X0031499Y0348573D01*
X0031333Y0348608D01*
X0031169Y0348647D01*
X0031005Y0348691D01*
X0030843Y0348738D01*
X0030682Y0348789D01*
X0030522Y0348844D01*
X0030363Y0348903D01*
X0030206Y0348965D01*
X0030051Y0349032D01*
X0029897Y0349103D01*
X0029745Y0349177D01*
X0029595Y0349255D01*
X0029447Y0349336D01*
X0029301Y0349421D01*
X0029157Y0349510D01*
X0029015Y0349602D01*
X0028876Y0349698D01*
X0028739Y0349797D01*
X0028604Y0349899D01*
X0028472Y0350005D01*
X0028343Y0350114D01*
X0028216Y0350226D01*
X0028092Y0350341D01*
X0027971Y0350459D01*
X0027853Y0350580D01*
X0027738Y0350704D01*
X0027626Y0350831D01*
X0027517Y0350960D01*
X0027411Y0351092D01*
X0027309Y0351227D01*
X0027210Y0351364D01*
X0027114Y0351503D01*
X0027022Y0351645D01*
X0026933Y0351789D01*
X0026848Y0351935D01*
X0026767Y0352083D01*
X0026689Y0352233D01*
X0026615Y0352385D01*
X0026544Y0352539D01*
X0026477Y0352694D01*
X0026415Y0352851D01*
X0026356Y0353010D01*
X0026301Y0353170D01*
X0026250Y0353331D01*
X0026203Y0353493D01*
X0026159Y0353657D01*
X0026120Y0353821D01*
X0026085Y0353987D01*
X0026054Y0354153D01*
X0026028Y0354320D01*
X0026005Y0354488D01*
X0025986Y0354656D01*
X0025972Y0354824D01*
X0025961Y0354993D01*
X0025955Y0355162D01*
X0025953Y0355331D01*
D11*
X0020338Y0342702D02*
X0020338Y0339632D01*
X0018804Y0338098D01*
X0017269Y0339632D01*
X0017269Y0342702D01*
X0015735Y0342702D02*
X0012665Y0342702D01*
X0012665Y0340400D01*
X0014200Y0341167D01*
X0014967Y0341167D01*
X0015735Y0340400D01*
X0015735Y0338865D01*
X0014967Y0338098D01*
X0013433Y0338098D01*
X0012665Y0338865D01*
X0012967Y0210725D02*
X0011433Y0210725D01*
X0010665Y0209958D01*
X0010665Y0206889D01*
X0011433Y0206121D01*
X0012967Y0206121D01*
X0013735Y0206889D01*
X0013735Y0208423D01*
X0012200Y0208423D01*
X0013735Y0209958D02*
X0012967Y0210725D01*
X0015269Y0210725D02*
X0018338Y0206121D01*
X0018338Y0210725D01*
X0019873Y0210725D02*
X0019873Y0206121D01*
X0022175Y0206121D01*
X0022942Y0206889D01*
X0022942Y0209958D01*
X0022175Y0210725D01*
X0019873Y0210725D01*
X0015269Y0210725D02*
X0015269Y0206121D01*
X0056956Y0183410D02*
X0056956Y0181008D01*
X0057556Y0180408D01*
X0058757Y0180408D01*
X0059358Y0181008D01*
X0060639Y0180408D02*
X0060639Y0184011D01*
X0059358Y0183410D02*
X0058757Y0184011D01*
X0057556Y0184011D01*
X0056956Y0183410D01*
X0060639Y0180408D02*
X0063041Y0180408D01*
X0064322Y0180408D02*
X0064322Y0184011D01*
X0064923Y0182209D02*
X0066724Y0180408D01*
X0064322Y0181609D02*
X0066724Y0184011D01*
X0072133Y0183410D02*
X0072133Y0181008D01*
X0072733Y0180408D01*
X0073935Y0180408D01*
X0074535Y0181008D01*
X0075816Y0181008D02*
X0076417Y0180408D01*
X0077618Y0180408D01*
X0078218Y0181008D01*
X0078218Y0181609D01*
X0077618Y0182209D01*
X0076417Y0182209D01*
X0075816Y0182810D01*
X0075816Y0183410D01*
X0076417Y0184011D01*
X0077618Y0184011D01*
X0078218Y0183410D01*
X0074535Y0183410D02*
X0073935Y0184011D01*
X0072733Y0184011D01*
X0072133Y0183410D01*
X0079499Y0179807D02*
X0081901Y0179807D01*
X0083182Y0180408D02*
X0084984Y0180408D01*
X0085584Y0181008D01*
X0085584Y0181609D01*
X0084984Y0182209D01*
X0083182Y0182209D01*
X0083182Y0180408D02*
X0083182Y0184011D01*
X0084984Y0184011D01*
X0085584Y0183410D01*
X0085584Y0182810D01*
X0084984Y0182209D01*
X0086866Y0181609D02*
X0089268Y0184011D01*
X0090549Y0182810D02*
X0091750Y0184011D01*
X0091750Y0180408D01*
X0090549Y0180408D02*
X0092951Y0180408D01*
X0095369Y0180408D02*
X0097171Y0180408D01*
X0097771Y0181008D01*
X0097771Y0181609D01*
X0097171Y0182209D01*
X0095369Y0182209D01*
X0095369Y0180408D02*
X0095369Y0184011D01*
X0097171Y0184011D01*
X0097771Y0183410D01*
X0097771Y0182810D01*
X0097171Y0182209D01*
X0099052Y0182810D02*
X0099653Y0182209D01*
X0100854Y0182209D01*
X0101454Y0181609D01*
X0101454Y0181008D01*
X0100854Y0180408D01*
X0099653Y0180408D01*
X0099052Y0181008D01*
X0099052Y0182810D02*
X0099052Y0183410D01*
X0099653Y0184011D01*
X0100854Y0184011D01*
X0101454Y0183410D01*
X0102735Y0184011D02*
X0105138Y0184011D01*
X0103937Y0184011D02*
X0103937Y0180408D01*
X0106419Y0179807D02*
X0108821Y0179807D01*
X0110102Y0180408D02*
X0112504Y0180408D01*
X0111303Y0182209D02*
X0110102Y0182209D01*
X0110102Y0180408D02*
X0110102Y0184011D01*
X0112504Y0184011D01*
X0115105Y0183511D02*
X0115105Y0180508D01*
X0115706Y0179908D01*
X0116907Y0179908D01*
X0117507Y0180508D01*
X0117507Y0183511D01*
X0118789Y0183511D02*
X0120590Y0183511D01*
X0121191Y0182910D01*
X0121191Y0180508D01*
X0120590Y0179908D01*
X0118789Y0179908D01*
X0118789Y0183511D01*
X0122472Y0183511D02*
X0123673Y0183511D01*
X0123072Y0183511D02*
X0123072Y0179908D01*
X0122472Y0179908D02*
X0123673Y0179908D01*
X0124927Y0179908D02*
X0124927Y0183511D01*
X0126128Y0182310D01*
X0127329Y0183511D01*
X0127329Y0179908D01*
X0128610Y0179908D02*
X0131012Y0179908D01*
X0129811Y0179908D02*
X0129811Y0183511D01*
X0128610Y0182310D01*
X0132293Y0181709D02*
X0134695Y0181709D01*
X0135977Y0182310D02*
X0137178Y0183511D01*
X0137178Y0179908D01*
X0135977Y0179908D02*
X0138379Y0179908D01*
X0142960Y0181008D02*
X0143560Y0180408D01*
X0144761Y0180408D01*
X0145362Y0181008D01*
X0145362Y0182209D01*
X0144761Y0182810D01*
X0144161Y0182810D01*
X0142960Y0182209D01*
X0142960Y0184011D01*
X0145362Y0184011D01*
X0146643Y0184011D02*
X0146643Y0181609D01*
X0147844Y0180408D01*
X0149045Y0181609D01*
X0149045Y0184011D01*
X0150326Y0184011D02*
X0152128Y0184011D01*
X0152728Y0183410D01*
X0152728Y0182810D01*
X0152128Y0182209D01*
X0150326Y0182209D01*
X0150326Y0180408D02*
X0152128Y0180408D01*
X0152728Y0181008D01*
X0152728Y0181609D01*
X0152128Y0182209D01*
X0150326Y0180408D02*
X0150326Y0184011D01*
X0151527Y0153657D02*
X0152728Y0152456D01*
X0152728Y0150054D01*
X0152728Y0151855D02*
X0150326Y0151855D01*
X0150326Y0152456D02*
X0151527Y0153657D01*
X0150326Y0152456D02*
X0150326Y0150054D01*
X0149045Y0151255D02*
X0149045Y0153657D01*
X0146643Y0153657D02*
X0146643Y0151255D01*
X0147844Y0150054D01*
X0149045Y0151255D01*
X0145362Y0151855D02*
X0145362Y0150654D01*
X0144761Y0150054D01*
X0143560Y0150054D01*
X0142960Y0150654D01*
X0142960Y0151855D02*
X0144161Y0152456D01*
X0144761Y0152456D01*
X0145362Y0151855D01*
X0145362Y0153657D02*
X0142960Y0153657D01*
X0142960Y0151855D01*
X0138879Y0152456D02*
X0138879Y0153056D01*
X0138278Y0153657D01*
X0137077Y0153657D01*
X0136477Y0153056D01*
X0135195Y0151855D02*
X0132793Y0151855D01*
X0131512Y0150054D02*
X0129110Y0150054D01*
X0130311Y0150054D02*
X0130311Y0153657D01*
X0129110Y0152456D01*
X0127829Y0153657D02*
X0127829Y0150054D01*
X0125427Y0150054D02*
X0125427Y0153657D01*
X0126628Y0152456D01*
X0127829Y0153657D01*
X0124173Y0153657D02*
X0122972Y0153657D01*
X0123572Y0153657D02*
X0123572Y0150054D01*
X0122972Y0150054D02*
X0124173Y0150054D01*
X0121691Y0150654D02*
X0121691Y0153056D01*
X0121090Y0153657D01*
X0119289Y0153657D01*
X0119289Y0150054D01*
X0121090Y0150054D01*
X0121691Y0150654D01*
X0118007Y0150654D02*
X0118007Y0153657D01*
X0115605Y0153657D02*
X0115605Y0150654D01*
X0116206Y0150054D01*
X0117407Y0150054D01*
X0118007Y0150654D01*
X0113004Y0151154D02*
X0112403Y0150554D01*
X0111202Y0150554D01*
X0110602Y0151154D01*
X0111202Y0152355D02*
X0112403Y0152355D01*
X0113004Y0151755D01*
X0113004Y0151154D01*
X0111202Y0152355D02*
X0110602Y0152956D01*
X0110602Y0153556D01*
X0111202Y0154157D01*
X0112403Y0154157D01*
X0113004Y0153556D01*
X0109321Y0149953D02*
X0106919Y0149953D01*
X0104437Y0150554D02*
X0104437Y0154157D01*
X0105638Y0154157D02*
X0103235Y0154157D01*
X0101954Y0153556D02*
X0101354Y0154157D01*
X0100153Y0154157D01*
X0099552Y0153556D01*
X0099552Y0152956D01*
X0100153Y0152355D01*
X0101354Y0152355D01*
X0101954Y0151755D01*
X0101954Y0151154D01*
X0101354Y0150554D01*
X0100153Y0150554D01*
X0099552Y0151154D01*
X0098271Y0151154D02*
X0097671Y0150554D01*
X0095869Y0150554D01*
X0095869Y0154157D01*
X0097671Y0154157D01*
X0098271Y0153556D01*
X0098271Y0152956D01*
X0097671Y0152355D01*
X0095869Y0152355D01*
X0097671Y0152355D02*
X0098271Y0151755D01*
X0098271Y0151154D01*
X0093951Y0150054D02*
X0091549Y0150054D01*
X0093951Y0152456D01*
X0093951Y0153056D01*
X0093350Y0153657D01*
X0092149Y0153657D01*
X0091549Y0153056D01*
X0090268Y0153657D02*
X0087866Y0151255D01*
X0088466Y0151855D02*
X0090268Y0150054D01*
X0087866Y0150054D02*
X0087866Y0153657D01*
X0086584Y0153056D02*
X0086584Y0152456D01*
X0085984Y0151855D01*
X0084182Y0151855D01*
X0084182Y0150054D02*
X0084182Y0153657D01*
X0085984Y0153657D01*
X0086584Y0153056D01*
X0085984Y0151855D02*
X0086584Y0151255D01*
X0086584Y0150654D01*
X0085984Y0150054D01*
X0084182Y0150054D01*
X0082901Y0149453D02*
X0080499Y0149453D01*
X0079218Y0150654D02*
X0078618Y0150054D01*
X0077417Y0150054D01*
X0076816Y0150654D01*
X0075535Y0150654D02*
X0074935Y0150054D01*
X0073733Y0150054D01*
X0073133Y0150654D01*
X0073133Y0153056D01*
X0073733Y0153657D01*
X0074935Y0153657D01*
X0075535Y0153056D01*
X0076816Y0153056D02*
X0076816Y0152456D01*
X0077417Y0151855D01*
X0078618Y0151855D01*
X0079218Y0151255D01*
X0079218Y0150654D01*
X0079218Y0153056D02*
X0078618Y0153657D01*
X0077417Y0153657D01*
X0076816Y0153056D01*
X0069180Y0153056D02*
X0069180Y0150654D01*
X0068579Y0150054D01*
X0067378Y0150054D01*
X0066778Y0150654D01*
X0066778Y0153056D01*
X0067378Y0153657D01*
X0068579Y0153657D01*
X0069180Y0153056D01*
X0065496Y0153056D02*
X0064896Y0153657D01*
X0063695Y0153657D01*
X0063094Y0153056D01*
X0063094Y0152456D01*
X0063695Y0151855D01*
X0064896Y0151855D01*
X0065496Y0151255D01*
X0065496Y0150654D01*
X0064896Y0150054D01*
X0063695Y0150054D01*
X0063094Y0150654D01*
X0061840Y0150054D02*
X0060639Y0150054D01*
X0061239Y0150054D02*
X0061239Y0153657D01*
X0060639Y0153657D02*
X0061840Y0153657D01*
X0059358Y0153657D02*
X0059358Y0150054D01*
X0056956Y0150054D02*
X0056956Y0153657D01*
X0058157Y0152456D01*
X0059358Y0153657D01*
X0060239Y0123302D02*
X0059639Y0122702D01*
X0059639Y0120300D01*
X0060239Y0119699D01*
X0061441Y0119699D01*
X0062041Y0120300D01*
X0062041Y0122702D01*
X0061441Y0123302D01*
X0060239Y0123302D01*
X0058358Y0123302D02*
X0058358Y0119699D01*
X0055956Y0119699D02*
X0055956Y0123302D01*
X0057157Y0122101D01*
X0058358Y0123302D01*
X0063322Y0122702D02*
X0063322Y0122101D01*
X0063923Y0121501D01*
X0065124Y0121501D01*
X0065724Y0120900D01*
X0065724Y0120300D01*
X0065124Y0119699D01*
X0063923Y0119699D01*
X0063322Y0120300D01*
X0063322Y0122702D02*
X0063923Y0123302D01*
X0065124Y0123302D01*
X0065724Y0122702D01*
X0067005Y0123302D02*
X0068206Y0123302D01*
X0067606Y0123302D02*
X0067606Y0119699D01*
X0068206Y0119699D02*
X0067005Y0119699D01*
X0072133Y0120300D02*
X0072133Y0122702D01*
X0072733Y0123302D01*
X0073935Y0123302D01*
X0074535Y0122702D01*
X0075816Y0122702D02*
X0075816Y0122101D01*
X0076417Y0121501D01*
X0077618Y0121501D01*
X0078218Y0120900D01*
X0078218Y0120300D01*
X0077618Y0119699D01*
X0076417Y0119699D01*
X0075816Y0120300D01*
X0074535Y0120300D02*
X0073935Y0119699D01*
X0072733Y0119699D01*
X0072133Y0120300D01*
X0075816Y0122702D02*
X0076417Y0123302D01*
X0077618Y0123302D01*
X0078218Y0122702D01*
X0079499Y0119099D02*
X0081901Y0119099D01*
X0083182Y0119699D02*
X0084984Y0119699D01*
X0085584Y0120300D01*
X0085584Y0120900D01*
X0084984Y0121501D01*
X0083182Y0121501D01*
X0083182Y0123302D02*
X0084984Y0123302D01*
X0085584Y0122702D01*
X0085584Y0122101D01*
X0084984Y0121501D01*
X0086866Y0122101D02*
X0087466Y0121501D01*
X0088667Y0121501D01*
X0089268Y0120900D01*
X0089268Y0120300D01*
X0088667Y0119699D01*
X0087466Y0119699D01*
X0086866Y0120300D01*
X0086866Y0122101D02*
X0086866Y0122702D01*
X0087466Y0123302D01*
X0088667Y0123302D01*
X0089268Y0122702D01*
X0090549Y0123302D02*
X0092951Y0123302D01*
X0091750Y0123302D02*
X0091750Y0119699D01*
X0095369Y0119699D02*
X0095369Y0123302D01*
X0097171Y0123302D01*
X0097771Y0122702D01*
X0097771Y0120300D01*
X0097171Y0119699D01*
X0095369Y0119699D01*
X0099052Y0119699D02*
X0099052Y0123302D01*
X0101454Y0123302D01*
X0102735Y0123302D02*
X0104537Y0123302D01*
X0105138Y0122702D01*
X0105138Y0122101D01*
X0104537Y0121501D01*
X0102735Y0121501D01*
X0102735Y0123302D02*
X0102735Y0119699D01*
X0104537Y0119699D01*
X0105138Y0120300D01*
X0105138Y0120900D01*
X0104537Y0121501D01*
X0106419Y0122702D02*
X0106419Y0120300D01*
X0107019Y0119699D01*
X0108220Y0119699D01*
X0108821Y0120300D01*
X0108821Y0121501D01*
X0107620Y0121501D01*
X0108821Y0122702D02*
X0108220Y0123302D01*
X0107019Y0123302D01*
X0106419Y0122702D01*
X0110102Y0122101D02*
X0111303Y0123302D01*
X0111303Y0119699D01*
X0110102Y0119699D02*
X0112504Y0119699D01*
X0115105Y0120300D02*
X0115706Y0119699D01*
X0116907Y0119699D01*
X0117507Y0120300D01*
X0117507Y0123302D01*
X0118789Y0123302D02*
X0120590Y0123302D01*
X0121191Y0122702D01*
X0121191Y0120300D01*
X0120590Y0119699D01*
X0118789Y0119699D01*
X0118789Y0123302D01*
X0122472Y0123302D02*
X0123673Y0123302D01*
X0123072Y0123302D02*
X0123072Y0119699D01*
X0122472Y0119699D02*
X0123673Y0119699D01*
X0124927Y0119699D02*
X0124927Y0123302D01*
X0126128Y0122101D01*
X0127329Y0123302D01*
X0127329Y0119699D01*
X0128610Y0119699D02*
X0131012Y0122101D01*
X0131012Y0122702D01*
X0130412Y0123302D01*
X0129211Y0123302D01*
X0128610Y0122702D01*
X0128610Y0119699D02*
X0131012Y0119699D01*
X0132293Y0121501D02*
X0134695Y0121501D01*
X0135977Y0122101D02*
X0137178Y0123302D01*
X0137178Y0119699D01*
X0135977Y0119699D02*
X0138379Y0119699D01*
X0142960Y0119699D02*
X0145362Y0119699D01*
X0144161Y0119699D02*
X0144161Y0123302D01*
X0142960Y0122101D01*
X0146643Y0121501D02*
X0149045Y0121501D01*
X0150326Y0122702D02*
X0150927Y0123302D01*
X0152128Y0123302D01*
X0152728Y0122702D01*
X0152728Y0122101D01*
X0150326Y0119699D01*
X0152728Y0119699D01*
X0168255Y0119699D02*
X0170657Y0122101D01*
X0170657Y0122702D01*
X0170057Y0123302D01*
X0168856Y0123302D01*
X0168255Y0122702D01*
X0168255Y0119699D02*
X0170657Y0119699D01*
X0171938Y0121501D02*
X0174340Y0121501D01*
X0175621Y0122101D02*
X0176822Y0123302D01*
X0176822Y0119699D01*
X0175621Y0119699D02*
X0178023Y0119699D01*
X0179304Y0120300D02*
X0179304Y0120900D01*
X0179905Y0121501D01*
X0181106Y0121501D01*
X0181707Y0120900D01*
X0181707Y0120300D01*
X0181106Y0119699D01*
X0179905Y0119699D01*
X0179304Y0120300D01*
X0179905Y0121501D02*
X0179304Y0122101D01*
X0179304Y0122702D01*
X0179905Y0123302D01*
X0181106Y0123302D01*
X0181707Y0122702D01*
X0181707Y0122101D01*
X0181106Y0121501D01*
X0181707Y0092948D02*
X0181707Y0092347D01*
X0179304Y0089945D01*
X0179304Y0089345D01*
X0178023Y0089345D02*
X0175621Y0089345D01*
X0176822Y0089345D02*
X0176822Y0092948D01*
X0175621Y0091747D01*
X0174340Y0091146D02*
X0171938Y0091146D01*
X0170657Y0091747D02*
X0170657Y0092347D01*
X0170057Y0092948D01*
X0168856Y0092948D01*
X0168255Y0092347D01*
X0170657Y0091747D02*
X0168255Y0089345D01*
X0170657Y0089345D01*
X0179304Y0092948D02*
X0181707Y0092948D01*
X0156411Y0092948D02*
X0154009Y0092948D01*
X0155210Y0092948D02*
X0155210Y0089345D01*
X0152728Y0089945D02*
X0152128Y0089345D01*
X0150927Y0089345D01*
X0150326Y0089945D01*
X0149045Y0089945D02*
X0148444Y0089345D01*
X0146643Y0089345D01*
X0146643Y0092948D01*
X0148444Y0092948D01*
X0149045Y0092347D01*
X0149045Y0091747D01*
X0148444Y0091146D01*
X0146643Y0091146D01*
X0145362Y0090546D02*
X0145362Y0092948D01*
X0145362Y0090546D02*
X0144161Y0089345D01*
X0142960Y0090546D01*
X0142960Y0092948D01*
X0148444Y0091146D02*
X0149045Y0090546D01*
X0149045Y0089945D01*
X0150326Y0091747D02*
X0150927Y0091146D01*
X0152128Y0091146D01*
X0152728Y0090546D01*
X0152728Y0089945D01*
X0152728Y0092347D02*
X0152128Y0092948D01*
X0150927Y0092948D01*
X0150326Y0092347D01*
X0150326Y0091747D01*
X0135982Y0091747D02*
X0135982Y0092347D01*
X0135382Y0092948D01*
X0134181Y0092948D01*
X0133580Y0092347D01*
X0132299Y0091146D02*
X0129897Y0091146D01*
X0128616Y0091747D02*
X0128616Y0092347D01*
X0128015Y0092948D01*
X0126814Y0092948D01*
X0126214Y0092347D01*
X0124933Y0092948D02*
X0124933Y0089345D01*
X0126214Y0089345D02*
X0128616Y0091747D01*
X0128616Y0089345D02*
X0126214Y0089345D01*
X0123732Y0091747D02*
X0124933Y0092948D01*
X0123732Y0091747D02*
X0122531Y0092948D01*
X0122531Y0089345D01*
X0121250Y0089945D02*
X0121250Y0092347D01*
X0120649Y0092948D01*
X0118848Y0092948D01*
X0118848Y0089345D01*
X0120649Y0089345D01*
X0121250Y0089945D01*
X0117567Y0089945D02*
X0117567Y0092948D01*
X0115164Y0092948D02*
X0115164Y0089945D01*
X0115765Y0089345D01*
X0116966Y0089345D01*
X0117567Y0089945D01*
X0108197Y0089945D02*
X0108197Y0092347D01*
X0107596Y0092948D01*
X0106395Y0092948D01*
X0105795Y0092347D01*
X0105795Y0091747D01*
X0106395Y0091146D01*
X0108197Y0091146D01*
X0108197Y0089945D02*
X0107596Y0089345D01*
X0106395Y0089345D01*
X0105795Y0089945D01*
X0104513Y0091146D02*
X0102111Y0091146D01*
X0100830Y0089345D02*
X0098428Y0089345D01*
X0099629Y0089345D02*
X0099629Y0092948D01*
X0098428Y0091747D01*
X0090584Y0092948D02*
X0088182Y0089345D01*
X0086901Y0089345D02*
X0085700Y0090546D01*
X0086301Y0090546D02*
X0084499Y0090546D01*
X0084499Y0089345D02*
X0084499Y0092948D01*
X0086301Y0092948D01*
X0086901Y0092347D01*
X0086901Y0091146D01*
X0086301Y0090546D01*
X0088182Y0092948D02*
X0090584Y0089345D01*
X0083218Y0088744D02*
X0080816Y0088744D01*
X0079535Y0089945D02*
X0079535Y0092948D01*
X0077133Y0092948D02*
X0077133Y0089945D01*
X0077733Y0089345D01*
X0078935Y0089345D01*
X0079535Y0089945D01*
X0070348Y0089345D02*
X0067946Y0092948D01*
X0066665Y0092948D02*
X0064263Y0092948D01*
X0065464Y0092948D02*
X0065464Y0089345D01*
X0067946Y0089345D02*
X0070348Y0092948D01*
X0062982Y0088744D02*
X0060580Y0088744D01*
X0059299Y0089945D02*
X0059299Y0092948D01*
X0056897Y0092948D02*
X0056897Y0089945D01*
X0057497Y0089345D01*
X0058698Y0089345D01*
X0059299Y0089945D01*
X0051689Y0068745D02*
X0052457Y0067978D01*
X0049387Y0064908D01*
X0050155Y0064141D01*
X0051689Y0064141D01*
X0052457Y0064908D01*
X0052457Y0067978D01*
X0051689Y0068745D02*
X0050155Y0068745D01*
X0049387Y0067978D01*
X0049387Y0064908D01*
X0047853Y0064141D02*
X0044783Y0064141D01*
X0047853Y0067210D01*
X0047853Y0067978D01*
X0047085Y0068745D01*
X0045551Y0068745D01*
X0044783Y0067978D01*
X0045818Y0040627D02*
X0045818Y0036023D01*
X0044283Y0036023D02*
X0047353Y0036023D01*
X0048887Y0036790D02*
X0049655Y0036023D01*
X0051189Y0036023D01*
X0051957Y0036790D01*
X0051957Y0039859D01*
X0051189Y0040627D01*
X0049655Y0040627D01*
X0048887Y0039859D01*
X0048887Y0039092D01*
X0049655Y0038325D01*
X0051957Y0038325D01*
X0045818Y0040627D02*
X0044283Y0039092D01*
X0083182Y0119699D02*
X0083182Y0123302D01*
X0099052Y0121501D02*
X0100253Y0121501D01*
X0099052Y0119699D02*
X0101454Y0119699D01*
X0115105Y0120300D02*
X0115105Y0123302D01*
X0136477Y0150054D02*
X0138879Y0152456D01*
X0138879Y0150054D02*
X0136477Y0150054D01*
X0089268Y0180408D02*
X0087466Y0182209D01*
X0086866Y0180408D02*
X0086866Y0184011D01*
X0135982Y0091747D02*
X0133580Y0089345D01*
X0135982Y0089345D01*
X0149992Y0064686D02*
X0149224Y0063918D01*
X0149992Y0064686D02*
X0151526Y0064686D01*
X0152294Y0063918D01*
X0152294Y0063151D01*
X0149224Y0060082D01*
X0152294Y0060082D01*
X0162783Y0060082D02*
X0165853Y0060082D01*
X0164318Y0060082D02*
X0164318Y0064686D01*
X0162783Y0063151D01*
X0167387Y0063151D02*
X0168155Y0062384D01*
X0169689Y0062384D01*
X0170457Y0061617D01*
X0170457Y0060849D01*
X0169689Y0060082D01*
X0168155Y0060082D01*
X0167387Y0060849D01*
X0167387Y0061617D01*
X0168155Y0062384D01*
X0167387Y0063151D02*
X0167387Y0063918D01*
X0168155Y0064686D01*
X0169689Y0064686D01*
X0170457Y0063918D01*
X0170457Y0063151D01*
X0169689Y0062384D01*
X0169957Y0044686D02*
X0166887Y0044686D01*
X0163818Y0044686D02*
X0163818Y0040082D01*
X0162283Y0040082D02*
X0165353Y0040082D01*
X0166887Y0040082D02*
X0166887Y0040849D01*
X0169957Y0043918D01*
X0169957Y0044686D01*
X0163818Y0044686D02*
X0162283Y0043151D01*
X0153294Y0040082D02*
X0150224Y0040082D01*
X0151759Y0040082D02*
X0151759Y0044686D01*
X0150224Y0043151D01*
X0210227Y0088845D02*
X0212630Y0091247D01*
X0212630Y0091847D01*
X0212029Y0092448D01*
X0210828Y0092448D01*
X0210227Y0091847D01*
X0210227Y0088845D02*
X0212630Y0088845D01*
X0213911Y0090646D02*
X0216313Y0090646D01*
X0217594Y0091247D02*
X0218194Y0090646D01*
X0219996Y0090646D01*
X0219996Y0089445D02*
X0219996Y0091847D01*
X0219395Y0092448D01*
X0218194Y0092448D01*
X0217594Y0091847D01*
X0217594Y0091247D01*
X0217594Y0089445D02*
X0218194Y0088845D01*
X0219395Y0088845D01*
X0219996Y0089445D01*
X0230464Y0088845D02*
X0232866Y0091247D01*
X0232866Y0091847D01*
X0232265Y0092448D01*
X0231064Y0092448D01*
X0230464Y0091847D01*
X0230464Y0088845D02*
X0232866Y0088845D01*
X0234147Y0090646D02*
X0236549Y0090646D01*
X0237830Y0090646D02*
X0237830Y0092448D01*
X0240232Y0092448D01*
X0239632Y0091247D02*
X0240232Y0090646D01*
X0240232Y0089445D01*
X0239632Y0088845D01*
X0238430Y0088845D01*
X0237830Y0089445D01*
X0237830Y0090646D02*
X0239031Y0091247D01*
X0239632Y0091247D01*
X0250200Y0092347D02*
X0250800Y0092948D01*
X0252001Y0092948D01*
X0252602Y0092347D01*
X0252602Y0091747D01*
X0250200Y0089345D01*
X0252602Y0089345D01*
X0253883Y0091146D02*
X0256285Y0091146D01*
X0257566Y0091747D02*
X0258767Y0092948D01*
X0258767Y0089345D01*
X0257566Y0089345D02*
X0259968Y0089345D01*
X0279554Y0089945D02*
X0280155Y0089345D01*
X0281356Y0089345D01*
X0281956Y0089945D01*
X0281956Y0090546D01*
X0281356Y0091146D01*
X0280755Y0091146D01*
X0281356Y0091146D02*
X0281956Y0091747D01*
X0281956Y0092347D01*
X0281356Y0092948D01*
X0280155Y0092948D01*
X0279554Y0092347D01*
X0283237Y0091146D02*
X0285639Y0091146D01*
X0286921Y0091747D02*
X0288122Y0092948D01*
X0288122Y0089345D01*
X0286921Y0089345D02*
X0289323Y0089345D01*
X0290604Y0089945D02*
X0291204Y0089345D01*
X0292405Y0089345D01*
X0293006Y0089945D01*
X0293006Y0090546D01*
X0292405Y0091146D01*
X0291805Y0091146D01*
X0292405Y0091146D02*
X0293006Y0091747D01*
X0293006Y0092347D01*
X0292405Y0092948D01*
X0291204Y0092948D01*
X0290604Y0092347D01*
X0299790Y0092347D02*
X0300391Y0092948D01*
X0301592Y0092948D01*
X0302193Y0092347D01*
X0302193Y0091747D01*
X0301592Y0091146D01*
X0302193Y0090546D01*
X0302193Y0089945D01*
X0301592Y0089345D01*
X0300391Y0089345D01*
X0299790Y0089945D01*
X0300991Y0091146D02*
X0301592Y0091146D01*
X0303474Y0091146D02*
X0305876Y0091146D01*
X0307157Y0091747D02*
X0307757Y0091146D01*
X0309559Y0091146D01*
X0309559Y0089945D02*
X0309559Y0092347D01*
X0308958Y0092948D01*
X0307757Y0092948D01*
X0307157Y0092347D01*
X0307157Y0091747D01*
X0307157Y0089945D02*
X0307757Y0089345D01*
X0308958Y0089345D01*
X0309559Y0089945D01*
X0309559Y0119699D02*
X0307157Y0119699D01*
X0308358Y0119699D02*
X0308358Y0123302D01*
X0307157Y0122101D01*
X0305876Y0121501D02*
X0303474Y0121501D01*
X0302193Y0122101D02*
X0301592Y0121501D01*
X0302193Y0120900D01*
X0302193Y0120300D01*
X0301592Y0119699D01*
X0300391Y0119699D01*
X0299790Y0120300D01*
X0300991Y0121501D02*
X0301592Y0121501D01*
X0302193Y0122101D02*
X0302193Y0122702D01*
X0301592Y0123302D01*
X0300391Y0123302D01*
X0299790Y0122702D01*
X0293006Y0121501D02*
X0290604Y0121501D01*
X0292405Y0123302D01*
X0292405Y0119699D01*
X0289323Y0119699D02*
X0286921Y0119699D01*
X0288122Y0119699D02*
X0288122Y0123302D01*
X0286921Y0122101D01*
X0285639Y0121501D02*
X0283237Y0121501D01*
X0281956Y0122101D02*
X0281356Y0121501D01*
X0281956Y0120900D01*
X0281956Y0120300D01*
X0281356Y0119699D01*
X0280155Y0119699D01*
X0279554Y0120300D01*
X0280755Y0121501D02*
X0281356Y0121501D01*
X0281956Y0122101D02*
X0281956Y0122702D01*
X0281356Y0123302D01*
X0280155Y0123302D01*
X0279554Y0122702D01*
X0280155Y0150054D02*
X0279554Y0150654D01*
X0280155Y0150054D02*
X0281356Y0150054D01*
X0281956Y0150654D01*
X0281956Y0151255D01*
X0281356Y0151855D01*
X0280755Y0151855D01*
X0281356Y0151855D02*
X0281956Y0152456D01*
X0281956Y0153056D01*
X0281356Y0153657D01*
X0280155Y0153657D01*
X0279554Y0153056D01*
X0283237Y0151855D02*
X0285639Y0151855D01*
X0286921Y0152456D02*
X0288122Y0153657D01*
X0288122Y0150054D01*
X0286921Y0150054D02*
X0289323Y0150054D01*
X0290604Y0150654D02*
X0291204Y0150054D01*
X0292405Y0150054D01*
X0293006Y0150654D01*
X0293006Y0151855D01*
X0292405Y0152456D01*
X0291805Y0152456D01*
X0290604Y0151855D01*
X0290604Y0153657D01*
X0293006Y0153657D01*
X0299790Y0153056D02*
X0300391Y0153657D01*
X0301592Y0153657D01*
X0302193Y0153056D01*
X0302193Y0152456D01*
X0301592Y0151855D01*
X0302193Y0151255D01*
X0302193Y0150654D01*
X0301592Y0150054D01*
X0300391Y0150054D01*
X0299790Y0150654D01*
X0300991Y0151855D02*
X0301592Y0151855D01*
X0303474Y0151855D02*
X0305876Y0151855D01*
X0307157Y0152456D02*
X0308358Y0153657D01*
X0308358Y0150054D01*
X0307157Y0150054D02*
X0309559Y0150054D01*
X0310840Y0150054D02*
X0313242Y0150054D01*
X0312041Y0150054D02*
X0312041Y0153657D01*
X0310840Y0152456D01*
X0310840Y0180408D02*
X0313242Y0182810D01*
X0313242Y0183410D01*
X0312641Y0184011D01*
X0311440Y0184011D01*
X0310840Y0183410D01*
X0308358Y0184011D02*
X0308358Y0180408D01*
X0307157Y0180408D02*
X0309559Y0180408D01*
X0310840Y0180408D02*
X0313242Y0180408D01*
X0308358Y0184011D02*
X0307157Y0182810D01*
X0305876Y0182209D02*
X0303474Y0182209D01*
X0302193Y0181609D02*
X0302193Y0181008D01*
X0301592Y0180408D01*
X0300391Y0180408D01*
X0299790Y0181008D01*
X0300991Y0182209D02*
X0301592Y0182209D01*
X0302193Y0181609D01*
X0301592Y0182209D02*
X0302193Y0182810D01*
X0302193Y0183410D01*
X0301592Y0184011D01*
X0300391Y0184011D01*
X0299790Y0183410D01*
X0293006Y0184011D02*
X0291805Y0183410D01*
X0290604Y0182209D01*
X0292405Y0182209D01*
X0293006Y0181609D01*
X0293006Y0181008D01*
X0292405Y0180408D01*
X0291204Y0180408D01*
X0290604Y0181008D01*
X0290604Y0182209D01*
X0289323Y0180408D02*
X0286921Y0180408D01*
X0288122Y0180408D02*
X0288122Y0184011D01*
X0286921Y0182810D01*
X0285639Y0182209D02*
X0283237Y0182209D01*
X0281956Y0181609D02*
X0281956Y0181008D01*
X0281356Y0180408D01*
X0280155Y0180408D01*
X0279554Y0181008D01*
X0280755Y0182209D02*
X0281356Y0182209D01*
X0281956Y0181609D01*
X0281356Y0182209D02*
X0281956Y0182810D01*
X0281956Y0183410D01*
X0281356Y0184011D01*
X0280155Y0184011D01*
X0279554Y0183410D01*
X0311440Y0123302D02*
X0312641Y0123302D01*
X0313242Y0122702D01*
X0310840Y0120300D01*
X0311440Y0119699D01*
X0312641Y0119699D01*
X0313242Y0120300D01*
X0313242Y0122702D01*
X0311440Y0123302D02*
X0310840Y0122702D01*
X0310840Y0120300D01*
X0320027Y0120300D02*
X0320627Y0119699D01*
X0321828Y0119699D01*
X0322429Y0120300D01*
X0322429Y0120900D01*
X0321828Y0121501D01*
X0321228Y0121501D01*
X0321828Y0121501D02*
X0322429Y0122101D01*
X0322429Y0122702D01*
X0321828Y0123302D01*
X0320627Y0123302D01*
X0320027Y0122702D01*
X0323710Y0121501D02*
X0326112Y0121501D01*
X0327393Y0121501D02*
X0327393Y0120300D01*
X0327993Y0119699D01*
X0329195Y0119699D01*
X0329795Y0120300D01*
X0329795Y0120900D01*
X0329195Y0121501D01*
X0327393Y0121501D01*
X0328594Y0122702D01*
X0329795Y0123302D01*
X0340863Y0092948D02*
X0342064Y0092948D01*
X0342665Y0092347D01*
X0342665Y0091747D01*
X0342064Y0091146D01*
X0342665Y0090546D01*
X0342665Y0089945D01*
X0342064Y0089345D01*
X0340863Y0089345D01*
X0340263Y0089945D01*
X0341464Y0091146D02*
X0342064Y0091146D01*
X0343946Y0091146D02*
X0346348Y0091146D01*
X0347629Y0091747D02*
X0348830Y0092948D01*
X0348830Y0089345D01*
X0347629Y0089345D02*
X0350031Y0089345D01*
X0340863Y0092948D02*
X0340263Y0092347D01*
X0364610Y0064186D02*
X0363842Y0063418D01*
X0364610Y0064186D02*
X0366144Y0064186D01*
X0366912Y0063418D01*
X0366912Y0062651D01*
X0363842Y0059582D01*
X0366912Y0059582D01*
X0365877Y0046186D02*
X0365877Y0041582D01*
X0364342Y0041582D02*
X0367412Y0041582D01*
X0364342Y0044651D02*
X0365877Y0046186D01*
X0280516Y0044686D02*
X0277446Y0044686D01*
X0277446Y0042384D01*
X0278981Y0043151D01*
X0279748Y0043151D01*
X0280516Y0042384D01*
X0280516Y0040849D01*
X0279748Y0040082D01*
X0278214Y0040082D01*
X0277446Y0040849D01*
X0275912Y0040082D02*
X0272842Y0040082D01*
X0274377Y0040082D02*
X0274377Y0044686D01*
X0272842Y0043151D01*
X0264853Y0040082D02*
X0261783Y0040082D01*
X0263318Y0040082D02*
X0263318Y0044686D01*
X0261783Y0043151D01*
X0261783Y0059582D02*
X0264853Y0062651D01*
X0264853Y0063418D01*
X0264085Y0064186D01*
X0262551Y0064186D01*
X0261783Y0063418D01*
X0261783Y0059582D02*
X0264853Y0059582D01*
X0272842Y0059582D02*
X0275912Y0059582D01*
X0274377Y0059582D02*
X0274377Y0064186D01*
X0272842Y0062651D01*
X0277446Y0061884D02*
X0279748Y0061884D01*
X0280516Y0061117D01*
X0280516Y0060349D01*
X0279748Y0059582D01*
X0278214Y0059582D01*
X0277446Y0060349D01*
X0277446Y0061884D01*
X0278981Y0063418D01*
X0280516Y0064186D01*
X0239632Y0119199D02*
X0240232Y0119800D01*
X0240232Y0120400D01*
X0239632Y0121001D01*
X0237830Y0121001D01*
X0237830Y0119800D01*
X0238430Y0119199D01*
X0239632Y0119199D01*
X0237830Y0121001D02*
X0239031Y0122202D01*
X0240232Y0122802D01*
X0236549Y0121001D02*
X0234147Y0121001D01*
X0232866Y0121601D02*
X0232866Y0122202D01*
X0232265Y0122802D01*
X0231064Y0122802D01*
X0230464Y0122202D01*
X0232866Y0121601D02*
X0230464Y0119199D01*
X0232866Y0119199D01*
X0223679Y0119800D02*
X0223078Y0119199D01*
X0221877Y0119199D01*
X0221277Y0119800D01*
X0223679Y0122202D01*
X0223679Y0119800D01*
X0223679Y0122202D02*
X0223078Y0122802D01*
X0221877Y0122802D01*
X0221277Y0122202D01*
X0221277Y0119800D01*
X0219996Y0119199D02*
X0217594Y0119199D01*
X0218795Y0119199D02*
X0218795Y0122802D01*
X0217594Y0121601D01*
X0216313Y0121001D02*
X0213911Y0121001D01*
X0212630Y0121601D02*
X0212630Y0122202D01*
X0212029Y0122802D01*
X0210828Y0122802D01*
X0210227Y0122202D01*
X0212630Y0121601D02*
X0210227Y0119199D01*
X0212630Y0119199D01*
X0287413Y0312302D02*
X0289715Y0312302D01*
X0290483Y0313070D01*
X0290483Y0316139D01*
X0289715Y0316906D01*
X0287413Y0316906D01*
X0287413Y0312302D01*
X0292017Y0313070D02*
X0292785Y0312302D01*
X0294319Y0312302D01*
X0295087Y0313070D01*
X0295087Y0313837D01*
X0294319Y0314604D01*
X0293552Y0314604D01*
X0294319Y0314604D02*
X0295087Y0315372D01*
X0295087Y0316139D01*
X0294319Y0316906D01*
X0292785Y0316906D01*
X0292017Y0316139D01*
X0292017Y0322420D02*
X0295087Y0325490D01*
X0295087Y0326257D01*
X0294319Y0327024D01*
X0292785Y0327024D01*
X0292017Y0326257D01*
X0290483Y0326257D02*
X0289715Y0327024D01*
X0287413Y0327024D01*
X0287413Y0322420D01*
X0289715Y0322420D01*
X0290483Y0323188D01*
X0290483Y0326257D01*
X0292017Y0322420D02*
X0295087Y0322420D01*
X0295087Y0332539D02*
X0292017Y0332539D01*
X0293552Y0332539D02*
X0293552Y0337143D01*
X0292017Y0335608D01*
X0290483Y0336375D02*
X0289715Y0337143D01*
X0287413Y0337143D01*
X0287413Y0332539D01*
X0289715Y0332539D01*
X0290483Y0333306D01*
X0290483Y0336375D01*
D12*
X0279536Y0336748D02*
X0277036Y0334248D01*
X0272036Y0334248D01*
X0269536Y0336748D01*
X0269536Y0341748D01*
X0272036Y0344248D01*
X0269536Y0346748D01*
X0269536Y0351748D01*
X0272036Y0354248D01*
X0277036Y0354248D01*
X0279536Y0351748D01*
X0279536Y0346748D01*
X0277036Y0344248D01*
X0279536Y0341748D01*
X0279536Y0336748D01*
X0277036Y0334248D02*
X0279536Y0331748D01*
X0279536Y0326748D01*
X0277036Y0324248D01*
X0279536Y0321748D01*
X0279536Y0316748D01*
X0277036Y0314248D01*
X0279536Y0311748D01*
X0279536Y0306748D01*
X0277036Y0304248D01*
X0272036Y0304248D01*
X0269536Y0306748D01*
X0269536Y0311748D01*
X0272036Y0314248D01*
X0269536Y0316748D01*
X0269536Y0321748D01*
X0272036Y0324248D01*
X0269536Y0326748D01*
X0269536Y0331748D01*
X0272036Y0334248D01*
X0269418Y0331748D02*
X0269418Y0326748D01*
X0266918Y0324248D01*
X0269418Y0321748D01*
X0269418Y0316748D01*
X0266918Y0314248D01*
X0269418Y0311748D01*
X0269418Y0306748D01*
X0266918Y0304248D01*
X0261918Y0304248D01*
X0259418Y0306748D01*
X0259418Y0311748D01*
X0261918Y0314248D01*
X0259418Y0316748D01*
X0259418Y0321748D01*
X0261918Y0324248D01*
X0259418Y0326748D01*
X0259418Y0331748D01*
X0261918Y0334248D01*
X0259418Y0336748D01*
X0259418Y0341748D01*
X0261918Y0344248D01*
X0259418Y0346748D01*
X0259418Y0351748D01*
X0261918Y0354248D01*
X0266918Y0354248D01*
X0269418Y0351748D01*
X0269418Y0346748D01*
X0266918Y0344248D01*
X0269418Y0341748D01*
X0269418Y0336748D01*
X0266918Y0334248D01*
X0261918Y0334248D01*
X0259300Y0331748D02*
X0259300Y0326748D01*
X0256800Y0324248D01*
X0259300Y0321748D01*
X0259300Y0316748D01*
X0256800Y0314248D01*
X0259300Y0311748D01*
X0259300Y0306748D01*
X0256800Y0304248D01*
X0251800Y0304248D01*
X0249300Y0306748D01*
X0249300Y0311748D01*
X0251800Y0314248D01*
X0249300Y0316748D01*
X0249300Y0321748D01*
X0251800Y0324248D01*
X0249300Y0326748D01*
X0249300Y0331748D01*
X0251800Y0334248D01*
X0249300Y0336748D01*
X0249300Y0341748D01*
X0251800Y0344248D01*
X0249300Y0346748D01*
X0249300Y0351748D01*
X0251800Y0354248D01*
X0256800Y0354248D01*
X0259300Y0351748D01*
X0259300Y0346748D01*
X0256800Y0344248D01*
X0259300Y0341748D01*
X0259300Y0336748D01*
X0256800Y0334248D01*
X0251800Y0334248D01*
X0256800Y0334248D02*
X0259300Y0331748D01*
X0256800Y0324248D02*
X0251800Y0324248D01*
X0251800Y0314248D02*
X0256800Y0314248D01*
X0261918Y0314248D02*
X0266918Y0314248D01*
X0272036Y0314248D02*
X0277036Y0314248D01*
X0277036Y0304248D02*
X0279536Y0301748D01*
X0279536Y0296748D01*
X0277036Y0294248D01*
X0279536Y0291748D01*
X0279536Y0286748D01*
X0277036Y0284248D01*
X0279536Y0281748D01*
X0279536Y0276748D01*
X0277036Y0274248D01*
X0272036Y0274248D01*
X0269536Y0276748D01*
X0269536Y0281748D01*
X0272036Y0284248D01*
X0269536Y0286748D01*
X0269536Y0291748D01*
X0272036Y0294248D01*
X0269536Y0296748D01*
X0269536Y0301748D01*
X0272036Y0304248D01*
X0269418Y0301748D02*
X0269418Y0296748D01*
X0266918Y0294248D01*
X0269418Y0291748D01*
X0269418Y0286748D01*
X0266918Y0284248D01*
X0269418Y0281748D01*
X0269418Y0276748D01*
X0266918Y0274248D01*
X0261918Y0274248D01*
X0259418Y0276748D01*
X0259418Y0281748D01*
X0261918Y0284248D01*
X0259418Y0286748D01*
X0259418Y0291748D01*
X0261918Y0294248D01*
X0259418Y0296748D01*
X0259418Y0301748D01*
X0261918Y0304248D01*
X0259300Y0301748D02*
X0259300Y0296748D01*
X0256800Y0294248D01*
X0259300Y0291748D01*
X0259300Y0286748D01*
X0256800Y0284248D01*
X0259300Y0281748D01*
X0259300Y0276748D01*
X0256800Y0274248D01*
X0251800Y0274248D01*
X0249300Y0276748D01*
X0249300Y0281748D01*
X0251800Y0284248D01*
X0249300Y0286748D01*
X0249300Y0291748D01*
X0251800Y0294248D01*
X0249300Y0296748D01*
X0249300Y0301748D01*
X0251800Y0304248D01*
X0256800Y0304248D02*
X0259300Y0301748D01*
X0256800Y0294248D02*
X0251800Y0294248D01*
X0243646Y0295129D02*
X0243646Y0297264D01*
X0242578Y0298332D01*
X0238308Y0298332D01*
X0237240Y0297264D01*
X0237240Y0295129D01*
X0238308Y0294062D01*
X0239375Y0294062D01*
X0240443Y0295129D01*
X0240443Y0298332D01*
X0241510Y0300507D02*
X0241510Y0303710D01*
X0240443Y0304777D01*
X0238308Y0304777D01*
X0237240Y0303710D01*
X0237240Y0300507D01*
X0243646Y0300507D01*
X0243646Y0295129D02*
X0242578Y0294062D01*
X0242578Y0291887D02*
X0243646Y0290819D01*
X0243646Y0288684D01*
X0242578Y0287616D01*
X0243646Y0285441D02*
X0243646Y0281171D01*
X0237240Y0281171D01*
X0237240Y0278996D02*
X0237240Y0274725D01*
X0237240Y0276860D02*
X0243646Y0276860D01*
X0249300Y0271748D02*
X0251800Y0274248D01*
X0249300Y0271748D02*
X0249300Y0266748D01*
X0251800Y0264248D01*
X0249300Y0261748D01*
X0249300Y0256748D01*
X0251800Y0254248D01*
X0249300Y0251748D01*
X0249300Y0246748D01*
X0251800Y0244248D01*
X0256800Y0244248D01*
X0259300Y0246748D01*
X0259300Y0251748D01*
X0256800Y0254248D01*
X0251800Y0254248D01*
X0256800Y0254248D02*
X0259300Y0256748D01*
X0259300Y0261748D01*
X0256800Y0264248D01*
X0251800Y0264248D01*
X0256800Y0264248D02*
X0259300Y0266748D01*
X0259300Y0271748D01*
X0256800Y0274248D01*
X0259418Y0271748D02*
X0261918Y0274248D01*
X0259418Y0271748D02*
X0259418Y0266748D01*
X0261918Y0264248D01*
X0259418Y0261748D01*
X0259418Y0256748D01*
X0261918Y0254248D01*
X0259418Y0251748D01*
X0259418Y0246748D01*
X0261918Y0244248D01*
X0266918Y0244248D01*
X0269418Y0246748D01*
X0269418Y0251748D01*
X0266918Y0254248D01*
X0261918Y0254248D01*
X0266918Y0254248D02*
X0269418Y0256748D01*
X0269418Y0261748D01*
X0266918Y0264248D01*
X0261918Y0264248D01*
X0266918Y0264248D02*
X0269418Y0266748D01*
X0269418Y0271748D01*
X0266918Y0274248D01*
X0269536Y0271748D02*
X0272036Y0274248D01*
X0269536Y0271748D02*
X0269536Y0266748D01*
X0272036Y0264248D01*
X0269536Y0261748D01*
X0269536Y0256748D01*
X0272036Y0254248D01*
X0269536Y0251748D01*
X0269536Y0246748D01*
X0272036Y0244248D01*
X0277036Y0244248D01*
X0279536Y0246748D01*
X0279536Y0251748D01*
X0277036Y0254248D01*
X0272036Y0254248D01*
X0277036Y0254248D02*
X0279536Y0256748D01*
X0279536Y0261748D01*
X0277036Y0264248D01*
X0272036Y0264248D01*
X0277036Y0264248D02*
X0279536Y0266748D01*
X0279536Y0271748D01*
X0277036Y0274248D01*
X0277036Y0284248D02*
X0272036Y0284248D01*
X0266918Y0284248D02*
X0261918Y0284248D01*
X0256800Y0284248D02*
X0251800Y0284248D01*
X0242578Y0291887D02*
X0241510Y0291887D01*
X0240443Y0290819D01*
X0240443Y0289751D01*
X0240443Y0290819D02*
X0239375Y0291887D01*
X0238308Y0291887D01*
X0237240Y0290819D01*
X0237240Y0288684D01*
X0238308Y0287616D01*
X0238308Y0306953D02*
X0237240Y0308020D01*
X0237240Y0310155D01*
X0238308Y0311223D01*
X0242578Y0311223D01*
X0243646Y0310155D01*
X0243646Y0308020D01*
X0242578Y0306953D01*
X0238308Y0306953D01*
X0261918Y0294248D02*
X0266918Y0294248D01*
X0272036Y0294248D02*
X0277036Y0294248D01*
X0269418Y0301748D02*
X0266918Y0304248D01*
X0266918Y0324248D02*
X0261918Y0324248D01*
X0269418Y0331748D02*
X0266918Y0334248D01*
X0272036Y0324248D02*
X0277036Y0324248D01*
X0277036Y0344248D02*
X0272036Y0344248D01*
X0266918Y0344248D02*
X0261918Y0344248D01*
X0256800Y0344248D02*
X0251800Y0344248D01*
X0239772Y0342516D02*
X0239772Y0338500D01*
X0239772Y0342516D02*
X0236347Y0342516D01*
X0231780Y0342516D02*
X0228355Y0342516D01*
X0228355Y0338500D01*
X0232607Y0337398D02*
X0235520Y0337398D01*
X0216387Y0337791D02*
X0216387Y0334366D01*
X0216387Y0337791D02*
X0212371Y0337791D01*
X0211268Y0333539D02*
X0211268Y0330626D01*
X0212371Y0326374D02*
X0216387Y0326374D01*
X0216387Y0329799D01*
X0198178Y0317098D02*
X0198178Y0312098D01*
X0195678Y0309598D01*
X0190678Y0309598D01*
X0188178Y0312098D01*
X0185678Y0309598D01*
X0180678Y0309598D01*
X0178178Y0312098D01*
X0175678Y0309598D01*
X0170678Y0309598D01*
X0168178Y0312098D01*
X0168178Y0317098D01*
X0170678Y0319598D01*
X0175678Y0319598D01*
X0178178Y0317098D01*
X0180678Y0319598D01*
X0185678Y0319598D01*
X0188178Y0317098D01*
X0190678Y0319598D01*
X0195678Y0319598D01*
X0198178Y0317098D01*
X0195973Y0309543D02*
X0190973Y0309543D01*
X0188473Y0307043D01*
X0188473Y0302043D01*
X0190973Y0299543D01*
X0195973Y0299543D01*
X0198473Y0302043D01*
X0198473Y0307043D01*
X0195973Y0309543D01*
X0188473Y0307043D02*
X0185973Y0309543D01*
X0180973Y0309543D01*
X0178473Y0307043D01*
X0178473Y0302043D01*
X0180973Y0299543D01*
X0185973Y0299543D01*
X0188473Y0302043D01*
X0185973Y0299425D02*
X0188473Y0296925D01*
X0190973Y0299425D01*
X0195973Y0299425D01*
X0198473Y0296925D01*
X0198473Y0291925D01*
X0195973Y0289425D01*
X0190973Y0289425D01*
X0188473Y0291925D01*
X0185973Y0289425D01*
X0180973Y0289425D01*
X0178473Y0291925D01*
X0175973Y0289425D01*
X0170973Y0289425D01*
X0168473Y0291925D01*
X0168473Y0296925D01*
X0170973Y0299425D01*
X0175973Y0299425D01*
X0178473Y0296925D01*
X0180973Y0299425D01*
X0185973Y0299425D01*
X0188473Y0296925D02*
X0188473Y0291925D01*
X0185973Y0289307D02*
X0188473Y0286807D01*
X0190973Y0289307D01*
X0195973Y0289307D01*
X0198473Y0286807D01*
X0198473Y0281807D01*
X0195973Y0279307D01*
X0190973Y0279307D01*
X0188473Y0281807D01*
X0185973Y0279307D01*
X0180973Y0279307D01*
X0178473Y0281807D01*
X0175973Y0279307D01*
X0170973Y0279307D01*
X0168473Y0281807D01*
X0168473Y0286807D01*
X0170973Y0289307D01*
X0175973Y0289307D01*
X0178473Y0286807D01*
X0180973Y0289307D01*
X0185973Y0289307D01*
X0188473Y0286807D02*
X0188473Y0281807D01*
X0185973Y0279189D02*
X0188473Y0276689D01*
X0190973Y0279189D01*
X0195973Y0279189D01*
X0198473Y0276689D01*
X0198473Y0271689D01*
X0195973Y0269189D01*
X0190973Y0269189D01*
X0188473Y0271689D01*
X0185973Y0269189D01*
X0180973Y0269189D01*
X0178473Y0271689D01*
X0175973Y0269189D01*
X0170973Y0269189D01*
X0168473Y0271689D01*
X0168473Y0276689D01*
X0170973Y0279189D01*
X0175973Y0279189D01*
X0178473Y0276689D01*
X0180973Y0279189D01*
X0185973Y0279189D01*
X0188473Y0276689D02*
X0188473Y0271689D01*
X0185973Y0269071D02*
X0188473Y0266571D01*
X0190973Y0269071D01*
X0195973Y0269071D01*
X0198473Y0266571D01*
X0198473Y0261571D01*
X0195973Y0259071D01*
X0190973Y0259071D01*
X0188473Y0261571D01*
X0185973Y0259071D01*
X0180973Y0259071D01*
X0178473Y0261571D01*
X0175973Y0259071D01*
X0170973Y0259071D01*
X0168473Y0261571D01*
X0168473Y0266571D01*
X0170973Y0269071D01*
X0175973Y0269071D01*
X0178473Y0266571D01*
X0180973Y0269071D01*
X0185973Y0269071D01*
X0188473Y0266571D02*
X0188473Y0261571D01*
X0185973Y0258953D02*
X0188473Y0256453D01*
X0190973Y0258953D01*
X0195973Y0258953D01*
X0198473Y0256453D01*
X0198473Y0251453D01*
X0195973Y0248953D01*
X0190973Y0248953D01*
X0188473Y0251453D01*
X0185973Y0248953D01*
X0180973Y0248953D01*
X0178473Y0251453D01*
X0175973Y0248953D01*
X0170973Y0248953D01*
X0168473Y0251453D01*
X0168473Y0256453D01*
X0170973Y0258953D01*
X0175973Y0258953D01*
X0178473Y0256453D01*
X0180973Y0258953D01*
X0185973Y0258953D01*
X0188473Y0256453D02*
X0188473Y0251453D01*
X0185973Y0248835D02*
X0188473Y0246335D01*
X0190973Y0248835D01*
X0195973Y0248835D01*
X0198473Y0246335D01*
X0198473Y0241335D01*
X0195973Y0238835D01*
X0190973Y0238835D01*
X0188473Y0241335D01*
X0185973Y0238835D01*
X0180973Y0238835D01*
X0178473Y0241335D01*
X0175973Y0238835D01*
X0170973Y0238835D01*
X0168473Y0241335D01*
X0168473Y0246335D01*
X0170973Y0248835D01*
X0175973Y0248835D01*
X0178473Y0246335D01*
X0180973Y0248835D01*
X0185973Y0248835D01*
X0188473Y0246335D02*
X0188473Y0241335D01*
X0185973Y0238717D02*
X0188473Y0236217D01*
X0190973Y0238717D01*
X0195973Y0238717D01*
X0198473Y0236217D01*
X0198473Y0231217D01*
X0195973Y0228717D01*
X0190973Y0228717D01*
X0188473Y0231217D01*
X0185973Y0228717D01*
X0180973Y0228717D01*
X0178473Y0231217D01*
X0175973Y0228717D01*
X0170973Y0228717D01*
X0168473Y0231217D01*
X0168473Y0236217D01*
X0170973Y0238717D01*
X0175973Y0238717D01*
X0178473Y0236217D01*
X0180973Y0238717D01*
X0185973Y0238717D01*
X0188473Y0236217D02*
X0188473Y0231217D01*
X0185973Y0228598D02*
X0188473Y0226098D01*
X0190973Y0228598D01*
X0195973Y0228598D01*
X0198473Y0226098D01*
X0198473Y0221098D01*
X0195973Y0218598D01*
X0190973Y0218598D01*
X0188473Y0221098D01*
X0185973Y0218598D01*
X0180973Y0218598D01*
X0178473Y0221098D01*
X0175973Y0218598D01*
X0170973Y0218598D01*
X0168473Y0221098D01*
X0168473Y0226098D01*
X0170973Y0228598D01*
X0175973Y0228598D01*
X0178473Y0226098D01*
X0180973Y0228598D01*
X0185973Y0228598D01*
X0188473Y0226098D02*
X0188473Y0221098D01*
X0178473Y0221098D02*
X0178473Y0226098D01*
X0178473Y0231217D02*
X0178473Y0236217D01*
X0178473Y0241335D02*
X0178473Y0246335D01*
X0178473Y0251453D02*
X0178473Y0256453D01*
X0178473Y0261571D02*
X0178473Y0266571D01*
X0178473Y0271689D02*
X0178473Y0276689D01*
X0178473Y0281807D02*
X0178473Y0286807D01*
X0178473Y0291925D02*
X0178473Y0296925D01*
X0175973Y0299543D02*
X0170973Y0299543D01*
X0168473Y0302043D01*
X0168473Y0307043D01*
X0170973Y0309543D01*
X0175973Y0309543D01*
X0178473Y0307043D01*
X0178473Y0302043D02*
X0175973Y0299543D01*
X0168119Y0302043D02*
X0168119Y0307043D01*
X0165619Y0309543D01*
X0160619Y0309543D01*
X0158119Y0307043D01*
X0158119Y0302043D01*
X0160619Y0299543D01*
X0165619Y0299543D01*
X0168119Y0302043D01*
X0165619Y0299425D02*
X0168119Y0296925D01*
X0168119Y0291925D01*
X0165619Y0289425D01*
X0160619Y0289425D01*
X0158119Y0291925D01*
X0155619Y0289425D01*
X0150619Y0289425D01*
X0148119Y0291925D01*
X0145619Y0289425D01*
X0140619Y0289425D01*
X0138119Y0291925D01*
X0138119Y0296925D01*
X0140619Y0299425D01*
X0145619Y0299425D01*
X0148119Y0296925D01*
X0150619Y0299425D01*
X0155619Y0299425D01*
X0158119Y0296925D01*
X0160619Y0299425D01*
X0165619Y0299425D01*
X0158119Y0296925D02*
X0158119Y0291925D01*
X0160619Y0289307D02*
X0158119Y0286807D01*
X0158119Y0281807D01*
X0160619Y0279307D01*
X0165619Y0279307D01*
X0168119Y0281807D01*
X0168119Y0286807D01*
X0165619Y0289307D01*
X0160619Y0289307D01*
X0158119Y0286807D02*
X0155619Y0289307D01*
X0150619Y0289307D01*
X0148119Y0286807D01*
X0148119Y0281807D01*
X0150619Y0279307D01*
X0155619Y0279307D01*
X0158119Y0281807D01*
X0160619Y0279189D02*
X0158119Y0276689D01*
X0158119Y0271689D01*
X0160619Y0269189D01*
X0165619Y0269189D01*
X0168119Y0271689D01*
X0168119Y0276689D01*
X0165619Y0279189D01*
X0160619Y0279189D01*
X0158119Y0276689D02*
X0155619Y0279189D01*
X0150619Y0279189D01*
X0148119Y0276689D01*
X0148119Y0271689D01*
X0150619Y0269189D01*
X0155619Y0269189D01*
X0158119Y0271689D01*
X0160619Y0269071D02*
X0158119Y0266571D01*
X0158119Y0261571D01*
X0160619Y0259071D01*
X0165619Y0259071D01*
X0168119Y0261571D01*
X0168119Y0266571D01*
X0165619Y0269071D01*
X0160619Y0269071D01*
X0158119Y0266571D02*
X0155619Y0269071D01*
X0150619Y0269071D01*
X0148119Y0266571D01*
X0148119Y0261571D01*
X0150619Y0259071D01*
X0155619Y0259071D01*
X0158119Y0261571D01*
X0160619Y0258953D02*
X0165619Y0258953D01*
X0168119Y0256453D01*
X0168119Y0251453D01*
X0165619Y0248953D01*
X0160619Y0248953D01*
X0158119Y0251453D01*
X0155619Y0248953D01*
X0150619Y0248953D01*
X0148119Y0251453D01*
X0145619Y0248953D01*
X0140619Y0248953D01*
X0138119Y0251453D01*
X0138119Y0256453D01*
X0140619Y0258953D01*
X0145619Y0258953D01*
X0148119Y0256453D01*
X0150619Y0258953D01*
X0155619Y0258953D01*
X0158119Y0256453D01*
X0160619Y0258953D01*
X0158119Y0256453D02*
X0158119Y0251453D01*
X0160619Y0248835D02*
X0158119Y0246335D01*
X0158119Y0241335D01*
X0160619Y0238835D01*
X0165619Y0238835D01*
X0168119Y0241335D01*
X0168119Y0246335D01*
X0165619Y0248835D01*
X0160619Y0248835D01*
X0158119Y0246335D02*
X0155619Y0248835D01*
X0150619Y0248835D01*
X0148119Y0246335D01*
X0148119Y0241335D01*
X0150619Y0238835D01*
X0155619Y0238835D01*
X0158119Y0241335D01*
X0160619Y0238717D02*
X0158119Y0236217D01*
X0158119Y0231217D01*
X0160619Y0228717D01*
X0165619Y0228717D01*
X0168119Y0231217D01*
X0168119Y0236217D01*
X0165619Y0238717D01*
X0160619Y0238717D01*
X0158119Y0236217D02*
X0155619Y0238717D01*
X0150619Y0238717D01*
X0148119Y0236217D01*
X0148119Y0231217D01*
X0150619Y0228717D01*
X0155619Y0228717D01*
X0158119Y0231217D01*
X0160619Y0228598D02*
X0158119Y0226098D01*
X0158119Y0221098D01*
X0160619Y0218598D01*
X0165619Y0218598D01*
X0168119Y0221098D01*
X0168119Y0226098D01*
X0165619Y0228598D01*
X0160619Y0228598D01*
X0158119Y0226098D02*
X0155619Y0228598D01*
X0150619Y0228598D01*
X0148119Y0226098D01*
X0148119Y0221098D01*
X0150619Y0218598D01*
X0155619Y0218598D01*
X0158119Y0221098D01*
X0148119Y0221098D02*
X0145619Y0218598D01*
X0140619Y0218598D01*
X0138119Y0221098D01*
X0138119Y0226098D01*
X0140619Y0228598D01*
X0145619Y0228598D01*
X0148119Y0226098D01*
X0145619Y0228717D02*
X0140619Y0228717D01*
X0138119Y0231217D01*
X0138119Y0236217D01*
X0140619Y0238717D01*
X0145619Y0238717D01*
X0148119Y0236217D01*
X0145619Y0238835D02*
X0140619Y0238835D01*
X0138119Y0241335D01*
X0138119Y0246335D01*
X0140619Y0248835D01*
X0145619Y0248835D01*
X0148119Y0246335D01*
X0148119Y0251453D02*
X0148119Y0256453D01*
X0145619Y0259071D02*
X0140619Y0259071D01*
X0138119Y0261571D01*
X0138119Y0266571D01*
X0140619Y0269071D01*
X0145619Y0269071D01*
X0148119Y0266571D01*
X0145619Y0269189D02*
X0140619Y0269189D01*
X0138119Y0271689D01*
X0138119Y0276689D01*
X0140619Y0279189D01*
X0145619Y0279189D01*
X0148119Y0276689D01*
X0145619Y0279307D02*
X0140619Y0279307D01*
X0138119Y0281807D01*
X0138119Y0286807D01*
X0140619Y0289307D01*
X0145619Y0289307D01*
X0148119Y0286807D01*
X0148119Y0291925D02*
X0148119Y0296925D01*
X0150619Y0299543D02*
X0148119Y0302043D01*
X0145619Y0299543D01*
X0140619Y0299543D01*
X0138119Y0302043D01*
X0138119Y0307043D01*
X0140619Y0309543D01*
X0145619Y0309543D01*
X0148119Y0307043D01*
X0150619Y0309543D01*
X0155619Y0309543D01*
X0158119Y0307043D01*
X0155678Y0309807D02*
X0150678Y0309807D01*
X0148178Y0312307D01*
X0145678Y0309807D01*
X0140678Y0309807D01*
X0138178Y0312307D01*
X0138178Y0317307D01*
X0140678Y0319807D01*
X0145678Y0319807D01*
X0148178Y0317307D01*
X0150678Y0319807D01*
X0155678Y0319807D01*
X0158178Y0317307D01*
X0160678Y0319807D01*
X0165678Y0319807D01*
X0168178Y0317307D01*
X0168178Y0312307D01*
X0165678Y0309807D01*
X0160678Y0309807D01*
X0158178Y0312307D01*
X0155678Y0309807D01*
X0158178Y0312307D02*
X0158178Y0317307D01*
X0148178Y0317307D02*
X0148178Y0312307D01*
X0148119Y0307043D02*
X0148119Y0302043D01*
X0150619Y0299543D02*
X0155619Y0299543D01*
X0158119Y0302043D01*
X0137764Y0302043D02*
X0135264Y0299543D01*
X0130264Y0299543D01*
X0127764Y0302043D01*
X0125264Y0299543D01*
X0120264Y0299543D01*
X0117764Y0302043D01*
X0115264Y0299543D01*
X0110264Y0299543D01*
X0107764Y0302043D01*
X0107764Y0307043D01*
X0110264Y0309543D01*
X0115264Y0309543D01*
X0117764Y0307043D01*
X0120264Y0309543D01*
X0125264Y0309543D01*
X0127764Y0307043D01*
X0130264Y0309543D01*
X0135264Y0309543D01*
X0137764Y0307043D01*
X0137764Y0302043D01*
X0135264Y0299425D02*
X0137764Y0296925D01*
X0137764Y0291925D01*
X0135264Y0289425D01*
X0130264Y0289425D01*
X0127764Y0291925D01*
X0125264Y0289425D01*
X0120264Y0289425D01*
X0117764Y0291925D01*
X0115264Y0289425D01*
X0110264Y0289425D01*
X0107764Y0291925D01*
X0107764Y0296925D01*
X0110264Y0299425D01*
X0115264Y0299425D01*
X0117764Y0296925D01*
X0120264Y0299425D01*
X0125264Y0299425D01*
X0127764Y0296925D01*
X0130264Y0299425D01*
X0135264Y0299425D01*
X0127764Y0296925D02*
X0127764Y0291925D01*
X0125264Y0289307D02*
X0127764Y0286807D01*
X0130264Y0289307D01*
X0135264Y0289307D01*
X0137764Y0286807D01*
X0137764Y0281807D01*
X0135264Y0279307D01*
X0130264Y0279307D01*
X0127764Y0281807D01*
X0125264Y0279307D01*
X0120264Y0279307D01*
X0117764Y0281807D01*
X0115264Y0279307D01*
X0110264Y0279307D01*
X0107764Y0281807D01*
X0107764Y0286807D01*
X0110264Y0289307D01*
X0115264Y0289307D01*
X0117764Y0286807D01*
X0120264Y0289307D01*
X0125264Y0289307D01*
X0127764Y0286807D02*
X0127764Y0281807D01*
X0125264Y0279189D02*
X0127764Y0276689D01*
X0130264Y0279189D01*
X0135264Y0279189D01*
X0137764Y0276689D01*
X0137764Y0271689D01*
X0135264Y0269189D01*
X0130264Y0269189D01*
X0127764Y0271689D01*
X0125264Y0269189D01*
X0120264Y0269189D01*
X0117764Y0271689D01*
X0115264Y0269189D01*
X0110264Y0269189D01*
X0107764Y0271689D01*
X0107764Y0276689D01*
X0110264Y0279189D01*
X0115264Y0279189D01*
X0117764Y0276689D01*
X0120264Y0279189D01*
X0125264Y0279189D01*
X0127764Y0276689D02*
X0127764Y0271689D01*
X0125264Y0269071D02*
X0127764Y0266571D01*
X0130264Y0269071D01*
X0135264Y0269071D01*
X0137764Y0266571D01*
X0137764Y0261571D01*
X0135264Y0259071D01*
X0130264Y0259071D01*
X0127764Y0261571D01*
X0125264Y0259071D01*
X0120264Y0259071D01*
X0117764Y0261571D01*
X0115264Y0259071D01*
X0110264Y0259071D01*
X0107764Y0261571D01*
X0107764Y0266571D01*
X0110264Y0269071D01*
X0115264Y0269071D01*
X0117764Y0266571D01*
X0120264Y0269071D01*
X0125264Y0269071D01*
X0127764Y0266571D02*
X0127764Y0261571D01*
X0125264Y0258953D02*
X0127764Y0256453D01*
X0130264Y0258953D01*
X0135264Y0258953D01*
X0137764Y0256453D01*
X0137764Y0251453D01*
X0135264Y0248953D01*
X0130264Y0248953D01*
X0127764Y0251453D01*
X0125264Y0248953D01*
X0120264Y0248953D01*
X0117764Y0251453D01*
X0115264Y0248953D01*
X0110264Y0248953D01*
X0107764Y0251453D01*
X0107764Y0256453D01*
X0110264Y0258953D01*
X0115264Y0258953D01*
X0117764Y0256453D01*
X0120264Y0258953D01*
X0125264Y0258953D01*
X0127764Y0256453D02*
X0127764Y0251453D01*
X0125264Y0248835D02*
X0127764Y0246335D01*
X0130264Y0248835D01*
X0135264Y0248835D01*
X0137764Y0246335D01*
X0137764Y0241335D01*
X0135264Y0238835D01*
X0130264Y0238835D01*
X0127764Y0241335D01*
X0125264Y0238835D01*
X0120264Y0238835D01*
X0117764Y0241335D01*
X0115264Y0238835D01*
X0110264Y0238835D01*
X0107764Y0241335D01*
X0107764Y0246335D01*
X0110264Y0248835D01*
X0115264Y0248835D01*
X0117764Y0246335D01*
X0120264Y0248835D01*
X0125264Y0248835D01*
X0127764Y0246335D02*
X0127764Y0241335D01*
X0125264Y0238717D02*
X0127764Y0236217D01*
X0130264Y0238717D01*
X0135264Y0238717D01*
X0137764Y0236217D01*
X0137764Y0231217D01*
X0135264Y0228717D01*
X0130264Y0228717D01*
X0127764Y0231217D01*
X0125264Y0228717D01*
X0120264Y0228717D01*
X0117764Y0231217D01*
X0115264Y0228717D01*
X0110264Y0228717D01*
X0107764Y0231217D01*
X0107764Y0236217D01*
X0110264Y0238717D01*
X0115264Y0238717D01*
X0117764Y0236217D01*
X0120264Y0238717D01*
X0125264Y0238717D01*
X0127764Y0236217D02*
X0127764Y0231217D01*
X0125264Y0228598D02*
X0127764Y0226098D01*
X0130264Y0228598D01*
X0135264Y0228598D01*
X0137764Y0226098D01*
X0137764Y0221098D01*
X0135264Y0218598D01*
X0130264Y0218598D01*
X0127764Y0221098D01*
X0125264Y0218598D01*
X0120264Y0218598D01*
X0117764Y0221098D01*
X0115264Y0218598D01*
X0110264Y0218598D01*
X0107764Y0221098D01*
X0107764Y0226098D01*
X0110264Y0228598D01*
X0115264Y0228598D01*
X0117764Y0226098D01*
X0120264Y0228598D01*
X0125264Y0228598D01*
X0127764Y0226098D02*
X0127764Y0221098D01*
X0117764Y0221098D02*
X0117764Y0226098D01*
X0117764Y0231217D02*
X0117764Y0236217D01*
X0117764Y0241335D02*
X0117764Y0246335D01*
X0117764Y0251453D02*
X0117764Y0256453D01*
X0117764Y0261571D02*
X0117764Y0266571D01*
X0117764Y0271689D02*
X0117764Y0276689D01*
X0117764Y0281807D02*
X0117764Y0286807D01*
X0117764Y0291925D02*
X0117764Y0296925D01*
X0117764Y0302043D02*
X0117764Y0307043D01*
X0115264Y0309661D02*
X0110264Y0309661D01*
X0107764Y0312161D01*
X0107764Y0317161D01*
X0110264Y0319661D01*
X0115264Y0319661D01*
X0117764Y0317161D01*
X0120264Y0319661D01*
X0125264Y0319661D01*
X0127764Y0317161D01*
X0130264Y0319661D01*
X0135264Y0319661D01*
X0137764Y0317161D01*
X0137764Y0312161D01*
X0135264Y0309661D01*
X0130264Y0309661D01*
X0127764Y0312161D01*
X0125264Y0309661D01*
X0120264Y0309661D01*
X0117764Y0312161D01*
X0115264Y0309661D01*
X0117764Y0312161D02*
X0117764Y0317161D01*
X0127764Y0317161D02*
X0127764Y0312161D01*
X0127764Y0307043D02*
X0127764Y0302043D01*
X0107410Y0302043D02*
X0104910Y0299543D01*
X0099910Y0299543D01*
X0097410Y0302043D01*
X0094910Y0299543D01*
X0089910Y0299543D01*
X0087410Y0302043D01*
X0084910Y0299543D01*
X0079910Y0299543D01*
X0077410Y0302043D01*
X0077410Y0307043D01*
X0079910Y0309543D01*
X0084910Y0309543D01*
X0087410Y0307043D01*
X0089910Y0309543D01*
X0094910Y0309543D01*
X0097410Y0307043D01*
X0099910Y0309543D01*
X0104910Y0309543D01*
X0107410Y0307043D01*
X0107410Y0302043D01*
X0104910Y0299425D02*
X0107410Y0296925D01*
X0107410Y0291925D01*
X0104910Y0289425D01*
X0099910Y0289425D01*
X0097410Y0291925D01*
X0094910Y0289425D01*
X0089910Y0289425D01*
X0087410Y0291925D01*
X0084910Y0289425D01*
X0079910Y0289425D01*
X0077410Y0291925D01*
X0077410Y0296925D01*
X0079910Y0299425D01*
X0084910Y0299425D01*
X0087410Y0296925D01*
X0089910Y0299425D01*
X0094910Y0299425D01*
X0097410Y0296925D01*
X0099910Y0299425D01*
X0104910Y0299425D01*
X0097410Y0296925D02*
X0097410Y0291925D01*
X0094910Y0289307D02*
X0097410Y0286807D01*
X0099910Y0289307D01*
X0104910Y0289307D01*
X0107410Y0286807D01*
X0107410Y0281807D01*
X0104910Y0279307D01*
X0099910Y0279307D01*
X0097410Y0281807D01*
X0094910Y0279307D01*
X0089910Y0279307D01*
X0087410Y0281807D01*
X0084910Y0279307D01*
X0079910Y0279307D01*
X0077410Y0281807D01*
X0077410Y0286807D01*
X0079910Y0289307D01*
X0084910Y0289307D01*
X0087410Y0286807D01*
X0089910Y0289307D01*
X0094910Y0289307D01*
X0097410Y0286807D02*
X0097410Y0281807D01*
X0094910Y0279189D02*
X0097410Y0276689D01*
X0099910Y0279189D01*
X0104910Y0279189D01*
X0107410Y0276689D01*
X0107410Y0271689D01*
X0104910Y0269189D01*
X0099910Y0269189D01*
X0097410Y0271689D01*
X0094910Y0269189D01*
X0089910Y0269189D01*
X0087410Y0271689D01*
X0084910Y0269189D01*
X0079910Y0269189D01*
X0077410Y0271689D01*
X0077410Y0276689D01*
X0079910Y0279189D01*
X0084910Y0279189D01*
X0087410Y0276689D01*
X0089910Y0279189D01*
X0094910Y0279189D01*
X0097410Y0276689D02*
X0097410Y0271689D01*
X0094910Y0269071D02*
X0097410Y0266571D01*
X0099910Y0269071D01*
X0104910Y0269071D01*
X0107410Y0266571D01*
X0107410Y0261571D01*
X0104910Y0259071D01*
X0099910Y0259071D01*
X0097410Y0261571D01*
X0094910Y0259071D01*
X0089910Y0259071D01*
X0087410Y0261571D01*
X0084910Y0259071D01*
X0079910Y0259071D01*
X0077410Y0261571D01*
X0077410Y0266571D01*
X0079910Y0269071D01*
X0084910Y0269071D01*
X0087410Y0266571D01*
X0089910Y0269071D01*
X0094910Y0269071D01*
X0097410Y0266571D02*
X0097410Y0261571D01*
X0094910Y0258953D02*
X0097410Y0256453D01*
X0099910Y0258953D01*
X0104910Y0258953D01*
X0107410Y0256453D01*
X0107410Y0251453D01*
X0104910Y0248953D01*
X0099910Y0248953D01*
X0097410Y0251453D01*
X0094910Y0248953D01*
X0089910Y0248953D01*
X0087410Y0251453D01*
X0084910Y0248953D01*
X0079910Y0248953D01*
X0077410Y0251453D01*
X0077410Y0256453D01*
X0079910Y0258953D01*
X0084910Y0258953D01*
X0087410Y0256453D01*
X0089910Y0258953D01*
X0094910Y0258953D01*
X0097410Y0256453D02*
X0097410Y0251453D01*
X0094910Y0248835D02*
X0097410Y0246335D01*
X0099910Y0248835D01*
X0104910Y0248835D01*
X0107410Y0246335D01*
X0107410Y0241335D01*
X0104910Y0238835D01*
X0099910Y0238835D01*
X0097410Y0241335D01*
X0094910Y0238835D01*
X0089910Y0238835D01*
X0087410Y0241335D01*
X0084910Y0238835D01*
X0079910Y0238835D01*
X0077410Y0241335D01*
X0077410Y0246335D01*
X0079910Y0248835D01*
X0084910Y0248835D01*
X0087410Y0246335D01*
X0089910Y0248835D01*
X0094910Y0248835D01*
X0097410Y0246335D02*
X0097410Y0241335D01*
X0094910Y0238717D02*
X0097410Y0236217D01*
X0099910Y0238717D01*
X0104910Y0238717D01*
X0107410Y0236217D01*
X0107410Y0231217D01*
X0104910Y0228717D01*
X0099910Y0228717D01*
X0097410Y0231217D01*
X0094910Y0228717D01*
X0089910Y0228717D01*
X0087410Y0231217D01*
X0084910Y0228717D01*
X0079910Y0228717D01*
X0077410Y0231217D01*
X0077410Y0236217D01*
X0079910Y0238717D01*
X0084910Y0238717D01*
X0087410Y0236217D01*
X0089910Y0238717D01*
X0094910Y0238717D01*
X0097410Y0236217D02*
X0097410Y0231217D01*
X0094910Y0228598D02*
X0097410Y0226098D01*
X0099910Y0228598D01*
X0104910Y0228598D01*
X0107410Y0226098D01*
X0107410Y0221098D01*
X0104910Y0218598D01*
X0099910Y0218598D01*
X0097410Y0221098D01*
X0094910Y0218598D01*
X0089910Y0218598D01*
X0087410Y0221098D01*
X0084910Y0218598D01*
X0079910Y0218598D01*
X0077410Y0221098D01*
X0077410Y0226098D01*
X0079910Y0228598D01*
X0084910Y0228598D01*
X0087410Y0226098D01*
X0089910Y0228598D01*
X0094910Y0228598D01*
X0097410Y0226098D02*
X0097410Y0221098D01*
X0087410Y0221098D02*
X0087410Y0226098D01*
X0087410Y0231217D02*
X0087410Y0236217D01*
X0087410Y0241335D02*
X0087410Y0246335D01*
X0087410Y0251453D02*
X0087410Y0256453D01*
X0087410Y0261571D02*
X0087410Y0266571D01*
X0087410Y0271689D02*
X0087410Y0276689D01*
X0087410Y0281807D02*
X0087410Y0286807D01*
X0087410Y0291925D02*
X0087410Y0296925D01*
X0087410Y0302043D02*
X0087410Y0307043D01*
X0084910Y0309661D02*
X0079910Y0309661D01*
X0077410Y0312161D01*
X0077410Y0317161D01*
X0079910Y0319661D01*
X0084910Y0319661D01*
X0087410Y0317161D01*
X0089910Y0319661D01*
X0094910Y0319661D01*
X0097410Y0317161D01*
X0099910Y0319661D01*
X0104910Y0319661D01*
X0107410Y0317161D01*
X0107410Y0312161D01*
X0104910Y0309661D01*
X0099910Y0309661D01*
X0097410Y0312161D01*
X0094910Y0309661D01*
X0089910Y0309661D01*
X0087410Y0312161D01*
X0084910Y0309661D01*
X0087410Y0312161D02*
X0087410Y0317161D01*
X0097410Y0317161D02*
X0097410Y0312161D01*
X0097410Y0307043D02*
X0097410Y0302043D01*
X0077056Y0302043D02*
X0074556Y0299543D01*
X0069556Y0299543D01*
X0067056Y0302043D01*
X0064556Y0299543D01*
X0059556Y0299543D01*
X0057056Y0302043D01*
X0054556Y0299543D01*
X0049556Y0299543D01*
X0047056Y0302043D01*
X0047056Y0307043D01*
X0049556Y0309543D01*
X0054556Y0309543D01*
X0057056Y0307043D01*
X0059556Y0309543D01*
X0064556Y0309543D01*
X0067056Y0307043D01*
X0069556Y0309543D01*
X0074556Y0309543D01*
X0077056Y0307043D01*
X0077056Y0302043D01*
X0074556Y0299425D02*
X0077056Y0296925D01*
X0077056Y0291925D01*
X0074556Y0289425D01*
X0069556Y0289425D01*
X0067056Y0291925D01*
X0064556Y0289425D01*
X0059556Y0289425D01*
X0057056Y0291925D01*
X0054556Y0289425D01*
X0049556Y0289425D01*
X0047056Y0291925D01*
X0047056Y0296925D01*
X0049556Y0299425D01*
X0054556Y0299425D01*
X0057056Y0296925D01*
X0059556Y0299425D01*
X0064556Y0299425D01*
X0067056Y0296925D01*
X0069556Y0299425D01*
X0074556Y0299425D01*
X0067056Y0296925D02*
X0067056Y0291925D01*
X0069556Y0289307D02*
X0074556Y0289307D01*
X0077056Y0286807D01*
X0077056Y0281807D01*
X0074556Y0279307D01*
X0069556Y0279307D01*
X0067056Y0281807D01*
X0064556Y0279307D01*
X0059556Y0279307D01*
X0057056Y0281807D01*
X0054556Y0279307D01*
X0049556Y0279307D01*
X0047056Y0281807D01*
X0047056Y0286807D01*
X0049556Y0289307D01*
X0054556Y0289307D01*
X0057056Y0286807D01*
X0059556Y0289307D01*
X0064556Y0289307D01*
X0067056Y0286807D01*
X0069556Y0289307D01*
X0067056Y0286807D02*
X0067056Y0281807D01*
X0069556Y0279189D02*
X0074556Y0279189D01*
X0077056Y0276689D01*
X0077056Y0271689D01*
X0074556Y0269189D01*
X0069556Y0269189D01*
X0067056Y0271689D01*
X0064556Y0269189D01*
X0059556Y0269189D01*
X0057056Y0271689D01*
X0054556Y0269189D01*
X0049556Y0269189D01*
X0047056Y0271689D01*
X0047056Y0276689D01*
X0049556Y0279189D01*
X0054556Y0279189D01*
X0057056Y0276689D01*
X0059556Y0279189D01*
X0064556Y0279189D01*
X0067056Y0276689D01*
X0069556Y0279189D01*
X0067056Y0276689D02*
X0067056Y0271689D01*
X0069556Y0269071D02*
X0074556Y0269071D01*
X0077056Y0266571D01*
X0077056Y0261571D01*
X0074556Y0259071D01*
X0069556Y0259071D01*
X0067056Y0261571D01*
X0064556Y0259071D01*
X0059556Y0259071D01*
X0057056Y0261571D01*
X0054556Y0259071D01*
X0049556Y0259071D01*
X0047056Y0261571D01*
X0047056Y0266571D01*
X0049556Y0269071D01*
X0054556Y0269071D01*
X0057056Y0266571D01*
X0059556Y0269071D01*
X0064556Y0269071D01*
X0067056Y0266571D01*
X0069556Y0269071D01*
X0067056Y0266571D02*
X0067056Y0261571D01*
X0069556Y0258953D02*
X0074556Y0258953D01*
X0077056Y0256453D01*
X0077056Y0251453D01*
X0074556Y0248953D01*
X0069556Y0248953D01*
X0067056Y0251453D01*
X0064556Y0248953D01*
X0059556Y0248953D01*
X0057056Y0251453D01*
X0054556Y0248953D01*
X0049556Y0248953D01*
X0047056Y0251453D01*
X0047056Y0256453D01*
X0049556Y0258953D01*
X0054556Y0258953D01*
X0057056Y0256453D01*
X0059556Y0258953D01*
X0064556Y0258953D01*
X0067056Y0256453D01*
X0069556Y0258953D01*
X0067056Y0256453D02*
X0067056Y0251453D01*
X0069556Y0248835D02*
X0074556Y0248835D01*
X0077056Y0246335D01*
X0077056Y0241335D01*
X0074556Y0238835D01*
X0069556Y0238835D01*
X0067056Y0241335D01*
X0064556Y0238835D01*
X0059556Y0238835D01*
X0057056Y0241335D01*
X0054556Y0238835D01*
X0049556Y0238835D01*
X0047056Y0241335D01*
X0047056Y0246335D01*
X0049556Y0248835D01*
X0054556Y0248835D01*
X0057056Y0246335D01*
X0059556Y0248835D01*
X0064556Y0248835D01*
X0067056Y0246335D01*
X0069556Y0248835D01*
X0067056Y0246335D02*
X0067056Y0241335D01*
X0069556Y0238717D02*
X0074556Y0238717D01*
X0077056Y0236217D01*
X0077056Y0231217D01*
X0074556Y0228717D01*
X0069556Y0228717D01*
X0067056Y0231217D01*
X0064556Y0228717D01*
X0059556Y0228717D01*
X0057056Y0231217D01*
X0054556Y0228717D01*
X0049556Y0228717D01*
X0047056Y0231217D01*
X0047056Y0236217D01*
X0049556Y0238717D01*
X0054556Y0238717D01*
X0057056Y0236217D01*
X0059556Y0238717D01*
X0064556Y0238717D01*
X0067056Y0236217D01*
X0069556Y0238717D01*
X0067056Y0236217D02*
X0067056Y0231217D01*
X0069556Y0228598D02*
X0074556Y0228598D01*
X0077056Y0226098D01*
X0077056Y0221098D01*
X0074556Y0218598D01*
X0069556Y0218598D01*
X0067056Y0221098D01*
X0064556Y0218598D01*
X0059556Y0218598D01*
X0057056Y0221098D01*
X0054556Y0218598D01*
X0049556Y0218598D01*
X0047056Y0221098D01*
X0047056Y0226098D01*
X0049556Y0228598D01*
X0054556Y0228598D01*
X0057056Y0226098D01*
X0059556Y0228598D01*
X0064556Y0228598D01*
X0067056Y0226098D01*
X0069556Y0228598D01*
X0067056Y0226098D02*
X0067056Y0221098D01*
X0057056Y0221098D02*
X0057056Y0226098D01*
X0057056Y0231217D02*
X0057056Y0236217D01*
X0057056Y0241335D02*
X0057056Y0246335D01*
X0057056Y0251453D02*
X0057056Y0256453D01*
X0057056Y0261571D02*
X0057056Y0266571D01*
X0057056Y0271689D02*
X0057056Y0276689D01*
X0057056Y0281807D02*
X0057056Y0286807D01*
X0057056Y0291925D02*
X0057056Y0296925D01*
X0057056Y0302043D02*
X0057056Y0307043D01*
X0059556Y0309661D02*
X0057056Y0312161D01*
X0054556Y0309661D01*
X0049556Y0309661D01*
X0047056Y0312161D01*
X0047056Y0317161D01*
X0049556Y0319661D01*
X0054556Y0319661D01*
X0057056Y0317161D01*
X0059556Y0319661D01*
X0064556Y0319661D01*
X0067056Y0317161D01*
X0069556Y0319661D01*
X0074556Y0319661D01*
X0077056Y0317161D01*
X0077056Y0312161D01*
X0074556Y0309661D01*
X0069556Y0309661D01*
X0067056Y0312161D01*
X0064556Y0309661D01*
X0059556Y0309661D01*
X0057056Y0312161D02*
X0057056Y0317161D01*
X0067056Y0317161D02*
X0067056Y0312161D01*
X0067056Y0307043D02*
X0067056Y0302043D01*
X0065028Y0329898D02*
X0062528Y0332398D01*
X0060028Y0329898D01*
X0055028Y0329898D01*
X0052528Y0332398D01*
X0050028Y0329898D01*
X0045028Y0329898D01*
X0042528Y0332398D01*
X0040028Y0329898D01*
X0035028Y0329898D01*
X0032528Y0332398D01*
X0030028Y0329898D01*
X0025028Y0329898D01*
X0022528Y0332398D01*
X0022528Y0337398D01*
X0025028Y0339898D01*
X0030028Y0339898D01*
X0032528Y0337398D01*
X0035028Y0339898D01*
X0040028Y0339898D01*
X0042528Y0337398D01*
X0042528Y0332398D01*
X0042528Y0337398D02*
X0045028Y0339898D01*
X0050028Y0339898D01*
X0052528Y0337398D01*
X0055028Y0339898D01*
X0060028Y0339898D01*
X0062528Y0337398D01*
X0065028Y0339898D01*
X0070028Y0339898D01*
X0072528Y0337398D01*
X0072528Y0332398D01*
X0070028Y0329898D01*
X0065028Y0329898D01*
X0062528Y0332398D02*
X0062528Y0337398D01*
X0052528Y0337398D02*
X0052528Y0332398D01*
X0072528Y0332398D02*
X0075028Y0329898D01*
X0080028Y0329898D01*
X0082528Y0332398D01*
X0085028Y0329898D01*
X0090028Y0329898D01*
X0092528Y0332398D01*
X0095028Y0329898D01*
X0100028Y0329898D01*
X0102528Y0332398D01*
X0102528Y0337398D01*
X0100028Y0339898D01*
X0095028Y0339898D01*
X0092528Y0337398D01*
X0092528Y0332398D01*
X0092528Y0337398D02*
X0090028Y0339898D01*
X0085028Y0339898D01*
X0082528Y0337398D01*
X0082528Y0332398D01*
X0082528Y0337398D02*
X0080028Y0339898D01*
X0075028Y0339898D01*
X0072528Y0337398D01*
X0102528Y0337398D02*
X0105028Y0339898D01*
X0110028Y0339898D01*
X0112528Y0337398D01*
X0115028Y0339898D01*
X0120028Y0339898D01*
X0122528Y0337398D01*
X0125028Y0339898D01*
X0130028Y0339898D01*
X0132528Y0337398D01*
X0132528Y0332398D01*
X0130028Y0329898D01*
X0125028Y0329898D01*
X0122528Y0332398D01*
X0120028Y0329898D01*
X0115028Y0329898D01*
X0112528Y0332398D01*
X0110028Y0329898D01*
X0105028Y0329898D01*
X0102528Y0332398D01*
X0112528Y0332398D02*
X0112528Y0337398D01*
X0122528Y0337398D02*
X0122528Y0332398D01*
X0132528Y0332398D02*
X0135028Y0329898D01*
X0140028Y0329898D01*
X0142528Y0332398D01*
X0145028Y0329898D01*
X0150028Y0329898D01*
X0152528Y0332398D01*
X0155028Y0329898D01*
X0160028Y0329898D01*
X0162528Y0332398D01*
X0162528Y0337398D01*
X0160028Y0339898D01*
X0155028Y0339898D01*
X0152528Y0337398D01*
X0152528Y0332398D01*
X0152528Y0337398D02*
X0150028Y0339898D01*
X0145028Y0339898D01*
X0142528Y0337398D01*
X0142528Y0332398D01*
X0142528Y0337398D02*
X0140028Y0339898D01*
X0135028Y0339898D01*
X0132528Y0337398D01*
X0162528Y0337398D02*
X0165028Y0339898D01*
X0170028Y0339898D01*
X0172528Y0337398D01*
X0175028Y0339898D01*
X0180028Y0339898D01*
X0182528Y0337398D01*
X0182528Y0332398D01*
X0180028Y0329898D01*
X0175028Y0329898D01*
X0172528Y0332398D01*
X0170028Y0329898D01*
X0165028Y0329898D01*
X0162528Y0332398D01*
X0172528Y0332398D02*
X0172528Y0337398D01*
X0183473Y0334898D02*
X0031701Y0334898D01*
X0032528Y0337398D02*
X0032528Y0332398D01*
X0021583Y0343457D02*
X0188532Y0343457D01*
X0188532Y0325839D01*
X0016524Y0325839D01*
X0016524Y0334898D01*
X0026642Y0211921D02*
X0188532Y0211921D01*
X0188532Y0195803D01*
X0016524Y0195803D01*
X0016524Y0203362D01*
X0022528Y0200862D02*
X0025028Y0198362D01*
X0030028Y0198362D01*
X0032528Y0200862D01*
X0035028Y0198362D01*
X0040028Y0198362D01*
X0042528Y0200862D01*
X0042528Y0205862D01*
X0040028Y0208362D01*
X0035028Y0208362D01*
X0032528Y0205862D01*
X0032528Y0200862D01*
X0032528Y0205862D02*
X0030028Y0208362D01*
X0025028Y0208362D01*
X0022528Y0205862D01*
X0022528Y0200862D01*
X0022951Y0189831D02*
X0021883Y0188764D01*
X0021883Y0184494D01*
X0022951Y0183426D01*
X0025086Y0183426D01*
X0026154Y0184494D01*
X0026154Y0186629D01*
X0024019Y0186629D01*
X0026154Y0188764D02*
X0025086Y0189831D01*
X0022951Y0189831D01*
X0028329Y0189831D02*
X0032599Y0183426D01*
X0032599Y0189831D01*
X0034774Y0189831D02*
X0037977Y0189831D01*
X0039045Y0188764D01*
X0039045Y0184494D01*
X0037977Y0183426D01*
X0034774Y0183426D01*
X0034774Y0189831D01*
X0028329Y0189831D02*
X0028329Y0183426D01*
X0029083Y0183067D02*
X0024083Y0183067D01*
X0021583Y0180567D01*
X0019083Y0183067D01*
X0014083Y0183067D01*
X0011583Y0180567D01*
X0011583Y0175567D01*
X0014083Y0173067D01*
X0019083Y0173067D01*
X0021583Y0175567D01*
X0021583Y0180567D01*
X0017422Y0184494D02*
X0016354Y0183426D01*
X0013152Y0183426D01*
X0013152Y0189831D01*
X0016354Y0189831D01*
X0017422Y0188764D01*
X0017422Y0187696D01*
X0016354Y0186629D01*
X0013152Y0186629D01*
X0010977Y0186629D02*
X0006706Y0186629D01*
X0008841Y0188764D02*
X0008841Y0184494D01*
X0016354Y0186629D02*
X0017422Y0185561D01*
X0017422Y0184494D01*
X0021583Y0175567D02*
X0024083Y0173067D01*
X0029083Y0173067D01*
X0031583Y0175567D01*
X0031583Y0180567D01*
X0029083Y0183067D01*
X0045028Y0198362D02*
X0042528Y0200862D01*
X0045028Y0198362D02*
X0050028Y0198362D01*
X0052528Y0200862D01*
X0055028Y0198362D01*
X0060028Y0198362D01*
X0062528Y0200862D01*
X0065028Y0198362D01*
X0070028Y0198362D01*
X0072528Y0200862D01*
X0072528Y0205862D01*
X0070028Y0208362D01*
X0065028Y0208362D01*
X0062528Y0205862D01*
X0062528Y0200862D01*
X0062528Y0205862D02*
X0060028Y0208362D01*
X0055028Y0208362D01*
X0052528Y0205862D01*
X0052528Y0200862D01*
X0052528Y0205862D02*
X0050028Y0208362D01*
X0045028Y0208362D01*
X0042528Y0205862D01*
X0072528Y0205862D02*
X0075028Y0208362D01*
X0080028Y0208362D01*
X0082528Y0205862D01*
X0085028Y0208362D01*
X0090028Y0208362D01*
X0092528Y0205862D01*
X0095028Y0208362D01*
X0100028Y0208362D01*
X0102528Y0205862D01*
X0102528Y0200862D01*
X0100028Y0198362D01*
X0095028Y0198362D01*
X0092528Y0200862D01*
X0090028Y0198362D01*
X0085028Y0198362D01*
X0082528Y0200862D01*
X0080028Y0198362D01*
X0075028Y0198362D01*
X0072528Y0200862D01*
X0082528Y0200862D02*
X0082528Y0205862D01*
X0092528Y0205862D02*
X0092528Y0200862D01*
X0102528Y0200862D02*
X0105028Y0198362D01*
X0110028Y0198362D01*
X0112528Y0200862D01*
X0115028Y0198362D01*
X0120028Y0198362D01*
X0122528Y0200862D01*
X0125028Y0198362D01*
X0130028Y0198362D01*
X0132528Y0200862D01*
X0132528Y0205862D01*
X0130028Y0208362D01*
X0125028Y0208362D01*
X0122528Y0205862D01*
X0122528Y0200862D01*
X0122528Y0205862D02*
X0120028Y0208362D01*
X0115028Y0208362D01*
X0112528Y0205862D01*
X0112528Y0200862D01*
X0112528Y0205862D02*
X0110028Y0208362D01*
X0105028Y0208362D01*
X0102528Y0205862D01*
X0100028Y0178008D02*
X0097528Y0175508D01*
X0097528Y0170508D01*
X0100028Y0168008D01*
X0105028Y0168008D01*
X0107528Y0170508D01*
X0107528Y0175508D01*
X0105028Y0178008D01*
X0100028Y0178008D01*
X0102528Y0173008D02*
X0102528Y0162890D01*
X0097528Y0165390D02*
X0097528Y0160390D01*
X0100028Y0157890D01*
X0105028Y0157890D01*
X0107528Y0160390D01*
X0107528Y0165390D01*
X0105028Y0167890D01*
X0100028Y0167890D01*
X0097528Y0165390D01*
X0087292Y0165390D02*
X0087292Y0160390D01*
X0084792Y0157890D01*
X0079792Y0157890D01*
X0077292Y0160390D01*
X0077292Y0165390D01*
X0079792Y0167890D01*
X0084792Y0167890D01*
X0087292Y0165390D01*
X0084792Y0168008D02*
X0079792Y0168008D01*
X0077292Y0170508D01*
X0077292Y0175508D01*
X0079792Y0178008D01*
X0084792Y0178008D01*
X0087292Y0175508D01*
X0087292Y0170508D01*
X0084792Y0168008D01*
X0082292Y0173008D02*
X0082292Y0162890D01*
X0067056Y0165390D02*
X0067056Y0160390D01*
X0064556Y0157890D01*
X0059556Y0157890D01*
X0057056Y0160390D01*
X0057056Y0165390D01*
X0059556Y0167890D01*
X0064556Y0167890D01*
X0067056Y0165390D01*
X0064556Y0168008D02*
X0059556Y0168008D01*
X0057056Y0170508D01*
X0057056Y0175508D01*
X0059556Y0178008D01*
X0064556Y0178008D01*
X0067056Y0175508D01*
X0067056Y0170508D01*
X0064556Y0168008D01*
X0062056Y0173008D02*
X0062056Y0162890D01*
X0059556Y0147654D02*
X0064556Y0147654D01*
X0067056Y0145154D01*
X0067056Y0140154D01*
X0064556Y0137654D01*
X0059556Y0137654D01*
X0057056Y0140154D01*
X0057056Y0145154D01*
X0059556Y0147654D01*
X0062056Y0142654D02*
X0062056Y0132535D01*
X0057056Y0130035D02*
X0059556Y0127535D01*
X0064556Y0127535D01*
X0067056Y0130035D01*
X0067056Y0135035D01*
X0064556Y0137535D01*
X0059556Y0137535D01*
X0057056Y0135035D01*
X0057056Y0130035D01*
X0044767Y0133572D02*
X0040497Y0133572D01*
X0042632Y0133572D02*
X0042632Y0139977D01*
X0040497Y0137842D01*
X0038322Y0138910D02*
X0037254Y0139977D01*
X0035119Y0139977D01*
X0034051Y0138910D01*
X0034051Y0134639D01*
X0035119Y0133572D01*
X0037254Y0133572D01*
X0038322Y0134639D01*
X0038322Y0136774D01*
X0036187Y0136774D01*
X0031890Y0133572D02*
X0029754Y0133572D01*
X0030822Y0133572D02*
X0030822Y0139977D01*
X0029754Y0139977D02*
X0031890Y0139977D01*
X0057056Y0114799D02*
X0059556Y0117299D01*
X0064556Y0117299D01*
X0067056Y0114799D01*
X0067056Y0109799D01*
X0064556Y0107299D01*
X0059556Y0107299D01*
X0057056Y0109799D01*
X0057056Y0114799D01*
X0062056Y0112299D02*
X0062056Y0102181D01*
X0067056Y0099681D02*
X0064556Y0097181D01*
X0059556Y0097181D01*
X0057056Y0099681D01*
X0057056Y0104681D01*
X0059556Y0107181D01*
X0064556Y0107181D01*
X0067056Y0104681D01*
X0067056Y0099681D01*
X0077292Y0099681D02*
X0079792Y0097181D01*
X0084792Y0097181D01*
X0087292Y0099681D01*
X0087292Y0104681D01*
X0084792Y0107181D01*
X0079792Y0107181D01*
X0077292Y0104681D01*
X0077292Y0099681D01*
X0082292Y0102181D02*
X0082292Y0112299D01*
X0084792Y0107299D02*
X0079792Y0107299D01*
X0077292Y0109799D01*
X0077292Y0114799D01*
X0079792Y0117299D01*
X0084792Y0117299D01*
X0087292Y0114799D01*
X0087292Y0109799D01*
X0084792Y0107299D01*
X0097528Y0109799D02*
X0100028Y0107299D01*
X0105028Y0107299D01*
X0107528Y0109799D01*
X0107528Y0114799D01*
X0105028Y0117299D01*
X0100028Y0117299D01*
X0097528Y0114799D01*
X0097528Y0109799D01*
X0100028Y0107181D02*
X0097528Y0104681D01*
X0097528Y0099681D01*
X0100028Y0097181D01*
X0105028Y0097181D01*
X0107528Y0099681D01*
X0107528Y0104681D01*
X0105028Y0107181D01*
X0100028Y0107181D01*
X0102528Y0102181D02*
X0102528Y0112299D01*
X0105028Y0127535D02*
X0100028Y0127535D01*
X0097528Y0130035D01*
X0097528Y0135035D01*
X0100028Y0137535D01*
X0105028Y0137535D01*
X0107528Y0135035D01*
X0107528Y0130035D01*
X0105028Y0127535D01*
X0102528Y0132535D02*
X0102528Y0142654D01*
X0100028Y0147654D02*
X0097528Y0145154D01*
X0097528Y0140154D01*
X0100028Y0137654D01*
X0105028Y0137654D01*
X0107528Y0140154D01*
X0107528Y0145154D01*
X0105028Y0147654D01*
X0100028Y0147654D01*
X0087292Y0145154D02*
X0087292Y0140154D01*
X0084792Y0137654D01*
X0079792Y0137654D01*
X0077292Y0140154D01*
X0077292Y0145154D01*
X0079792Y0147654D01*
X0084792Y0147654D01*
X0087292Y0145154D01*
X0082292Y0142654D02*
X0082292Y0132535D01*
X0087292Y0130035D02*
X0084792Y0127535D01*
X0079792Y0127535D01*
X0077292Y0130035D01*
X0077292Y0135035D01*
X0079792Y0137535D01*
X0084792Y0137535D01*
X0087292Y0135035D01*
X0087292Y0130035D01*
X0117764Y0130035D02*
X0120264Y0127535D01*
X0125264Y0127535D01*
X0127764Y0130035D01*
X0127764Y0135035D01*
X0125264Y0137535D01*
X0120264Y0137535D01*
X0117764Y0135035D01*
X0117764Y0130035D01*
X0122764Y0132535D02*
X0122764Y0142654D01*
X0117764Y0140154D02*
X0120264Y0137654D01*
X0125264Y0137654D01*
X0127764Y0140154D01*
X0127764Y0145154D01*
X0125264Y0147654D01*
X0120264Y0147654D01*
X0117764Y0145154D01*
X0117764Y0140154D01*
X0120264Y0157890D02*
X0125264Y0157890D01*
X0127764Y0160390D01*
X0127764Y0165390D01*
X0125264Y0167890D01*
X0120264Y0167890D01*
X0117764Y0165390D01*
X0117764Y0160390D01*
X0120264Y0157890D01*
X0122764Y0162890D02*
X0122764Y0173008D01*
X0120264Y0178008D02*
X0117764Y0175508D01*
X0117764Y0170508D01*
X0120264Y0168008D01*
X0125264Y0168008D01*
X0127764Y0170508D01*
X0127764Y0175508D01*
X0125264Y0178008D01*
X0120264Y0178008D01*
X0138001Y0175508D02*
X0138001Y0170508D01*
X0140501Y0168008D01*
X0145501Y0168008D01*
X0148001Y0170508D01*
X0148001Y0175508D01*
X0145501Y0178008D01*
X0140501Y0178008D01*
X0138001Y0175508D01*
X0143001Y0173008D02*
X0143001Y0162890D01*
X0148001Y0165390D02*
X0148001Y0160390D01*
X0145501Y0157890D01*
X0140501Y0157890D01*
X0138001Y0160390D01*
X0138001Y0165390D01*
X0140501Y0167890D01*
X0145501Y0167890D01*
X0148001Y0165390D01*
X0145501Y0147654D02*
X0140501Y0147654D01*
X0138001Y0145154D01*
X0138001Y0140154D01*
X0140501Y0137654D01*
X0145501Y0137654D01*
X0148001Y0140154D01*
X0148001Y0145154D01*
X0145501Y0147654D01*
X0143001Y0142654D02*
X0143001Y0132535D01*
X0148001Y0130035D02*
X0145501Y0127535D01*
X0140501Y0127535D01*
X0138001Y0130035D01*
X0138001Y0135035D01*
X0140501Y0137535D01*
X0145501Y0137535D01*
X0148001Y0135035D01*
X0148001Y0130035D01*
X0145501Y0117299D02*
X0140501Y0117299D01*
X0138001Y0114799D01*
X0138001Y0109799D01*
X0140501Y0107299D01*
X0145501Y0107299D01*
X0148001Y0109799D01*
X0148001Y0114799D01*
X0145501Y0117299D01*
X0143001Y0112299D02*
X0143001Y0102181D01*
X0148001Y0099681D02*
X0145501Y0097181D01*
X0140501Y0097181D01*
X0138001Y0099681D01*
X0138001Y0104681D01*
X0140501Y0107181D01*
X0145501Y0107181D01*
X0148001Y0104681D01*
X0148001Y0099681D01*
X0145501Y0086945D02*
X0140501Y0086945D01*
X0138001Y0084445D01*
X0138001Y0079445D01*
X0140501Y0076945D01*
X0145501Y0076945D01*
X0148001Y0079445D01*
X0148001Y0084445D01*
X0145501Y0086945D01*
X0143001Y0081945D02*
X0143001Y0071827D01*
X0148001Y0074327D02*
X0148001Y0069327D01*
X0145501Y0066827D01*
X0140501Y0066827D01*
X0138001Y0069327D01*
X0138001Y0074327D01*
X0140501Y0076827D01*
X0145501Y0076827D01*
X0148001Y0074327D01*
X0127764Y0074327D02*
X0127764Y0069327D01*
X0125264Y0066827D01*
X0120264Y0066827D01*
X0117764Y0069327D01*
X0117764Y0074327D01*
X0120264Y0076827D01*
X0125264Y0076827D01*
X0127764Y0074327D01*
X0125264Y0076945D02*
X0127764Y0079445D01*
X0127764Y0084445D01*
X0125264Y0086945D01*
X0120264Y0086945D01*
X0117764Y0084445D01*
X0117764Y0079445D01*
X0120264Y0076945D01*
X0125264Y0076945D01*
X0122764Y0081945D02*
X0122764Y0071827D01*
X0107528Y0074327D02*
X0107528Y0069327D01*
X0105028Y0066827D01*
X0100028Y0066827D01*
X0097528Y0069327D01*
X0097528Y0074327D01*
X0100028Y0076827D01*
X0105028Y0076827D01*
X0107528Y0074327D01*
X0105028Y0076945D02*
X0100028Y0076945D01*
X0097528Y0079445D01*
X0097528Y0084445D01*
X0100028Y0086945D01*
X0105028Y0086945D01*
X0107528Y0084445D01*
X0107528Y0079445D01*
X0105028Y0076945D01*
X0102528Y0081945D02*
X0102528Y0071827D01*
X0087292Y0074327D02*
X0087292Y0069327D01*
X0084792Y0066827D01*
X0079792Y0066827D01*
X0077292Y0069327D01*
X0077292Y0074327D01*
X0079792Y0076827D01*
X0084792Y0076827D01*
X0087292Y0074327D01*
X0084792Y0076945D02*
X0087292Y0079445D01*
X0087292Y0084445D01*
X0084792Y0086945D01*
X0079792Y0086945D01*
X0077292Y0084445D01*
X0077292Y0079445D01*
X0079792Y0076945D01*
X0084792Y0076945D01*
X0082292Y0081945D02*
X0082292Y0071827D01*
X0067056Y0074327D02*
X0067056Y0069327D01*
X0064556Y0066827D01*
X0059556Y0066827D01*
X0057056Y0069327D01*
X0057056Y0074327D01*
X0059556Y0076827D01*
X0064556Y0076827D01*
X0067056Y0074327D01*
X0064556Y0076945D02*
X0067056Y0079445D01*
X0067056Y0084445D01*
X0064556Y0086945D01*
X0059556Y0086945D01*
X0057056Y0084445D01*
X0057056Y0079445D01*
X0059556Y0076945D01*
X0064556Y0076945D01*
X0062056Y0081945D02*
X0062056Y0071827D01*
X0044767Y0078990D02*
X0044767Y0084328D01*
X0044767Y0078990D02*
X0043700Y0077922D01*
X0041564Y0077922D01*
X0040497Y0078990D01*
X0040497Y0084328D01*
X0038322Y0083260D02*
X0038322Y0082192D01*
X0037254Y0081125D01*
X0034051Y0081125D01*
X0031876Y0080057D02*
X0031876Y0084328D01*
X0034051Y0084328D02*
X0034051Y0077922D01*
X0037254Y0077922D01*
X0038322Y0078990D01*
X0038322Y0080057D01*
X0037254Y0081125D01*
X0038322Y0083260D02*
X0037254Y0084328D01*
X0034051Y0084328D01*
X0031876Y0080057D02*
X0029741Y0077922D01*
X0027606Y0080057D01*
X0027606Y0084328D01*
X0029201Y0031295D02*
X0024201Y0031295D01*
X0021701Y0028795D01*
X0019201Y0031295D01*
X0014201Y0031295D01*
X0011701Y0028795D01*
X0011701Y0023795D01*
X0014201Y0021295D01*
X0019201Y0021295D01*
X0021701Y0023795D01*
X0021701Y0028795D01*
X0021701Y0023795D02*
X0024201Y0021295D01*
X0029201Y0021295D01*
X0031701Y0023795D01*
X0031701Y0028795D01*
X0034201Y0031295D01*
X0039201Y0031295D01*
X0041701Y0028795D01*
X0044201Y0031295D01*
X0049201Y0031295D01*
X0051701Y0028795D01*
X0051701Y0023795D01*
X0049201Y0021295D01*
X0044201Y0021295D01*
X0041701Y0023795D01*
X0039201Y0021295D01*
X0034201Y0021295D01*
X0031701Y0023795D01*
X0031701Y0028795D02*
X0029201Y0031295D01*
X0041701Y0028795D02*
X0041701Y0023795D01*
X0068276Y0008874D02*
X0068276Y0004937D01*
X0107646Y0004937D02*
X0107646Y0008874D01*
X0147016Y0008874D02*
X0147016Y0004937D01*
X0186387Y0004937D02*
X0186387Y0008874D01*
X0225757Y0008874D02*
X0225757Y0004937D01*
X0265127Y0004937D02*
X0265127Y0008874D01*
X0304497Y0008874D02*
X0304497Y0004937D01*
X0343867Y0004937D02*
X0343867Y0008874D01*
X0342863Y0066827D02*
X0340363Y0069327D01*
X0340363Y0074327D01*
X0342863Y0076827D01*
X0347863Y0076827D01*
X0350363Y0074327D01*
X0350363Y0069327D01*
X0347863Y0066827D01*
X0342863Y0066827D01*
X0345363Y0071827D02*
X0345363Y0081945D01*
X0342863Y0086945D02*
X0347863Y0086945D01*
X0350363Y0084445D01*
X0350363Y0079445D01*
X0347863Y0076945D01*
X0342863Y0076945D01*
X0340363Y0079445D01*
X0340363Y0084445D01*
X0342863Y0086945D01*
X0342863Y0097181D02*
X0347863Y0097181D01*
X0350363Y0099681D01*
X0350363Y0104681D01*
X0347863Y0107181D01*
X0342863Y0107181D01*
X0340363Y0104681D01*
X0340363Y0099681D01*
X0342863Y0097181D01*
X0345363Y0102181D02*
X0345363Y0112299D01*
X0347863Y0107299D02*
X0342863Y0107299D01*
X0340363Y0109799D01*
X0340363Y0114799D01*
X0342863Y0117299D01*
X0347863Y0117299D01*
X0350363Y0114799D01*
X0350363Y0109799D01*
X0347863Y0107299D01*
X0330127Y0109799D02*
X0327627Y0107299D01*
X0322627Y0107299D01*
X0320127Y0109799D01*
X0320127Y0114799D01*
X0322627Y0117299D01*
X0327627Y0117299D01*
X0330127Y0114799D01*
X0330127Y0109799D01*
X0327627Y0107181D02*
X0330127Y0104681D01*
X0330127Y0099681D01*
X0327627Y0097181D01*
X0322627Y0097181D01*
X0320127Y0099681D01*
X0320127Y0104681D01*
X0322627Y0107181D01*
X0327627Y0107181D01*
X0325127Y0102181D02*
X0325127Y0112299D01*
X0327627Y0127535D02*
X0322627Y0127535D01*
X0320127Y0130035D01*
X0320127Y0135035D01*
X0322627Y0137535D01*
X0327627Y0137535D01*
X0330127Y0135035D01*
X0330127Y0130035D01*
X0327627Y0127535D01*
X0325127Y0132535D02*
X0325127Y0142654D01*
X0327627Y0147654D02*
X0330127Y0145154D01*
X0330127Y0140154D01*
X0327627Y0137654D01*
X0322627Y0137654D01*
X0320127Y0140154D01*
X0320127Y0145154D01*
X0322627Y0147654D01*
X0327627Y0147654D01*
X0327627Y0157890D02*
X0322627Y0157890D01*
X0320127Y0160390D01*
X0320127Y0165390D01*
X0322627Y0167890D01*
X0327627Y0167890D01*
X0330127Y0165390D01*
X0330127Y0160390D01*
X0327627Y0157890D01*
X0325127Y0162890D02*
X0325127Y0173008D01*
X0330127Y0175508D02*
X0330127Y0170508D01*
X0327627Y0168008D01*
X0322627Y0168008D01*
X0320127Y0170508D01*
X0320127Y0175508D01*
X0322627Y0178008D01*
X0327627Y0178008D01*
X0330127Y0175508D01*
X0340363Y0175508D02*
X0340363Y0170508D01*
X0342863Y0168008D01*
X0347863Y0168008D01*
X0350363Y0170508D01*
X0350363Y0175508D01*
X0347863Y0178008D01*
X0342863Y0178008D01*
X0340363Y0175508D01*
X0345363Y0173008D02*
X0345363Y0162890D01*
X0342863Y0167890D02*
X0347863Y0167890D01*
X0350363Y0165390D01*
X0350363Y0160390D01*
X0347863Y0157890D01*
X0342863Y0157890D01*
X0340363Y0160390D01*
X0340363Y0165390D01*
X0342863Y0167890D01*
X0342863Y0147654D02*
X0340363Y0145154D01*
X0340363Y0140154D01*
X0342863Y0137654D01*
X0347863Y0137654D01*
X0350363Y0140154D01*
X0350363Y0145154D01*
X0347863Y0147654D01*
X0342863Y0147654D01*
X0345363Y0142654D02*
X0345363Y0132535D01*
X0340363Y0130035D02*
X0342863Y0127535D01*
X0347863Y0127535D01*
X0350363Y0130035D01*
X0350363Y0135035D01*
X0347863Y0137535D01*
X0342863Y0137535D01*
X0340363Y0135035D01*
X0340363Y0130035D01*
X0309890Y0130035D02*
X0307390Y0127535D01*
X0302390Y0127535D01*
X0299890Y0130035D01*
X0299890Y0135035D01*
X0302390Y0137535D01*
X0307390Y0137535D01*
X0309890Y0135035D01*
X0309890Y0130035D01*
X0304890Y0132535D02*
X0304890Y0142654D01*
X0299890Y0140154D02*
X0302390Y0137654D01*
X0307390Y0137654D01*
X0309890Y0140154D01*
X0309890Y0145154D01*
X0307390Y0147654D01*
X0302390Y0147654D01*
X0299890Y0145154D01*
X0299890Y0140154D01*
X0289654Y0140154D02*
X0287154Y0137654D01*
X0282154Y0137654D01*
X0279654Y0140154D01*
X0279654Y0145154D01*
X0282154Y0147654D01*
X0287154Y0147654D01*
X0289654Y0145154D01*
X0289654Y0140154D01*
X0287154Y0137535D02*
X0289654Y0135035D01*
X0289654Y0130035D01*
X0287154Y0127535D01*
X0282154Y0127535D01*
X0279654Y0130035D01*
X0279654Y0135035D01*
X0282154Y0137535D01*
X0287154Y0137535D01*
X0284654Y0132535D02*
X0284654Y0142654D01*
X0287154Y0157890D02*
X0282154Y0157890D01*
X0279654Y0160390D01*
X0279654Y0165390D01*
X0282154Y0167890D01*
X0287154Y0167890D01*
X0289654Y0165390D01*
X0289654Y0160390D01*
X0287154Y0157890D01*
X0284654Y0162890D02*
X0284654Y0173008D01*
X0279654Y0175508D02*
X0279654Y0170508D01*
X0282154Y0168008D01*
X0287154Y0168008D01*
X0289654Y0170508D01*
X0289654Y0175508D01*
X0287154Y0178008D01*
X0282154Y0178008D01*
X0279654Y0175508D01*
X0299890Y0175508D02*
X0299890Y0170508D01*
X0302390Y0168008D01*
X0307390Y0168008D01*
X0309890Y0170508D01*
X0309890Y0175508D01*
X0307390Y0178008D01*
X0302390Y0178008D01*
X0299890Y0175508D01*
X0304890Y0173008D02*
X0304890Y0162890D01*
X0302390Y0167890D02*
X0299890Y0165390D01*
X0299890Y0160390D01*
X0302390Y0157890D01*
X0307390Y0157890D01*
X0309890Y0160390D01*
X0309890Y0165390D01*
X0307390Y0167890D01*
X0302390Y0167890D01*
X0277036Y0204248D02*
X0272036Y0204248D01*
X0269536Y0206748D01*
X0269536Y0211748D01*
X0272036Y0214248D01*
X0269536Y0216748D01*
X0269536Y0221748D01*
X0272036Y0224248D01*
X0269536Y0226748D01*
X0269536Y0231748D01*
X0272036Y0234248D01*
X0269536Y0236748D01*
X0269536Y0241748D01*
X0272036Y0244248D01*
X0269418Y0241748D02*
X0269418Y0236748D01*
X0266918Y0234248D01*
X0269418Y0231748D01*
X0269418Y0226748D01*
X0266918Y0224248D01*
X0269418Y0221748D01*
X0269418Y0216748D01*
X0266918Y0214248D01*
X0269418Y0211748D01*
X0269418Y0206748D01*
X0266918Y0204248D01*
X0261918Y0204248D01*
X0259418Y0206748D01*
X0259418Y0211748D01*
X0261918Y0214248D01*
X0259418Y0216748D01*
X0259418Y0221748D01*
X0261918Y0224248D01*
X0259418Y0226748D01*
X0259418Y0231748D01*
X0261918Y0234248D01*
X0259418Y0236748D01*
X0259418Y0241748D01*
X0261918Y0244248D01*
X0259300Y0241748D02*
X0259300Y0236748D01*
X0256800Y0234248D01*
X0259300Y0231748D01*
X0259300Y0226748D01*
X0256800Y0224248D01*
X0259300Y0221748D01*
X0259300Y0216748D01*
X0256800Y0214248D01*
X0259300Y0211748D01*
X0259300Y0206748D01*
X0256800Y0204248D01*
X0251800Y0204248D01*
X0249300Y0206748D01*
X0249300Y0211748D01*
X0251800Y0214248D01*
X0249300Y0216748D01*
X0249300Y0221748D01*
X0251800Y0224248D01*
X0249300Y0226748D01*
X0249300Y0231748D01*
X0251800Y0234248D01*
X0249300Y0236748D01*
X0249300Y0241748D01*
X0251800Y0244248D01*
X0256800Y0244248D02*
X0259300Y0241748D01*
X0256800Y0234248D02*
X0251800Y0234248D01*
X0243646Y0234850D02*
X0243646Y0230580D01*
X0237240Y0230580D01*
X0237240Y0228405D02*
X0237240Y0224135D01*
X0237240Y0226270D02*
X0243646Y0226270D01*
X0251800Y0224248D02*
X0256800Y0224248D01*
X0261918Y0224248D02*
X0266918Y0224248D01*
X0272036Y0224248D02*
X0277036Y0224248D01*
X0279536Y0221748D01*
X0279536Y0216748D01*
X0277036Y0214248D01*
X0279536Y0211748D01*
X0279536Y0206748D01*
X0277036Y0204248D01*
X0277036Y0214248D02*
X0272036Y0214248D01*
X0266918Y0214248D02*
X0261918Y0214248D01*
X0256800Y0214248D02*
X0251800Y0214248D01*
X0261918Y0234248D02*
X0266918Y0234248D01*
X0272036Y0234248D02*
X0277036Y0234248D01*
X0279536Y0231748D01*
X0279536Y0226748D01*
X0277036Y0224248D01*
X0277036Y0234248D02*
X0279536Y0236748D01*
X0279536Y0241748D01*
X0277036Y0244248D01*
X0269418Y0241748D02*
X0266918Y0244248D01*
X0243646Y0244539D02*
X0243646Y0246674D01*
X0242578Y0247741D01*
X0238308Y0247741D01*
X0237240Y0246674D01*
X0237240Y0244539D01*
X0238308Y0243471D01*
X0239375Y0243471D01*
X0240443Y0244539D01*
X0240443Y0247741D01*
X0241510Y0249917D02*
X0241510Y0253119D01*
X0240443Y0254187D01*
X0238308Y0254187D01*
X0237240Y0253119D01*
X0237240Y0249917D01*
X0243646Y0249917D01*
X0243646Y0244539D02*
X0242578Y0243471D01*
X0242578Y0241296D02*
X0243646Y0240228D01*
X0243646Y0238093D01*
X0242578Y0237026D01*
X0240443Y0239161D02*
X0240443Y0240228D01*
X0241510Y0241296D01*
X0242578Y0241296D01*
X0240443Y0240228D02*
X0239375Y0241296D01*
X0238308Y0241296D01*
X0237240Y0240228D01*
X0237240Y0238093D01*
X0238308Y0237026D01*
X0238308Y0256362D02*
X0242578Y0256362D01*
X0243646Y0257430D01*
X0243646Y0259565D01*
X0242578Y0260632D01*
X0238308Y0260632D01*
X0237240Y0259565D01*
X0237240Y0257430D01*
X0238308Y0256362D01*
X0211146Y0241296D02*
X0211146Y0237026D01*
X0204740Y0237026D01*
X0204740Y0234850D02*
X0211146Y0230580D01*
X0211146Y0228405D02*
X0204740Y0228405D01*
X0207943Y0228405D02*
X0207943Y0224135D01*
X0211146Y0224135D02*
X0204740Y0224135D01*
X0218237Y0210980D02*
X0221662Y0210980D01*
X0218237Y0210980D02*
X0218237Y0206965D01*
X0222489Y0205862D02*
X0225402Y0205862D01*
X0229654Y0206965D02*
X0229654Y0210980D01*
X0226229Y0210980D01*
X0231564Y0178008D02*
X0229064Y0175508D01*
X0229064Y0170508D01*
X0231564Y0168008D01*
X0236564Y0168008D01*
X0239064Y0170508D01*
X0239064Y0175508D01*
X0236564Y0178008D01*
X0231564Y0178008D01*
X0234064Y0173008D02*
X0234064Y0162890D01*
X0236564Y0167890D02*
X0239064Y0165390D01*
X0239064Y0160390D01*
X0236564Y0157890D01*
X0231564Y0157890D01*
X0229064Y0160390D01*
X0229064Y0165390D01*
X0231564Y0167890D01*
X0236564Y0167890D01*
X0249300Y0165390D02*
X0249300Y0160390D01*
X0251800Y0157890D01*
X0256800Y0157890D01*
X0259300Y0160390D01*
X0259300Y0165390D01*
X0256800Y0167890D01*
X0251800Y0167890D01*
X0249300Y0165390D01*
X0251800Y0168008D02*
X0256800Y0168008D01*
X0259300Y0170508D01*
X0259300Y0175508D01*
X0256800Y0178008D01*
X0251800Y0178008D01*
X0249300Y0175508D01*
X0249300Y0170508D01*
X0251800Y0168008D01*
X0254300Y0173008D02*
X0254300Y0162890D01*
X0251800Y0147654D02*
X0256800Y0147654D01*
X0259300Y0145154D01*
X0259300Y0140154D01*
X0256800Y0137654D01*
X0251800Y0137654D01*
X0249300Y0140154D01*
X0249300Y0145154D01*
X0251800Y0147654D01*
X0254300Y0142654D02*
X0254300Y0132535D01*
X0259300Y0130035D02*
X0256800Y0127535D01*
X0251800Y0127535D01*
X0249300Y0130035D01*
X0249300Y0135035D01*
X0251800Y0137535D01*
X0256800Y0137535D01*
X0259300Y0135035D01*
X0259300Y0130035D01*
X0256800Y0117299D02*
X0251800Y0117299D01*
X0249300Y0114799D01*
X0249300Y0109799D01*
X0251800Y0107299D01*
X0256800Y0107299D01*
X0259300Y0109799D01*
X0259300Y0114799D01*
X0256800Y0117299D01*
X0254300Y0112299D02*
X0254300Y0102181D01*
X0256800Y0097181D02*
X0251800Y0097181D01*
X0249300Y0099681D01*
X0249300Y0104681D01*
X0251800Y0107181D01*
X0256800Y0107181D01*
X0259300Y0104681D01*
X0259300Y0099681D01*
X0256800Y0097181D01*
X0256800Y0086945D02*
X0251800Y0086945D01*
X0249300Y0084445D01*
X0249300Y0079445D01*
X0251800Y0076945D01*
X0256800Y0076945D01*
X0259300Y0079445D01*
X0259300Y0084445D01*
X0256800Y0086945D01*
X0254300Y0081945D02*
X0254300Y0071827D01*
X0251800Y0076827D02*
X0256800Y0076827D01*
X0259300Y0074327D01*
X0259300Y0069327D01*
X0256800Y0066827D01*
X0251800Y0066827D01*
X0249300Y0069327D01*
X0249300Y0074327D01*
X0251800Y0076827D01*
X0239064Y0074327D02*
X0239064Y0069327D01*
X0236564Y0066827D01*
X0231564Y0066827D01*
X0229064Y0069327D01*
X0229064Y0074327D01*
X0231564Y0076827D01*
X0236564Y0076827D01*
X0239064Y0074327D01*
X0236564Y0076945D02*
X0239064Y0079445D01*
X0239064Y0084445D01*
X0236564Y0086945D01*
X0231564Y0086945D01*
X0229064Y0084445D01*
X0229064Y0079445D01*
X0231564Y0076945D01*
X0236564Y0076945D01*
X0234064Y0081945D02*
X0234064Y0071827D01*
X0218827Y0074327D02*
X0218827Y0069327D01*
X0216327Y0066827D01*
X0211327Y0066827D01*
X0208827Y0069327D01*
X0208827Y0074327D01*
X0211327Y0076827D01*
X0216327Y0076827D01*
X0218827Y0074327D01*
X0216327Y0076945D02*
X0211327Y0076945D01*
X0208827Y0079445D01*
X0208827Y0084445D01*
X0211327Y0086945D01*
X0216327Y0086945D01*
X0218827Y0084445D01*
X0218827Y0079445D01*
X0216327Y0076945D01*
X0213827Y0081945D02*
X0213827Y0071827D01*
X0198591Y0074327D02*
X0198591Y0069327D01*
X0196091Y0066827D01*
X0191091Y0066827D01*
X0188591Y0069327D01*
X0188591Y0074327D01*
X0191091Y0076827D01*
X0196091Y0076827D01*
X0198591Y0074327D01*
X0196091Y0076945D02*
X0198591Y0079445D01*
X0198591Y0084445D01*
X0196091Y0086945D01*
X0191091Y0086945D01*
X0188591Y0084445D01*
X0188591Y0079445D01*
X0191091Y0076945D01*
X0196091Y0076945D01*
X0193591Y0081945D02*
X0193591Y0071827D01*
X0178355Y0074327D02*
X0178355Y0069327D01*
X0175855Y0066827D01*
X0170855Y0066827D01*
X0168355Y0069327D01*
X0168355Y0074327D01*
X0170855Y0076827D01*
X0175855Y0076827D01*
X0178355Y0074327D01*
X0175855Y0076945D02*
X0178355Y0079445D01*
X0178355Y0084445D01*
X0175855Y0086945D01*
X0170855Y0086945D01*
X0168355Y0084445D01*
X0168355Y0079445D01*
X0170855Y0076945D01*
X0175855Y0076945D01*
X0173355Y0081945D02*
X0173355Y0071827D01*
X0175855Y0097181D02*
X0170855Y0097181D01*
X0168355Y0099681D01*
X0168355Y0104681D01*
X0170855Y0107181D01*
X0175855Y0107181D01*
X0178355Y0104681D01*
X0178355Y0099681D01*
X0175855Y0097181D01*
X0173355Y0102181D02*
X0173355Y0112299D01*
X0168355Y0109799D02*
X0170855Y0107299D01*
X0175855Y0107299D01*
X0178355Y0109799D01*
X0178355Y0114799D01*
X0175855Y0117299D01*
X0170855Y0117299D01*
X0168355Y0114799D01*
X0168355Y0109799D01*
X0188591Y0109799D02*
X0191091Y0107299D01*
X0196091Y0107299D01*
X0198591Y0109799D01*
X0198591Y0114799D01*
X0196091Y0117299D01*
X0191091Y0117299D01*
X0188591Y0114799D01*
X0188591Y0109799D01*
X0191091Y0107181D02*
X0188591Y0104681D01*
X0188591Y0099681D01*
X0191091Y0097181D01*
X0196091Y0097181D01*
X0198591Y0099681D01*
X0198591Y0104681D01*
X0196091Y0107181D01*
X0191091Y0107181D01*
X0193591Y0102181D02*
X0193591Y0112299D01*
X0196091Y0127535D02*
X0191091Y0127535D01*
X0188591Y0130035D01*
X0188591Y0135035D01*
X0191091Y0137535D01*
X0196091Y0137535D01*
X0198591Y0135035D01*
X0198591Y0130035D01*
X0196091Y0127535D01*
X0193591Y0132535D02*
X0193591Y0142654D01*
X0196091Y0147654D02*
X0198591Y0145154D01*
X0198591Y0140154D01*
X0196091Y0137654D01*
X0191091Y0137654D01*
X0188591Y0140154D01*
X0188591Y0145154D01*
X0191091Y0147654D01*
X0196091Y0147654D01*
X0196091Y0157890D02*
X0191091Y0157890D01*
X0188591Y0160390D01*
X0188591Y0165390D01*
X0191091Y0167890D01*
X0196091Y0167890D01*
X0198591Y0165390D01*
X0198591Y0160390D01*
X0196091Y0157890D01*
X0193591Y0162890D02*
X0193591Y0173008D01*
X0191091Y0178008D02*
X0188591Y0175508D01*
X0188591Y0170508D01*
X0191091Y0168008D01*
X0196091Y0168008D01*
X0198591Y0170508D01*
X0198591Y0175508D01*
X0196091Y0178008D01*
X0191091Y0178008D01*
X0208827Y0175508D02*
X0208827Y0170508D01*
X0211327Y0168008D01*
X0216327Y0168008D01*
X0218827Y0170508D01*
X0218827Y0175508D01*
X0216327Y0178008D01*
X0211327Y0178008D01*
X0208827Y0175508D01*
X0213827Y0173008D02*
X0213827Y0162890D01*
X0208827Y0165390D02*
X0208827Y0160390D01*
X0211327Y0157890D01*
X0216327Y0157890D01*
X0218827Y0160390D01*
X0218827Y0165390D01*
X0216327Y0167890D01*
X0211327Y0167890D01*
X0208827Y0165390D01*
X0211327Y0147654D02*
X0208827Y0145154D01*
X0208827Y0140154D01*
X0211327Y0137654D01*
X0216327Y0137654D01*
X0218827Y0140154D01*
X0218827Y0145154D01*
X0216327Y0147654D01*
X0211327Y0147654D01*
X0213827Y0142654D02*
X0213827Y0132535D01*
X0208827Y0130035D02*
X0211327Y0127535D01*
X0216327Y0127535D01*
X0218827Y0130035D01*
X0218827Y0135035D01*
X0216327Y0137535D01*
X0211327Y0137535D01*
X0208827Y0135035D01*
X0208827Y0130035D01*
X0211327Y0117299D02*
X0208827Y0114799D01*
X0208827Y0109799D01*
X0211327Y0107299D01*
X0216327Y0107299D01*
X0218827Y0109799D01*
X0218827Y0114799D01*
X0216327Y0117299D01*
X0211327Y0117299D01*
X0213827Y0112299D02*
X0213827Y0102181D01*
X0208827Y0099681D02*
X0211327Y0097181D01*
X0216327Y0097181D01*
X0218827Y0099681D01*
X0218827Y0104681D01*
X0216327Y0107181D01*
X0211327Y0107181D01*
X0208827Y0104681D01*
X0208827Y0099681D01*
X0229064Y0099681D02*
X0231564Y0097181D01*
X0236564Y0097181D01*
X0239064Y0099681D01*
X0239064Y0104681D01*
X0236564Y0107181D01*
X0231564Y0107181D01*
X0229064Y0104681D01*
X0229064Y0099681D01*
X0234064Y0102181D02*
X0234064Y0112299D01*
X0239064Y0109799D02*
X0236564Y0107299D01*
X0231564Y0107299D01*
X0229064Y0109799D01*
X0229064Y0114799D01*
X0231564Y0117299D01*
X0236564Y0117299D01*
X0239064Y0114799D01*
X0239064Y0109799D01*
X0236564Y0127535D02*
X0231564Y0127535D01*
X0229064Y0130035D01*
X0229064Y0135035D01*
X0231564Y0137535D01*
X0236564Y0137535D01*
X0239064Y0135035D01*
X0239064Y0130035D01*
X0236564Y0127535D01*
X0234064Y0132535D02*
X0234064Y0142654D01*
X0236564Y0147654D02*
X0239064Y0145154D01*
X0239064Y0140154D01*
X0236564Y0137654D01*
X0231564Y0137654D01*
X0229064Y0140154D01*
X0229064Y0145154D01*
X0231564Y0147654D01*
X0236564Y0147654D01*
X0279654Y0114799D02*
X0279654Y0109799D01*
X0282154Y0107299D01*
X0287154Y0107299D01*
X0289654Y0109799D01*
X0289654Y0114799D01*
X0287154Y0117299D01*
X0282154Y0117299D01*
X0279654Y0114799D01*
X0284654Y0112299D02*
X0284654Y0102181D01*
X0279654Y0099681D02*
X0282154Y0097181D01*
X0287154Y0097181D01*
X0289654Y0099681D01*
X0289654Y0104681D01*
X0287154Y0107181D01*
X0282154Y0107181D01*
X0279654Y0104681D01*
X0279654Y0099681D01*
X0282154Y0086945D02*
X0279654Y0084445D01*
X0279654Y0079445D01*
X0282154Y0076945D01*
X0287154Y0076945D01*
X0289654Y0079445D01*
X0289654Y0084445D01*
X0287154Y0086945D01*
X0282154Y0086945D01*
X0284654Y0081945D02*
X0284654Y0071827D01*
X0279654Y0074327D02*
X0279654Y0069327D01*
X0282154Y0066827D01*
X0287154Y0066827D01*
X0289654Y0069327D01*
X0289654Y0074327D01*
X0287154Y0076827D01*
X0282154Y0076827D01*
X0279654Y0074327D01*
X0299890Y0074327D02*
X0299890Y0069327D01*
X0302390Y0066827D01*
X0307390Y0066827D01*
X0309890Y0069327D01*
X0309890Y0074327D01*
X0307390Y0076827D01*
X0302390Y0076827D01*
X0299890Y0074327D01*
X0302390Y0076945D02*
X0299890Y0079445D01*
X0299890Y0084445D01*
X0302390Y0086945D01*
X0307390Y0086945D01*
X0309890Y0084445D01*
X0309890Y0079445D01*
X0307390Y0076945D01*
X0302390Y0076945D01*
X0304890Y0081945D02*
X0304890Y0071827D01*
X0320127Y0074327D02*
X0320127Y0069327D01*
X0322627Y0066827D01*
X0327627Y0066827D01*
X0330127Y0069327D01*
X0330127Y0074327D01*
X0327627Y0076827D01*
X0322627Y0076827D01*
X0320127Y0074327D01*
X0322627Y0076945D02*
X0327627Y0076945D01*
X0330127Y0079445D01*
X0330127Y0084445D01*
X0327627Y0086945D01*
X0322627Y0086945D01*
X0320127Y0084445D01*
X0320127Y0079445D01*
X0322627Y0076945D01*
X0325127Y0081945D02*
X0325127Y0071827D01*
X0307390Y0097181D02*
X0302390Y0097181D01*
X0299890Y0099681D01*
X0299890Y0104681D01*
X0302390Y0107181D01*
X0307390Y0107181D01*
X0309890Y0104681D01*
X0309890Y0099681D01*
X0307390Y0097181D01*
X0304890Y0102181D02*
X0304890Y0112299D01*
X0299890Y0109799D02*
X0302390Y0107299D01*
X0307390Y0107299D01*
X0309890Y0109799D01*
X0309890Y0114799D01*
X0307390Y0117299D01*
X0302390Y0117299D01*
X0299890Y0114799D01*
X0299890Y0109799D01*
X0332745Y0204248D02*
X0330245Y0206748D01*
X0330245Y0211748D01*
X0332745Y0214248D01*
X0330245Y0216748D01*
X0330245Y0221748D01*
X0332745Y0224248D01*
X0330245Y0226748D01*
X0330245Y0231748D01*
X0332745Y0234248D01*
X0330245Y0236748D01*
X0330245Y0241748D01*
X0332745Y0244248D01*
X0330245Y0246748D01*
X0330245Y0251748D01*
X0332745Y0254248D01*
X0330245Y0256748D01*
X0330245Y0261748D01*
X0332745Y0264248D01*
X0330245Y0266748D01*
X0330245Y0271748D01*
X0332745Y0274248D01*
X0330245Y0276748D01*
X0330245Y0281748D01*
X0332745Y0284248D01*
X0330245Y0286748D01*
X0330245Y0291748D01*
X0332745Y0294248D01*
X0330245Y0296748D01*
X0330245Y0301748D01*
X0332745Y0304248D01*
X0330245Y0306748D01*
X0330245Y0311748D01*
X0332745Y0314248D01*
X0330245Y0316748D01*
X0330245Y0321748D01*
X0332745Y0324248D01*
X0330245Y0326748D01*
X0330245Y0331748D01*
X0332745Y0334248D01*
X0330245Y0336748D01*
X0330245Y0341748D01*
X0332745Y0344248D01*
X0330245Y0346748D01*
X0330245Y0351748D01*
X0332745Y0354248D01*
X0337745Y0354248D01*
X0340245Y0351748D01*
X0340245Y0346748D01*
X0337745Y0344248D01*
X0340245Y0341748D01*
X0340245Y0336748D01*
X0337745Y0334248D01*
X0332745Y0334248D01*
X0337745Y0334248D02*
X0340245Y0331748D01*
X0340245Y0326748D01*
X0337745Y0324248D01*
X0340245Y0321748D01*
X0340245Y0316748D01*
X0337745Y0314248D01*
X0340245Y0311748D01*
X0340245Y0306748D01*
X0337745Y0304248D01*
X0332745Y0304248D01*
X0337745Y0304248D02*
X0340245Y0301748D01*
X0340245Y0296748D01*
X0337745Y0294248D01*
X0340245Y0291748D01*
X0340245Y0286748D01*
X0337745Y0284248D01*
X0340245Y0281748D01*
X0340245Y0276748D01*
X0337745Y0274248D01*
X0332745Y0274248D01*
X0337745Y0274248D02*
X0340245Y0271748D01*
X0340245Y0266748D01*
X0337745Y0264248D01*
X0340245Y0261748D01*
X0340245Y0256748D01*
X0337745Y0254248D01*
X0340245Y0251748D01*
X0340245Y0246748D01*
X0337745Y0244248D01*
X0332745Y0244248D01*
X0337745Y0244248D02*
X0340245Y0241748D01*
X0340245Y0236748D01*
X0337745Y0234248D01*
X0340245Y0231748D01*
X0340245Y0226748D01*
X0337745Y0224248D01*
X0340245Y0221748D01*
X0340245Y0216748D01*
X0337745Y0214248D01*
X0340245Y0211748D01*
X0340245Y0206748D01*
X0337745Y0204248D01*
X0332745Y0204248D01*
X0340363Y0206748D02*
X0340363Y0211748D01*
X0342863Y0214248D01*
X0340363Y0216748D01*
X0340363Y0221748D01*
X0342863Y0224248D01*
X0340363Y0226748D01*
X0340363Y0231748D01*
X0342863Y0234248D01*
X0340363Y0236748D01*
X0340363Y0241748D01*
X0342863Y0244248D01*
X0340363Y0246748D01*
X0340363Y0251748D01*
X0342863Y0254248D01*
X0340363Y0256748D01*
X0340363Y0261748D01*
X0342863Y0264248D01*
X0340363Y0266748D01*
X0340363Y0271748D01*
X0342863Y0274248D01*
X0340363Y0276748D01*
X0340363Y0281748D01*
X0342863Y0284248D01*
X0340363Y0286748D01*
X0340363Y0291748D01*
X0342863Y0294248D01*
X0340363Y0296748D01*
X0340363Y0301748D01*
X0342863Y0304248D01*
X0340363Y0306748D01*
X0340363Y0311748D01*
X0342863Y0314248D01*
X0340363Y0316748D01*
X0340363Y0321748D01*
X0342863Y0324248D01*
X0340363Y0326748D01*
X0340363Y0331748D01*
X0342863Y0334248D01*
X0340363Y0336748D01*
X0340363Y0341748D01*
X0342863Y0344248D01*
X0340363Y0346748D01*
X0340363Y0351748D01*
X0342863Y0354248D01*
X0347863Y0354248D01*
X0350363Y0351748D01*
X0350363Y0346748D01*
X0347863Y0344248D01*
X0350363Y0341748D01*
X0350363Y0336748D01*
X0347863Y0334248D01*
X0342863Y0334248D01*
X0347863Y0334248D02*
X0350363Y0331748D01*
X0350363Y0326748D01*
X0347863Y0324248D01*
X0350363Y0321748D01*
X0350363Y0316748D01*
X0347863Y0314248D01*
X0350363Y0311748D01*
X0350363Y0306748D01*
X0347863Y0304248D01*
X0342863Y0304248D01*
X0347863Y0304248D02*
X0350363Y0301748D01*
X0350363Y0296748D01*
X0347863Y0294248D01*
X0350363Y0291748D01*
X0350363Y0286748D01*
X0347863Y0284248D01*
X0350363Y0281748D01*
X0350363Y0276748D01*
X0347863Y0274248D01*
X0342863Y0274248D01*
X0347863Y0274248D02*
X0350363Y0271748D01*
X0350363Y0266748D01*
X0347863Y0264248D01*
X0350363Y0261748D01*
X0350363Y0256748D01*
X0347863Y0254248D01*
X0350363Y0251748D01*
X0350363Y0246748D01*
X0347863Y0244248D01*
X0342863Y0244248D01*
X0347863Y0244248D02*
X0350363Y0241748D01*
X0350363Y0236748D01*
X0347863Y0234248D01*
X0350363Y0231748D01*
X0350363Y0226748D01*
X0347863Y0224248D01*
X0350363Y0221748D01*
X0350363Y0216748D01*
X0347863Y0214248D01*
X0350363Y0211748D01*
X0350363Y0206748D01*
X0347863Y0204248D01*
X0342863Y0204248D01*
X0340363Y0206748D01*
X0342863Y0214248D02*
X0347863Y0214248D01*
X0350481Y0211748D02*
X0352981Y0214248D01*
X0350481Y0216748D01*
X0350481Y0221748D01*
X0352981Y0224248D01*
X0350481Y0226748D01*
X0350481Y0231748D01*
X0352981Y0234248D01*
X0350481Y0236748D01*
X0350481Y0241748D01*
X0352981Y0244248D01*
X0350481Y0246748D01*
X0350481Y0251748D01*
X0352981Y0254248D01*
X0350481Y0256748D01*
X0350481Y0261748D01*
X0352981Y0264248D01*
X0350481Y0266748D01*
X0350481Y0271748D01*
X0352981Y0274248D01*
X0350481Y0276748D01*
X0350481Y0281748D01*
X0352981Y0284248D01*
X0350481Y0286748D01*
X0350481Y0291748D01*
X0352981Y0294248D01*
X0350481Y0296748D01*
X0350481Y0301748D01*
X0352981Y0304248D01*
X0350481Y0306748D01*
X0350481Y0311748D01*
X0352981Y0314248D01*
X0350481Y0316748D01*
X0350481Y0321748D01*
X0352981Y0324248D01*
X0350481Y0326748D01*
X0350481Y0331748D01*
X0352981Y0334248D01*
X0350481Y0336748D01*
X0350481Y0341748D01*
X0352981Y0344248D01*
X0350481Y0346748D01*
X0350481Y0351748D01*
X0352981Y0354248D01*
X0357981Y0354248D01*
X0360481Y0351748D01*
X0360481Y0346748D01*
X0357981Y0344248D01*
X0360481Y0341748D01*
X0360481Y0336748D01*
X0357981Y0334248D01*
X0352981Y0334248D01*
X0357981Y0334248D02*
X0360481Y0331748D01*
X0360481Y0326748D01*
X0357981Y0324248D01*
X0360481Y0321748D01*
X0360481Y0316748D01*
X0357981Y0314248D01*
X0360481Y0311748D01*
X0360481Y0306748D01*
X0357981Y0304248D01*
X0352981Y0304248D01*
X0357981Y0304248D02*
X0360481Y0301748D01*
X0360481Y0296748D01*
X0357981Y0294248D01*
X0360481Y0291748D01*
X0360481Y0286748D01*
X0357981Y0284248D01*
X0360481Y0281748D01*
X0360481Y0276748D01*
X0357981Y0274248D01*
X0352981Y0274248D01*
X0357981Y0274248D02*
X0360481Y0271748D01*
X0360481Y0266748D01*
X0357981Y0264248D01*
X0360481Y0261748D01*
X0360481Y0256748D01*
X0357981Y0254248D01*
X0360481Y0251748D01*
X0360481Y0246748D01*
X0357981Y0244248D01*
X0352981Y0244248D01*
X0357981Y0244248D02*
X0360481Y0241748D01*
X0360481Y0236748D01*
X0357981Y0234248D01*
X0360481Y0231748D01*
X0360481Y0226748D01*
X0357981Y0224248D01*
X0360481Y0221748D01*
X0360481Y0216748D01*
X0357981Y0214248D01*
X0360481Y0211748D01*
X0360481Y0206748D01*
X0357981Y0204248D01*
X0352981Y0204248D01*
X0350481Y0206748D01*
X0350481Y0211748D01*
X0352981Y0214248D02*
X0357981Y0214248D01*
X0357981Y0224248D02*
X0352981Y0224248D01*
X0347863Y0224248D02*
X0342863Y0224248D01*
X0337745Y0224248D02*
X0332745Y0224248D01*
X0332745Y0234248D02*
X0337745Y0234248D01*
X0342863Y0234248D02*
X0347863Y0234248D01*
X0352981Y0234248D02*
X0357981Y0234248D01*
X0357981Y0254248D02*
X0352981Y0254248D01*
X0347863Y0254248D02*
X0342863Y0254248D01*
X0337745Y0254248D02*
X0332745Y0254248D01*
X0332745Y0264248D02*
X0337745Y0264248D01*
X0342863Y0264248D02*
X0347863Y0264248D01*
X0352981Y0264248D02*
X0357981Y0264248D01*
X0357981Y0284248D02*
X0352981Y0284248D01*
X0347863Y0284248D02*
X0342863Y0284248D01*
X0337745Y0284248D02*
X0332745Y0284248D01*
X0332745Y0294248D02*
X0337745Y0294248D01*
X0342863Y0294248D02*
X0347863Y0294248D01*
X0352981Y0294248D02*
X0357981Y0294248D01*
X0357981Y0314248D02*
X0352981Y0314248D01*
X0347863Y0314248D02*
X0342863Y0314248D01*
X0337745Y0314248D02*
X0332745Y0314248D01*
X0332745Y0324248D02*
X0337745Y0324248D01*
X0342863Y0324248D02*
X0347863Y0324248D01*
X0352981Y0324248D02*
X0357981Y0324248D01*
X0357981Y0344248D02*
X0352981Y0344248D01*
X0347863Y0344248D02*
X0342863Y0344248D01*
X0337745Y0344248D02*
X0332745Y0344248D01*
X0211146Y0298332D02*
X0204740Y0298332D01*
X0204740Y0294062D02*
X0211146Y0298332D01*
X0211146Y0294062D02*
X0204740Y0294062D01*
X0205808Y0291887D02*
X0207943Y0291887D01*
X0209010Y0290819D01*
X0209010Y0287616D01*
X0209010Y0289751D02*
X0211146Y0291887D01*
X0211146Y0287616D02*
X0204740Y0287616D01*
X0204740Y0290819D01*
X0205808Y0291887D01*
X0204740Y0285441D02*
X0210078Y0285441D01*
X0211146Y0284373D01*
X0211146Y0282238D01*
X0210078Y0281171D01*
X0204740Y0281171D01*
X0204740Y0278996D02*
X0204740Y0274725D01*
X0204740Y0276860D02*
X0211146Y0276860D01*
X0188178Y0312098D02*
X0188178Y0317098D01*
X0178178Y0317098D02*
X0178178Y0312098D01*
X0148119Y0281807D02*
X0145619Y0279307D01*
X0148119Y0271689D02*
X0145619Y0269189D01*
X0148119Y0261571D02*
X0145619Y0259071D01*
X0148119Y0241335D02*
X0145619Y0238835D01*
X0148119Y0231217D02*
X0145619Y0228717D01*
X0145028Y0208362D02*
X0142528Y0205862D01*
X0142528Y0200862D01*
X0145028Y0198362D01*
X0150028Y0198362D01*
X0152528Y0200862D01*
X0155028Y0198362D01*
X0160028Y0198362D01*
X0162528Y0200862D01*
X0162528Y0205862D01*
X0160028Y0208362D01*
X0155028Y0208362D01*
X0152528Y0205862D01*
X0152528Y0200862D01*
X0152528Y0205862D02*
X0150028Y0208362D01*
X0145028Y0208362D01*
X0142528Y0205862D02*
X0140028Y0208362D01*
X0135028Y0208362D01*
X0132528Y0205862D01*
X0132528Y0200862D02*
X0135028Y0198362D01*
X0140028Y0198362D01*
X0142528Y0200862D01*
X0162528Y0200862D02*
X0165028Y0198362D01*
X0170028Y0198362D01*
X0172528Y0200862D01*
X0175028Y0198362D01*
X0180028Y0198362D01*
X0182528Y0200862D01*
X0182528Y0205862D01*
X0180028Y0208362D01*
X0175028Y0208362D01*
X0172528Y0205862D01*
X0172528Y0200862D01*
X0172528Y0205862D02*
X0170028Y0208362D01*
X0165028Y0208362D01*
X0162528Y0205862D01*
X0125264Y0117299D02*
X0120264Y0117299D01*
X0117764Y0114799D01*
X0117764Y0109799D01*
X0120264Y0107299D01*
X0125264Y0107299D01*
X0127764Y0109799D01*
X0127764Y0114799D01*
X0125264Y0117299D01*
X0122764Y0112299D02*
X0122764Y0102181D01*
X0117764Y0099681D02*
X0120264Y0097181D01*
X0125264Y0097181D01*
X0127764Y0099681D01*
X0127764Y0104681D01*
X0125264Y0107181D01*
X0120264Y0107181D01*
X0117764Y0104681D01*
X0117764Y0099681D01*
X0332745Y0214248D02*
X0337745Y0214248D01*
D13*
X0340313Y0184962D02*
X0342565Y0184962D01*
X0343315Y0184211D01*
X0343315Y0183460D01*
X0342565Y0182710D01*
X0340313Y0182710D01*
X0340313Y0180458D02*
X0340313Y0184962D01*
X0342565Y0182710D02*
X0343315Y0181959D01*
X0343315Y0181209D01*
X0342565Y0180458D01*
X0340313Y0180458D01*
X0344917Y0180458D02*
X0347919Y0180458D01*
X0346418Y0180458D02*
X0346418Y0184962D01*
X0344917Y0183460D01*
X0327683Y0180458D02*
X0324681Y0180458D01*
X0326182Y0180458D02*
X0326182Y0184962D01*
X0324681Y0183460D01*
X0323079Y0183460D02*
X0321578Y0184962D01*
X0320077Y0183460D01*
X0320077Y0180458D01*
X0320077Y0182710D02*
X0323079Y0182710D01*
X0323079Y0183460D02*
X0323079Y0180458D01*
X0321578Y0154607D02*
X0323079Y0153106D01*
X0323079Y0150104D01*
X0324681Y0150104D02*
X0327683Y0153106D01*
X0327683Y0153857D01*
X0326933Y0154607D01*
X0325431Y0154607D01*
X0324681Y0153857D01*
X0323079Y0152355D02*
X0320077Y0152355D01*
X0320077Y0153106D02*
X0321578Y0154607D01*
X0320077Y0153106D02*
X0320077Y0150104D01*
X0324681Y0150104D02*
X0327683Y0150104D01*
X0340313Y0150104D02*
X0342565Y0150104D01*
X0343315Y0150854D01*
X0343315Y0151605D01*
X0342565Y0152355D01*
X0340313Y0152355D01*
X0340313Y0150104D02*
X0340313Y0154607D01*
X0342565Y0154607D01*
X0343315Y0153857D01*
X0343315Y0153106D01*
X0342565Y0152355D01*
X0344917Y0153857D02*
X0345667Y0154607D01*
X0347169Y0154607D01*
X0347919Y0153857D01*
X0347919Y0153106D01*
X0344917Y0150104D01*
X0347919Y0150104D01*
X0347169Y0124253D02*
X0347919Y0123502D01*
X0347919Y0122752D01*
X0347169Y0122001D01*
X0347919Y0121250D01*
X0347919Y0120500D01*
X0347169Y0119749D01*
X0345667Y0119749D01*
X0344917Y0120500D01*
X0343315Y0120500D02*
X0342565Y0119749D01*
X0340313Y0119749D01*
X0340313Y0124253D01*
X0342565Y0124253D01*
X0343315Y0123502D01*
X0343315Y0122752D01*
X0342565Y0122001D01*
X0340313Y0122001D01*
X0342565Y0122001D02*
X0343315Y0121250D01*
X0343315Y0120500D01*
X0344917Y0123502D02*
X0345667Y0124253D01*
X0347169Y0124253D01*
X0347169Y0122001D02*
X0346418Y0122001D01*
X0326933Y0093899D02*
X0325431Y0093899D01*
X0324681Y0093148D01*
X0323079Y0093148D02*
X0323079Y0092397D01*
X0321578Y0090896D01*
X0321578Y0090146D02*
X0321578Y0089395D01*
X0323079Y0093148D02*
X0322329Y0093899D01*
X0320827Y0093899D01*
X0320077Y0093148D01*
X0326182Y0090896D02*
X0327683Y0092397D01*
X0327683Y0093148D01*
X0326933Y0093899D01*
X0326182Y0090146D02*
X0326182Y0089395D01*
X0270668Y0120500D02*
X0269918Y0119749D01*
X0268416Y0119749D01*
X0267666Y0120500D01*
X0266064Y0120500D02*
X0265314Y0119749D01*
X0263062Y0119749D01*
X0263062Y0124253D01*
X0265314Y0124253D01*
X0266064Y0123502D01*
X0266064Y0122752D01*
X0265314Y0122001D01*
X0263062Y0122001D01*
X0265314Y0122001D02*
X0266064Y0121250D01*
X0266064Y0120500D01*
X0267666Y0123502D02*
X0268416Y0124253D01*
X0269918Y0124253D01*
X0270668Y0123502D01*
X0270668Y0122752D01*
X0269918Y0122001D01*
X0270668Y0121250D01*
X0270668Y0120500D01*
X0269918Y0122001D02*
X0269167Y0122001D01*
X0261460Y0118999D02*
X0258458Y0118999D01*
X0256856Y0120500D02*
X0256856Y0123502D01*
X0256106Y0124253D01*
X0253854Y0124253D01*
X0253854Y0119749D01*
X0256106Y0119749D01*
X0256856Y0120500D01*
X0252252Y0119749D02*
X0252252Y0122752D01*
X0250751Y0124253D01*
X0249250Y0122752D01*
X0249250Y0119749D01*
X0249250Y0122001D02*
X0252252Y0122001D01*
X0248432Y0149604D02*
X0245429Y0149604D01*
X0248432Y0152606D01*
X0248432Y0153357D01*
X0247681Y0154107D01*
X0246180Y0154107D01*
X0245429Y0153357D01*
X0243828Y0152606D02*
X0243828Y0149604D01*
X0243828Y0151855D02*
X0240825Y0151855D01*
X0240825Y0152606D02*
X0242327Y0154107D01*
X0243828Y0152606D01*
X0240825Y0152606D02*
X0240825Y0149604D01*
X0239224Y0148853D02*
X0236222Y0148853D01*
X0234620Y0150354D02*
X0234620Y0153357D01*
X0233870Y0154107D01*
X0231618Y0154107D01*
X0231618Y0149604D01*
X0233870Y0149604D01*
X0234620Y0150354D01*
X0230016Y0149604D02*
X0230016Y0152606D01*
X0228515Y0154107D01*
X0227014Y0152606D01*
X0227014Y0149604D01*
X0227696Y0150104D02*
X0225444Y0152355D01*
X0224693Y0151605D02*
X0227696Y0154607D01*
X0227014Y0151855D02*
X0230016Y0151855D01*
X0224693Y0150104D02*
X0224693Y0154607D01*
X0223092Y0153857D02*
X0223092Y0153106D01*
X0222341Y0152355D01*
X0220089Y0152355D01*
X0220089Y0150104D02*
X0222341Y0150104D01*
X0223092Y0150854D01*
X0223092Y0151605D01*
X0222341Y0152355D01*
X0223092Y0153857D02*
X0222341Y0154607D01*
X0220089Y0154607D01*
X0220089Y0150104D01*
X0218488Y0149353D02*
X0215485Y0149353D01*
X0213884Y0150104D02*
X0210881Y0150104D01*
X0210881Y0154607D01*
X0209280Y0154607D02*
X0209280Y0150104D01*
X0209280Y0152355D02*
X0206277Y0152355D01*
X0206277Y0150104D02*
X0206277Y0154607D01*
X0200458Y0154107D02*
X0200458Y0149604D01*
X0198957Y0149604D02*
X0201960Y0149604D01*
X0198957Y0152606D02*
X0200458Y0154107D01*
X0197356Y0153357D02*
X0197356Y0152606D01*
X0195854Y0151105D01*
X0195854Y0150354D02*
X0195854Y0149604D01*
X0192752Y0150354D02*
X0192752Y0153357D01*
X0192001Y0154107D01*
X0189749Y0154107D01*
X0189749Y0149604D01*
X0192001Y0149604D01*
X0192752Y0150354D01*
X0194353Y0153357D02*
X0195104Y0154107D01*
X0196605Y0154107D01*
X0197356Y0153357D01*
X0188148Y0154107D02*
X0185145Y0154107D01*
X0185145Y0149604D01*
X0188148Y0149604D01*
X0186646Y0151855D02*
X0185145Y0151855D01*
X0183544Y0149604D02*
X0180541Y0149604D01*
X0180541Y0154107D01*
X0184983Y0180458D02*
X0184983Y0181209D01*
X0184983Y0181959D02*
X0186485Y0183460D01*
X0186485Y0184211D01*
X0185734Y0184962D01*
X0184233Y0184962D01*
X0183482Y0184211D01*
X0188086Y0184211D02*
X0188837Y0184962D01*
X0190338Y0184962D01*
X0191089Y0184211D01*
X0191089Y0183460D01*
X0189587Y0181959D01*
X0189587Y0181209D02*
X0189587Y0180458D01*
X0201218Y0184962D02*
X0204221Y0184962D01*
X0202720Y0184962D02*
X0202720Y0180458D01*
X0205822Y0181209D02*
X0205822Y0184962D01*
X0208825Y0184962D02*
X0208825Y0181209D01*
X0208074Y0180458D01*
X0206573Y0180458D01*
X0205822Y0181209D01*
X0210426Y0181959D02*
X0212678Y0181959D01*
X0213429Y0182710D01*
X0213429Y0184211D01*
X0212678Y0184962D01*
X0210426Y0184962D01*
X0210426Y0180458D01*
X0211928Y0181959D02*
X0213429Y0180458D01*
X0215030Y0180458D02*
X0215030Y0184962D01*
X0218033Y0180458D01*
X0218033Y0184962D01*
X0219634Y0179707D02*
X0222637Y0179707D01*
X0224238Y0181209D02*
X0224989Y0180458D01*
X0226490Y0180458D01*
X0227241Y0181209D01*
X0227241Y0181959D01*
X0226490Y0182710D01*
X0224989Y0182710D01*
X0224238Y0183460D01*
X0224238Y0184211D01*
X0224989Y0184962D01*
X0226490Y0184962D01*
X0227241Y0184211D01*
X0229014Y0183460D02*
X0230515Y0184962D01*
X0232016Y0183460D01*
X0232016Y0180458D01*
X0233618Y0180458D02*
X0235870Y0180458D01*
X0236620Y0181209D01*
X0236620Y0184211D01*
X0235870Y0184962D01*
X0233618Y0184962D01*
X0233618Y0180458D01*
X0232016Y0182710D02*
X0229014Y0182710D01*
X0229014Y0183460D02*
X0229014Y0180458D01*
X0238222Y0179707D02*
X0241224Y0179707D01*
X0242825Y0180458D02*
X0242825Y0183460D01*
X0244327Y0184962D01*
X0245828Y0183460D01*
X0245828Y0180458D01*
X0247429Y0180458D02*
X0250432Y0180458D01*
X0249250Y0180458D02*
X0249250Y0183460D01*
X0250751Y0184962D01*
X0252252Y0183460D01*
X0252252Y0180458D01*
X0253854Y0180458D02*
X0253854Y0184962D01*
X0256106Y0184962D01*
X0256856Y0184211D01*
X0256856Y0181209D01*
X0256106Y0180458D01*
X0253854Y0180458D01*
X0252252Y0182710D02*
X0249250Y0182710D01*
X0247429Y0183460D02*
X0248931Y0184962D01*
X0248931Y0180458D01*
X0245828Y0182710D02*
X0242825Y0182710D01*
X0258458Y0179707D02*
X0261460Y0179707D01*
X0263062Y0180458D02*
X0265314Y0180458D01*
X0266064Y0181209D01*
X0266064Y0181959D01*
X0265314Y0182710D01*
X0263062Y0182710D01*
X0265314Y0182710D02*
X0266064Y0183460D01*
X0266064Y0184211D01*
X0265314Y0184962D01*
X0263062Y0184962D01*
X0263062Y0180458D01*
X0267666Y0180458D02*
X0270668Y0180458D01*
X0269167Y0180458D02*
X0269167Y0184962D01*
X0267666Y0183460D01*
X0268416Y0154607D02*
X0267666Y0153857D01*
X0268416Y0154607D02*
X0269918Y0154607D01*
X0270668Y0153857D01*
X0270668Y0153106D01*
X0267666Y0150104D01*
X0270668Y0150104D01*
X0266064Y0150854D02*
X0265314Y0150104D01*
X0263062Y0150104D01*
X0263062Y0154607D01*
X0265314Y0154607D01*
X0266064Y0153857D01*
X0266064Y0153106D01*
X0265314Y0152355D01*
X0263062Y0152355D01*
X0265314Y0152355D02*
X0266064Y0151605D01*
X0266064Y0150854D01*
X0261460Y0149353D02*
X0258458Y0149353D01*
X0256856Y0150854D02*
X0256856Y0153857D01*
X0256106Y0154607D01*
X0253854Y0154607D01*
X0253854Y0150104D01*
X0256106Y0150104D01*
X0256856Y0150854D01*
X0252252Y0150104D02*
X0252252Y0153106D01*
X0250751Y0154607D01*
X0249250Y0153106D01*
X0249250Y0150104D01*
X0249250Y0152355D02*
X0252252Y0152355D01*
X0203960Y0124002D02*
X0203209Y0124753D01*
X0201708Y0124753D01*
X0200957Y0124002D01*
X0199356Y0124002D02*
X0199356Y0123252D01*
X0197854Y0121750D01*
X0197854Y0121000D02*
X0197854Y0120249D01*
X0200957Y0120249D02*
X0203960Y0123252D01*
X0203960Y0124002D01*
X0203960Y0120249D02*
X0200957Y0120249D01*
X0199356Y0124002D02*
X0198605Y0124753D01*
X0197104Y0124753D01*
X0196353Y0124002D01*
X0194752Y0124002D02*
X0194001Y0124753D01*
X0191749Y0124753D01*
X0191749Y0120249D01*
X0194001Y0120249D01*
X0194752Y0121000D01*
X0194752Y0124002D01*
X0190148Y0124753D02*
X0187145Y0124753D01*
X0187145Y0120249D01*
X0190148Y0120249D01*
X0188646Y0122501D02*
X0187145Y0122501D01*
X0185544Y0120249D02*
X0182541Y0120249D01*
X0182541Y0124753D01*
X0182541Y0093399D02*
X0182541Y0088895D01*
X0185544Y0088895D01*
X0187145Y0088895D02*
X0187145Y0093399D01*
X0190148Y0093399D01*
X0191749Y0093399D02*
X0194001Y0093399D01*
X0194752Y0092648D01*
X0194752Y0089646D01*
X0194001Y0088895D01*
X0191749Y0088895D01*
X0191749Y0093399D01*
X0188646Y0091147D02*
X0187145Y0091147D01*
X0187145Y0088895D02*
X0190148Y0088895D01*
X0196353Y0092648D02*
X0197104Y0093399D01*
X0198605Y0093399D01*
X0199356Y0092648D01*
X0199356Y0091897D01*
X0197854Y0090396D01*
X0197854Y0089646D02*
X0197854Y0088895D01*
X0200957Y0089646D02*
X0201708Y0088895D01*
X0203209Y0088895D01*
X0203960Y0089646D01*
X0203960Y0090396D01*
X0203209Y0091147D01*
X0202458Y0091147D01*
X0203209Y0091147D02*
X0203960Y0091897D01*
X0203960Y0092648D01*
X0203209Y0093399D01*
X0201708Y0093399D01*
X0200957Y0092648D01*
X0193591Y0223598D02*
X0173355Y0223598D01*
X0163237Y0223598D02*
X0143001Y0223598D01*
X0132883Y0223598D02*
X0112646Y0223598D01*
X0102528Y0223598D02*
X0082292Y0223598D01*
X0072174Y0223598D02*
X0051938Y0223598D01*
X0051938Y0233717D02*
X0072174Y0233717D01*
X0072174Y0243835D02*
X0051938Y0243835D01*
X0051938Y0253953D02*
X0072174Y0253953D01*
X0072174Y0264071D02*
X0051938Y0264071D01*
X0051938Y0274189D02*
X0072174Y0274189D01*
X0082292Y0274189D02*
X0102528Y0274189D01*
X0102528Y0284307D02*
X0082292Y0284307D01*
X0072174Y0284307D02*
X0051938Y0284307D01*
X0051938Y0294425D02*
X0072174Y0294425D01*
X0072174Y0304543D02*
X0051938Y0304543D01*
X0051938Y0314661D02*
X0072174Y0314661D01*
X0082292Y0314661D02*
X0102528Y0314661D01*
X0102528Y0304543D02*
X0082292Y0304543D01*
X0082292Y0294425D02*
X0102528Y0294425D01*
X0112646Y0294425D02*
X0135412Y0294425D01*
X0143001Y0294425D02*
X0163237Y0294425D01*
X0163237Y0304543D02*
X0143001Y0304543D01*
X0132883Y0304543D02*
X0112646Y0304543D01*
X0112646Y0314661D02*
X0132883Y0314661D01*
X0143001Y0314661D02*
X0163237Y0314661D01*
X0173355Y0314661D02*
X0193591Y0314661D01*
X0193591Y0304543D02*
X0173355Y0304543D01*
X0173355Y0294425D02*
X0193591Y0294425D01*
X0193591Y0284307D02*
X0173355Y0284307D01*
X0173355Y0274189D02*
X0193591Y0274189D01*
X0193591Y0264071D02*
X0173355Y0264071D01*
X0173355Y0253953D02*
X0193591Y0253953D01*
X0193591Y0243835D02*
X0173355Y0243835D01*
X0163237Y0243835D02*
X0143001Y0243835D01*
X0143001Y0253953D02*
X0163237Y0253953D01*
X0163237Y0264071D02*
X0143001Y0264071D01*
X0135412Y0253953D02*
X0112646Y0253953D01*
X0112646Y0264071D02*
X0132883Y0264071D01*
X0132883Y0274189D02*
X0112646Y0274189D01*
X0112646Y0284307D02*
X0132883Y0284307D01*
X0143001Y0284307D02*
X0163237Y0284307D01*
X0163237Y0274189D02*
X0143001Y0274189D01*
X0132883Y0243835D02*
X0112646Y0243835D01*
X0102528Y0243835D02*
X0082292Y0243835D01*
X0082292Y0253953D02*
X0102528Y0253953D01*
X0102528Y0264071D02*
X0082292Y0264071D01*
X0082292Y0233717D02*
X0102528Y0233717D01*
X0112646Y0233717D02*
X0132883Y0233717D01*
X0143001Y0233717D02*
X0163237Y0233717D01*
X0173355Y0233717D02*
X0193591Y0233717D01*
X0261746Y0337884D02*
X0261746Y0339385D01*
X0261746Y0338634D02*
X0265499Y0338634D01*
X0266250Y0337884D01*
X0266250Y0337133D01*
X0265499Y0336382D01*
X0264749Y0340986D02*
X0264749Y0343238D01*
X0263998Y0343989D01*
X0262497Y0343989D01*
X0261746Y0343238D01*
X0261746Y0340986D01*
X0266250Y0340986D01*
X0266250Y0345590D02*
X0266250Y0348593D01*
X0266250Y0347091D02*
X0261746Y0347091D01*
X0263247Y0345590D01*
X0262497Y0350194D02*
X0261746Y0350945D01*
X0261746Y0352446D01*
X0262497Y0353197D01*
X0263247Y0353197D01*
X0266250Y0350194D01*
X0266250Y0353197D01*
X0271864Y0351695D02*
X0276368Y0351695D01*
X0276368Y0350194D02*
X0276368Y0353197D01*
X0273365Y0350194D02*
X0271864Y0351695D01*
X0271864Y0347091D02*
X0276368Y0347091D01*
X0276368Y0345590D02*
X0276368Y0348593D01*
X0273365Y0345590D02*
X0271864Y0347091D01*
X0272615Y0343989D02*
X0274116Y0343989D01*
X0274867Y0343238D01*
X0274867Y0340986D01*
X0276368Y0340986D02*
X0271864Y0340986D01*
X0271864Y0343238D01*
X0272615Y0343989D01*
X0271864Y0339385D02*
X0271864Y0337884D01*
X0271864Y0338634D02*
X0275617Y0338634D01*
X0276368Y0337884D01*
X0276368Y0337133D01*
X0275617Y0336382D01*
X0281982Y0337884D02*
X0281982Y0339385D01*
X0281982Y0338634D02*
X0285735Y0338634D01*
X0286486Y0337884D01*
X0286486Y0337133D01*
X0285735Y0336382D01*
X0284985Y0340986D02*
X0284985Y0343238D01*
X0284234Y0343989D01*
X0282733Y0343989D01*
X0281982Y0343238D01*
X0281982Y0340986D01*
X0286486Y0340986D01*
X0286486Y0345590D02*
X0286486Y0348593D01*
X0286486Y0347091D02*
X0281982Y0347091D01*
X0283484Y0345590D01*
X0282733Y0350194D02*
X0281982Y0350945D01*
X0281982Y0352446D01*
X0282733Y0353197D01*
X0285735Y0350194D01*
X0286486Y0350945D01*
X0286486Y0352446D01*
X0285735Y0353197D01*
X0282733Y0353197D01*
X0282733Y0350194D02*
X0285735Y0350194D01*
X0342691Y0353197D02*
X0343442Y0351695D01*
X0344943Y0350194D01*
X0344943Y0352446D01*
X0345694Y0353197D01*
X0346444Y0353197D01*
X0347195Y0352446D01*
X0347195Y0350945D01*
X0346444Y0350194D01*
X0344943Y0350194D01*
X0347195Y0348593D02*
X0347195Y0345590D01*
X0347195Y0347091D02*
X0342691Y0347091D01*
X0344192Y0345590D01*
X0343442Y0343989D02*
X0344943Y0343989D01*
X0345694Y0343238D01*
X0345694Y0340986D01*
X0347195Y0340986D02*
X0342691Y0340986D01*
X0342691Y0343238D01*
X0343442Y0343989D01*
X0342691Y0339385D02*
X0342691Y0337884D01*
X0342691Y0338634D02*
X0346444Y0338634D01*
X0347195Y0337884D01*
X0347195Y0337133D01*
X0346444Y0336382D01*
X0352809Y0337884D02*
X0352809Y0339385D01*
X0352809Y0338634D02*
X0356562Y0338634D01*
X0357313Y0337884D01*
X0357313Y0337133D01*
X0356562Y0336382D01*
X0355812Y0340986D02*
X0355812Y0343238D01*
X0355061Y0343989D01*
X0353560Y0343989D01*
X0352809Y0343238D01*
X0352809Y0340986D01*
X0357313Y0340986D01*
X0362927Y0340986D02*
X0362927Y0343238D01*
X0363678Y0343989D01*
X0365179Y0343989D01*
X0365930Y0343238D01*
X0365930Y0340986D01*
X0367431Y0340986D02*
X0362927Y0340986D01*
X0362927Y0339385D02*
X0362927Y0337884D01*
X0362927Y0338634D02*
X0366680Y0338634D01*
X0367431Y0337884D01*
X0367431Y0337133D01*
X0366680Y0336382D01*
X0367431Y0345590D02*
X0367431Y0348593D01*
X0367431Y0347091D02*
X0362927Y0347091D01*
X0364428Y0345590D01*
X0365179Y0350194D02*
X0362927Y0352446D01*
X0367431Y0352446D01*
X0365179Y0353197D02*
X0365179Y0350194D01*
X0357313Y0350945D02*
X0356562Y0350194D01*
X0357313Y0350945D02*
X0357313Y0352446D01*
X0356562Y0353197D01*
X0355061Y0353197D01*
X0354310Y0352446D01*
X0354310Y0351695D01*
X0355061Y0350194D01*
X0352809Y0350194D01*
X0352809Y0353197D01*
X0352809Y0347091D02*
X0357313Y0347091D01*
X0357313Y0345590D02*
X0357313Y0348593D01*
X0354310Y0345590D02*
X0352809Y0347091D01*
X0041820Y0193244D02*
X0041820Y0167949D01*
X0031701Y0167949D01*
X0030532Y0169119D02*
X0029031Y0167618D01*
X0029031Y0166868D02*
X0029031Y0166117D01*
X0030532Y0169119D02*
X0030532Y0169870D01*
X0029781Y0170621D01*
X0028280Y0170621D01*
X0027529Y0169870D01*
X0025928Y0169870D02*
X0025928Y0169119D01*
X0024427Y0167618D01*
X0024427Y0166868D02*
X0024427Y0166117D01*
X0025928Y0169870D02*
X0025177Y0170621D01*
X0023676Y0170621D01*
X0022926Y0169870D01*
X0016524Y0167949D02*
X0006406Y0167949D01*
X0006406Y0193244D01*
X0041820Y0193244D01*
X0040692Y0018849D02*
X0041442Y0018098D01*
X0041442Y0016597D01*
X0040692Y0015847D01*
X0038440Y0015847D01*
X0038440Y0014345D02*
X0038440Y0018849D01*
X0040692Y0018849D01*
X0043044Y0016597D02*
X0045296Y0016597D01*
X0046046Y0015847D01*
X0046046Y0015096D01*
X0045296Y0014345D01*
X0043794Y0014345D01*
X0043044Y0015096D01*
X0043044Y0016597D01*
X0044545Y0018098D01*
X0046046Y0018849D01*
X0047648Y0018098D02*
X0048398Y0018849D01*
X0049899Y0018849D01*
X0050650Y0018098D01*
X0050650Y0017348D01*
X0049899Y0016597D01*
X0050650Y0015847D01*
X0050650Y0015096D01*
X0049899Y0014345D01*
X0048398Y0014345D01*
X0047648Y0015096D01*
X0049149Y0016597D02*
X0049899Y0016597D01*
X0036838Y0018849D02*
X0035337Y0018849D01*
X0036088Y0018849D02*
X0036088Y0015096D01*
X0035337Y0014345D01*
X0034586Y0014345D01*
X0033836Y0015096D01*
D14*
X0046642Y0087122D02*
X0006642Y0087122D01*
X0006642Y0107122D01*
X0046642Y0107122D01*
X0046642Y0087122D01*
X0046642Y0142772D02*
X0006642Y0142772D01*
X0006642Y0162772D01*
X0046642Y0162772D01*
X0046642Y0142772D01*
X0213946Y0223835D02*
X0233946Y0223835D01*
X0233946Y0263835D01*
X0213946Y0263835D01*
X0213946Y0223835D01*
X0213946Y0274425D02*
X0233946Y0274425D01*
X0233946Y0314425D01*
X0213946Y0314425D01*
X0213946Y0274425D01*
D15*
X0031111Y0255429D03*
X0031111Y0252476D03*
X0031111Y0240252D03*
X0031111Y0237299D03*
X0015934Y0237299D03*
X0015934Y0240252D03*
X0015934Y0252476D03*
X0015934Y0255429D03*
X0015934Y0287890D03*
X0015934Y0290843D03*
X0015934Y0298008D03*
X0015934Y0300961D03*
X0015934Y0308126D03*
X0015934Y0311079D03*
X0015934Y0318244D03*
X0015934Y0321197D03*
D16*
X0015934Y0319720D03*
X0015934Y0309602D03*
X0015934Y0299484D03*
X0015934Y0289366D03*
X0015934Y0253953D03*
X0031111Y0253953D03*
X0031111Y0238776D03*
X0015934Y0238776D03*
D17*
X0017218Y0242584D02*
X0019153Y0242584D01*
X0019775Y0243068D02*
X0021227Y0243068D01*
X0021710Y0243552D01*
X0021710Y0244036D01*
X0021227Y0244519D01*
X0019775Y0244519D01*
X0020165Y0245003D02*
X0021132Y0245971D01*
X0021132Y0243068D01*
X0020165Y0243068D02*
X0022100Y0243068D01*
X0022722Y0243552D02*
X0023206Y0243068D01*
X0024173Y0243068D01*
X0024657Y0243552D01*
X0024657Y0245971D01*
X0025668Y0245487D02*
X0025668Y0243552D01*
X0026152Y0243068D01*
X0027120Y0243068D01*
X0027603Y0243552D01*
X0028615Y0244036D02*
X0030550Y0245971D01*
X0028615Y0245971D02*
X0028615Y0243068D01*
X0029099Y0244519D02*
X0030550Y0243068D01*
X0031561Y0242584D02*
X0033496Y0242584D01*
X0034508Y0243068D02*
X0036443Y0245003D01*
X0036443Y0245487D01*
X0035959Y0245971D01*
X0034992Y0245971D01*
X0034508Y0245487D01*
X0034508Y0243068D02*
X0036443Y0243068D01*
X0037455Y0242584D02*
X0039389Y0242584D01*
X0040401Y0243068D02*
X0042336Y0245003D01*
X0042336Y0245487D01*
X0041852Y0245971D01*
X0040885Y0245971D01*
X0040401Y0245487D01*
X0040401Y0243068D02*
X0042336Y0243068D01*
X0027603Y0245487D02*
X0027120Y0245971D01*
X0026152Y0245971D01*
X0025668Y0245487D01*
X0022722Y0245971D02*
X0022722Y0243552D01*
X0021710Y0245003D02*
X0021227Y0244519D01*
X0021710Y0245003D02*
X0021710Y0245487D01*
X0021227Y0245971D01*
X0019775Y0245971D01*
X0019775Y0243068D01*
X0016207Y0243068D02*
X0014272Y0243068D01*
X0016207Y0245003D01*
X0016207Y0245487D01*
X0015723Y0245971D01*
X0014756Y0245971D01*
X0014272Y0245487D01*
X0013260Y0245971D02*
X0011325Y0244036D01*
X0011809Y0244519D02*
X0013260Y0243068D01*
X0011325Y0243068D02*
X0011325Y0245971D01*
X0010314Y0245487D02*
X0009830Y0245971D01*
X0008862Y0245971D01*
X0008379Y0245487D01*
X0008379Y0243552D01*
X0008862Y0243068D01*
X0009830Y0243068D01*
X0010314Y0243552D01*
X0007367Y0243552D02*
X0007367Y0245971D01*
X0005432Y0245971D02*
X0005432Y0243552D01*
X0005916Y0243068D01*
X0006883Y0243068D01*
X0007367Y0243552D01*
X0004421Y0243552D02*
X0003937Y0243068D01*
X0002486Y0243068D01*
X0002486Y0245971D01*
X0003937Y0245971D01*
X0004421Y0245487D01*
X0004421Y0245003D01*
X0003937Y0244519D01*
X0002486Y0244519D01*
X0003937Y0244519D02*
X0004421Y0244036D01*
X0004421Y0243552D01*
X0003937Y0258245D02*
X0002486Y0258245D01*
X0002486Y0261148D01*
X0003937Y0261148D01*
X0004421Y0260664D01*
X0004421Y0260180D01*
X0003937Y0259697D01*
X0002486Y0259697D01*
X0003937Y0259697D02*
X0004421Y0259213D01*
X0004421Y0258729D01*
X0003937Y0258245D01*
X0005432Y0258729D02*
X0005916Y0258245D01*
X0006883Y0258245D01*
X0007367Y0258729D01*
X0007367Y0261148D01*
X0008379Y0260664D02*
X0008379Y0258729D01*
X0008862Y0258245D01*
X0009830Y0258245D01*
X0010314Y0258729D01*
X0011325Y0258245D02*
X0011325Y0261148D01*
X0010314Y0260664D02*
X0009830Y0261148D01*
X0008862Y0261148D01*
X0008379Y0260664D01*
X0005432Y0261148D02*
X0005432Y0258729D01*
X0011325Y0259213D02*
X0013260Y0261148D01*
X0014272Y0260180D02*
X0015239Y0261148D01*
X0015239Y0258245D01*
X0014272Y0258245D02*
X0016207Y0258245D01*
X0017218Y0257762D02*
X0019153Y0257762D01*
X0020165Y0258245D02*
X0022100Y0258245D01*
X0022722Y0258245D02*
X0022722Y0261148D01*
X0024173Y0261148D01*
X0024657Y0260664D01*
X0024657Y0260180D01*
X0024173Y0259697D01*
X0022722Y0259697D01*
X0024173Y0259697D02*
X0024657Y0259213D01*
X0024657Y0258729D01*
X0024173Y0258245D01*
X0022722Y0258245D01*
X0021132Y0258245D02*
X0021132Y0261148D01*
X0020165Y0260180D01*
X0025668Y0261148D02*
X0025668Y0258729D01*
X0026152Y0258245D01*
X0027120Y0258245D01*
X0027603Y0258729D01*
X0027603Y0261148D01*
X0028615Y0260664D02*
X0029099Y0261148D01*
X0030066Y0261148D01*
X0030550Y0260664D01*
X0031561Y0261148D02*
X0031561Y0258245D01*
X0031561Y0259213D02*
X0033496Y0261148D01*
X0034508Y0260180D02*
X0035475Y0261148D01*
X0035475Y0258245D01*
X0034508Y0258245D02*
X0036443Y0258245D01*
X0037455Y0257762D02*
X0039389Y0257762D01*
X0040401Y0258245D02*
X0042336Y0260180D01*
X0042336Y0260664D01*
X0041852Y0261148D01*
X0040885Y0261148D01*
X0040401Y0260664D01*
X0040401Y0258245D02*
X0042336Y0258245D01*
X0033496Y0258245D02*
X0032045Y0259697D01*
X0030550Y0258729D02*
X0030066Y0258245D01*
X0029099Y0258245D01*
X0028615Y0258729D01*
X0028615Y0260664D01*
X0013260Y0258245D02*
X0011809Y0259697D01*
X0011613Y0283332D02*
X0013548Y0283332D01*
X0014560Y0283816D02*
X0016011Y0283816D01*
X0016495Y0284300D01*
X0016495Y0284784D01*
X0016011Y0285267D01*
X0014560Y0285267D01*
X0014560Y0283816D02*
X0014560Y0286719D01*
X0016011Y0286719D01*
X0016495Y0286235D01*
X0016495Y0285751D01*
X0016011Y0285267D01*
X0017506Y0284300D02*
X0017990Y0283816D01*
X0018958Y0283816D01*
X0019441Y0284300D01*
X0019441Y0286235D01*
X0018958Y0286719D01*
X0017990Y0286719D01*
X0017506Y0286235D01*
X0017506Y0284300D01*
X0020453Y0284300D02*
X0020937Y0283816D01*
X0021904Y0283816D01*
X0022388Y0284300D01*
X0022388Y0286235D01*
X0021904Y0286719D01*
X0020937Y0286719D01*
X0020453Y0286235D01*
X0020453Y0284300D01*
X0023399Y0284300D02*
X0023883Y0283816D01*
X0024851Y0283816D01*
X0025334Y0284300D01*
X0025334Y0284784D01*
X0024851Y0285267D01*
X0023883Y0285267D01*
X0023399Y0285751D01*
X0023399Y0286235D01*
X0023883Y0286719D01*
X0024851Y0286719D01*
X0025334Y0286235D01*
X0026346Y0286719D02*
X0028281Y0286719D01*
X0027313Y0286719D02*
X0027313Y0283816D01*
X0023222Y0293934D02*
X0021287Y0293934D01*
X0022254Y0293934D02*
X0022254Y0296837D01*
X0021287Y0295869D01*
X0020275Y0295385D02*
X0019308Y0295385D01*
X0020275Y0295385D02*
X0020275Y0294418D01*
X0019792Y0293934D01*
X0018824Y0293934D01*
X0018340Y0294418D01*
X0018340Y0296353D01*
X0018824Y0296837D01*
X0019792Y0296837D01*
X0020275Y0296353D01*
X0017343Y0296837D02*
X0016376Y0296837D01*
X0016860Y0296837D02*
X0016860Y0293934D01*
X0017343Y0293934D02*
X0016376Y0293934D01*
X0015364Y0293451D02*
X0013429Y0293451D01*
X0012418Y0294418D02*
X0011934Y0293934D01*
X0010483Y0293934D01*
X0010483Y0296837D01*
X0011934Y0296837D01*
X0012418Y0296353D01*
X0012418Y0294418D01*
X0009471Y0293934D02*
X0007536Y0293934D01*
X0007536Y0296837D01*
X0009471Y0296837D01*
X0008504Y0295385D02*
X0007536Y0295385D01*
X0006525Y0293934D02*
X0004590Y0293934D01*
X0004590Y0296837D01*
X0005543Y0304052D02*
X0003608Y0304052D01*
X0003608Y0306955D01*
X0006554Y0306955D02*
X0006554Y0304052D01*
X0008489Y0304052D01*
X0009501Y0304052D02*
X0010952Y0304052D01*
X0011436Y0304536D01*
X0011436Y0306471D01*
X0010952Y0306955D01*
X0009501Y0306955D01*
X0009501Y0304052D01*
X0007522Y0305504D02*
X0006554Y0305504D01*
X0006554Y0306955D02*
X0008489Y0306955D01*
X0012447Y0303569D02*
X0014382Y0303569D01*
X0015394Y0304536D02*
X0015878Y0304052D01*
X0016845Y0304052D01*
X0017329Y0304536D01*
X0017329Y0305504D01*
X0016845Y0305987D01*
X0016361Y0305987D01*
X0015394Y0305504D01*
X0015394Y0306955D01*
X0017329Y0306955D01*
X0018340Y0306955D02*
X0018340Y0305020D01*
X0019308Y0304052D01*
X0020275Y0305020D01*
X0020275Y0306955D01*
X0021287Y0306955D02*
X0022738Y0306955D01*
X0023222Y0306471D01*
X0023222Y0305987D01*
X0022738Y0305504D01*
X0021287Y0305504D01*
X0021287Y0306955D02*
X0021287Y0304052D01*
X0022738Y0304052D01*
X0023222Y0304536D01*
X0023222Y0305020D01*
X0022738Y0305504D01*
X0023222Y0314170D02*
X0023222Y0316105D01*
X0022254Y0317073D01*
X0021287Y0316105D01*
X0021287Y0314170D01*
X0020275Y0315138D02*
X0020275Y0317073D01*
X0021287Y0315622D02*
X0023222Y0315622D01*
X0020275Y0315138D02*
X0019308Y0314170D01*
X0018340Y0315138D01*
X0018340Y0317073D01*
X0017329Y0317073D02*
X0015394Y0317073D01*
X0015394Y0315622D01*
X0016361Y0316105D01*
X0016845Y0316105D01*
X0017329Y0315622D01*
X0017329Y0314654D01*
X0016845Y0314170D01*
X0015878Y0314170D01*
X0015394Y0314654D01*
X0014382Y0313687D02*
X0012447Y0313687D01*
X0011436Y0314654D02*
X0011436Y0316589D01*
X0010952Y0317073D01*
X0009501Y0317073D01*
X0009501Y0314170D01*
X0010952Y0314170D01*
X0011436Y0314654D01*
X0008489Y0314170D02*
X0006554Y0314170D01*
X0006554Y0317073D01*
X0008489Y0317073D01*
X0007522Y0315622D02*
X0006554Y0315622D01*
X0005543Y0314170D02*
X0003608Y0314170D01*
X0003608Y0317073D01*
X0002774Y0286719D02*
X0002774Y0283816D01*
X0004709Y0283816D01*
X0005720Y0283816D02*
X0007655Y0283816D01*
X0008667Y0283816D02*
X0010118Y0283816D01*
X0010602Y0284300D01*
X0010602Y0286235D01*
X0010118Y0286719D01*
X0008667Y0286719D01*
X0008667Y0283816D01*
X0006688Y0285267D02*
X0005720Y0285267D01*
X0005720Y0283816D02*
X0005720Y0286719D01*
X0007655Y0286719D01*
X0195540Y0326016D02*
X0195540Y0329719D01*
X0197392Y0329719D01*
X0198009Y0329102D01*
X0198009Y0327868D01*
X0197392Y0327251D01*
X0195540Y0327251D01*
X0196775Y0327251D02*
X0198009Y0326016D01*
X0199224Y0326016D02*
X0201692Y0326016D01*
X0202907Y0326016D02*
X0202907Y0326633D01*
X0205376Y0329102D01*
X0205376Y0329719D01*
X0202907Y0329719D01*
X0200458Y0329719D02*
X0200458Y0326016D01*
X0199224Y0328485D02*
X0200458Y0329719D01*
X0208115Y0324250D02*
X0208599Y0324734D01*
X0209566Y0324734D01*
X0210050Y0324250D01*
X0210050Y0323766D01*
X0208115Y0321831D01*
X0210050Y0321831D01*
X0211062Y0322315D02*
X0211546Y0321831D01*
X0212513Y0321831D01*
X0212997Y0322315D01*
X0212997Y0322799D01*
X0212513Y0323282D01*
X0211546Y0323282D01*
X0211062Y0323766D01*
X0211062Y0324250D01*
X0211546Y0324734D01*
X0212513Y0324734D01*
X0212997Y0324250D01*
X0214976Y0324734D02*
X0215943Y0324734D01*
X0215460Y0324734D02*
X0215460Y0322315D01*
X0214976Y0321831D01*
X0214492Y0321831D01*
X0214008Y0322315D01*
X0216955Y0322315D02*
X0217439Y0321831D01*
X0218406Y0321831D01*
X0218890Y0322315D01*
X0218890Y0322799D01*
X0218406Y0323282D01*
X0216955Y0323282D01*
X0216955Y0322315D01*
X0216955Y0323282D02*
X0217922Y0324250D01*
X0218890Y0324734D01*
X0219901Y0324250D02*
X0220385Y0324734D01*
X0221353Y0324734D01*
X0221836Y0324250D01*
X0221836Y0323766D01*
X0219901Y0321831D01*
X0221836Y0321831D01*
X0222848Y0322315D02*
X0223332Y0321831D01*
X0224299Y0321831D01*
X0224783Y0322315D01*
X0224783Y0322799D01*
X0224299Y0323282D01*
X0222848Y0323282D01*
X0222848Y0322315D01*
X0222848Y0323282D02*
X0223815Y0324250D01*
X0224783Y0324734D01*
X0232374Y0320132D02*
X0232374Y0317230D01*
X0232374Y0318197D02*
X0233825Y0318197D01*
X0234309Y0318681D01*
X0234309Y0319648D01*
X0233825Y0320132D01*
X0232374Y0320132D01*
X0233342Y0318197D02*
X0234309Y0317230D01*
X0235321Y0317230D02*
X0237256Y0317230D01*
X0236288Y0317230D02*
X0236288Y0320132D01*
X0235321Y0319165D01*
X0238267Y0319165D02*
X0238751Y0318681D01*
X0240202Y0318681D01*
X0240202Y0319648D02*
X0239718Y0320132D01*
X0238751Y0320132D01*
X0238267Y0319648D01*
X0238267Y0319165D01*
X0238267Y0317713D02*
X0238751Y0317230D01*
X0239718Y0317230D01*
X0240202Y0317713D01*
X0240202Y0319648D01*
X0241472Y0334185D02*
X0241472Y0335637D01*
X0241956Y0336120D01*
X0242439Y0336120D01*
X0242923Y0335637D01*
X0242923Y0334185D01*
X0244374Y0334185D02*
X0241472Y0334185D01*
X0242923Y0335637D02*
X0243407Y0336120D01*
X0243891Y0336120D01*
X0244374Y0335637D01*
X0244374Y0334185D01*
X0243891Y0337132D02*
X0244374Y0337616D01*
X0244374Y0338583D01*
X0243891Y0339067D01*
X0243407Y0339067D01*
X0242923Y0338583D01*
X0242923Y0337616D01*
X0242439Y0337132D01*
X0241956Y0337132D01*
X0241472Y0337616D01*
X0241472Y0338583D01*
X0241956Y0339067D01*
X0241956Y0340078D02*
X0242439Y0340078D01*
X0242923Y0340562D01*
X0242923Y0341530D01*
X0243407Y0342013D01*
X0243891Y0342013D01*
X0244374Y0341530D01*
X0244374Y0340562D01*
X0243891Y0340078D01*
X0241956Y0340078D02*
X0241472Y0340562D01*
X0241472Y0341530D01*
X0241956Y0342013D01*
X0242439Y0343025D02*
X0241472Y0343992D01*
X0244374Y0343992D01*
X0244374Y0343025D02*
X0244374Y0344960D01*
X0243891Y0345972D02*
X0244374Y0346455D01*
X0244374Y0347423D01*
X0243891Y0347906D01*
X0243407Y0347906D01*
X0242923Y0347423D01*
X0242923Y0346939D01*
X0242923Y0347423D02*
X0242439Y0347906D01*
X0241956Y0347906D01*
X0241472Y0347423D01*
X0241472Y0346455D01*
X0241956Y0345972D01*
X0241956Y0348918D02*
X0242439Y0348918D01*
X0242923Y0349402D01*
X0242923Y0350369D01*
X0243407Y0350853D01*
X0243891Y0350853D01*
X0244374Y0350369D01*
X0244374Y0349402D01*
X0243891Y0348918D01*
X0243407Y0348918D01*
X0242923Y0349402D01*
X0242923Y0350369D02*
X0242439Y0350853D01*
X0241956Y0350853D01*
X0241472Y0350369D01*
X0241472Y0349402D01*
X0241956Y0348918D01*
X0238001Y0350219D02*
X0236066Y0348284D01*
X0236066Y0347800D01*
X0235055Y0347800D02*
X0234087Y0348768D01*
X0233120Y0348284D02*
X0233120Y0350219D01*
X0233604Y0350703D01*
X0234571Y0350703D01*
X0235055Y0350219D01*
X0235055Y0348284D01*
X0234571Y0347800D01*
X0233604Y0347800D01*
X0233120Y0348284D01*
X0236066Y0350703D02*
X0238001Y0350703D01*
X0238001Y0350219D01*
X0216497Y0342419D02*
X0214562Y0342419D01*
X0214562Y0340967D01*
X0215529Y0341451D01*
X0216013Y0341451D01*
X0216497Y0340967D01*
X0216497Y0340000D01*
X0216013Y0339516D01*
X0215046Y0339516D01*
X0214562Y0340000D01*
X0213550Y0340000D02*
X0213066Y0339516D01*
X0212099Y0339516D01*
X0211615Y0340000D01*
X0211615Y0341935D01*
X0212099Y0342419D01*
X0213066Y0342419D01*
X0213550Y0341935D01*
X0213550Y0340000D01*
X0213550Y0339516D02*
X0212583Y0340484D01*
X0232837Y0218818D02*
X0233321Y0218818D01*
X0233805Y0218334D01*
X0233805Y0217366D01*
X0233321Y0216883D01*
X0232837Y0216883D01*
X0232354Y0217366D01*
X0232354Y0218334D01*
X0232837Y0218818D01*
X0233805Y0218334D02*
X0234289Y0218818D01*
X0234772Y0218818D01*
X0235256Y0218334D01*
X0235256Y0217366D01*
X0234772Y0216883D01*
X0234289Y0216883D01*
X0233805Y0217366D01*
X0234289Y0215871D02*
X0233805Y0215387D01*
X0233805Y0214904D01*
X0233805Y0215387D02*
X0233321Y0215871D01*
X0232837Y0215871D01*
X0232354Y0215387D01*
X0232354Y0214420D01*
X0232837Y0213936D01*
X0234772Y0213936D02*
X0235256Y0214420D01*
X0235256Y0215387D01*
X0234772Y0215871D01*
X0234289Y0215871D01*
X0235256Y0212925D02*
X0235256Y0210990D01*
X0235256Y0211957D02*
X0232354Y0211957D01*
X0233321Y0210990D01*
X0232837Y0209978D02*
X0232354Y0209494D01*
X0232354Y0208527D01*
X0232837Y0208043D01*
X0233321Y0208043D01*
X0233805Y0208527D01*
X0233805Y0209494D01*
X0234289Y0209978D01*
X0234772Y0209978D01*
X0235256Y0209494D01*
X0235256Y0208527D01*
X0234772Y0208043D01*
X0234772Y0207031D02*
X0235256Y0206548D01*
X0235256Y0205580D01*
X0234772Y0205097D01*
X0234772Y0204085D02*
X0235256Y0203601D01*
X0235256Y0202150D01*
X0232354Y0202150D01*
X0232354Y0203601D01*
X0232837Y0204085D01*
X0233321Y0204085D01*
X0233805Y0203601D01*
X0233805Y0202150D01*
X0233805Y0203601D02*
X0234289Y0204085D01*
X0234772Y0204085D01*
X0233321Y0205097D02*
X0233805Y0205580D01*
X0233805Y0206548D01*
X0234289Y0207031D01*
X0234772Y0207031D01*
X0232837Y0207031D02*
X0232354Y0206548D01*
X0232354Y0205580D01*
X0232837Y0205097D01*
X0233321Y0205097D01*
X0234510Y0193297D02*
X0233542Y0192329D01*
X0232531Y0191845D02*
X0232047Y0191362D01*
X0230596Y0191362D01*
X0231563Y0191362D02*
X0232531Y0190394D01*
X0233542Y0190394D02*
X0235477Y0190394D01*
X0234510Y0190394D02*
X0234510Y0193297D01*
X0236489Y0192813D02*
X0236489Y0192329D01*
X0236972Y0191845D01*
X0237940Y0191845D01*
X0238424Y0191362D01*
X0238424Y0190878D01*
X0237940Y0190394D01*
X0236972Y0190394D01*
X0236489Y0190878D01*
X0236489Y0191362D01*
X0236972Y0191845D01*
X0237940Y0191845D02*
X0238424Y0192329D01*
X0238424Y0192813D01*
X0237940Y0193297D01*
X0236972Y0193297D01*
X0236489Y0192813D01*
X0232531Y0192813D02*
X0232531Y0191845D01*
X0232531Y0192813D02*
X0232047Y0193297D01*
X0230596Y0193297D01*
X0230596Y0190394D01*
X0216028Y0206209D02*
X0214093Y0206209D01*
X0213610Y0206693D01*
X0213610Y0207660D01*
X0214093Y0208144D01*
X0216028Y0208144D01*
X0216512Y0207660D01*
X0216512Y0206693D01*
X0216028Y0206209D01*
X0215545Y0207177D02*
X0216512Y0208144D01*
X0216028Y0209156D02*
X0216512Y0209639D01*
X0216512Y0210607D01*
X0216028Y0211091D01*
X0215545Y0211091D01*
X0215061Y0210607D01*
X0215061Y0209156D01*
X0216028Y0209156D01*
X0215061Y0209156D02*
X0214093Y0210123D01*
X0213610Y0211091D01*
M02*
